<?xml version="1.0" encoding="utf-8"?>
<!-- Generator: Adobe Illustrator 25.2.1, SVG Export Plug-In . SVG Version: 6.00 Build 0)  -->
<svg version="1.1" id="Layer_1" xmlns="http://www.w3.org/2000/svg" xmlns:xlink="http://www.w3.org/1999/xlink" x="0px" y="0px"
	 viewBox="0 0 2080 780.6" style="enable-background:new 0 0 2080 780.6;" xml:space="preserve">
<style type="text/css">
	.st0{opacity:0.4;}
	.st1{fill:#FBE8D8;}
	.st2{fill:none;stroke:#FF00FF;stroke-width:2;stroke-miterlimit:10;}
	.st3{fill:#E0E0E0;}
	.st4{fill:#CACACA;}
	.st5{fill:#D3D3D3;}
	.st6{fill:#EDEDED;}
</style>
<g class="st0">
	<g id="Layer_6">
		<polygon class="st1" points="1326.8,268.2 1290.4,260.8 1266.6,266.6 1229.9,269.8 1208.3,280.7 1186.3,273.4 1134.2,260.8 
			1115.1,260.8 1092.9,273.4 1135.6,298.1 1242.4,313.9 1286.2,310.4 1290.4,294.8 1322.1,290.3 1337.8,281.8 1353.4,273.4 		"/>
		<polygon class="st1" points="1898.2,326.6 1880.8,321.9 1869.5,325.6 1851.9,327.6 1841.7,334.5 1831.2,329.9 1806.3,321.9 
			1797.2,321.9 1786.6,329.9 1807,345.4 1857.9,355.4 1878.8,353.2 1880.8,343.3 1895.9,340.5 1903.4,335.2 1910.8,329.9 		"/>
		<polygon class="st1" points="772.6,239.5 745,231.3 727.1,237.8 699.2,241.2 683,253.4 666.3,245.3 626.9,231.3 612.4,231.3 
			595.6,245.3 627.9,272.7 708.7,290.4 741.8,286.5 745,269.1 769.1,264.1 780.9,254.7 792.7,245.3 		"/>
		<polygon class="st1" points="1759.4,529.4 1739.3,521.7 1726.1,527.7 1705.8,531 1693.9,542.3 1681.7,534.8 1652.9,521.7 
			1642.4,521.7 1630.1,534.8 1653.7,560.3 1712.7,576.7 1736.9,573.1 1739.3,556.9 1756.8,552.2 1765.5,543.5 1774.1,534.8 		"/>
		<polygon class="st1" points="75.1,357.8 111.5,365.2 135.3,359.4 172,356.2 193.6,345.3 215.6,352.6 267.7,365.2 286.7,365.2 
			309,352.6 266.3,328 159.5,312.1 115.7,315.6 111.5,331.2 79.8,335.7 64.1,344.2 48.5,352.6 		"/>
	</g>
	<g id="Mids">
		<line class="st2" x1="1767.6" y1="636.6" x2="1767.6" y2="779.1"/>
		<polyline class="st3" points="1767.6,636.6 1864.8,695 1912.7,695 2000.7,746.6 2049.5,751.4 2078.5,779.1 -1.5,779.1 -1.5,487.4 
			10.1,473.1 17.8,468.2 29.3,467.1 44.1,457.7 58.4,447.3 67.2,445.7 75.5,435.2 101.3,423.7 106.5,415 111.6,409.5 120.3,415.4 
			131.4,411.1 151,406.8 168.9,406.8 181.2,401.3 187.9,397 207.6,397 219.3,392.1 228.5,388.8 247.5,382.9 255.5,369.3 
			267.8,359.5 267.8,352.1 281.3,339.2 291.8,331.9 305.9,319.6 310.8,309.1 321.9,309.1 329.2,293.1 344,282.1 360,267.3 
			378.4,260 394.4,260 406.7,252 420.8,246.4 430.6,249.5 438.6,257.5 455.8,267.3 471.2,272.9 479.2,273.5 485.5,266.2 489,255.2 
			498.4,246.4 510.6,241.3 516.5,236.1 528.3,226 538.1,210.9 541.5,201.8 554.6,193.4 563.2,193.4 575.4,199.5 582.5,208.7 
			587.1,214.3 592.2,215.3 591.8,212.2 594.4,208.8 599,203.9 608.9,193.4 617.9,193.4 631.4,205.1 642.3,212.3 665.4,229.5 
			676.1,237.2 688,246.4 700,260 712.2,271.2 725.6,285.2 738.1,290.6 746.3,299.7 759,313.2 771.7,328.7 781.9,337.2 790.5,347.8 
			806.8,350.8 816.4,355.1 823.1,357.7 830.2,358.2 845.4,374.3 856.6,377 868.8,378.9 885.7,377 908.1,377 928.3,371.1 
			937.8,371.1 947.3,363.9 956.3,361 977.7,353.8 991.4,350.8 999.9,349.1 1007.8,357.3 1023.5,369.3 1038.5,376.7 1048.8,386.3 
			1062.5,392.5 1077.1,402.9 1088.3,412.6 1106.2,419.6 1128,439.5 1133.5,445.4 1143.9,452.8 1158.8,455 1171.1,454.3 1176.5,448 
			1191.7,440.8 1206.9,440.8 1223.1,447 1242.3,454.5 1260,456.5 1279.2,456.5 1294.3,459.5 1308,459.5 1326.7,471.6 1340,475.3 
			1353.8,482.4 1370.4,495.7 1389.6,509.8 1408.7,506 1420,511 1432.7,502.5 1449.7,506.7 1462.5,502.5 1479.4,502.5 1497.1,511 
			1506.3,521.2 1521.1,531.5 1529.7,553.7 1539.6,567.6 1552.3,579.6 1566.5,579.6 1575.7,579.6 1589.1,590.9 1604,604 
			1618.9,610.3 1641.3,616.4 1659.2,616.4 1691.8,628.4 1705.2,635.5 1727.1,635.5 1744.3,635.5 1767.6,636.6 		"/>
	</g>
	<g id="Shadows_Dark">
		<polygon class="st4" points="-1.5,779.1 -1.5,644.7 5.4,647 14.1,645.6 26.9,642.9 43.3,650.1 53.4,665.2 69.4,668.9 85.8,652.9 
			85.8,665.2 96.8,670.3 113.7,666.6 133.3,687.2 140.2,668 150.7,657.5 150.7,640.6 155.7,618.2 164.4,629.6 176.3,644.7 
			182.2,654.7 178.8,679.4 189.5,702.2 205.5,707.3 204.6,686.7 219.2,671.6 234.3,689 248,689 251.2,666.2 234.7,646.5 
			219.7,630.1 215.5,617.7 211,599 203.2,588.5 196.8,580.7 193.6,570.2 189.5,558.3 195.4,554.7 195.4,531.5 204.1,523.2 
			212.3,523.2 219.7,521.2 227.9,527.5 231.5,542.3 238.4,542.3 232.9,549.2 224.7,559.7 229.7,563.8 230.2,576.2 227,588.9 
			227,607.7 239.3,593.5 248.4,578.9 259.4,574.3 269.5,572.5 229.7,507.6 291.4,574.8 306.5,590.8 320.6,609 329.3,609 
			336.2,611.3 348,629.1 357.6,636.9 362.2,633.5 367.2,640.1 371.8,648.3 387.3,661.6 406.4,677.6 412.9,681.7 419,682.9 
			422,700.4 432.1,708.2 454.9,717.8 469.6,717.8 481.9,724.2 491.9,718.2 502.2,712.1 512.9,703.1 523,691.8 530.2,687.7 
			537.9,674 546.2,676.4 556.4,681.7 566.5,682.3 576,672.2 584.9,659.7 595.6,660.9 608.7,660.3 614.7,653.8 623,649.6 
			634.9,638.3 656.3,633.5 662.9,641.3 683.1,656.1 692.6,654.3 706.9,650.2 721.2,650.2 729.5,661.5 742.6,664.5 749.8,677 
			768.2,694.8 784.8,700.9 798.9,690.4 812.2,678.5 818.6,686.3 826.4,689.9 836.4,684.9 848.7,677.6 856,683.5 865.2,677.1 
			874.3,681.2 883,679.9 889.9,670.7 899,669.3 903.6,679.9 909.5,681.7 912.7,697.2 922.7,707.3 927.3,712.1 937.4,712.1 
			945.6,717.8 959.8,724.6 973.9,728.7 982.6,721 988.5,716.4 1003.6,714.1 1019.3,701.8 1025.1,692.2 1040.6,671.2 1051.1,667.1 
			1062.5,666.2 1070.3,670.7 1079.3,676.2 1085.4,669.3 1095.4,662.9 1106.9,667.2 1120.2,673 1132,681.2 1143.9,689 1155.7,689 
			1165.8,678 1171.1,667.2 1182.4,671.4 1190,675.8 1197.2,685.7 1201.5,692.8 1210.9,695 1219.6,686.8 1224,695 1229.5,704.3 
			1235,715.8 1245.4,722.4 1251.4,734.4 1259.6,742.1 1272.8,745.9 1285.4,745.9 1294.1,736.6 1301.2,733.3 1305.1,739.9 
			1312.2,745.9 1320.4,747 1328.1,752 1337.2,742.1 1361,754.7 1368.6,765.7 1384.3,779.1 1409.1,753.4 1409.1,730.7 1416.4,722.7 
			1423.7,707.4 1430.3,719.1 1430.3,736.6 1433.9,751.9 1444.1,762.9 1449,767.1 1457.3,779.1 		"/>
		<polygon class="st4" points="133.4,609.5 136.2,594.3 123.3,575.6 128.1,558.6 120.3,543.6 122.9,531.5 130.5,527.5 130.5,507.6 
			116.2,513.5 112.8,536.5 101.7,531.5 95.2,546 82.3,558.4 92.3,569.4 92.3,582.8 95.6,596.6 104.7,609.5 116.2,609.5 		"/>
		<polygon class="st4" points="1835.2,675.8 1864.8,695 1912.7,695 1953.8,718.9 2000.7,746.6 2049.5,751.4 2078.5,779.1 
			1618.9,779.1 1642.9,753.3 1662,733.2 1675.4,712.1 1688.8,687.3 1695.5,669.1 1708.9,662.9 1718.4,656.7 1729.9,643.3 
			1744.3,635.5 1767.6,636.6 		"/>
	</g>
	<g id="Shadows_Light">
		<polygon class="st5" points="131.4,411.1 151,406.8 168.9,406.8 181.2,401.3 187.9,397 207.6,397 219.3,392.1 228.5,388.8 
			247.5,382.9 255.5,369.3 267.8,359.5 267.8,352.1 281.3,339.2 291.8,331.9 305.9,319.6 310.8,309.1 321.9,309.1 329.2,293.1 
			344,282.1 360,267.3 378.4,260 394.4,260 406.7,252 420.8,246.4 430.6,249.5 438.6,257.5 455.8,267.3 471.2,272.9 479.2,273.5 
			471.8,286.4 463.8,298.1 452.8,306.7 444.8,316.5 430,326.3 414.7,332.5 403.6,339.8 398.1,348.4 392.5,354.6 378.4,362 
			368,363.2 363,373 357.5,380.4 348.9,388.8 335.4,395.8 325.6,400.1 319.4,401.9 310.8,405 299.1,414.8 297.9,430.2 291.1,433.9 
			277.6,440.6 271.5,454.1 264.1,460.9 253.7,475 243.2,482.4 238.8,488.9 229.7,507.6 218.6,494.7 203.3,483 189.1,466.4 
			175.6,462.1 163.3,451.1 151,445.5 140.6,444.3 133.8,438.2 132,426.5 120.3,415.4 		"/>
		<polygon class="st5" points="75.5,435.2 67.2,445.7 58.4,447.3 44.1,457.7 29.3,467.1 17.8,468.2 10.1,473.1 -1.5,487.4 
			-1.5,527.5 12.3,507.6 22.7,500.6 39.8,485.8 54.6,474.8 65,463.8 76.6,458.3 83.7,445.1 89.7,437.4 96.9,429.7 101.3,423.7 		"/>
		<polygon class="st5" points="971.7,500.2 959.2,507.6 940.8,516.3 928.3,528.8 918.8,534.1 906.9,538.3 897.9,543.1 889,543.7 
			875.3,553.8 861.6,552 872.4,545.4 877.7,534.1 883,523.2 892,510.9 900.3,502 902.7,487.1 906.9,471.1 912.2,459.2 918.2,453.2 
			929.5,445.5 935.4,443.7 940.2,429.4 943.2,416.9 945,405.6 958,394.3 962.8,388.8 968.2,373.5 977.7,369.3 986.6,361 
			991.4,350.8 977.7,353.8 965.2,358 956.3,361 947.3,363.9 937.8,371.1 928.3,371.1 908.1,377 898.5,384.2 883,400.8 873.5,411.5 
			870.6,421.1 870.6,435.4 846.8,450.8 834.3,455.6 823,462.1 812.3,475.8 806.9,492.5 808.7,500.8 801.5,507.6 784.3,525.8 
			782.5,536.5 770.6,552.6 760.5,563.3 753.3,571 739.1,572.2 724.2,575.2 714.1,575.2 701.3,584.7 689.7,592.5 673.6,593.1 
			663.5,600.8 643.8,613.9 633.7,618.6 617.7,621.6 592.1,621 581.9,619.8 567.7,626.4 555.8,633.5 542.7,635.3 528.4,640.7 
			520.7,646 511.1,646.6 503.4,652.6 479.2,659.7 458.8,661.5 444.5,663.3 426.6,663.3 406.4,677.6 412.9,681.7 425.4,684.1 
			439.1,682.3 449.2,682.3 468.3,685.9 487.3,692.4 496.8,712.1 502.2,712.1 512.9,703.1 523,691.8 530.2,687.7 537.9,674 
			546.2,676.4 556.4,681.7 566.5,682.3 576,672.2 584.9,659.7 595.6,660.9 608.7,660.3 614.7,653.8 623,649.6 634.9,638.3 
			648,634.7 656.3,633.5 662.9,641.3 683.1,656.1 692.6,654.3 706.9,650.2 721.2,650.2 729.5,661.5 742.6,664.5 749.8,677 
			768.2,694.8 773,686.5 782.5,675.2 789,668.6 796.8,654.9 802.1,645.4 802.1,638.3 805.1,629.4 813.4,621.6 828.9,612.7 
			839.6,609.1 849.1,600.2 861,591.3 874.1,591.3 887.8,591.3 896.2,587.1 906.3,578.2 912.2,572.2 917.6,568.7 923.5,561.5 
			928.9,552.6 936,544.3 948.5,544.3 957.5,534.1 968.2,529.4 974.1,520.4 984.8,513.9 992.6,505.6 996.1,495.5 		"/>
		<polygon class="st5" points="641.8,280.7 626.8,281.1 618.3,276.5 609.9,273.6 601.9,282.5 599.1,289.6 586.5,294.7 579.4,291 
			581.3,282.5 583.7,273.6 589.3,269 594.4,261.9 602.4,252.1 609.9,241.3 594.4,251.1 584.6,258.6 576.2,269.4 563.5,281.6 
			563.5,291.9 556.9,306 547.1,315.8 549,326.6 541.5,341.1 546.2,347.2 553.7,352.8 559.8,364.1 563,373.5 574.3,377 585.5,385.2 
			587.9,377 592.1,366.9 596.8,358.5 600.1,350.8 602.9,342.1 607.1,332.2 611.8,325.7 615.5,316.8 620.7,307.4 625.8,298.5 
			631.5,292.9 639.9,287.7 647.4,281.6 		"/>
		<polygon class="st5" points="516.5,236.1 510.6,241.3 498.4,246.4 499.3,255.5 498.4,265.6 492.9,277.4 495.9,288.4 501.4,275.3 
			506,272 512.3,264 516.1,255.1 520.3,246.4 523.7,241.3 523.7,232.4 528.3,226 		"/>
		<polygon class="st5" points="1368.6,765.7 1361,754.7 1349.5,749.2 1337.2,742.1 1328.1,752 1320.4,747 1312.2,745.9 
			1305.1,739.9 1301.2,733.3 1294.1,736.6 1285.4,745.9 1272.8,745.9 1259.6,742.1 1251.4,734.4 1245.4,722.4 1235,715.8 
			1229.5,704.3 1224,695 1219.6,686.8 1210.9,695 1201.5,692.8 1197.2,685.7 1190,675.8 1182.4,671.4 1171.1,667.2 1174.7,643.9 
			1185.7,640.2 1196.6,638 1206.8,625.6 1217.8,613.2 1232.4,597.9 1239.7,608.8 1247,608.8 1260.9,613.9 1275.5,626.3 
			1286.4,625.6 1292.3,613.9 1304,599.3 1317.8,594.9 1327.3,586.9 1338.3,578.1 1344.1,571.6 1351.4,559.9 1358.7,545.3 
			1372.6,551.9 1380.6,543.8 1409.1,526.3 1406.9,535.8 1398.9,554 1411.3,554 1423.7,554 1402.5,569.4 1412.7,574.5 1432.5,573.8 
			1443.8,569.4 1469.7,569.4 1459.5,579.6 1443.8,598.6 1448.5,612.5 1456.6,597.9 1480.7,582.5 1495.3,586.9 1503.3,598.6 
			1488.7,598.6 1488.7,608.8 1477.7,608.8 1466.8,614.7 1460.2,643.9 1469,640.2 1484.3,633.6 1476.3,643.1 1462.4,654.8 
			1454.4,669.4 1450,684.7 1450,701.5 1450,716.9 1450,728.6 1450,743.2 1444.1,762.9 1433.9,751.9 1430.3,736.6 1430.3,719.1 
			1423.7,707.4 1416.4,722.7 1409.1,730.7 1409.1,740.2 1409.1,753.4 1384.3,779.1 		"/>
		<path class="st5" d="M977.7,369.3"/>
		<polygon class="st5" points="1021.4,385.1 1026.5,385.1 1026.5,396.6 1034.4,391.5 1026.5,402.4 1020.7,414.2 1020.7,417.8 
			1012.8,427.2 1007.4,434.1 1007.4,444.5 1000.9,451 994.4,447.8 990.5,441.6 985.8,436.2 992.6,430.5 994.4,422.9 989.7,415.7 
			989.7,408.1 996.1,403.1 1008.1,400.2 1013.2,395.9 1013.2,384.7 1017.8,377.9 1022.9,374.3 		"/>
		<polygon class="st5" points="1133.5,445.4 1128,439.5 1121,438 1111,438 1101.7,441.4 1096.9,449.1 1084.7,451 1079.2,464.6 
			1073.6,474.6 1069.6,482.8 1069.6,498.3 1069.6,509 1060.3,519.7 1050,523.2 1040.7,531.5 1040.7,540.4 1036.3,554.5 
			1034.4,564.1 1030,580.4 1026.3,589.6 1026.3,599.2 1019.3,611.8 1019.3,626.2 1019.3,635.5 1023.3,632.9 1028.1,626.2 
			1034.4,611.8 1043.3,601.8 1050,591.8 1057.4,584.8 1065.9,571.9 1070.7,567.1 1075.5,552.6 1076.6,542.7 1073.3,531.5 
			1077.7,526.3 1084.7,531.5 1095.1,538.6 1095.1,529 1099.5,520.9 1102.1,507.2 1105.1,499.8 1111.7,496.4 1118.4,488.3 
			1125.4,483.1 1128,478 1134.6,467.2 1139.4,462.1 1143.9,452.8 		"/>
		<polygon class="st5" points="433.9,541.5 437.2,526.1 443.7,513.4 443.7,501.3 452.2,484.4 469,475.6 485.4,456.9 455,469.5 
			446.1,477.9 432.5,484 420.8,489.6 412.4,498.9 412.4,507.6 408.7,519 404,531.5 397.9,549.9 397.9,567.2 397.9,585.4 408.7,577 
			415.7,570 423.6,561.6 426.9,555.5 		"/>
		<polygon class="st5" points="308.1,513.5 305.7,523.2 305.3,531.5 302.9,541.5 299.8,558 296.9,574 316.5,590.8 316.5,585.4 
			320.1,574.4 320.1,559.2 332.9,549.6 339.3,531.5 330.9,524.7 326.5,516.3 330.9,507.6 		"/>
		<polygon class="st5" points="693.3,309.6 682.3,317.6 670.3,332.9 679.7,347.8 684.8,336.3 688.6,326.6 699.3,317.2 701.3,313.2 
			705.6,309.6 		"/>
		<polygon class="st5" points="634,337.2 634,347.8 627.8,367.8 625.7,377 628.7,388.8 640.6,394.1 640.6,385.2 642.3,374.6 
			642.3,356.3 		"/>
		<polygon class="st5" points="709.9,429.8 705.6,444.7 694.2,454.5 694.2,467.3 703.5,473.2 708.6,464.7 712.9,451.5 719.2,444.7 
			719.2,430.3 725.6,416.2 		"/>
		<polygon class="st5" points="1240,502.3 1236,493.6 1228.1,503.9 1217.8,520.5 1204,531.5 1198,545.4 1194.1,562.4 1191.7,584.6 
			1199.2,576.3 1209.1,558.1 1213.1,545 1226.5,526.3 1234.4,517 		"/>
		<polyline class="st5" points="1205.7,495.7 1191.7,500.4 1190.5,511 1190.5,523.2 1195.3,526.3 1201.2,520.1 1205.7,511.9 
			1205.7,495.7 		"/>
		<polygon class="st5" points="1126.1,535.1 1119,545.4 1116.6,561.6 1120.9,572.3 1122.5,564.4 1129.6,548.6 1135.6,535.1 		"/>
		<polygon class="st5" points="1096.8,626.2 1081.6,630.3 1069.9,635.5 1068.4,625.3 1065.6,610.3 1054.9,610.3 1058.9,620.2 
			1058.9,637.9 1038.5,662.9 1049.8,656.1 1070.3,648.2 1088.9,641.1 1099.6,639.5 1108.3,635.5 1112.6,628.5 1120.2,617.8 		"/>
		<polygon class="st5" points="594.4,208.8 591.8,212.2 592.2,215.3 603.4,219.9 609,210.2 618.4,211.3 622.5,210.1 618.1,202.8 
			613.5,201.8 606.6,204.8 599,203.9 		"/>
		<polygon class="st5" points="639.9,480.3 630.9,467.5 614.2,480.3 619.2,489.2 620.9,502.1 614.7,512.7 610.3,531.5 610.8,549.2 
			604.1,563 604.1,580.3 612,574.7 618.1,571.9 625.7,555.2 629.8,539 629.8,523.2 642.3,513.8 647.4,501.5 647.4,489.2 		"/>
		<polygon class="st5" points="554.6,503.2 549.9,523.2 541.5,545.1 530.4,556.8 527,576.4 515.9,590.8 503.6,598.2 508.1,618.3 
			519.2,606.6 531.5,590.8 544.9,569.7 544.9,555.2 551.6,539.5 560.6,528.4 560.6,516.6 566.7,500.4 566.7,486.5 		"/>
		<polygon class="st5" points="1688.8,687.3 1691.8,679.1 1684.4,669 1668.3,666.5 1659.1,662.9 1646.2,662.9 1641.3,679.4 
			1647.4,685.5 1660.3,695.4 1673.8,695.4 1684.4,695.4 		"/>
		<polygon class="st5" points="1521.1,607.3 1512.8,622.5 1506.3,635.5 1519.7,640.9 1525.1,633 1533.4,625.4 1533.4,612.3 
			1536,604 		"/>
	</g>
	<g id="Highlights">
		<g>
			<polygon class="st6" points="617.9,193.4 608.9,193.4 599,203.9 606.6,204.8 613.5,201.8 618.1,202.8 622.5,210.1 618.4,211.3 
				609,210.2 603.4,219.9 592.2,215.3 587.1,214.3 582.5,208.7 575.4,199.5 563.2,193.4 554.6,193.4 558.6,199.5 565.3,206.2 
				571.9,212.8 577,216.8 581,229 589.2,229 594.4,236.7 609.9,241.3 618.6,252.9 628.3,265.1 634,273.8 651.7,270.2 665.4,279.4 
				684.2,293.1 701.3,303.8 705.6,309.6 719.3,319.5 737.6,328.7 750.9,343.9 759,350.8 780.3,362.8 794.6,369.3 814.4,369.3 
				830.2,377 845.4,374.3 830.2,358.2 823.1,357.7 816.4,355.1 806.8,350.8 790.5,347.8 781.9,337.2 771.7,328.7 759,313.2 
				746.3,299.7 738.1,290.6 725.6,285.2 712.2,271.2 700,260 688,246.4 676.1,237.2 665.4,229.5 642.3,212.3 631.4,205.1 			"/>
			<polygon class="st6" points="1088.3,412.6 1077.1,402.9 1062.5,392.5 1048.8,386.3 1038.5,376.7 1034.4,382.5 1034.4,391.5 
				1043.8,401.7 1052.1,406.2 1062.9,412.6 1070.4,417.5 1081.6,419.6 1106.2,419.6 			"/>
			<polygon class="st6" points="1223.1,447 1206.9,440.8 1206.1,451 1204,462.8 1205.7,473.6 1205.7,495.7 1210.6,490.7 1214,475.7 
				1219.8,470.7 1219.8,460.7 1224.8,457.4 1233.9,457.4 1242.3,454.5 			"/>
			<polygon class="st6" points="1370.4,495.7 1353.8,482.4 1340,475.3 1326.7,471.6 1308,459.5 1294.3,459.5 1293.4,472 
				1290.5,482.8 1298.9,488.2 1308.4,493.6 1321.3,493.6 1331.7,499 1347.5,502.4 1359.6,509.8 1375.4,511.9 1389.6,509.8 			"/>
			<polygon class="st6" points="175.6,462.1 163.3,451.1 151,445.5 140.6,444.3 133.8,438.2 132,426.5 120.3,415.4 112.9,430.2 
				106.8,445.5 105.1,455.7 120.3,452.9 101.7,465.5 91.2,481.1 86.1,488.2 77.6,496.2 60,501.5 39.3,516.4 24.7,524.9 29.1,527.5 
				40.3,529.3 46.4,523.2 56.6,521.2 63,527.5 77.3,529.3 89.8,525.6 109.9,514 120.3,505.5 138,503.5 146.5,507.6 156.4,496.4 
				160.1,483.8 160.1,468.9 174.7,468.9 178.8,463.1 			"/>
			<polygon class="st6" points="528.3,370.4 528.3,347.8 535.1,337.2 535.1,321.6 523.1,315.6 510.6,322.1 496.6,328.7 479.2,321.2 
				470.2,315.1 463.8,298.1 452.8,306.7 444.8,316.5 430,326.3 414.7,332.5 403.6,339.8 392.5,354.6 378.4,362 368,363.2 363,373 
				357.5,380.4 348.9,388.8 325.6,400.1 328.2,413.5 337,422.8 359.7,423.7 385.2,429.3 402.9,428.4 428.4,434.9 441.6,434.9 
				452.1,429.3 460,415.4 472,406.1 485.4,398.7 499.9,388.8 521.2,381 			"/>
			<polygon class="st6" points="315.9,460.9 325.6,441.6 325.6,427.7 318.1,410.5 310.8,405 299.1,414.8 297.9,430.2 291.1,433.9 
				277.6,440.6 271.5,454.1 264.1,460.9 274,467.5 285.3,473.2 294.9,473.2 311.6,486.5 			"/>
			<polygon class="st6" points="788.4,366.5 782.3,370.1 771.6,385.2 759.9,377 762.8,369.1 769.7,362.8 773.9,359.2 			"/>
			<polygon class="st6" points="814.4,369.3 808.6,383.6 808.6,397.9 797.9,388.8 801.8,377 808.6,369.3 			"/>
		</g>
	</g>
</g>
</svg>
