<?xml version="1.0" encoding="utf-8"?>
<!-- Generator: Adobe Illustrator 25.0.0, SVG Export Plug-In . SVG Version: 6.00 Build 0)  -->
<svg version="1.1" xmlns="http://www.w3.org/2000/svg" xmlns:xlink="http://www.w3.org/1999/xlink" x="0px" y="0px"
	 viewBox="0 0 2080 780.6" style="enable-background:new 0 0 2080 780.6;" xml:space="preserve">
<style type="text/css">
	.st0{fill:#FBE8D8;}
	.st1{fill:none;stroke:#FF00FF;stroke-width:2;stroke-miterlimit:10;}
	.st2{fill:#E0E0E0;}
	.st3{fill:#CACACA;}
	.st4{fill:#D3D3D3;}
	.st5{fill:#EDEDED;enable-background:new    ;}
</style>
<g id="Layer_6">
	<polygon class="st0" points="725.1,274.9 740.7,283.3 756.4,291.8 788.1,296.3 792.3,311.9 836.1,315.4 942.9,299.6 985.6,274.9 
		963.4,262.3 944.3,262.3 892.2,274.9 870.2,282.2 848.6,271.3 811.9,268.1 788.1,262.3 751.7,269.7 	"/>
	<polygon class="st0" points="167.7,331.4 175.1,336.7 182.6,342 197.7,344.8 199.7,354.7 220.6,356.9 271.5,346.9 291.9,331.4 
		281.3,323.4 272.2,323.4 247.3,331.4 236.8,336 226.6,329.1 209,327.1 197.7,323.4 180.3,328.1 	"/>
	<polygon class="st0" points="1285.8,246.8 1297.6,256.2 1309.4,265.6 1333.5,270.6 1336.7,288 1369.8,291.9 1450.6,274.2 
		1482.9,246.8 1466.1,232.8 1451.6,232.8 1412.2,246.8 1395.5,254.9 1379.3,242.7 1351.4,239.3 1333.5,232.8 1305.9,241 	"/>
	<polygon class="st0" points="304.4,536.3 313,545 321.7,553.7 339.2,558.4 341.6,574.6 365.8,578.2 424.8,561.8 448.4,536.3 
		436.1,523.2 425.6,523.2 396.8,536.3 384.6,543.8 372.7,532.5 352.4,529.2 339.2,523.2 319.1,530.9 	"/>
	<polygon class="st0" points="2030,354.1 2014.4,345.7 1998.7,337.2 1967,332.7 1962.8,317.1 1919,313.6 1812.2,329.5 1769.5,354.1 
		1791.8,366.7 1810.8,366.7 1862.9,354.1 1884.9,346.8 1906.5,357.7 1943.2,360.9 1967,366.7 2003.4,359.3 	"/>
</g>
<g id="Mids">
	<line class="st1" x1="310.9" y1="780.6" x2="310.9" y2="638.1"/>
	<polyline class="st2" points="310.9,638.1 334.2,637 351.4,637 373.3,637 386.7,629.9 419.3,617.9 437.2,617.9 459.6,611.8 
		474.5,605.5 489.4,592.4 502.8,581.1 512,581.1 526.2,581.1 538.9,569.1 548.8,555.2 557.4,533 572.2,522.7 581.4,512.5 599.1,504 
		616,504 628.8,508.2 645.8,504 658.5,512.5 669.8,507.5 688.9,511.3 708.1,497.2 724.7,483.9 738.5,476.8 751.8,473.1 770.5,461 
		784.2,461 799.3,458 818.5,458 836.2,456 855.4,448.5 871.6,442.3 886.8,442.3 902,449.5 907.4,455.8 919.7,456.5 934.6,454.3 
		945,446.9 950.5,441 972.3,421.1 990.2,414.1 1001.4,404.4 1016,394 1029.7,387.8 1040,378.2 1055,370.8 1070.7,358.8 
		1078.6,350.6 1087.1,352.3 1100.8,355.3 1122.2,362.5 1131.2,365.4 1140.7,372.6 1150.2,372.6 1170.4,378.5 1192.8,378.5 
		1209.7,380.4 1221.9,378.5 1233.1,375.8 1248.3,359.7 1255.4,359.2 1262.1,356.6 1271.7,352.3 1288,349.3 1296.6,338.7 
		1306.8,330.2 1319.5,314.7 1332.2,301.2 1340.4,292.1 1352.9,286.7 1366.3,272.7 1378.5,261.5 1390.5,247.9 1402.4,238.7 
		1413.1,231 1436.2,213.8 1447.1,206.6 1460.6,194.9 1469.6,194.9 1479.5,205.4 1484.1,210.3 1486.7,213.7 1486.3,216.8 
		1491.4,215.8 1496,210.2 1503.1,201 1515.3,194.9 1523.9,194.9 1537,203.3 1540.4,212.4 1550.2,227.5 1562,237.6 1567.9,242.8 
		1580.1,247.9 1589.5,256.7 1593,267.7 1599.3,275 1607.3,274.4 1622.7,268.8 1639.9,259 1647.9,251 1657.7,247.9 1671.8,253.5 
		1684.1,261.5 1700.1,261.5 1718.5,268.8 1734.5,283.6 1749.3,294.6 1756.6,310.6 1767.7,310.6 1772.6,321.1 1786.7,333.4 
		1797.2,340.7 1810.7,353.6 1810.7,361 1823,370.8 1831,384.4 1850,390.3 1859.2,393.6 1870.9,398.5 1890.6,398.5 1897.3,402.8 
		1909.6,408.3 1927.5,408.3 1947.1,412.6 1958.2,416.9 1966.9,411 1972,416.5 1977.2,425.2 2003,436.7 2011.3,447.2 2020.1,448.8 
		2034.4,459.2 2049.2,468.6 2060.7,469.7 2068.4,474.6 2080,488.9 2080,780.6 0,780.6 29,752.9 77.8,748.1 165.8,696.5 213.7,696.5 
		310.9,638.1 	"/>
</g>
<g id="Shadows_Dark">
	<polygon class="st3" points="621.2,780.6 629.5,768.6 634.4,764.4 644.6,753.4 648.2,738.1 648.2,720.6 654.8,708.9 662.1,724.2 
		669.4,732.2 669.4,754.9 694.2,780.6 709.9,767.2 717.5,756.2 741.3,743.6 750.4,753.5 758.1,748.5 766.3,747.4 773.4,741.4 
		777.3,734.8 784.4,738.1 793.1,747.4 805.7,747.4 818.9,743.6 827.1,735.9 833.1,723.9 843.5,717.3 849,705.8 854.5,696.5 
		858.9,688.3 867.6,696.5 877,694.3 881.3,687.2 888.5,677.3 896.1,672.9 907.4,668.7 912.7,679.5 922.8,690.5 934.6,690.5 
		946.5,682.7 958.3,674.5 971.6,668.7 983.1,664.4 993.1,670.8 999.2,677.7 1008.2,672.2 1016,667.7 1027.4,668.6 1037.9,672.7 
		1053.4,693.7 1059.2,703.3 1074.9,715.6 1090,717.9 1095.9,722.5 1104.6,730.2 1118.7,726.1 1132.9,719.3 1141.1,713.6 
		1151.2,713.6 1155.8,708.8 1165.8,698.7 1169,683.2 1174.9,681.4 1179.5,670.8 1188.6,672.2 1195.5,681.4 1204.2,682.7 
		1213.3,678.6 1222.5,685 1229.8,679.1 1242.1,686.4 1252.1,691.4 1259.9,687.8 1266.3,680 1279.6,691.9 1293.7,702.4 1310.3,696.3 
		1328.7,678.5 1335.9,666 1349,663 1357.3,651.7 1371.6,651.7 1385.9,655.8 1395.4,657.6 1415.6,642.8 1422.2,635 1443.6,639.8 
		1455.5,651.1 1463.8,655.3 1469.8,661.8 1482.9,662.4 1493.6,661.2 1502.5,673.7 1512,683.8 1522.1,683.2 1532.3,677.9 
		1540.6,675.5 1548.3,689.2 1555.5,693.3 1565.6,704.6 1576.3,713.6 1586.6,719.7 1596.6,725.7 1608.9,719.3 1623.6,719.3 
		1646.4,709.7 1656.5,701.9 1659.5,684.4 1665.6,683.2 1672.1,679.1 1691.2,663.1 1706.7,649.8 1711.3,641.6 1716.3,635 
		1720.9,638.4 1730.5,630.6 1742.3,612.8 1749.2,610.5 1757.9,610.5 1772,592.3 1787.1,576.3 1848.8,509.1 1809,574 1819.1,575.8 
		1830.1,580.4 1839.2,595 1851.5,609.2 1851.5,590.4 1848.3,577.7 1848.8,565.3 1853.8,561.2 1845.6,550.7 1840.1,543.8 1847,543.8 
		1850.6,529 1858.8,522.7 1866.2,524.7 1874.4,524.7 1883.1,533 1883.1,556.2 1889,559.8 1884.9,571.7 1881.7,582.2 1875.3,590 
		1867.5,600.5 1863,619.2 1858.8,631.6 1843.8,648 1827.3,667.7 1830.5,690.5 1844.2,690.5 1859.3,673.1 1873.9,688.2 1873,708.8 
		1889,703.7 1899.7,680.9 1896.3,656.2 1902.2,646.2 1914.1,631.1 1922.8,619.7 1927.8,642.1 1927.8,659 1938.3,669.5 1945.2,688.7 
		1964.8,668.1 1981.7,671.8 1992.7,666.7 1992.7,654.4 2009.1,670.4 2025.1,666.7 2035.2,651.6 2051.6,644.4 2064.4,647.1 
		2073.1,648.5 2080,646.2 2080,780.6 	"/>
	<polygon class="st3" points="1962.3,611 1973.8,611 1982.9,598.1 1986.2,584.3 1986.2,570.9 1996.2,559.9 1983.3,547.5 1976.8,533 
		1965.7,538 1962.3,515 1948,509.1 1948,529 1955.6,533 1958.2,545.1 1950.4,560.1 1955.2,577.1 1942.3,595.8 1945.1,611 	"/>
	<polygon class="st3" points="310.9,638.1 334.2,637 348.6,644.8 360.1,658.2 369.6,664.4 383,670.6 389.7,688.8 403.1,713.6 
		416.5,734.7 435.6,754.8 459.6,780.6 0,780.6 29,752.9 77.8,748.1 124.7,720.4 165.8,696.5 213.7,696.5 243.3,677.3 	"/>
</g>
<g id="Shadows_Light">
	<polygon class="st4" points="1958.2,416.9 1946.5,428 1944.7,439.7 1937.9,445.8 1927.5,447 1915.2,452.6 1902.9,463.6 
		1889.4,467.9 1875.2,484.5 1859.9,496.2 1848.8,509.1 1839.7,490.4 1835.3,483.9 1824.8,476.5 1814.4,462.4 1807,455.6 
		1800.9,442.1 1787.4,435.4 1780.6,431.7 1779.4,416.3 1767.7,406.5 1759.1,403.4 1752.9,401.6 1743.1,397.3 1729.6,390.3 
		1721,381.9 1715.5,374.5 1710.5,364.7 1700.1,363.5 1686,356.1 1680.4,349.9 1674.9,341.3 1663.8,334 1648.5,327.8 1633.7,318 
		1625.7,308.2 1614.7,299.6 1606.7,287.9 1599.3,275 1607.3,274.4 1622.7,268.8 1639.9,259 1647.9,251 1657.7,247.9 1671.8,253.5 
		1684.1,261.5 1700.1,261.5 1718.5,268.8 1734.5,283.6 1749.3,294.6 1756.6,310.6 1767.7,310.6 1772.6,321.1 1786.7,333.4 
		1797.2,340.7 1810.7,353.6 1810.7,361 1823,370.8 1831,384.4 1850,390.3 1859.2,393.6 1870.9,398.5 1890.6,398.5 1897.3,402.8 
		1909.6,408.3 1927.5,408.3 1947.1,412.6 	"/>
	<polygon class="st4" points="1977.2,425.2 1981.6,431.2 1988.8,438.9 1994.8,446.6 2001.9,459.8 2013.5,465.3 2023.9,476.3 
		2038.7,487.3 2055.8,502.1 2066.2,509.1 2080,529 2080,488.9 2068.4,474.6 2060.7,469.7 2049.2,468.6 2034.4,459.2 2020.1,448.8 
		2011.3,447.2 2003,436.7 	"/>
	<polygon class="st4" points="1082.4,497 1085.9,507.1 1093.7,515.4 1104.4,521.9 1110.3,530.9 1121,535.6 1130,545.8 1142.5,545.8 
		1149.6,554.1 1155,563 1160.9,570.2 1166.3,573.7 1172.2,579.7 1182.3,588.6 1190.7,592.8 1204.4,592.8 1217.5,592.8 1229.4,601.7 
		1238.9,610.6 1249.6,614.2 1265.1,623.1 1273.4,630.9 1276.4,639.8 1276.4,646.9 1281.7,656.4 1289.5,670.1 1296,676.7 1305.5,688 
		1310.3,696.3 1328.7,678.5 1335.9,666 1349,663 1357.3,651.7 1371.6,651.7 1385.9,655.8 1395.4,657.6 1415.6,642.8 1422.2,635 
		1430.5,636.2 1443.6,639.8 1455.5,651.1 1463.8,655.3 1469.8,661.8 1482.9,662.4 1493.6,661.2 1502.5,673.7 1512,683.8 
		1522.1,683.2 1532.3,677.9 1540.6,675.5 1548.3,689.2 1555.5,693.3 1565.6,704.6 1576.3,713.6 1581.7,713.6 1591.2,693.9 
		1610.2,687.4 1629.3,683.8 1639.4,683.8 1653.1,685.6 1665.6,683.2 1672.1,679.1 1651.9,664.8 1634,664.8 1619.7,663 1599.3,661.2 
		1575.1,654.1 1567.4,648.1 1557.8,647.5 1550.1,642.2 1535.8,636.8 1522.7,635 1510.8,627.9 1496.6,621.3 1486.4,622.5 
		1460.8,623.1 1444.8,620.1 1434.7,615.4 1415,602.3 1404.9,594.6 1388.8,594 1377.2,586.2 1364.4,576.7 1354.3,576.7 1339.4,573.7 
		1325.2,572.5 1318,564.8 1307.9,554.1 1296,538 1294.2,527.3 1277,509.1 1269.8,502.3 1271.6,494 1266.2,477.3 1255.5,463.6 
		1244.2,457.1 1231.7,452.3 1207.9,436.9 1207.9,422.6 1205,413 1195.5,402.3 1180,385.7 1170.4,378.5 1150.2,372.6 1140.7,372.6 
		1131.2,365.4 1122.2,362.5 1113.3,359.5 1100.8,355.3 1087.1,352.3 1091.9,362.5 1100.8,370.8 1110.3,375 1115.7,390.3 
		1120.5,395.8 1133.5,407.1 1135.3,418.4 1138.3,430.9 1143.1,445.2 1149,447 1160.3,454.7 1166.3,460.7 1171.6,472.6 1175.8,488.6 
		1178.2,503.5 1186.5,512.4 1195.5,524.7 1200.8,535.6 1206.1,546.9 1216.9,553.5 1203.2,555.3 1189.5,545.2 1180.6,544.6 
		1171.6,539.8 1159.7,535.6 1150.2,530.3 1137.7,517.8 1119.3,509.1 1106.8,501.7 	"/>
	<polygon class="st4" points="1431.1,283.1 1438.6,289.2 1447,294.4 1452.7,300 1457.8,308.9 1463,318.3 1466.7,327.2 1471.4,333.7 
		1475.6,343.6 1478.4,352.3 1481.7,360 1486.4,368.4 1490.6,378.5 1493,386.7 1504.2,378.5 1515.5,375 1518.7,365.6 1524.8,354.3 
		1532.3,348.7 1537,342.6 1529.5,328.1 1531.4,317.3 1521.6,307.5 1515,293.4 1515,283.1 1502.3,270.9 1493.9,260.1 1484.1,252.6 
		1468.6,242.8 1476.1,253.6 1484.1,263.4 1489.2,270.5 1494.8,275.1 1497.2,284 1499.1,292.5 1492,296.2 1479.4,291.1 1476.6,284 
		1468.6,275.1 1460.2,278 1451.7,282.6 1436.7,282.2 	"/>
	<polygon class="st4" points="1550.2,227.5 1554.8,233.9 1554.8,242.8 1558.2,247.9 1562.4,256.6 1566.2,265.5 1572.5,273.5 
		1577.1,276.8 1582.6,289.9 1585.6,278.9 1580.1,267.1 1579.2,257 1580.1,247.9 1567.9,242.8 1562,237.6 	"/>
	<polygon class="st4" points="694.2,780.6 669.4,754.9 669.4,741.7 669.4,732.2 662.1,724.2 654.8,708.9 648.2,720.6 648.2,738.1 
		644.6,753.4 634.4,764.4 628.5,744.7 628.5,730.1 628.5,718.4 628.5,703 628.5,686.2 624.1,670.9 616.1,656.3 602.2,644.6 
		594.2,635.1 609.5,641.7 618.3,645.4 611.7,616.2 600.8,610.3 589.8,610.3 589.8,600.1 575.2,600.1 583.2,588.4 597.8,584 
		621.9,599.4 630,614 634.7,600.1 619,581.1 608.8,570.9 634.7,570.9 646,575.3 665.8,576 676,570.9 654.8,555.5 667.2,555.5 
		679.6,555.5 671.6,537.3 669.4,527.8 697.9,545.3 705.9,553.4 719.8,546.8 727.1,561.4 734.4,573.1 740.2,579.6 751.2,588.4 
		760.7,596.4 774.5,600.8 786.2,615.4 792.1,627.1 803,627.8 817.6,615.4 831.5,610.3 838.8,610.3 846.1,599.4 860.7,614.7 
		871.7,627.1 881.9,639.5 892.8,641.7 903.8,645.4 907.4,668.7 896.1,672.9 888.5,677.3 881.3,687.2 877,694.3 867.6,696.5 
		858.9,688.3 854.5,696.5 849,705.8 843.5,717.3 833.1,723.9 827.1,735.9 818.9,743.6 805.7,747.4 793.1,747.4 784.4,738.1 
		777.3,734.8 773.4,741.4 766.3,747.4 758.1,748.5 750.4,753.5 741.3,743.6 729,750.7 717.5,756.2 709.9,767.2 	"/>
	<path class="st4" d="M1100.8,370.8"/>
	<polygon class="st4" points="1055.6,375.8 1060.7,379.4 1065.3,386.2 1065.3,397.4 1070.4,401.7 1082.4,404.6 1088.8,409.6 
		1088.8,417.2 1084.1,424.4 1085.9,432 1092.7,437.7 1088,443.1 1084.1,449.3 1077.6,452.5 1071.1,446 1071.1,435.6 1065.7,428.7 
		1057.8,419.3 1057.8,415.7 1052,403.9 1044.1,393 1052,398.1 1052,386.6 1057.1,386.6 	"/>
	<polygon class="st4" points="934.6,454.3 939.1,463.6 943.9,468.7 950.5,479.5 953.1,484.6 960.1,489.8 966.8,497.9 973.4,501.3 
		976.4,508.7 979,522.4 983.4,530.5 983.4,540.1 993.8,533 1000.8,527.8 1005.2,533 1001.9,544.2 1003,554.1 1007.8,568.6 
		1012.6,573.4 1021.1,586.3 1028.5,593.3 1035.2,603.3 1044.1,613.3 1050.4,627.7 1055.2,634.4 1059.2,637 1059.2,627.7 
		1059.2,613.3 1052.2,600.7 1052.2,591.1 1048.5,581.9 1044.1,565.6 1042.2,556 1037.8,541.9 1037.8,533 1028.5,524.7 1018.2,521.2 
		1008.9,510.5 1008.9,499.8 1008.9,484.3 1004.9,476.1 999.3,466.1 993.8,452.5 981.6,450.6 976.8,442.9 967.5,439.5 957.5,439.5 
		950.5,441 945,446.9 	"/>
	<polygon class="st4" points="1651.6,557 1654.9,563.1 1662.8,571.5 1669.8,578.5 1680.6,586.9 1680.6,568.7 1680.6,551.4 
		1674.5,533 1669.8,520.5 1666.1,509.1 1666.1,500.4 1657.7,491.1 1646,485.5 1632.4,479.4 1623.5,471 1593.1,458.4 1609.5,477.1 
		1626.3,485.9 1634.8,502.8 1634.8,514.9 1641.3,527.6 1644.6,543 	"/>
	<polygon class="st4" points="1747.6,509.1 1752,517.8 1747.6,526.2 1739.2,533 1745.6,551.1 1758.4,560.7 1758.4,575.9 1762,586.9 
		1762,592.3 1781.6,575.5 1778.7,559.5 1775.6,543 1773.2,533 1772.8,524.7 1770.4,515 	"/>
	<polygon class="st4" points="1372.9,311.1 1377.2,314.7 1379.2,318.7 1389.9,328.1 1393.7,337.8 1398.8,349.3 1408.2,334.4 
		1396.2,319.1 1385.2,311.1 	"/>
	<polygon class="st4" points="1436.2,357.8 1436.2,376.1 1437.9,386.7 1437.9,395.6 1449.8,390.3 1452.8,378.5 1450.7,369.3 
		1444.5,349.3 1444.5,338.7 	"/>
	<polygon class="st4" points="1352.9,417.7 1359.3,431.8 1359.3,446.2 1365.6,453 1369.9,466.2 1375,474.7 1384.3,468.8 1384.3,456 
		1372.9,446.2 1368.6,431.3 	"/>
	<polygon class="st4" points="844.1,518.5 852,527.8 865.4,546.5 869.4,559.6 879.3,577.8 886.8,586.1 884.4,563.9 880.5,546.9 
		874.5,533 860.7,522 850.4,505.4 842.5,495.1 838.5,503.8 	"/>
	<polyline class="st4" points="872.8,497.2 872.8,513.4 877.3,521.6 883.2,527.8 888,524.7 888,512.5 886.8,501.9 872.8,497.2 	"/>
	<polygon class="st4" points="942.9,536.6 948.9,550.1 956,565.9 957.6,573.8 961.9,563.1 959.5,546.9 952.4,536.6 	"/>
	<polygon class="st4" points="958.3,619.3 965.9,630 970.2,637 978.9,641 989.6,642.6 1008.2,649.7 1028.7,657.6 1040,664.4 
		1019.6,639.4 1019.6,621.7 1023.6,611.8 1012.9,611.8 1010.1,626.8 1008.6,637 996.9,631.8 981.7,627.7 	"/>
	<polygon class="st4" points="1479.5,205.4 1471.9,206.3 1465,203.3 1460.4,204.3 1456,211.6 1460.1,212.8 1469.5,211.7 
		1475.1,221.4 1486.3,216.8 1486.7,213.7 1484.1,210.3 	"/>
	<polygon class="st4" points="1431.1,490.7 1431.1,503 1436.2,515.3 1448.7,524.7 1448.7,540.5 1452.8,556.7 1460.4,573.4 
		1466.5,576.2 1474.4,581.8 1474.4,564.5 1467.7,550.7 1468.2,533 1463.8,514.2 1457.6,503.6 1459.3,490.7 1464.3,481.8 1447.6,469 
		1438.6,481.8 	"/>
	<polygon class="st4" points="1511.8,488 1511.8,501.9 1517.9,518.1 1517.9,529.9 1526.9,541 1533.6,556.7 1533.6,571.2 1547,592.3 
		1559.3,608.1 1570.4,619.8 1574.9,599.7 1562.6,592.3 1551.5,577.9 1548.1,558.3 1537,546.6 1528.6,524.7 1523.9,504.7 	"/>
	<polygon class="st4" points="394.1,696.9 404.7,696.9 418.2,696.9 431.1,687 437.2,680.9 432.3,664.4 419.4,664.4 410.2,668 
		394.1,670.5 386.7,680.6 389.7,688.8 	"/>
	<polygon class="st4" points="542.5,605.5 545.1,613.8 545.1,626.9 553.4,634.5 558.8,642.4 572.2,637 565.7,624 557.4,608.8 	"/>
</g>
<g id="Highlights">
	<g>
		<polygon class="st5" points="1447.1,206.6 1436.2,213.8 1413.1,231 1402.4,238.7 1390.5,247.9 1378.5,261.5 1366.3,272.7 
			1352.9,286.7 1340.4,292.1 1332.2,301.2 1319.5,314.7 1306.8,330.2 1296.6,338.7 1288,349.3 1271.7,352.3 1262.1,356.6 
			1255.4,359.2 1248.3,359.7 1233.1,375.8 1248.3,378.5 1264.1,370.8 1283.9,370.8 1298.2,364.3 1319.5,352.3 1327.6,345.4 
			1340.9,330.2 1359.2,321 1372.9,311.1 1377.2,305.3 1394.3,294.6 1413.1,280.9 1426.8,271.7 1444.5,275.3 1450.2,266.6 
			1459.9,254.4 1468.6,242.8 1484.1,238.2 1489.3,230.5 1497.5,230.5 1501.5,218.3 1506.6,214.3 1513.2,207.7 1519.9,201 
			1523.9,194.9 1515.3,194.9 1503.1,201 1496,210.2 1491.4,215.8 1486.3,216.8 1475.1,221.4 1469.5,211.7 1460.1,212.8 1456,211.6 
			1460.4,204.3 1465,203.3 1471.9,206.3 1479.5,205.4 1469.6,194.9 1460.6,194.9 		"/>
		<polygon class="st5" points="972.3,421.1 996.9,421.1 1008.1,419 1015.6,414.1 1026.4,407.7 1034.7,403.2 1044.1,393 1044.1,384 
			1040,378.2 1029.7,387.8 1016,394 1001.4,404.4 990.2,414.1 		"/>
		<polygon class="st5" points="836.2,456 844.6,458.9 853.7,458.9 858.7,462.2 858.7,472.2 864.5,477.2 867.9,492.2 872.8,497.2 
			872.8,475.1 874.5,464.3 872.4,452.5 871.6,442.3 855.4,448.5 		"/>
		<polygon class="st5" points="688.9,511.3 703.1,513.4 718.9,511.3 731,503.9 746.8,500.5 757.2,495.1 770.1,495.1 779.6,489.7 
			788,484.3 785.1,473.5 784.2,461 770.5,461 751.8,473.1 738.5,476.8 724.7,483.9 708.1,497.2 		"/>
		<polygon class="st5" points="1899.7,464.6 1903.8,470.4 1918.4,470.4 1918.4,485.3 1922.1,497.9 1932,509.1 1940.5,505 
			1958.2,507 1968.6,515.5 1988.7,527.1 2001.2,530.8 2015.5,529 2021.9,522.7 2032.1,524.7 2038.2,530.8 2049.4,529 2053.8,526.4 
			2039.2,517.9 2018.5,503 2000.9,497.7 1992.4,489.7 1987.3,482.6 1976.8,467 1958.2,454.4 1973.4,457.2 1971.7,447 1965.6,431.7 
			1958.2,416.9 1946.5,428 1944.7,439.7 1937.9,445.8 1927.5,447 1915.2,452.6 1902.9,463.6 		"/>
		<polygon class="st5" points="1557.3,382.5 1578.6,390.3 1593.1,400.2 1606.5,407.6 1618.5,416.9 1626.4,430.8 1636.9,436.4 
			1650.1,436.4 1675.6,429.9 1693.3,430.8 1718.8,425.2 1741.5,424.3 1750.3,415 1752.9,401.6 1729.6,390.3 1721,381.9 
			1715.5,374.5 1710.5,364.7 1700.1,363.5 1686,356.1 1674.9,341.3 1663.8,334 1648.5,327.8 1633.7,318 1625.7,308.2 1614.7,299.6 
			1608.3,316.6 1599.3,322.7 1581.9,330.2 1567.9,323.6 1555.4,317.1 1543.4,323.1 1543.4,338.7 1550.2,349.3 1550.2,371.9 		"/>
		<polygon class="st5" points="1766.9,488 1783.6,474.7 1793.2,474.7 1804.5,469 1814.4,462.4 1807,455.6 1800.9,442.1 
			1787.4,435.4 1780.6,431.7 1779.4,416.3 1767.7,406.5 1760.4,412 1752.9,429.2 1752.9,443.1 1762.6,462.4 		"/>
		<polygon class="st5" points="1304.6,360.7 1308.8,364.3 1315.7,370.6 1318.6,378.5 1306.9,386.7 1296.2,371.6 1290.1,368 		"/>
		<polygon class="st5" points="1269.9,370.8 1276.7,378.5 1280.6,390.3 1269.9,399.4 1269.9,385.1 1264.1,370.8 		"/>
	</g>
</g>
</svg>
