<?xml version="1.0" encoding="utf-8"?>
<!-- Generator: Adobe Illustrator 25.2.1, SVG Export Plug-In . SVG Version: 6.00 Build 0)  -->
<svg version="1.1" id="Layer_1" xmlns="http://www.w3.org/2000/svg" xmlns:xlink="http://www.w3.org/1999/xlink" x="0px" y="0px"
	 viewBox="0 0 2080 780.6" style="enable-background:new 0 0 2080 780.6;" xml:space="preserve">
<style type="text/css">
	.st0{opacity:0.4;}
	.st1{fill:#FBE8D8;}
	.st2{fill:none;stroke:#FF00FF;stroke-width:2;stroke-miterlimit:10;}
	.st3{fill:#E0E0E0;}
	.st4{fill:#CACACA;}
	.st5{fill:#D3D3D3;}
	.st6{fill:#EDEDED;}
</style>
<g class="st0">
	<g id="Layer_6">
		<polygon class="st1" points="723.6,273.4 739.2,281.8 754.9,290.3 786.6,294.8 790.8,310.4 834.6,313.9 941.4,298.1 984.1,273.4 
			961.9,260.8 942.8,260.8 890.7,273.4 868.7,280.7 847.1,269.8 810.4,266.6 786.6,260.8 750.2,268.2 		"/>
		<polygon class="st1" points="166.2,329.9 173.6,335.2 181.1,340.5 196.2,343.3 198.2,353.2 219.1,355.4 270,345.4 290.4,329.9 
			279.8,321.9 270.7,321.9 245.8,329.9 235.3,334.5 225.1,327.6 207.5,325.6 196.2,321.9 178.8,326.6 		"/>
		<polygon class="st1" points="1284.3,245.3 1296.1,254.7 1307.9,264.1 1332,269.1 1335.2,286.5 1368.3,290.4 1449.1,272.7 
			1481.4,245.3 1464.6,231.3 1450.1,231.3 1410.7,245.3 1394,253.4 1377.8,241.2 1349.9,237.8 1332,231.3 1304.4,239.5 		"/>
		<polygon class="st1" points="302.9,534.8 311.5,543.5 320.2,552.2 337.7,556.9 340.1,573.1 364.3,576.7 423.3,560.3 446.9,534.8 
			434.6,521.7 424.1,521.7 395.3,534.8 383.1,542.3 371.2,531 350.9,527.7 337.7,521.7 317.6,529.4 		"/>
		<polygon class="st1" points="2028.5,352.6 2012.9,344.2 1997.2,335.7 1965.5,331.2 1961.3,315.6 1917.5,312.1 1810.7,328 
			1768,352.6 1790.3,365.2 1809.3,365.2 1861.4,352.6 1883.4,345.3 1905,356.2 1941.7,359.4 1965.5,365.2 2001.9,357.8 		"/>
	</g>
	<g id="Mids">
		<line class="st2" x1="309.4" y1="779.1" x2="309.4" y2="636.6"/>
		<polyline class="st3" points="309.4,636.6 332.7,635.5 349.9,635.5 371.8,635.5 385.2,628.4 417.8,616.4 435.7,616.4 458.1,610.3 
			473,604 487.9,590.9 501.3,579.6 510.5,579.6 524.7,579.6 537.4,567.6 547.3,553.7 555.9,531.5 570.7,521.2 579.9,511 
			597.6,502.5 614.5,502.5 627.3,506.7 644.3,502.5 657,511 668.3,506 687.4,509.8 706.6,495.7 723.2,482.4 737,475.3 750.3,471.6 
			769,459.5 782.7,459.5 797.8,456.5 817,456.5 834.7,454.5 853.9,447 870.1,440.8 885.3,440.8 900.5,448 905.9,454.3 918.2,455 
			933.1,452.8 943.5,445.4 949,439.5 970.8,419.6 988.7,412.6 999.9,402.9 1014.5,392.5 1028.2,386.3 1038.5,376.7 1053.5,369.3 
			1069.2,357.3 1077.1,349.1 1085.6,350.8 1099.3,353.8 1120.7,361 1129.7,363.9 1139.2,371.1 1148.7,371.1 1168.9,377 1191.3,377 
			1208.2,378.9 1220.4,377 1231.6,374.3 1246.8,358.2 1253.9,357.7 1260.6,355.1 1270.2,350.8 1286.5,347.8 1295.1,337.2 
			1305.3,328.7 1318,313.2 1330.7,299.7 1338.9,290.6 1351.4,285.2 1364.8,271.2 1377,260 1389,246.4 1400.9,237.2 1411.6,229.5 
			1434.7,212.3 1445.6,205.1 1459.1,193.4 1468.1,193.4 1478,203.9 1482.6,208.8 1485.2,212.2 1484.8,215.3 1489.9,214.3 
			1494.5,208.7 1501.6,199.5 1513.8,193.4 1522.4,193.4 1535.5,201.8 1538.9,210.9 1548.7,226 1560.5,236.1 1566.4,241.3 
			1578.6,246.4 1588,255.2 1591.5,266.2 1597.8,273.5 1605.8,272.9 1621.2,267.3 1638.4,257.5 1646.4,249.5 1656.2,246.4 
			1670.3,252 1682.6,260 1698.6,260 1717,267.3 1733,282.1 1747.8,293.1 1755.1,309.1 1766.2,309.1 1771.1,319.6 1785.2,331.9 
			1795.7,339.2 1809.2,352.1 1809.2,359.5 1821.5,369.3 1829.5,382.9 1848.5,388.8 1857.7,392.1 1869.4,397 1889.1,397 
			1895.8,401.3 1908.1,406.8 1926,406.8 1945.6,411.1 1956.7,415.4 1965.4,409.5 1970.5,415 1975.7,423.7 2001.5,435.2 
			2009.8,445.7 2018.6,447.3 2032.9,457.7 2047.7,467.1 2059.2,468.2 2066.9,473.1 2078.5,487.4 2078.5,779.1 -1.5,779.1 
			27.5,751.4 76.3,746.6 164.3,695 212.2,695 309.4,636.6 		"/>
	</g>
	<g id="Shadows_Dark">
		<polygon class="st4" points="619.7,779.1 628,767.1 632.9,762.9 643.1,751.9 646.7,736.6 646.7,719.1 653.3,707.4 660.6,722.7 
			667.9,730.7 667.9,753.4 692.7,779.1 708.4,765.7 716,754.7 739.8,742.1 748.9,752 756.6,747 764.8,745.9 771.9,739.9 
			775.8,733.3 782.9,736.6 791.6,745.9 804.2,745.9 817.4,742.1 825.6,734.4 831.6,722.4 842,715.8 847.5,704.3 853,695 
			857.4,686.8 866.1,695 875.5,692.8 879.8,685.7 887,675.8 894.6,671.4 905.9,667.2 911.2,678 921.3,689 933.1,689 945,681.2 
			956.8,673 970.1,667.2 981.6,662.9 991.6,669.3 997.7,676.2 1006.7,670.7 1014.5,666.2 1025.9,667.1 1036.4,671.2 1051.9,692.2 
			1057.7,701.8 1073.4,714.1 1088.5,716.4 1094.4,721 1103.1,728.7 1117.2,724.6 1131.4,717.8 1139.6,712.1 1149.7,712.1 
			1154.3,707.3 1164.3,697.2 1167.5,681.7 1173.4,679.9 1178,669.3 1187.1,670.7 1194,679.9 1202.7,681.2 1211.8,677.1 1221,683.5 
			1228.3,677.6 1240.6,684.9 1250.6,689.9 1258.4,686.3 1264.8,678.5 1278.1,690.4 1292.2,700.9 1308.8,694.8 1327.2,677 
			1334.4,664.5 1347.5,661.5 1355.8,650.2 1370.1,650.2 1384.4,654.3 1393.9,656.1 1414.1,641.3 1420.7,633.5 1442.1,638.3 
			1454,649.6 1462.3,653.8 1468.3,660.3 1481.4,660.9 1492.1,659.7 1501,672.2 1510.5,682.3 1520.6,681.7 1530.8,676.4 1539.1,674 
			1546.8,687.7 1554,691.8 1564.1,703.1 1574.8,712.1 1585.1,718.2 1595.1,724.2 1607.4,717.8 1622.1,717.8 1644.9,708.2 
			1655,700.4 1658,682.9 1664.1,681.7 1670.6,677.6 1689.7,661.6 1705.2,648.3 1709.8,640.1 1714.8,633.5 1719.4,636.9 1729,629.1 
			1740.8,611.3 1747.7,609 1756.4,609 1770.5,590.8 1785.6,574.8 1847.3,507.6 1807.5,572.5 1817.6,574.3 1828.6,578.9 
			1837.7,593.5 1850,607.7 1850,588.9 1846.8,576.2 1847.3,563.8 1852.3,559.7 1844.1,549.2 1838.6,542.3 1845.5,542.3 
			1849.1,527.5 1857.3,521.2 1864.7,523.2 1872.9,523.2 1881.6,531.5 1881.6,554.7 1887.5,558.3 1883.4,570.2 1880.2,580.7 
			1873.8,588.5 1866,599 1861.5,617.7 1857.3,630.1 1842.3,646.5 1825.8,666.2 1829,689 1842.7,689 1857.8,671.6 1872.4,686.7 
			1871.5,707.3 1887.5,702.2 1898.2,679.4 1894.8,654.7 1900.7,644.7 1912.6,629.6 1921.3,618.2 1926.3,640.6 1926.3,657.5 
			1936.8,668 1943.7,687.2 1963.3,666.6 1980.2,670.3 1991.2,665.2 1991.2,652.9 2007.6,668.9 2023.6,665.2 2033.7,650.1 
			2050.1,642.9 2062.9,645.6 2071.6,647 2078.5,644.7 2078.5,779.1 		"/>
		<polygon class="st4" points="1960.8,609.5 1972.3,609.5 1981.4,596.6 1984.7,582.8 1984.7,569.4 1994.7,558.4 1981.8,546 
			1975.3,531.5 1964.2,536.5 1960.8,513.5 1946.5,507.6 1946.5,527.5 1954.1,531.5 1956.7,543.6 1948.9,558.6 1953.7,575.6 
			1940.8,594.3 1943.6,609.5 		"/>
		<polygon class="st4" points="309.4,636.6 332.7,635.5 347.1,643.3 358.6,656.7 368.1,662.9 381.5,669.1 388.2,687.3 401.6,712.1 
			415,733.2 434.1,753.3 458.1,779.1 -1.5,779.1 27.5,751.4 76.3,746.6 123.2,718.9 164.3,695 212.2,695 241.8,675.8 		"/>
	</g>
	<g id="Shadows_Light">
		<polygon class="st5" points="1956.7,415.4 1945,426.5 1943.2,438.2 1936.4,444.3 1926,445.5 1913.7,451.1 1901.4,462.1 
			1887.9,466.4 1873.7,483 1858.4,494.7 1847.3,507.6 1838.2,488.9 1833.8,482.4 1823.3,475 1812.9,460.9 1805.5,454.1 
			1799.4,440.6 1785.9,433.9 1779.1,430.2 1777.9,414.8 1766.2,405 1757.6,401.9 1751.4,400.1 1741.6,395.8 1728.1,388.8 
			1719.5,380.4 1714,373 1709,363.2 1698.6,362 1684.5,354.6 1678.9,348.4 1673.4,339.8 1662.3,332.5 1647,326.3 1632.2,316.5 
			1624.2,306.7 1613.2,298.1 1605.2,286.4 1597.8,273.5 1605.8,272.9 1621.2,267.3 1638.4,257.5 1646.4,249.5 1656.2,246.4 
			1670.3,252 1682.6,260 1698.6,260 1717,267.3 1733,282.1 1747.8,293.1 1755.1,309.1 1766.2,309.1 1771.1,319.6 1785.2,331.9 
			1795.7,339.2 1809.2,352.1 1809.2,359.5 1821.5,369.3 1829.5,382.9 1848.5,388.8 1857.7,392.1 1869.4,397 1889.1,397 
			1895.8,401.3 1908.1,406.8 1926,406.8 1945.6,411.1 		"/>
		<polygon class="st5" points="1975.7,423.7 1980.1,429.7 1987.3,437.4 1993.3,445.1 2000.4,458.3 2012,463.8 2022.4,474.8 
			2037.2,485.8 2054.3,500.6 2064.7,507.6 2078.5,527.5 2078.5,487.4 2066.9,473.1 2059.2,468.2 2047.7,467.1 2032.9,457.7 
			2018.6,447.3 2009.8,445.7 2001.5,435.2 		"/>
		<polygon class="st5" points="1080.9,495.5 1084.4,505.6 1092.2,513.9 1102.9,520.4 1108.8,529.4 1119.5,534.1 1128.5,544.3 
			1141,544.3 1148.1,552.6 1153.5,561.5 1159.4,568.7 1164.8,572.2 1170.7,578.2 1180.8,587.1 1189.2,591.3 1202.9,591.3 
			1216,591.3 1227.9,600.2 1237.4,609.1 1248.1,612.7 1263.6,621.6 1271.9,629.4 1274.9,638.3 1274.9,645.4 1280.2,654.9 
			1288,668.6 1294.5,675.2 1304,686.5 1308.8,694.8 1327.2,677 1334.4,664.5 1347.5,661.5 1355.8,650.2 1370.1,650.2 1384.4,654.3 
			1393.9,656.1 1414.1,641.3 1420.7,633.5 1429,634.7 1442.1,638.3 1454,649.6 1462.3,653.8 1468.3,660.3 1481.4,660.9 
			1492.1,659.7 1501,672.2 1510.5,682.3 1520.6,681.7 1530.8,676.4 1539.1,674 1546.8,687.7 1554,691.8 1564.1,703.1 1574.8,712.1 
			1580.2,712.1 1589.7,692.4 1608.7,685.9 1627.8,682.3 1637.9,682.3 1651.6,684.1 1664.1,681.7 1670.6,677.6 1650.4,663.3 
			1632.5,663.3 1618.2,661.5 1597.8,659.7 1573.6,652.6 1565.9,646.6 1556.3,646 1548.6,640.7 1534.3,635.3 1521.2,633.5 
			1509.3,626.4 1495.1,619.8 1484.9,621 1459.3,621.6 1443.3,618.6 1433.2,613.9 1413.5,600.8 1403.4,593.1 1387.3,592.5 
			1375.7,584.7 1362.9,575.2 1352.8,575.2 1337.9,572.2 1323.7,571 1316.5,563.3 1306.4,552.6 1294.5,536.5 1292.7,525.8 
			1275.5,507.6 1268.3,500.8 1270.1,492.5 1264.7,475.8 1254,462.1 1242.7,455.6 1230.2,450.8 1206.4,435.4 1206.4,421.1 
			1203.5,411.5 1194,400.8 1178.5,384.2 1168.9,377 1148.7,371.1 1139.2,371.1 1129.7,363.9 1120.7,361 1111.8,358 1099.3,353.8 
			1085.6,350.8 1090.4,361 1099.3,369.3 1108.8,373.5 1114.2,388.8 1119,394.3 1132,405.6 1133.8,416.9 1136.8,429.4 1141.6,443.7 
			1147.5,445.5 1158.8,453.2 1164.8,459.2 1170.1,471.1 1174.3,487.1 1176.7,502 1185,510.9 1194,523.2 1199.3,534.1 1204.6,545.4 
			1215.4,552 1201.7,553.8 1188,543.7 1179.1,543.1 1170.1,538.3 1158.2,534.1 1148.7,528.8 1136.2,516.3 1117.8,507.6 
			1105.3,500.2 		"/>
		<polygon class="st5" points="1429.6,281.6 1437.1,287.7 1445.5,292.9 1451.2,298.5 1456.3,307.4 1461.5,316.8 1465.2,325.7 
			1469.9,332.2 1474.1,342.1 1476.9,350.8 1480.2,358.5 1484.9,366.9 1489.1,377 1491.5,385.2 1502.7,377 1514,373.5 1517.2,364.1 
			1523.3,352.8 1530.8,347.2 1535.5,341.1 1528,326.6 1529.9,315.8 1520.1,306 1513.5,291.9 1513.5,281.6 1500.8,269.4 
			1492.4,258.6 1482.6,251.1 1467.1,241.3 1474.6,252.1 1482.6,261.9 1487.7,269 1493.3,273.6 1495.7,282.5 1497.6,291 
			1490.5,294.7 1477.9,289.6 1475.1,282.5 1467.1,273.6 1458.7,276.5 1450.2,281.1 1435.2,280.7 		"/>
		<polygon class="st5" points="1548.7,226 1553.3,232.4 1553.3,241.3 1556.7,246.4 1560.9,255.1 1564.7,264 1571,272 1575.6,275.3 
			1581.1,288.4 1584.1,277.4 1578.6,265.6 1577.7,255.5 1578.6,246.4 1566.4,241.3 1560.5,236.1 		"/>
		<polygon class="st5" points="692.7,779.1 667.9,753.4 667.9,740.2 667.9,730.7 660.6,722.7 653.3,707.4 646.7,719.1 646.7,736.6 
			643.1,751.9 632.9,762.9 627,743.2 627,728.6 627,716.9 627,701.5 627,684.7 622.6,669.4 614.6,654.8 600.7,643.1 592.7,633.6 
			608,640.2 616.8,643.9 610.2,614.7 599.3,608.8 588.3,608.8 588.3,598.6 573.7,598.6 581.7,586.9 596.3,582.5 620.4,597.9 
			628.5,612.5 633.2,598.6 617.5,579.6 607.3,569.4 633.2,569.4 644.5,573.8 664.3,574.5 674.5,569.4 653.3,554 665.7,554 
			678.1,554 670.1,535.8 667.9,526.3 696.4,543.8 704.4,551.9 718.3,545.3 725.6,559.9 732.9,571.6 738.7,578.1 749.7,586.9 
			759.2,594.9 773,599.3 784.7,613.9 790.6,625.6 801.5,626.3 816.1,613.9 830,608.8 837.3,608.8 844.6,597.9 859.2,613.2 
			870.2,625.6 880.4,638 891.3,640.2 902.3,643.9 905.9,667.2 894.6,671.4 887,675.8 879.8,685.7 875.5,692.8 866.1,695 
			857.4,686.8 853,695 847.5,704.3 842,715.8 831.6,722.4 825.6,734.4 817.4,742.1 804.2,745.9 791.6,745.9 782.9,736.6 
			775.8,733.3 771.9,739.9 764.8,745.9 756.6,747 748.9,752 739.8,742.1 727.5,749.2 716,754.7 708.4,765.7 		"/>
		<path class="st5" d="M1099.3,369.3"/>
		<polygon class="st5" points="1054.1,374.3 1059.2,377.9 1063.8,384.7 1063.8,395.9 1068.9,400.2 1080.9,403.1 1087.3,408.1 
			1087.3,415.7 1082.6,422.9 1084.4,430.5 1091.2,436.2 1086.5,441.6 1082.6,447.8 1076.1,451 1069.6,444.5 1069.6,434.1 
			1064.2,427.2 1056.3,417.8 1056.3,414.2 1050.5,402.4 1042.6,391.5 1050.5,396.6 1050.5,385.1 1055.6,385.1 		"/>
		<polygon class="st5" points="933.1,452.8 937.6,462.1 942.4,467.2 949,478 951.6,483.1 958.6,488.3 965.3,496.4 971.9,499.8 
			974.9,507.2 977.5,520.9 981.9,529 981.9,538.6 992.3,531.5 999.3,526.3 1003.7,531.5 1000.4,542.7 1001.5,552.6 1006.3,567.1 
			1011.1,571.9 1019.6,584.8 1027,591.8 1033.7,601.8 1042.6,611.8 1048.9,626.2 1053.7,632.9 1057.7,635.5 1057.7,626.2 
			1057.7,611.8 1050.7,599.2 1050.7,589.6 1047,580.4 1042.6,564.1 1040.7,554.5 1036.3,540.4 1036.3,531.5 1027,523.2 
			1016.7,519.7 1007.4,509 1007.4,498.3 1007.4,482.8 1003.4,474.6 997.8,464.6 992.3,451 980.1,449.1 975.3,441.4 966,438 956,438 
			949,439.5 943.5,445.4 		"/>
		<polygon class="st5" points="1650.1,555.5 1653.4,561.6 1661.3,570 1668.3,577 1679.1,585.4 1679.1,567.2 1679.1,549.9 
			1673,531.5 1668.3,519 1664.6,507.6 1664.6,498.9 1656.2,489.6 1644.5,484 1630.9,477.9 1622,469.5 1591.6,456.9 1608,475.6 
			1624.8,484.4 1633.3,501.3 1633.3,513.4 1639.8,526.1 1643.1,541.5 		"/>
		<polygon class="st5" points="1746.1,507.6 1750.5,516.3 1746.1,524.7 1737.7,531.5 1744.1,549.6 1756.9,559.2 1756.9,574.4 
			1760.5,585.4 1760.5,590.8 1780.1,574 1777.2,558 1774.1,541.5 1771.7,531.5 1771.3,523.2 1768.9,513.5 		"/>
		<polygon class="st5" points="1371.4,309.6 1375.7,313.2 1377.7,317.2 1388.4,326.6 1392.2,336.3 1397.3,347.8 1406.7,332.9 
			1394.7,317.6 1383.7,309.6 		"/>
		<polygon class="st5" points="1434.7,356.3 1434.7,374.6 1436.4,385.2 1436.4,394.1 1448.3,388.8 1451.3,377 1449.2,367.8 
			1443,347.8 1443,337.2 		"/>
		<polygon class="st5" points="1351.4,416.2 1357.8,430.3 1357.8,444.7 1364.1,451.5 1368.4,464.7 1373.5,473.2 1382.8,467.3 
			1382.8,454.5 1371.4,444.7 1367.1,429.8 		"/>
		<polygon class="st5" points="842.6,517 850.5,526.3 863.9,545 867.9,558.1 877.8,576.3 885.3,584.6 882.9,562.4 879,545.4 
			873,531.5 859.2,520.5 848.9,503.9 841,493.6 837,502.3 		"/>
		<polyline class="st5" points="871.3,495.7 871.3,511.9 875.8,520.1 881.7,526.3 886.5,523.2 886.5,511 885.3,500.4 871.3,495.7 		
			"/>
		<polygon class="st5" points="941.4,535.1 947.4,548.6 954.5,564.4 956.1,572.3 960.4,561.6 958,545.4 950.9,535.1 		"/>
		<polygon class="st5" points="956.8,617.8 964.4,628.5 968.7,635.5 977.4,639.5 988.1,641.1 1006.7,648.2 1027.2,656.1 
			1038.5,662.9 1018.1,637.9 1018.1,620.2 1022.1,610.3 1011.4,610.3 1008.6,625.3 1007.1,635.5 995.4,630.3 980.2,626.2 		"/>
		<polygon class="st5" points="1478,203.9 1470.4,204.8 1463.5,201.8 1458.9,202.8 1454.5,210.1 1458.6,211.3 1468,210.2 
			1473.6,219.9 1484.8,215.3 1485.2,212.2 1482.6,208.8 		"/>
		<polygon class="st5" points="1429.6,489.2 1429.6,501.5 1434.7,513.8 1447.2,523.2 1447.2,539 1451.3,555.2 1458.9,571.9 
			1465,574.7 1472.9,580.3 1472.9,563 1466.2,549.2 1466.7,531.5 1462.3,512.7 1456.1,502.1 1457.8,489.2 1462.8,480.3 
			1446.1,467.5 1437.1,480.3 		"/>
		<polygon class="st5" points="1510.3,486.5 1510.3,500.4 1516.4,516.6 1516.4,528.4 1525.4,539.5 1532.1,555.2 1532.1,569.7 
			1545.5,590.8 1557.8,606.6 1568.9,618.3 1573.4,598.2 1561.1,590.8 1550,576.4 1546.6,556.8 1535.5,545.1 1527.1,523.2 
			1522.4,503.2 		"/>
		<polygon class="st5" points="392.6,695.4 403.2,695.4 416.7,695.4 429.6,685.5 435.7,679.4 430.8,662.9 417.9,662.9 408.7,666.5 
			392.6,669 385.2,679.1 388.2,687.3 		"/>
		<polygon class="st5" points="541,604 543.6,612.3 543.6,625.4 551.9,633 557.3,640.9 570.7,635.5 564.2,622.5 555.9,607.3 		"/>
	</g>
	<g id="Highlights">
		<g>
			<polygon class="st6" points="1445.6,205.1 1434.7,212.3 1411.6,229.5 1400.9,237.2 1389,246.4 1377,260 1364.8,271.2 
				1351.4,285.2 1338.9,290.6 1330.7,299.7 1318,313.2 1305.3,328.7 1295.1,337.2 1286.5,347.8 1270.2,350.8 1260.6,355.1 
				1253.9,357.7 1246.8,358.2 1231.6,374.3 1246.8,377 1262.6,369.3 1282.4,369.3 1296.7,362.8 1318,350.8 1326.1,343.9 
				1339.4,328.7 1357.7,319.5 1371.4,309.6 1375.7,303.8 1392.8,293.1 1411.6,279.4 1425.3,270.2 1443,273.8 1448.7,265.1 
				1458.4,252.9 1467.1,241.3 1482.6,236.7 1487.8,229 1496,229 1500,216.8 1505.1,212.8 1511.7,206.2 1518.4,199.5 1522.4,193.4 
				1513.8,193.4 1501.6,199.5 1494.5,208.7 1489.9,214.3 1484.8,215.3 1473.6,219.9 1468,210.2 1458.6,211.3 1454.5,210.1 
				1458.9,202.8 1463.5,201.8 1470.4,204.8 1478,203.9 1468.1,193.4 1459.1,193.4 			"/>
			<polygon class="st6" points="970.8,419.6 995.4,419.6 1006.6,417.5 1014.1,412.6 1024.9,406.2 1033.2,401.7 1042.6,391.5 
				1042.6,382.5 1038.5,376.7 1028.2,386.3 1014.5,392.5 999.9,402.9 988.7,412.6 			"/>
			<polygon class="st6" points="834.7,454.5 843.1,457.4 852.2,457.4 857.2,460.7 857.2,470.7 863,475.7 866.4,490.7 871.3,495.7 
				871.3,473.6 873,462.8 870.9,451 870.1,440.8 853.9,447 			"/>
			<polygon class="st6" points="687.4,509.8 701.6,511.9 717.4,509.8 729.5,502.4 745.3,499 755.7,493.6 768.6,493.6 778.1,488.2 
				786.5,482.8 783.6,472 782.7,459.5 769,459.5 750.3,471.6 737,475.3 723.2,482.4 706.6,495.7 			"/>
			<polygon class="st6" points="1898.2,463.1 1902.3,468.9 1916.9,468.9 1916.9,483.8 1920.6,496.4 1930.5,507.6 1939,503.5 
				1956.7,505.5 1967.1,514 1987.2,525.6 1999.7,529.3 2014,527.5 2020.4,521.2 2030.6,523.2 2036.7,529.3 2047.9,527.5 
				2052.3,524.9 2037.7,516.4 2017,501.5 1999.4,496.2 1990.9,488.2 1985.8,481.1 1975.3,465.5 1956.7,452.9 1971.9,455.7 
				1970.2,445.5 1964.1,430.2 1956.7,415.4 1945,426.5 1943.2,438.2 1936.4,444.3 1926,445.5 1913.7,451.1 1901.4,462.1 			"/>
			<polygon class="st6" points="1555.8,381 1577.1,388.8 1591.6,398.7 1605,406.1 1617,415.4 1624.9,429.3 1635.4,434.9 
				1648.6,434.9 1674.1,428.4 1691.8,429.3 1717.3,423.7 1740,422.8 1748.8,413.5 1751.4,400.1 1728.1,388.8 1719.5,380.4 1714,373 
				1709,363.2 1698.6,362 1684.5,354.6 1673.4,339.8 1662.3,332.5 1647,326.3 1632.2,316.5 1624.2,306.7 1613.2,298.1 1606.8,315.1 
				1597.8,321.2 1580.4,328.7 1566.4,322.1 1553.9,315.6 1541.9,321.6 1541.9,337.2 1548.7,347.8 1548.7,370.4 			"/>
			<polygon class="st6" points="1765.4,486.5 1782.1,473.2 1791.7,473.2 1803,467.5 1812.9,460.9 1805.5,454.1 1799.4,440.6 
				1785.9,433.9 1779.1,430.2 1777.9,414.8 1766.2,405 1758.9,410.5 1751.4,427.7 1751.4,441.6 1761.1,460.9 			"/>
			<polygon class="st6" points="1303.1,359.2 1307.3,362.8 1314.2,369.1 1317.1,377 1305.4,385.2 1294.7,370.1 1288.6,366.5 			"/>
			<polygon class="st6" points="1268.4,369.3 1275.2,377 1279.1,388.8 1268.4,397.9 1268.4,383.6 1262.6,369.3 			"/>
		</g>
	</g>
</g>
</svg>
