<?xml version="1.0" encoding="utf-8"?>
<!-- Generator: Adobe Illustrator 24.3.0, SVG Export Plug-In . SVG Version: 6.00 Build 0)  -->
<svg version="1.1" id="Layer_1" xmlns="http://www.w3.org/2000/svg" xmlns:xlink="http://www.w3.org/1999/xlink" x="0px" y="0px"
	 viewBox="0 0 171.5 94.4" style="enable-background:new 0 0 171.5 94.4;" xml:space="preserve">
<style type="text/css">
	.st0{fill:#6A6F82;}
</style>
<path class="st0" d="M72.9,84.7V59.3h-0.2L62.6,84.7h-4L48.4,59.3h-0.2v25.4h-4.7V50.3h6l10.9,27.5h0.2l10.9-27.5h6.2v34.4H72.9
	L72.9,84.7z M104.3,84.7h-4.9v-4.3h-0.2c-1.4,3-4,4.7-7.7,4.7c-5.4,0-8.7-3.6-8.7-9.4V59.4H88v15.2c0,3.7,1.9,5.9,5.3,5.9
	c3.7,0,5.9-2.6,5.9-6.5V59.4h5.1L104.3,84.7L104.3,84.7z M118.3,59.1c5.9,0,9.4,3.2,9.6,7.9h-4.7c-0.3-2.5-2-4-4.9-4
	s-4.7,1.4-4.7,3.4c0,1.5,1.1,2.6,3.7,3.2l4,0.9c5.1,1.1,7,3.2,7,6.8c0,4.5-4.2,7.7-9.9,7.7c-6.2,0-9.9-3-10.4-7.9h5.1
	c0.3,2.6,2.3,4,5.3,4s4.9-1.4,4.9-3.4c0-1.7-0.9-2.6-3.6-3.2l-4-0.9c-4.7-1.1-7-3.4-7-7.1C108.7,62.1,112.4,59.1,118.3,59.1z
	 M132.1,52.9c0-1.7,1.4-3,3-3s3,1.4,3,3s-1.4,3-3,3S132.1,54.6,132.1,52.9L132.1,52.9z M132.4,59.4h5.1v25.3h-5.1V59.4z M159.1,68.1
	c-0.6-2.6-2.5-4.9-5.9-4.9c-4,0-6.5,3.4-6.5,8.7c0,5.4,2.6,8.7,6.5,8.7c3.2,0,5.1-1.7,5.9-4.7h4.9c-0.6,5.3-4.7,9-10.7,9
	c-7.1,0-11.6-4.9-11.6-13c0-7.9,4.5-13,11.6-13c6.4,0,10.2,4.2,10.7,9L159.1,68.1L159.1,68.1z M27.9,53.7c-1.4,1.5-3.4,2.8-5.4,2.6
	c-0.3-2.3,0.8-4.5,1.9-5.9c1.4-1.7,3.6-2.8,5.4-2.8C29.9,49.6,29.1,52,27.9,53.7L27.9,53.7z M29.7,56.6c1.1,0,4.5,0.3,6.8,3.7
	c-0.2,0.2-4,2.5-4,7.1c0,5.6,4.9,7.6,4.9,7.6c0,0.2-0.8,2.6-2.5,5.3c-1.5,2.3-3.2,4.5-5.6,4.5s-3.2-1.5-6-1.5s-3.7,1.5-6,1.5
	c-2.5,0-4.3-2.5-5.9-4.7c-3.2-4.7-5.6-13.2-2.3-18.9c1.5-2.8,4.5-4.7,7.6-4.7c2.5,0,4.7,1.7,6,1.7C24,58.2,26.8,56.5,29.7,56.6
	L29.7,56.6z"/>
<g>
	<path class="st0" d="M27.8,28.7c-0.6,0.3-1.9,0.7-3.5,0.7c-3.7,0-6.1-2.5-6.1-6.3s2.6-6.5,6.5-6.5c1.4,0,2.5,0.3,3,0.7l-0.5,1.7
		c-0.6-0.3-1.4-0.6-2.6-0.6c-2.8,0-4.3,2-4.3,4.6c0,2.8,1.8,4.6,4.3,4.6c1.2,0,2.1-0.3,2.7-0.6L27.8,28.7z"/>
	<path class="st0" d="M41.4,22.9c0,4.5-3.2,6.5-6.1,6.5c-3.3,0-5.9-2.5-5.9-6.3c0-4.1,2.7-6.5,6.1-6.5C39,16.6,41.4,19.2,41.4,22.9z
		 M31.6,23.1c0,2.7,1.6,4.7,3.7,4.7s3.7-2,3.7-4.7c0-2-1-4.7-3.7-4.7C32.8,18.3,31.6,20.7,31.6,23.1z"/>
	<path class="st0" d="M44.3,20.2c0-1.2,0-2.3-0.1-3.3h1.9l0.1,2h0.1c0.7-1.1,1.8-2.3,3.8-2.3c1.7,0,2.9,1,3.5,2.5l0,0
		c0.3-0.7,0.9-1.2,1.4-1.6c0.8-0.6,1.6-0.9,2.7-0.9c1.6,0,4.1,1,4.1,5.3v7.2h-2.1v-7c0-2.4-0.9-3.7-2.7-3.7c-1.2,0-2.3,0.9-2.6,2
		c-0.1,0.3-0.2,0.7-0.2,1.1v7.6h-2.1v-7.3c0-1.9-0.9-3.4-2.6-3.4c-1.4,0-2.4,1.1-2.8,2.3c-0.1,0.3-0.2,0.7-0.2,1.1v7.4h-2.1v-9.1
		H44.3z"/>
	<path class="st0" d="M67.9,13.5c0,0.8-0.6,1.4-1.5,1.4c-0.8,0-1.4-0.6-1.4-1.4s0.6-1.4,1.4-1.4C67.3,12.1,67.9,12.7,67.9,13.5z
		 M65.4,29.2V17h2.3v12.3h-2.3V29.2z"/>
	<path class="st0" d="M71.4,20.2c0-1.2,0-2.3-0.1-3.3h2l0.1,2l0,0c0.6-1.1,2-2.3,4.1-2.3c1.7,0,4.3,1,4.3,5.2v7.3h-2.3v-7.1
		c0-2-0.8-3.6-2.8-3.6c-1.5,0-2.6,1-3,2.3c-0.1,0.2-0.1,0.7-0.1,1v7.3h-2.3v-8.9H71.4z"/>
	<path class="st0" d="M96,17c0,0.9-0.1,1.9-0.1,3.4v7.1c0,2.8-0.6,4.5-1.8,5.6s-2.9,1.5-4.5,1.5c-1.5,0-3-0.3-4.1-1l0.6-1.7
		c0.8,0.5,2,1,3.6,1c2.3,0,4-1.2,4-4.3v-1.4l0,0c-0.7,1.1-2,2-4,2c-3,0-5.2-2.6-5.2-6c0-4.2,2.7-6.5,5.5-6.5c2.1,0,3.3,1.1,3.8,2.1
		l0,0l0.1-1.8h2V17z M93.7,21.7c0-0.3,0-0.7-0.1-1c-0.5-1.2-1.5-2.4-3.2-2.4c-2.1,0-3.6,1.8-3.6,4.6c0,2.4,1.2,4.4,3.6,4.4
		c1.4,0,2.6-0.9,3-2.3c0.1-0.3,0.2-0.8,0.2-1.2C93.7,23.9,93.7,21.7,93.7,21.7z"/>
	<path class="st0" d="M104.7,26.9c0.7,0.5,1.8,0.9,2.9,0.9c1.6,0,2.4-0.8,2.4-1.8c0-1-0.7-1.7-2.3-2.3c-2.3-0.8-3.3-2-3.3-3.5
		c0-2,1.6-3.6,4.3-3.6c1.2,0,2.4,0.3,3,0.8l-0.6,1.6c-0.5-0.3-1.4-0.7-2.5-0.7c-1.4,0-2,0.8-2,1.7c0,1,0.8,1.5,2.4,2
		c2.1,0.8,3.3,1.9,3.3,3.7c0,2.1-1.7,3.7-4.6,3.7c-1.4,0-2.6-0.3-3.5-0.8L104.7,26.9z"/>
	<path class="st0" d="M126.1,22.9c0,4.5-3.2,6.5-6.1,6.5c-3.3,0-5.9-2.5-5.9-6.3c0-4.1,2.7-6.5,6.1-6.5
		C123.7,16.6,126.1,19.2,126.1,22.9z M116.4,23.1c0,2.7,1.6,4.7,3.7,4.7c2.1,0,3.7-2,3.7-4.7c0-2-1-4.7-3.7-4.7
		C117.5,18.3,116.4,20.7,116.4,23.1z"/>
	<path class="st0" d="M140,22.9c0,4.5-3.2,6.5-6.1,6.5c-3.3,0-5.9-2.5-5.9-6.3c0-4.1,2.7-6.5,6.1-6.5C137.6,16.6,140,19.2,140,22.9z
		 M130.3,23.1c0,2.7,1.6,4.7,3.7,4.7c2.1,0,3.7-2,3.7-4.7c0-2-1-4.7-3.7-4.7C131.4,18.3,130.3,20.7,130.3,23.1z"/>
	<path class="st0" d="M142.8,20.2c0-1.2,0-2.3-0.1-3.3h2l0.1,2l0,0c0.6-1.1,2-2.3,4.1-2.3c1.7,0,4.3,1,4.3,5.2v7.3h-2.3v-7.1
		c0-2-0.8-3.6-2.8-3.6c-1.5,0-2.6,1-3,2.3c-0.1,0.2-0.1,0.7-0.1,1v7.3h-2.3v-8.9H142.8z"/>
</g>
</svg>
