<?xml version="1.0" encoding="utf-8"?>
<!-- Generator: Adobe Illustrator 24.3.0, SVG Export Plug-In . SVG Version: 6.00 Build 0)  -->
<svg version="1.1" id="Layer_1" xmlns="http://www.w3.org/2000/svg" xmlns:xlink="http://www.w3.org/1999/xlink" x="0px" y="0px"
	 viewBox="0 0 131.8 40.7" style="enable-background:new 0 0 131.8 40.7;" xml:space="preserve">
<style type="text/css">
	.st0{fill:#FF9425;}
</style>
<path class="st0" d="M20.3,0C9.1,0,0,9.1,0,20.4c0,11.2,9.1,20.4,20.4,20.4c11.2,0,20.4-9.1,20.4-20.4C40.7,9.1,31.6,0,20.3,0
	L20.3,0z M29.7,29.4c-0.4,0.6-1.1,0.8-1.7,0.4c-4.8-2.9-10.8-3.6-17.9-2c-0.7,0.2-1.4-0.3-1.5-1c-0.2-0.7,0.3-1.4,1-1.5
	c7.8-1.8,14.4-1,19.8,2.3C29.9,28,30,28.8,29.7,29.4z M32.2,23.8c-0.5,0.7-1.4,1-2.2,0.5C24.5,21,16.2,20,9.7,22
	c-0.8,0.3-1.7-0.2-2-1.1c-0.3-0.8,0.2-1.7,1.1-2c7.4-2.2,16.6-1.2,22.9,2.7C32.4,22.1,32.6,23.1,32.2,23.8L32.2,23.8z M32.4,18
	c-6.6-3.9-17.4-4.3-23.6-2.4c-1,0.3-2.1-0.3-2.4-1.3s0.3-2.1,1.3-2.4c7.2-2.2,19.1-1.8,26.7,2.7c0.9,0.5,1.2,1.7,0.7,2.6
	C34.5,18.3,33.3,18.6,32.4,18L32.4,18z M55.4,18.8c-3.5-0.8-4.1-1.4-4.1-2.7c0-1.2,1.1-2,2.7-2c1.6,0,3.2,0.6,4.8,1.8
	c0,0,0.1,0.1,0.2,0c0.1,0,0.1,0,0.2-0.1l1.7-2.4c0.1-0.1,0.1-0.2,0-0.3c-2-1.6-4.2-2.3-6.8-2.3c-3.8,0-6.4,2.3-6.4,5.5
	c0,3.5,2.3,4.7,6.2,5.7c3.4,0.8,3.9,1.4,3.9,2.6c0,1.3-1.1,2.1-3,2.1c-2.1,0-3.7-0.7-5.6-2.3c0,0-0.1-0.1-0.2-0.1
	c-0.1,0-0.1,0-0.2,0.1l-1.9,2.3c-0.1,0.1-0.1,0.2,0,0.3c2.2,1.9,4.9,3,7.7,3c4.1,0,6.7-2.2,6.7-5.7C61.4,21.5,59.7,19.8,55.4,18.8
	L55.4,18.8z M70.6,15.3c-1.8,0-3.2,0.7-4.4,2.1v-1.6c0-0.1-0.1-0.2-0.2-0.2h-3.1c-0.1,0-0.2,0.1-0.2,0.2v17.9c0,0.1,0.1,0.2,0.2,0.2
	H66c0.1,0,0.2-0.1,0.2-0.2v-5.6c1.2,1.3,2.7,2,4.4,2c3.3,0,6.6-2.5,6.6-7.4C77.3,17.9,73.9,15.3,70.6,15.3L70.6,15.3L70.6,15.3z
	 M73.6,22.7c0,2.5-1.5,4.2-3.7,4.2s-3.8-1.8-3.8-4.2s1.6-4.2,3.8-4.2C72.1,18.5,73.6,20.3,73.6,22.7L73.6,22.7z M85.8,15.3
	c-4.2,0-7.6,3.3-7.6,7.4s3.3,7.4,7.5,7.4c4.3,0,7.6-3.3,7.6-7.4C93.4,18.6,90,15.3,85.8,15.3L85.8,15.3z M85.8,26.9
	c-2.3,0-4-1.8-4-4.2s1.6-4.2,3.9-4.2s4,1.8,4,4.2C89.8,25.2,88.1,26.9,85.8,26.9z M102.4,15.6H99v-3.5c0-0.1-0.1-0.2-0.2-0.2h-3.1
	c-0.1,0-0.2,0.1-0.2,0.2v3.5H94c-0.1,0-0.2,0.1-0.2,0.2v2.7c0,0.1,0.1,0.2,0.2,0.2h1.5v7c0,2.8,1.4,4.3,4.2,4.3
	c1.1,0,2.1-0.2,2.9-0.7c0.1,0,0.1-0.1,0.1-0.2v-2.6c0-0.1,0-0.2-0.1-0.2s-0.2,0-0.2,0c-0.6,0.3-1.2,0.4-1.8,0.4
	c-1,0-1.5-0.5-1.5-1.5v-6.5h3.5c0.1,0,0.2-0.1,0.2-0.2v-2.7C102.6,15.7,102.5,15.6,102.4,15.6L102.4,15.6L102.4,15.6z M114.5,15.6
	v-0.4c0-1.3,0.5-1.8,1.6-1.8c0.7,0,1.2,0.1,1.8,0.3c0.1,0,0.1,0,0.2,0s0.1-0.1,0.1-0.2v-2.7c0-0.1-0.1-0.2-0.2-0.2
	c-0.6-0.2-1.4-0.4-2.6-0.4c-2.9,0-4.4,1.6-4.4,4.7v0.7h-1.5c-0.1,0-0.2,0.1-0.2,0.2v2.7c0,0.1,0.1,0.2,0.2,0.2h1.5v10.8
	c0,0.1,0.1,0.2,0.2,0.2h3.1c0.1,0,0.2-0.1,0.2-0.2V18.8h2.9l4.5,10.8c-0.5,1.1-1,1.4-1.7,1.4c-0.6,0-1.1-0.2-1.7-0.5
	c-0.1,0-0.1,0-0.2,0s-0.1,0.1-0.1,0.1l-1.1,2.3c-0.1,0.1,0,0.2,0.1,0.3c1.1,0.6,2.1,0.9,3.4,0.9c2.3,0,3.6-1.1,4.7-4l5.5-14.1
	c0-0.1,0-0.2,0-0.2c0-0.1-0.1-0.1-0.2-0.1h-3.3c-0.1,0-0.2,0.1-0.2,0.2l-3.4,9.6l-3.7-9.6c0-0.1-0.1-0.1-0.2-0.1L114.5,15.6
	L114.5,15.6L114.5,15.6z M107.5,15.6h-3.1c-0.1,0-0.2,0.1-0.2,0.2v13.7c0,0.1,0.1,0.2,0.2,0.2h3.1c0.1,0,0.2-0.1,0.2-0.2V15.8
	C107.7,15.7,107.6,15.6,107.5,15.6L107.5,15.6z M105.9,9.4c-1.2,0-2.3,1-2.3,2.3c0,1.2,1,2.3,2.3,2.3s2.3-1,2.3-2.3
	C108.2,10.4,107.2,9.4,105.9,9.4z"/>
</svg>
