<?xml version="1.0" encoding="utf-8"?>
<!-- Generator: Adobe Illustrator 24.3.0, SVG Export Plug-In . SVG Version: 6.00 Build 0)  -->
<svg version="1.1" id="Layer_1" xmlns="http://www.w3.org/2000/svg" xmlns:xlink="http://www.w3.org/1999/xlink" x="0px" y="0px"
	 viewBox="0 0 64.6 55.6" style="enable-background:new 0 0 64.6 55.6;" xml:space="preserve">
<style type="text/css">
	.st0{fill:#6A6F82;}
</style>
<g>
	<path class="st0" d="M45.9,32c-0.9,0-1.8-0.2-2.5-0.9c-0.6-0.7-0.9-1.6-0.8-2.6c0-1,0.2-1.9,0.9-2.7c0.6-0.7,1.6-1,2.5-1
		c0.7,0,1.4,0.1,1.9,0.6c0.4,0.4,0.7,1,0.7,1.6c0,0.6-0.2,1.2-0.7,1.5c-0.7,0.4-1.4,0.5-2.2,0.5c-0.4,0-0.9,0-1.3-0.1
		c0,0.5,0.2,0.9,0.5,1.3c0.4,0.3,0.9,0.4,1.4,0.4c0.2,0,0.5,0,0.7,0c0.3,0,0.6-0.1,1-0.2h0.1h0c0.1,0,0.2,0.1,0.2,0.3v0.6
		c0,0.1,0,0.2,0,0.3c0,0-0.1,0.1-0.2,0.1C47.3,31.9,46.6,32,45.9,32z M45.5,27.8c0.3,0,0.7,0,1-0.2c0.2-0.1,0.3-0.4,0.3-0.6
		c0-0.5-0.3-0.8-1-0.8c-0.8,0-1.3,0.5-1.5,1.6C44.7,27.8,45.1,27.8,45.5,27.8L45.5,27.8z"/>
	<g>
		<path class="st0" d="M14.4,34.5c-0.1,0-0.2,0-0.2-0.1s-0.1-0.1-0.1-0.2v-8.8c0-0.1,0-0.2,0.1-0.2c0,0,0.1-0.1,0.2,0h0.9
			c0.2,0,0.3,0.1,0.4,0.3l0.1,0.3c0.3-0.2,0.6-0.5,0.9-0.6c0.3-0.1,0.7-0.2,1.1-0.2c0.8,0,1.5,0.3,2,0.9c0.5,0.7,0.8,1.6,0.7,2.5
			c0,0.6-0.1,1.3-0.4,1.9c-0.2,0.5-0.5,0.9-1,1.3c-0.4,0.3-0.9,0.4-1.4,0.4c-0.3,0-0.7,0-1-0.1c-0.3-0.1-0.6-0.2-0.8-0.5v2.9
			c0,0.1,0,0.2,0,0.2c0,0-0.1,0.1-0.2,0L14.4,34.5z M17.3,30.5c0.4,0,0.8-0.1,1.1-0.5c0.2-0.5,0.4-1,0.3-1.6c0-0.5-0.1-1.1-0.3-1.6
			c-0.2-0.3-0.7-0.5-1.1-0.5c-0.4,0-0.9,0.1-1.3,0.3v3.5C16.4,30.4,16.8,30.5,17.3,30.5L17.3,30.5z"/>
		<path class="st0" d="M22.4,31.8c-0.1,0-0.3,0-0.3-0.2c0,0,0,0,0-0.1v-6.1c0-0.1,0-0.2,0.1-0.2c0,0,0.1-0.1,0.2,0h0.9
			c0.2,0,0.3,0.1,0.4,0.3l0.1,0.7c0.3-0.3,0.6-0.6,1-0.8c0.3-0.1,0.6-0.2,1-0.2H26c0.1,0,0.2,0,0.2,0c0,0,0.1,0.1,0.1,0.2v1.1
			c0,0.1,0,0.2,0,0.2c0,0-0.1,0.1-0.2,0.1h-0.2c-0.1,0-0.2,0-0.4,0c-0.2,0-0.5,0-0.7,0.1c-0.2,0-0.5,0.1-0.7,0.2v4.5
			c0,0.1,0,0.2,0,0.2c0,0-0.1,0.1-0.2,0.1L22.4,31.8L22.4,31.8z"/>
		<path class="st0" d="M28.3,23.9c-0.3,0-0.6-0.1-0.8-0.3c-0.2-0.2-0.3-0.5-0.3-0.7c0-0.3,0.1-0.5,0.3-0.7c0.5-0.4,1.1-0.4,1.6,0
			c0.2,0.2,0.3,0.5,0.3,0.7c0,0.3-0.1,0.5-0.3,0.7C28.9,23.9,28.6,24,28.3,23.9z M27.7,31.8c-0.1,0-0.3,0-0.3-0.2c0,0,0,0,0-0.1
			v-6.1c0-0.1,0-0.2,0.1-0.2c0,0,0.1,0,0.2,0H29c0.1,0,0.2,0,0.2,0c0,0,0.1,0.1,0,0.2v6.2c0,0.1,0,0.2,0,0.2c0,0-0.1,0.1-0.2,0.1
			L27.7,31.8z"/>
		<path class="st0" d="M31.3,31.8c-0.1,0-0.3,0-0.3-0.2c0,0,0,0,0-0.1v-6.1c0-0.1,0-0.2,0.1-0.2c0,0,0.1-0.1,0.2,0h0.9
			c0.2,0,0.3,0.1,0.4,0.3l0.1,0.3c0.4-0.2,0.8-0.5,1.3-0.6c0.3-0.1,0.7-0.2,1.1-0.2c0.7,0,1.3,0.3,1.7,0.8c0.4-0.2,0.8-0.5,1.3-0.6
			c0.4-0.1,0.8-0.2,1.2-0.2c0.5,0,1,0.1,1.4,0.5c0.3,0.4,0.5,0.9,0.5,1.4v4.7c0,0.1,0,0.2,0,0.2c0,0-0.1,0.1-0.2,0.1h-1.2
			c-0.1,0-0.3,0-0.3-0.2c0,0,0,0,0-0.1v-4.3c0-0.6-0.2-0.9-0.8-0.9c-0.5,0-1,0.1-1.4,0.3v4.8c0,0.1,0,0.2,0,0.2c0,0-0.1,0.1-0.2,0.1
			h-1.3c-0.1,0-0.3,0-0.3-0.2c0,0,0,0,0-0.1v-4.3c0-0.6-0.2-0.9-0.8-0.9c-0.5,0-1,0.1-1.4,0.3v4.8c0,0.1,0,0.2,0,0.2
			c0,0-0.1,0.1-0.2,0.1L31.3,31.8z"/>
		<path class="st0" d="M45.2,39.2c-3.8,2.8-9.3,4.3-14.1,4.3c-6.3,0-12.4-2.3-17.1-6.5c-0.3-0.3,0-0.7,0.4-0.5
			c5.2,3,11.1,4.6,17.1,4.5c4.5,0,8.9-0.9,13.1-2.7C45.3,38.1,45.8,38.8,45.2,39.2z"/>
	</g>
	<path class="st0" d="M46.8,37.5c-0.5-0.6-3.2-0.3-4.4-0.1c-0.4,0-0.4-0.3-0.1-0.5c2.2-1.5,5.7-1.1,6.2-0.6c0.4,0.5-0.1,4.1-2.2,5.8
		c-0.3,0.2-0.6,0.1-0.5-0.2C46.3,40.6,47.3,38.1,46.8,37.5z"/>
</g>
<g>
	<path class="st0" d="M19.2,17.7c-0.1,0.1-0.4,0.2-0.7,0.2c-0.8,0-1.2-0.5-1.2-1.3c0-0.8,0.5-1.3,1.3-1.3c0.3,0,0.5,0.1,0.6,0.1
		l-0.1,0.4c-0.1-0.1-0.3-0.1-0.5-0.1c-0.6,0-0.9,0.4-0.9,1c0,0.6,0.4,0.9,0.9,0.9c0.3,0,0.4-0.1,0.6-0.1L19.2,17.7z"/>
	<path class="st0" d="M22,16.5c0,0.9-0.6,1.3-1.2,1.3c-0.7,0-1.2-0.5-1.2-1.3c0-0.8,0.5-1.3,1.2-1.3C21.5,15.2,22,15.8,22,16.5z
		 M20,16.5c0,0.5,0.3,1,0.8,1c0.4,0,0.8-0.4,0.8-1c0-0.4-0.2-1-0.7-1C20.3,15.6,20,16.1,20,16.5z"/>
	<path class="st0" d="M22.6,16c0-0.3,0-0.5,0-0.7h0.4l0,0.4l0,0c0.2-0.2,0.4-0.5,0.8-0.5c0.3,0,0.6,0.2,0.7,0.5l0,0
		c0.1-0.2,0.2-0.2,0.3-0.3c0.2-0.1,0.3-0.2,0.5-0.2c0.3,0,0.8,0.2,0.8,1.1v1.4h-0.3v-1.3c0-0.5-0.2-0.8-0.5-0.8
		c-0.3,0-0.5,0.2-0.5,0.4c0,0.1,0,0.2,0,0.2v1.5h-0.4v-1.5c0-0.4-0.2-0.7-0.5-0.7c-0.3,0-0.5,0.2-0.6,0.5c0,0.1,0,0.2,0,0.2v1.5
		h-0.5L22.6,16L22.6,16z"/>
	<path class="st0" d="M27.3,14.6c0,0.2-0.1,0.3-0.3,0.3c-0.2,0-0.3-0.1-0.3-0.3s0.1-0.3,0.3-0.3C27.2,14.3,27.3,14.4,27.3,14.6z
		 M26.8,17.8v-2.5h0.5v2.5H26.8z"/>
	<path class="st0" d="M28,16c0-0.3,0-0.5,0-0.7h0.4l0,0.4l0,0c0.1-0.2,0.4-0.5,0.8-0.5c0.3,0,0.9,0.2,0.9,1.1v1.5h-0.5v-1.4
		c0-0.4-0.2-0.7-0.6-0.7c-0.3,0-0.5,0.2-0.6,0.5c0,0,0,0.1,0,0.2v1.5H28L28,16L28,16z"/>
	<path class="st0" d="M33,15.3c0,0.2,0,0.4,0,0.7v1.4c0,0.6-0.1,0.9-0.3,1.1c-0.2,0.2-0.6,0.3-0.9,0.3s-0.6-0.1-0.8-0.2l0.1-0.3
		c0.2,0.1,0.4,0.2,0.7,0.2c0.5,0,0.8-0.2,0.8-0.9v-0.3l0,0c-0.2,0.2-0.4,0.4-0.8,0.4c-0.6,0-1.1-0.5-1.1-1.2c0-0.8,0.5-1.3,1.1-1.3
		c0.4,0,0.6,0.2,0.8,0.4l0,0l0-0.4L33,15.3L33,15.3z M32.5,16.3c0-0.1,0-0.2,0-0.2c-0.1-0.3-0.3-0.5-0.6-0.5c-0.4,0-0.7,0.4-0.7,1
		c0,0.5,0.2,0.9,0.7,0.9c0.3,0,0.5-0.2,0.6-0.5c0-0.1,0-0.2,0-0.2L32.5,16.3L32.5,16.3z"/>
	<path class="st0" d="M34.7,17.3c0.1,0.1,0.4,0.2,0.6,0.2c0.3,0,0.5-0.2,0.5-0.4c0-0.2-0.1-0.3-0.5-0.5c-0.5-0.2-0.6-0.4-0.6-0.7
		c0-0.4,0.3-0.7,0.8-0.7c0.3,0,0.5,0.1,0.6,0.2l-0.1,0.3c-0.1-0.1-0.3-0.2-0.5-0.2c-0.3,0-0.4,0.2-0.4,0.3c0,0.2,0.2,0.3,0.5,0.4
		c0.4,0.2,0.6,0.4,0.6,0.8c0,0.4-0.3,0.7-0.9,0.7c-0.3,0-0.5-0.1-0.7-0.2L34.7,17.3z"/>
	<path class="st0" d="M39.1,16.5c0,0.9-0.6,1.3-1.2,1.3c-0.7,0-1.2-0.5-1.2-1.3c0-0.8,0.5-1.3,1.2-1.3
		C38.6,15.2,39.1,15.8,39.1,16.5z M37.1,16.5c0,0.5,0.3,1,0.8,1c0.4,0,0.8-0.4,0.8-1c0-0.4-0.2-1-0.7-1
		C37.3,15.6,37.1,16.1,37.1,16.5z"/>
	<path class="st0" d="M41.9,16.5c0,0.9-0.6,1.3-1.2,1.3c-0.7,0-1.2-0.5-1.2-1.3c0-0.8,0.5-1.3,1.2-1.3
		C41.4,15.2,41.9,15.8,41.9,16.5z M39.9,16.5c0,0.5,0.3,1,0.8,1c0.4,0,0.8-0.4,0.8-1c0-0.4-0.2-1-0.7-1
		C40.1,15.6,39.9,16.1,39.9,16.5z"/>
	<path class="st0" d="M42.4,16c0-0.3,0-0.5,0-0.7h0.4l0,0.4l0,0c0.1-0.2,0.4-0.5,0.8-0.5c0.3,0,0.9,0.2,0.9,1.1v1.5H44v-1.4
		c0-0.4-0.2-0.7-0.6-0.7c-0.3,0-0.5,0.2-0.6,0.5c0,0,0,0.1,0,0.2v1.5h-0.5L42.4,16L42.4,16z"/>
</g>
</svg>
