<?xml version="1.0" encoding="utf-8"?>
<!-- Generator: Adobe Illustrator 24.3.0, SVG Export Plug-In . SVG Version: 6.00 Build 0)  -->
<svg version="1.1" id="Layer_1" xmlns="http://www.w3.org/2000/svg" xmlns:xlink="http://www.w3.org/1999/xlink" x="0px" y="0px"
	 viewBox="0 0 138.5 103.9" style="enable-background:new 0 0 138.5 103.9;" xml:space="preserve">
<style type="text/css">
	.st0{fill:#6A6F82;}
</style>
<path class="st0" d="M20,62.8c-0.2,0-0.4,0.2-0.4,0.4l-0.7,5.6l0.7,5.5c0,0.2,0.2,0.4,0.4,0.4c0.2,0,0.4-0.2,0.4-0.4v0v0l0.9-5.5
	l-0.9-5.6C20.3,62.9,20.2,62.8,20,62.8L20,62.8z M24.1,59.7c0-0.2-0.2-0.4-0.4-0.4c-0.2,0-0.4,0.2-0.4,0.4c0,0-1,9.1-1,9.1l1,8.9
	c0,0.2,0.2,0.4,0.4,0.4c0.2,0,0.4-0.2,0.4-0.4l1.1-8.9L24.1,59.7L24.1,59.7z M39.7,51.4c-0.4,0-0.7,0.3-0.8,0.8l-0.8,16.7L39,79.5
	c0,0.4,0.4,0.8,0.8,0.8c0.4,0,0.7-0.3,0.8-0.8v0l0.9-10.8l-0.9-16.7C40.5,51.7,40.1,51.4,39.7,51.4z M31.6,57.1
	c-0.3,0-0.6,0.2-0.6,0.6l-0.9,11l0.9,10.7c0,0.3,0.3,0.6,0.6,0.6c0.3,0,0.6-0.2,0.6-0.6l1-10.7l-1-11C32.2,57.4,32,57.1,31.6,57.1z
	 M47.9,80.3c0.5,0,0.9-0.4,0.9-0.9l0.8-10.6l-0.8-22.2c0-0.5-0.4-0.9-0.9-0.9c-0.5,0-0.9,0.4-0.9,0.9l-0.7,22.2L47,79.4
	C47,79.9,47.4,80.3,47.9,80.3z M64.8,80.3c0.7,0,1.3-0.6,1.3-1.3v0v0l0.5-10.3l-0.5-25.6c0-0.7-0.6-1.3-1.3-1.3
	c-0.7,0-1.3,0.6-1.3,1.3L63,68.8c0,0,0.5,10.3,0.5,10.3C63.5,79.8,64.1,80.3,64.8,80.3z M56.3,80.3c0.6,0,1.1-0.5,1.1-1.1v0
	l0.7-10.4l-0.7-22.3c0-0.6-0.5-1.1-1.1-1.1c-0.6,0-1.1,0.5-1.1,1.1l-0.6,22.3l0.6,10.4C55.2,79.8,55.7,80.3,56.3,80.3L56.3,80.3z
	 M35.7,80.2c0.4,0,0.6-0.3,0.7-0.7l1-10.8l-1-10.2c0-0.4-0.3-0.7-0.7-0.7c-0.4,0-0.7,0.3-0.7,0.7l-0.8,10.2L35,79.5
	C35,79.9,35.3,80.2,35.7,80.2z M27.7,79.6c0.3,0,0.5-0.2,0.5-0.5l1.1-10.4L28.2,58c0-0.3-0.2-0.5-0.5-0.5c-0.3,0-0.5,0.2-0.5,0.5
	l-0.9,10.7l0.9,10.4C27.2,79.4,27.4,79.6,27.7,79.6L27.7,79.6z M60.5,46.1c-0.7,0-1.2,0.5-1.2,1.2l-0.5,21.5l0.5,10.4
	c0,0.7,0.5,1.2,1.2,1.2c0.7,0,1.2-0.5,1.2-1.2v0l0.6-10.4l-0.6-21.5C61.7,46.6,61.2,46.1,60.5,46.1L60.5,46.1z M43.8,80.3
	c0.5,0,0.8-0.4,0.8-0.8l0.8-10.7l-0.8-20.5c0-0.5-0.4-0.8-0.8-0.8c-0.5,0-0.8,0.4-0.9,0.8l-0.7,20.5L43,79.5
	C43,79.9,43.4,80.3,43.8,80.3z M53.1,79.3L53.1,79.3l0.7-10.5l-0.7-22.9c0-0.6-0.5-1-1-1c-0.6,0-1,0.4-1,1l-0.6,22.9l0.6,10.5
	c0,0.6,0.5,1,1,1C52.7,80.3,53.1,79.9,53.1,79.3L53.1,79.3L53.1,79.3z M107.3,55.6c-1.7,0-3.3,0.3-4.8,1
	c-1-11.2-10.4-19.9-21.8-19.9c-2.8,0-5.5,0.6-7.9,1.5c-0.9,0.4-1.2,0.7-1.2,1.5v39.4c0,0.8,0.6,1.4,1.3,1.5c0,0,34.2,0,34.4,0
	c6.9,0,12.4-5.6,12.4-12.4C119.7,61.1,114.1,55.6,107.3,55.6L107.3,55.6z M69,39.5c-0.7,0-1.4,0.6-1.4,1.4l-0.6,27.9l0.6,10.1
	c0,0.7,0.6,1.4,1.4,1.4c0.7,0,1.4-0.6,1.4-1.4v0L71,68.8l-0.6-27.9C70.4,40.1,69.7,39.5,69,39.5L69,39.5z M28.8,88.3
	c-1.5-0.3-1.9-0.5-1.9-1.1c0-0.4,0.3-0.8,1.3-0.8c0.8,0,1.5,0.3,2.1,1l1.3-1.3c-0.9-0.9-1.9-1.5-3.4-1.5c-1.8,0-3.3,1-3.3,2.7
	c0,1.8,1.2,2.4,2.9,2.8c1.7,0.4,2.1,0.7,2.1,1.3c0,0.7-0.5,1-1.6,1c-0.9,0-1.7-0.3-2.4-1.1l-1.3,1.2c0.7,1,2.1,1.7,3.6,1.7
	c2.5,0,3.6-1.2,3.6-2.9C31.9,89.1,30.3,88.6,28.8,88.3L28.8,88.3z M37.4,84.5c-2.5,0-4,2-4,4.8c0,2.8,1.5,4.8,4,4.8c2.5,0,4-2,4-4.8
	C41.4,86.5,39.9,84.5,37.4,84.5z M37.4,92.2c-1.5,0-2.1-1.3-2.1-2.9c0-1.7,0.6-2.9,2.1-2.9c1.5,0,2.1,1.3,2.1,2.9
	C39.5,90.9,38.9,92.2,37.4,92.2z M48.8,89.9c0,1.5-0.7,2.4-1.9,2.4c-1.2,0-1.9-0.9-1.9-2.4v-5.2h-1.9v5.2c0,2.7,1.5,4.2,3.7,4.2
	c2.4,0,3.8-1.5,3.8-4.2v-5.2h-1.9V89.9z M58.7,88.6c0,0.5,0,1.7,0,2c-0.1-0.2-0.4-0.7-0.6-1l-3.3-4.9H53v9.3h1.8v-4.1
	c0-0.5,0-1.7,0-2c0.1,0.2,0.4,0.7,0.6,1l3.4,5.1h1.7v-9.3h-1.8L58.7,88.6L58.7,88.6L58.7,88.6z M65.8,84.7h-2.9v9.3h2.8
	c2.4,0,4.7-1.4,4.7-4.6C70.4,85.9,68.4,84.7,65.8,84.7z M65.7,92.1h-0.9v-5.7h1c2,0,2.8,0.9,2.8,2.8C68.5,91,67.6,92.1,65.7,92.1z
	 M76.1,86.4c0.8,0,1.4,0.4,1.7,1l1.7-0.8c-0.6-1.2-1.6-2-3.4-2c-2.4,0-4.1,2-4.1,4.8c0,2.9,1.6,4.8,4,4.8c1.7,0,2.8-0.8,3.4-2.1
	l-1.6-0.9c-0.5,0.8-1,1.2-1.8,1.2c-1.4,0-2.2-1.3-2.2-2.9C73.9,87.6,74.7,86.4,76.1,86.4L76.1,86.4z M83,84.7h-1.9v9.3h5.6v-1.8H83
	V84.7L83,84.7z M91.6,84.5c-2.5,0-4,2-4,4.8c0,2.8,1.5,4.8,4,4.8c2.5,0,4-2,4-4.8C95.6,86.5,94.1,84.5,91.6,84.5L91.6,84.5z
	 M91.6,92.2c-1.5,0-2.1-1.3-2.1-2.9c0-1.7,0.6-2.9,2.1-2.9c1.5,0,2.1,1.3,2.1,2.9C93.7,90.9,93.1,92.2,91.6,92.2z M103.1,89.9
	c0,1.5-0.7,2.4-1.9,2.4c-1.2,0-1.9-0.9-1.9-2.4v-5.2h-1.9v5.2c0,2.7,1.5,4.2,3.7,4.2c2.4,0,3.8-1.5,3.8-4.2v-5.2h-1.9V89.9
	L103.1,89.9z M110.1,84.7h-2.9v9.3h2.8c2.4,0,4.7-1.4,4.7-4.6C114.7,85.9,112.8,84.7,110.1,84.7L110.1,84.7z M110,92.1h-0.9v-5.7h1
	c2,0,2.8,0.9,2.8,2.8C112.8,91,111.9,92.1,110,92.1z"/>
<g>
	<path class="st0" d="M35.6,23.2c-0.3,0.2-1.1,0.4-2,0.4c-2.2,0-3.6-1.5-3.6-3.7c0-2.2,1.5-3.9,3.8-3.9c0.8,0,1.4,0.2,1.8,0.4
		l-0.3,1c-0.3-0.2-0.8-0.3-1.5-0.3c-1.6,0-2.5,1.2-2.5,2.7c0,1.7,1.1,2.7,2.5,2.7c0.7,0,1.2-0.2,1.6-0.4L35.6,23.2z"/>
	<path class="st0" d="M43.5,19.7c0,2.7-1.8,3.9-3.6,3.9c-1.9,0-3.4-1.4-3.4-3.7c0-2.4,1.6-3.9,3.5-3.9C42.1,16,43.5,17.5,43.5,19.7z
		 M37.8,19.8c0,1.6,0.9,2.8,2.2,2.8c1.2,0,2.2-1.2,2.2-2.8c0-1.2-0.6-2.8-2.1-2.8C38.5,17,37.8,18.4,37.8,19.8z"/>
	<path class="st0" d="M45.1,18.1c0-0.8,0-1.4-0.1-2h1.1l0.1,1.2h0c0.4-0.7,1.1-1.3,2.2-1.3c1,0,1.7,0.6,2,1.5h0
		c0.2-0.4,0.5-0.7,0.8-0.9c0.4-0.3,0.9-0.5,1.6-0.5c0.9,0,2.3,0.6,2.3,3.2v4.3H54v-4.1c0-1.4-0.5-2.2-1.5-2.2
		c-0.7,0-1.3,0.6-1.5,1.2c-0.1,0.2-0.1,0.4-0.1,0.7v4.5h-1.3v-4.4c0-1.2-0.5-2-1.5-2c-0.8,0-1.4,0.7-1.6,1.3
		c-0.1,0.2-0.1,0.4-0.1,0.6v4.4h-1.3V18.1z"/>
	<path class="st0" d="M58.9,14.1c0,0.5-0.3,0.8-0.8,0.8c-0.5,0-0.8-0.4-0.8-0.8c0-0.5,0.3-0.8,0.8-0.8
		C58.5,13.3,58.9,13.7,58.9,14.1z M57.4,23.4v-7.3h1.3v7.3H57.4z"/>
	<path class="st0" d="M60.9,18.1c0-0.8,0-1.4-0.1-2H62l0.1,1.2h0c0.4-0.7,1.2-1.4,2.4-1.4c1,0,2.5,0.6,2.5,3.1v4.3h-1.3v-4.2
		c0-1.2-0.4-2.1-1.7-2.1c-0.9,0-1.5,0.6-1.7,1.4c-0.1,0.2-0.1,0.4-0.1,0.6v4.4h-1.3V18.1z"/>
	<path class="st0" d="M75.2,16.2c0,0.5-0.1,1.1-0.1,2v4.2c0,1.7-0.3,2.7-1,3.3c-0.7,0.7-1.7,0.9-2.6,0.9c-0.9,0-1.8-0.2-2.4-0.6
		l0.3-1c0.5,0.3,1.2,0.6,2.1,0.6c1.3,0,2.3-0.7,2.3-2.5v-0.8h0c-0.4,0.7-1.2,1.2-2.3,1.2c-1.8,0-3-1.5-3-3.5c0-2.5,1.6-3.9,3.2-3.9
		c1.2,0,1.9,0.7,2.2,1.3h0l0.1-1.1H75.2z M73.8,19c0-0.2,0-0.4-0.1-0.6C73.5,17.7,72.9,17,72,17c-1.2,0-2.1,1.1-2.1,2.7
		c0,1.4,0.7,2.6,2.1,2.6c0.8,0,1.5-0.5,1.8-1.4c0.1-0.2,0.1-0.5,0.1-0.7V19z"/>
	<path class="st0" d="M80.2,22.1c0.4,0.3,1.1,0.5,1.7,0.5c0.9,0,1.4-0.5,1.4-1.1c0-0.6-0.4-1-1.3-1.3c-1.3-0.5-1.9-1.2-1.9-2.1
		c0-1.2,0.9-2.1,2.5-2.1c0.7,0,1.4,0.2,1.8,0.5l-0.3,1c-0.3-0.2-0.8-0.4-1.5-0.4c-0.8,0-1.2,0.5-1.2,1c0,0.6,0.4,0.9,1.4,1.2
		c1.2,0.5,1.9,1.1,1.9,2.2c0,1.3-1,2.2-2.7,2.2c-0.8,0-1.5-0.2-2-0.5L80.2,22.1z"/>
	<path class="st0" d="M92.7,19.7c0,2.7-1.8,3.9-3.6,3.9c-1.9,0-3.4-1.4-3.4-3.7c0-2.4,1.6-3.9,3.5-3.9C91.3,16,92.7,17.5,92.7,19.7z
		 M87,19.8c0,1.6,0.9,2.8,2.2,2.8c1.2,0,2.2-1.2,2.2-2.8c0-1.2-0.6-2.8-2.1-2.8C87.7,17,87,18.4,87,19.8z"/>
	<path class="st0" d="M100.8,19.7c0,2.7-1.8,3.9-3.6,3.9c-1.9,0-3.4-1.4-3.4-3.7c0-2.4,1.6-3.9,3.5-3.9
		C99.4,16,100.8,17.5,100.8,19.7z M95.1,19.8c0,1.6,0.9,2.8,2.2,2.8c1.2,0,2.2-1.2,2.2-2.8c0-1.2-0.6-2.8-2.1-2.8
		C95.8,17,95.1,18.4,95.1,19.8z"/>
	<path class="st0" d="M102.4,18.1c0-0.8,0-1.4-0.1-2h1.2l0.1,1.2h0c0.4-0.7,1.2-1.4,2.4-1.4c1,0,2.5,0.6,2.5,3.1v4.3h-1.3v-4.2
		c0-1.2-0.4-2.1-1.7-2.1c-0.9,0-1.5,0.6-1.7,1.4c-0.1,0.2-0.1,0.4-0.1,0.6v4.4h-1.3V18.1z"/>
</g>
</svg>
