<svg id="Layer_1" data-name="Layer 1" xmlns="http://www.w3.org/2000/svg" viewBox="0 0 72 72"><defs><style>.cls-1{fill:#fff;}</style></defs><path class="cls-1" d="M11.64,35.69l2.65,1.54,6.13,3.55,6.76,3.94,4.62,2.67q.45.27.93.51A8,8,0,0,0,39,48a26.26,26.26,0,0,0,2.79-1.57l6-3.45L54.59,39,59.5,36.2c.3-.17.61-.34.9-.52a3.2,3.2,0,0,0,1.66-2.83c-.16-1.73-2-2.49-3.36-3.26L53.36,26.5l-6.89-4-5.55-3.23-1.44-.83a6.15,6.15,0,0,0-2.74-.66,9.64,9.64,0,0,0-3.07.26,3.93,3.93,0,0,0-.87.31L31.62,19l-5.28,3L19.47,26,13.69,29.3l-1.64.94a5.09,5.09,0,0,0-1.34,1,2.63,2.63,0,0,0-.77,2,3.67,3.67,0,0,0,1.69,2.46.64.64,0,0,0,.86-.23.62.62,0,0,0-.23-.85,3,3,0,0,1-1-1.08,1.2,1.2,0,0,1-.08-.77,2.06,2.06,0,0,1,1.06-1.2l.73-.42,4.59-2.62,6.64-3.81,6.13-3.5,3.12-1.79.05,0c-.15.08.11,0,.15-.05l.33-.09c.24-.06.49-.11.73-.15a9,9,0,0,1,2.83,0c.21,0,.43.08.64.14l.24.07c.06,0,.33.14.16.05l0,0c.12.08.25.14.37.21l4.16,2.42,6.55,3.79L56,29.46c1.12.65,2.23,1.31,3.35,1.95a6,6,0,0,1,.84.5,2.52,2.52,0,0,1,.4.4,1.74,1.74,0,0,1,.18.33,1.05,1.05,0,0,1,0,.7,1.79,1.79,0,0,1-.34.69l-.07.09-.14.15-.15.14-.06.06c-.09.07,0,0,0,0a2.14,2.14,0,0,1-.32.2l-3.44,2-6.29,3.62L43.4,44l-4.28,2.46a5.94,5.94,0,0,1-1.34.59,6.62,6.62,0,0,1-4.73-.41c-1-.54-1.94-1.13-2.91-1.69l-6.09-3.54-6.6-3.83L12.92,35l-.65-.38A.63.63,0,0,0,11.64,35.69Z"/><path class="cls-1" d="M11.64,41.35l2.65,1.53,6.13,3.56,6.76,3.93,4.62,2.68a8.4,8.4,0,0,0,.93.51,8,8,0,0,0,6.24.08,26.19,26.19,0,0,0,2.79-1.56l6-3.46,6.82-3.92,4.91-2.82.9-.52a3.2,3.2,0,0,0,1.66-2.83c-.16-1.72-2-2.49-3.36-3.26l-5.34-3.1-6.89-4-5.55-3.24-1.43-.84a6.27,6.27,0,0,0-2.75-.64,9.54,9.54,0,0,0-3.06.25,3.86,3.86,0,0,0-.88.32l-1.18.68-5.28,3-6.87,3.93L13.69,35l-1.64.94a4.87,4.87,0,0,0-1.34,1,2.63,2.63,0,0,0-.77,2,3.67,3.67,0,0,0,1.7,2.46.63.63,0,0,0,.63-1.08,2.93,2.93,0,0,1-1-1.08,1.21,1.21,0,0,1-.08-.77,2,2,0,0,1,1.07-1.2l.74-.42,4.57-2.62,6.64-3.8,6.15-3.51c1-.6,2.07-1.21,3.12-1.79l0,0c-.15.08.1,0,.15,0l.32-.09c.25-.06.49-.11.74-.15a9,9,0,0,1,2.83,0c.21,0,.43.08.64.14l.24.07c.06,0,.33.14.16,0l.05,0,.37.22,4.16,2.41,6.54,3.79L56,35.13c1.12.65,2.23,1.31,3.35,1.95a5,5,0,0,1,.84.5,2.16,2.16,0,0,1,.4.4,2.68,2.68,0,0,1,.18.33,1,1,0,0,1,0,.7,2.07,2.07,0,0,1-.34.68c.05-.09-.06.06-.08.08l-.14.15a1,1,0,0,1-.15.14l-.06.06,0,0-.32.2-3.44,2-6.29,3.62L43.39,49.7l-4.27,2.46a5.94,5.94,0,0,1-1.34.59,6.67,6.67,0,0,1-4.73-.41c-1-.54-1.94-1.13-2.91-1.69l-6.09-3.54-6.6-3.83-4.53-2.63-.65-.38A.63.63,0,0,0,11.64,41.35Z"/><path class="cls-1" d="M36.63,53.6V48a.63.63,0,0,0-1.25,0V53.6A.63.63,0,0,0,36.63,53.6Z"/><path class="cls-1" d="M11.19,38.58V33.17a.63.63,0,0,0-1.26,0v5.41A.63.63,0,0,0,11.19,38.58Z"/><path class="cls-1" d="M35.38,18.39v5.66a.63.63,0,0,0,1.25,0V18.39A.63.63,0,0,0,35.38,18.39Z"/><path class="cls-1" d="M60.81,33.16v5.66a.63.63,0,0,0,1.26,0V33.16A.63.63,0,0,0,60.81,33.16Z"/></svg>