<svg id="Layer_1" data-name="Layer 1" xmlns="http://www.w3.org/2000/svg" viewBox="0 0 107.09 242.15"><path d="M140.33,140.36H96.45V124H124V81.33a52.48,52.48,0,0,1,52.46-52.4h3.32V45.29h-3.32a36.12,36.12,0,0,0-36.1,36Z" transform="translate(-96.45 -28.93)"/><path d="M123.57,271.07h-3.32V254.71h3.32a36.12,36.12,0,0,0,36.1-36v-59h43.88V176H176v42.66A52.48,52.48,0,0,1,123.57,271.07Z" transform="translate(-96.45 -28.93)"/><polygon points="107.09 111.43 63.21 111.43 63.21 67.55 79.58 67.55 79.58 95.07 107.09 95.07 107.09 111.43"/><polygon points="43.88 174.04 27.52 174.04 27.52 146.52 0 146.52 0 130.16 43.88 130.16 43.88 174.04"/></svg>