<svg id="Layer_1" data-name="Layer 1" xmlns="http://www.w3.org/2000/svg" viewBox="0 0 263.7 166.36"><defs><style>.cls-1{fill:#fff;}</style></defs><path class="cls-1" d="M130,179.86A27.89,27.89,0,1,1,157.91,152,27.92,27.92,0,0,1,130,179.86Zm0-43.65A15.76,15.76,0,1,0,145.79,152,15.79,15.79,0,0,0,130,136.21Z" transform="translate(-18.15 -66.82)"/><path class="cls-1" d="M192.6,124.09H170.78v54.56h10.91V135H192.6c5.45,0,10.91,5.46,10.91,10.91v32.74h10.91V145.91A21.71,21.71,0,0,0,192.6,124.09Z" transform="translate(-18.15 -66.82)"/><polygon class="cls-1" points="263.7 111.83 209.14 111.83 241.87 68.18 209.14 68.18 209.14 57.27 263.7 57.27 230.96 100.91 263.7 100.91 263.7 111.83"/><path class="cls-1" d="M48.3,143.37H18.15V132.13h18.9V102.82a36.06,36.06,0,0,1,36.05-36h2.28V78.06H73.1a24.81,24.81,0,0,0-24.8,24.76Z" transform="translate(-18.15 -66.82)"/><path class="cls-1" d="M36.78,233.18H34.5V221.94h2.28a24.81,24.81,0,0,0,24.8-24.76V156.63H91.72v11.24H72.82v29.31A36.06,36.06,0,0,1,36.78,233.18Z" transform="translate(-18.15 -66.82)"/><polygon class="cls-1" points="73.57 76.56 43.43 76.56 43.43 46.41 54.67 46.41 54.67 65.31 73.57 65.31 73.57 76.56"/><polygon class="cls-1" points="30.14 119.57 18.9 119.57 18.9 100.66 0 100.66 0 89.42 30.14 89.42 30.14 119.57"/></svg>