<?xml version="1.0" encoding="utf-8"?>
<!-- Generator: Adobe Illustrator 25.2.1, SVG Export Plug-In . SVG Version: 6.00 Build 0)  -->
<svg version="1.1" id="Layer_1" xmlns="http://www.w3.org/2000/svg" xmlns:xlink="http://www.w3.org/1999/xlink" x="0px" y="0px"
	 viewBox="0 0 1457.4 745.6" style="enable-background:new 0 0 1457.4 745.6;" xml:space="preserve">
<style type="text/css">
	.st0{fill:#D8D8D8;}
	.st1{fill:#FF9425;}
</style>
<g id="Group_23" transform="translate(0.004 0)">
	<path id="Path_61" class="st0" d="M645.3,244.5l-6.3,8.4l-4.2,4.2l-8.4,4.6l-1.3,3.8c0,0-3.4,3.4-2.9,5.4c0.3,1.9,0.4,3.9,0.4,5.9
		c-2.7,2.5-5.5,4.9-8.4,7.1c-2.1,1.6-4.1,3.4-5.9,5.4c-1,1.2-2.1,2.3-3.4,3.4c-2,1.7-3.7,3.7-5,5.9c-1.7,2.5-3.4,4.2-4.2,5.4
		c-2.1,2.6-3.6,5.6-4.6,8.8c-1.1,3.5-2.7,6.9-4.6,10.1l-0.8,2.1c0.4,7.1,0.4,8.4,1.3,10.9c0.8,2.5,1.7,1.7,0.8,7.1
		c-0.8,5.4-0.8,7.5-1.7,10.1c-0.8,2.5-3.4,7.1-4.2,9.2s1.7,5.9,1.7,5.9s1.3,5.4,0.4,6.7c-0.8,1.3,0.4,3.8,0.4,3.8
		c2.4,1.3,4.6,2.9,6.7,4.6c1.7,1.7,4.6,4.2,5,5.4c0.4,1.3,3.8,7.1,4.2,8.4c1.4,2.5,2.9,4.8,4.6,7.1c0.8,1.3,5,5.9,5,5.9
		c2.4,1.8,4.6,3.7,6.7,5.9c1.3,1.7,5,2.5,6.3,3.8s4.2,0.8,5.9,2.1c1.7,1.3,5-0.8,6.7,0s6.3-0.8,7.5-1.7c1.3-0.8,4.2-3.8,6.3-2.5
		s3.4,0,5,0.4s4.2-1.7,5.9-1.7c1.7,0,5.9-1.7,7.1-1.7s5.4-2.5,7.1-2.5c1.7,0,3.8-1.7,5.9-0.8c2.1,0.8,1.3-1.7,5-0.4
		c3.8,1.3,5,0,6.3,1.3c1.3,1.3,2.9,0,4.2,1.7c1.3,1.7,3.4,2.9,3.8,4.6c0.4,1.7,2.9,3.4,2.9,3.4l2.5,0.4c0,0,3.4-2.5,4.2-0.8
		s4.6,1.3,4.6,1.3l3.8,4.2l1.3,1.7c0,0,2.5,6.7,2.1,9.2c-0.4,2.5-0.4,8-1.7,9.2s-2.1,6.7-2.1,6.7s-1.7,1.7,2.1,5
		c2.8,2.4,5.3,5.1,7.5,8c1.3,1.7,4.6,6.3,5,9.2c0.5,2.9,1.5,5.8,2.9,8.4c1.7,3.8,3.8,4.2,4.2,8.4c0.4,4.2,1.3,4.2,0.8,7.1
		c-0.4,2.9-1.7,3.4-0.4,5.4c1.3,2.1,2.9,5.9,2.5,7.1c-0.4,1.3-1.3,6.7-1.3,6.7l-0.8,2.5l-3.8,7.1l-2.5,3.8
		c-0.8,2.9-2.5,5.9-2.1,10.1c0.4,4.2-2.1,4.2,1.3,8.4c3.3,4.2,5,8.8,7.1,12.6c1.8,3.1,3.1,6.5,3.8,10.1c0.4,2.5,2.1,3.4,2.9,6.7
		c0.7,2.3,1.1,4.7,1.3,7.1c0,2.1-0.4,7.5,0.4,8.8c0.8,1.3,1.3,5,1.7,6.7s-1.3,2.1,1.3,5c2.5,2.9,4.2,4.6,5.9,6.7
		c1.2,1.2,2,2.6,2.5,4.2c1.3,2.9,2.9,4.6,3.4,7.1s0.8,8.8,2.1,11.7c1.3,2.9,2.9,5.9,2.9,5.9s4.6,2.9,6.3,2.5s5-4.2,7.5-2.9
		c2.5,1.3,4.6,0,6.7,0c2.1,0,4.2-2.5,6.3-2.5s5-3.4,6.7-2.5c1.7,0.8,3.8-0.8,5.9-2.9c2.1-2.1,3.4-3.8,7.1-7.1s3.4-3.4,5.9-5.4
		c2.5-2.1,5-6.7,8-7.5c2.9-0.8,3.8-3.8,4.6-5.9c0.6-1.8,1.4-3.5,2.5-5c1.3-1.7,0.4,0.4,2.5-5c2.1-5.5,4.6-7.5,6.7-8.8
		c2.1-1.3,3.4-3.8,4.6-4.2s3.4,1.3,2.5-2.5c-0.8-3.8,0-9.2-0.8-10.5c-0.8-1.3-2.1,2.9-1.7-3.4c0.4-6.3,5-12.6,5-12.6s6.3-8,8.4-9.2
		c2.1-1.3,2.5-2.5,5.4-4.2s9.2-5.9,9.2-8c0-2.1,2.5-7.5,2.5-8.8c-0.1-3.2-0.4-6.4-0.8-9.6c-0.8-7.1,0.8-5.4-1.7-12.1
		c-2.5-6.7-2.9-15.1-4.6-17.2c-1.7-2.1-0.8-7.5-0.8-9.2s2.9-5.9,4.2-7.5c1.3-1.7,6.7-8.4,6.7-8.4s8.4-9.6,11.3-14.2s5.9-8.8,8-10.5
		c3.8-2.7,7.2-6,10.1-9.6c2.9-4.2,8.8-12.1,9.2-13.4c1.1-1.9,2.4-3.7,3.8-5.4c0,0,4.6-5.4,5.4-8.4c0.8-2.9,5-19.3,4.2-18.4
		c-0.8,0.8-5.9,1.7-7.5,2.1c-1.7,0.4,2.5,2.1-9.6,1.3c-12.2-0.8-18.4,1.3-18.4,1.3c-3.8-0.8-6.7,3.4-8-2.5
		c-1.3-5.9-2.1-9.2-4.6-13.4c-2.5-4.2-4.2-5.9-8-11.3s-3.4-2.9-6.7-7.1c-3.4-4.2-4.2-2.9-6.3-8.4c-2.1-5.4-3.8-3.4-6.3-10.9
		c-2.5-7.5-4.2-8.4-5.4-12.6c-1.3-4.2-2.9-5.4-3.8-9.2c-0.8-3.8-10.5-23-11.7-24.3c-1.3-1.3-3.4-8-2.9-6.7c0.4,1.3,6.3,5.4,6.3,5.4
		c1.5-0.6,3-1,4.6-1.3c1.3,0,6.3,4.6,6.3,6.3s8.8,9.6,10.9,15.5c2.1,5.9,4.6,10.1,5,11.7c0.4,1.7,4.6,8.4,6.3,10.9
		c1.7,2.5,7.1,7.5,8,10.1c0.8,2.5,8.8,10.9,8.8,16.3c0,5.4,3.8,12.6,4.2,14.2s8,3.8,8,3.8l10.1-2.5c0,0,15.1-9.6,16.8-9.6
		c1.7,0,15.1-6.3,15.1-6.3s5.4-5,9.2-8c3.8-2.9,8-8.4,8.8-10.9c0.8-2.5,2.5-2.9,5.9-6.7s8-7.5,5-10.1c-2.9-2.5-4.6-1.7-8.8-5.9
		s-3.8-3.4-6.7-8.8c-2.9-5.4,0.4-11.7-5.9-5.4s-3.8,8-10.1,9.2c-6.3,1.3-8.8,5.4-11.7,1.3c-2.9-4.2-5.9-1.7-7.5-8
		c-1.7-6.3-2.9-6.7-3.4-9.2s0-2.5-3.4-8.8c-3.4-6.3-0.8-15.9,1.3-10.5c2.1,5.4,5.4,6.3,10.9,10.1s8,6.7,13,7.1c5,0.4,9.2,0,10.1,0.8
		c0.8,0.8,1.7-0.4,3.8,0.4c2.1,0.8,2.9-1.3,3.8,2.1c0.8,3.3,5.4,3.8,7.5,5.9c2.1,2.1,2.1,1.3,7.5,2.1c4.3,0.5,8.6,0.8,13,0.8l8-0.4
		l9.2,0.8c0,0,6.7,3.8,8.4,3.8c1.7,0,2.1,4.6,6.3,7.1c4.2,2.5,5,2.9,7.5,5.9c2.5,2.9,2.1,4.2,5.4,7.1c3.3,2.9,8.8-0.4,9.6-1.7
		c0.8-1.3,5-3.4,4.2,0c-0.8,3.4,4.2,2.1,2.9,10.1c-1.3,8-2.1,5.9,0,11.3c2.1,5.4,11.3,22.2,11.7,27.2c0.4,5,2.9,3.4,3.4,8
		c0.4,4.6,2.9,6.3,2.9,9.6s2.9,4.2,3.4,6.7c0.4,2.5,5,0.4,6.3,0c1.3-0.4,7.1-5.9,7.1-5.9s2.5-0.8,2.1-5c-0.4-4.2,0-3.4,0-9.6
		s-2.5-6.3-1.3-12.6c1.3-6.3,4.6-10.1,5.4-13c0.8-2.9,4.2-8,5.9-8.4c1.7-0.4,10.9-5,13-8c2.7-3.4,5.6-6.6,8.8-9.6
		c3.4-3.4,9.2-7.5,10.5-6.3c1.3,1.3,0.8,0.8,2.9,0.8c2.1,0,5.9,1.7,8.8,2.1s8.8,7.5,10.1,11.3c1.3,3.8,0.4,2.9,5,8.4
		s8.8,2.1,8.8,8.8s0,6.3,2.1,8.8c2.1,2.5,4.6-4.6,7.1-3.8s2.9-0.8,5,5.9s3.4,6.7,3.8,13.4s-0.4,0.4-0.4,5.9s-0.4,5.9,0.4,10.9
		c0.8,5,3.8,6.7,3.4,7.5c0,0,2.5-7.1,1.7-12.1c-0.8-5,0-12.1,2.1-14.2c2.1-2.1,4.2-4.2,5.9,1.3c1.7,5.4,2.5,1.3,6.3,7.5
		c3.8,6.3,7.1,5,7.5,8c0.4,2.9,2.5,3.4,5.4,5.9s5.4-0.4,8.8-2.9c3.4-2.5,12.6-11.7,13-15.5c0.4-3.8,4.2-2.9-2.5-12.6
		s-6.7-13-13.8-18.9s-11.3-6.3-5.9-13.8c5.4-7.5,8-12.6,11.3-10.5c3.3,2.1,9.2,1.7,9.2,10.1s-1.7,17.6,4.2,7.5
		c5.9-10.1,8.8-15.9,7.1-14.2c-1.7,1.7,3.8-3.4,3.8-3.4s0.4-3.8,7.5-5.4s9.2-2.5,11.7-3.8s9.6-9.6,10.9-13.4
		c1.3-3.8,4.6-10.5,3.8-13.4c-0.8-2.9-5-17.2-5.9-16.8s-0.4,0.4-5.9-5.4c-5.4-5.9-9.2-10.1-10.1-12.6c-0.8-2.5-2.9-2.9-0.4-6.3
		c2.5-3.3,3.8-2.9,4.2-5.9c0.4-2.9,3.8-5.4-2.5-3.4s-1.7,0.8-7.1,0.4c-5.4-0.4-19.7,2.9-12.6-5.9c7.1-8.8,9.2-14.2,10.5-14.2
		c1.3,0,7.5-7.1,8-0.4s2.9,5,3.4,9.2c0.4,4.2,8.8-4.6,8.8-4.6c1.9,0.6,3.6,1.6,5,2.9c2.1,2.1,2.1,8.8,2.1,8.8s-1.7-2.1,2.9,1.3
		c4.6,3.4,9.6,1.7,9.6,8.8s0,7.5,2.9,9.2c2.9,1.7,5.9,0.8,8.4-1.3s6.7-9.6,6.7-9.6s0.4-2.9-6.3-7.1c-4.7-2.8-9.1-5.9-13.4-9.2
		c-2.5-2.1-1.7-8.4,0.8-10.9c2.5-2.5,3.8-3.8,2.9-7.1s1.3-5.9,7.5-5.4c6.3,0.4,7.5-0.4,7.5-0.4s1.3,0.8,1.3-1.7s8-14.2,5.9-14.2
		c-2.1,0,0.4-2.9-0.8-7.5c-1.3-4.6,4.2-11.7-0.4-15.1c-4.6-3.4-5.9-5-8.8-10.1c-2.9-5-2.5-5.9-13.4-7.1c-10.9-1.3-15.9,2.5-18.4-0.8
		s-3.8,5-5.4-5c-1.1-5.7-0.2-11.6,2.5-16.8c0,0,6.7-4.2,8.4-7.1c1.7-2.9,8.4-4.2,13.8-2.1s13.4,1.7,20.1,2.9c6.7,1.3,6.3,5.4,9.6,0
		c3.4-5.4,0-8,2.5-10.9s5.4-7.5,7.5-4.6s6.3,5.9,9.6,2.1s4.6-4.2,4.6-4.2l1.7,1.7c0,0,3.8-2.1,3.8,1.7s3.8,8,1.7,10.9
		c-2.1,2.9-5,2.5-5,9.6c0,7.1,0,5.9,4.6,11.7c4.6,5.9,7.5,0.8,8.4,7.1s1.7,5,6.3,9.2c4.6,4.2,3.8,4.2,7.1,6.7c3.4,2.5,5,5,5,0.8
		c0.2-3.3,0.2-6.7,0-10.1c-0.4-3.8,3.4-6.7,0.8-13c-2.5-6.3-0.4-5.9-5.4-10.5c-5-4.6-8.4,0.8-10.1-5.9c-1.7-6.7,8-9.6,10.5-10.5
		c2.5-0.8,6.3-5.9,7.1-2.5s-6.3,15.5,5.9,2.5c12.1-13,6.7-7.5,6.7-7.5s6.3-0.8,7.5,0s4.6-3.8,3.4-3.4s-13.4-6.7-13.4-6.7l-8.8-5
		c0,0,2.9-2.1,5-1.7s2.5-4.2,4.6-4.6c2.1-0.4,16.3,2.9,19.3,4.6c2.9,1.7,13.4,2.1,12.1,1.3c-1.3-0.8-8-5.9-8.4-7.5
		c-0.4-1.7-15.1-5-19.7-4.6c-4.6,0.4-8.8,1.7-12.6,0.4s-9.2-4.6-12.1-4.6s-39.8-7.1-41.5-6.7s-4.2,8.4-5.4,7.1
		c-1.3-1.3-3.4-1.3-9.2-2.9c-8-2-16.1-3.3-24.3-3.8c-10.5-0.8-17.6,0.8-20.5-2.5s-9.2-2.1-16.3-2.5c-7.1-0.4-15.5,0-19.3,0
		c-4.9,0-9.8-0.3-14.7-0.8c-2.1-0.4-4.6-3.4-7.1-3.8c-2.5-0.4-2.1-1.3-7.1-2.1c-5-0.8-4.6-6.3-6.3-1.7c-1.7,4.6-0.8,3.4-3.4,5
		s-5,5-6.7,5c-1.7,0-8.4,0.4-9.6-0.4c-1.3-0.8-3.4-1.7-7.5-1.7c-3.2,0.3-6.5,0.1-9.6-0.4c-5.4-0.8-9.6-0.4-14.7-2.9s-5-4.2-9.2-3.8
		c-4.2,0.4-4.2-0.8-10.1-0.8s-13,3.4-16.8,3.8s-12.1-0.4-15.1-1.7s-3.8-4.2-14.7-2.9s-17.2,1.3-15.1-2.1s4.6-6.7,5.9-7.1
		s4.2-2.5,2.1-3.4c-2.9-1.4-6-2.3-9.2-2.5c-5-0.4-4.6,1.7-12.1,0.8c-7.5-0.8,4.2-2.9-11.3-2.5c-7,0.1-14,0.7-20.9,1.7
		c-1.7,0-3.8-3.4-8,1.7c-4.2,5-10.1,8-18.4,8.4s-8.8-0.8-16.8,2.1c-8,2.9-13-0.8-11.3,5.9c1.7,6.7,3.8,9.2,3.8,10.5
		s-3.8,9.6-8.4,4.6c-4.6-5-13-24.7-9.2-11.3c3.8,13.4,12.1,18,4.2,20.1s-7.1-0.8-8.4-1.7c-1.3-0.8,0-6.7-0.4-10.1
		c-0.1-2.6-1.1-5.2-2.9-7.1c-1.7-1.7-1.3-4.2-4.6-5c-3.4-0.8-0.4-2.5-5.9-2.5s-10.1-3.4-8.8,4.2s2.5,2.5,5.9,9.6
		c3.3,7.1,9.6,2.1,5,7.1c-4.6,5-16.8,3.4-19.7,1.3s-2.1,0.8-7.5-2.9s-3.8-6.7-10.1-3.8c-6.3,2.9-8.4,8.4-10.9,6.3
		c-2.5-2.1-8.4,2.9-10.5,0.4c-2.1-2.5-10.5-2.5-12.1,0c-1.7,2.5-6.7,2.1-13.8,5.4c-7.1,3.4-5,0.4-13.8,7.5
		c-8.8,7.1-13.8,13-16.8,8.4c-2.9-4.6-18.9-12.6-12.6-13.8s9.2-3.8,12.6-0.8s8.8,2.1,9.6,0c0.8-2.1,4.6-4.2-0.4-6.7
		s-5.4-0.8-13.4-3.8c-8-2.9,0-2.1-10.9-3.8c-6.2-0.8-12.4-1.9-18.4-3.4c-2.9-0.8-7.1,0-11.3-0.4c-4.2-0.4-7.1-1.3-10.9-0.8
		c-3.8,0.4-5.9-0.4-10.9,3.4c-5,3.8-8.8,5.4-12.1,8.4s-12.1,8.8-14.7,10.9s-11.3,8.8-12.1,11.3c-0.8,2.5,0.8,4.6-2.5,6.3
		s-6.7,1.7-9.2,2.1c-2.5,0.4,0-3.8-2.5,0.4c-2.5,4.2-1.7,19.3,0.4,17.2s0.8-8.8,10.1-2.5c9.2,6.3,15.1,5.4,14.7,11.3
		s6.3,5.4,7.1,6.7c0.8,1.3,5-1.7,5-1.7s9.2-5.9,9.2-8.8s5.9-9.6,5.9-9.6s-4.2-2.1-4.2-6.3s1.3-5.4,2.1-9.6c0.8-4.2-4.6,0,8-8
		s13.4-2.5,13.4-2.5s1.7,1.7-0.4,4.2c-2.1,2.5-5.9,9.2-6.7,10.1s3.8,7.5,5.9,7.5c2.1,0,6.3-1.7,8.8-1.3s6.7-1.3,8-0.4
		c1.3,0.8,4.2,3.4,2.1,5.4s-6.7,4.6-10.1,3.8c-3.4-0.8-8.4-6.7-5.4,1.7c2.9,8.4-0.4,10.5-2.9,10.1c-2.5-0.4-8-4.6-7.1,1.7
		s-5.4,10.5-6.7,10.5c-1.3-0.1-2.5-0.2-3.8-0.4c0,0-3.8-0.4-5.9-0.4c-2.9,0.4-5.5,1.7-7.5,3.8c-1.3,1.7-2.9,0.4-5,0.4
		c-2.1,0,0-2.5-4.2-3.4c-4.2-0.8-6.7-1.7-9.2,0s-6.3,2.5-8,1.3s0.8-4.2-2.5-2.5s-5.9,6.3-7.1,6.7c-1.3,0.4,3.8,0-1.3,0.4
		c-3.3,0.3-6.6,1.2-9.6,2.5c-2.5,0.8,0.8,5.9-3.8,7.5c-4.6,1.7-1.3-2.1-5.9,1.7c-4.6,3.8-5.4,7.1-7.1,7.5c-1.7,0.4-1.3,1.3-5,1.7
		c-1.9,0.2-3.7,0.6-5.4,1.3c-2.1,0.4,0.4,1.3-4.2,0.4s-8,0.8-7.1,2.5c0.8,1.7,16.3,6.3,4.6,5.9c-11.7-0.4-8,1.7-5.4,3.4
		s3.8,3.4,5,3.8s3.4,5.4,3.4,5.4s3.4-0.4,1.3,2.5c-2.1,2.9,0.8,3.8-1.3,7.5c-2.1,3.8-2.1,1.3-3.8,2.1c-1.7,0.8-4.2,3.8-8.8,1.3
		c-4.1-2.5-8.7-3.9-13.4-4.2c-5.4-0.4-1.7-1.3-5.4,1.7c-3.2,2.3-4.8,6.2-4.2,10.1c0.4,3.8,0.8,8.8-0.4,11.3c-1.3,2.5-1.3,5-0.4,8.8
		c0.4,2.2,1.6,4.1,3.4,5.4c0,0,5.9,0.8,7.1,1.3c1.3,0.4,3.8-0.8,7.1,1.3c3.3,2.1,6.7,2.9,8.8,0.4c2.1-2.5,10.5-5.4,13-8
		c2.5-2.5,4.2-3.4,2.9-5.9c-1.3-2.5,2.5-8.8,4.6-10.1c2.1-1.1,4.4-1.9,6.7-2.5l5-7.5c0,0,4.2-4.6,6.3-4.2c2.1,0.4,13.8,4.6,13-0.8
		s0.8-7.1,2.1-5c1.3,2.1,4.6,1.3,4.6,1.3c1-0.5,2.1-0.3,2.9,0.4c1.3,1.3,2.9,6.7,5.4,8c2.5,1.3,4.6,2.5,6.3,3.4s3.4,0,6.7,2.9
		c3.4,2.9,6.7,4.6,7.1,5.9c0.9,1.5,2.1,2.9,3.4,4.2c0,0,2.9,0.8,2.1,2.5c-0.8,1.7-5,6.7-7.1,7.5c-2.1,0.8-7.5-0.8-5.4,0.8
		c2.1,1.7,5,3.8,6.3,2.5c1.3-1.3,9.2-9.6,9.2-9.6s-0.4,0.4,0-2.1c0.4-2.5,0-5.4,2.1-4.2s3.4,2.9,4.2,1.3s1.7-0.8-0.4-2.1
		c-2.1-1.3-7.1-8.4-9.6-8.8c-2.5-0.4-8.8-4.6-8.8-4.6s-1.3-1.3-4.2-4.6c-2.9-3.3-3.8-2.5-4.6-5.4s-3.4-6.7,1.3-5.9
		c4.6,0.8,7.5,3.8,11.7,6.3c4.2,2.5,3.4,3.4,7.1,5.9c3.8,2.5,4.2,5,7.1,4.6c3-0.4,5.8,1.6,6.2,4.6c0,0.3,0.1,0.6,0.1,0.8
		c0,3.8,0.8,8,1.7,8.8c0.8,0.8,3.4,2.5,4.2,4.2c1.1,2.6,2.3,5.1,3.8,7.5c1.4,1.6,2.6,3.3,3.8,5c1.3,2.1,1.7-0.4,2.9,0.4
		s2.9,0.4,2.9-1.3c0.1-1.5,0.2-3.1,0.4-4.6c0,0,5.9-1.7,4.2-2.5s-6.7-5.9-6.3-7.5c0.4-1.7,0-5,2.1-4.6c2.1,0.4,4.2,4.2,8.8,0.8
		c4.6-3.4,10.1-5,8.4,0c-1.7,5,0.4,5.9,0,11.3c-0.4,5.4,1.7,3.8,4.6,6.7c2,2,4.4,3.4,7.1,4.2c2.1,0.8,5.4,0.4,8.8,0.8
		c3.4,0.4,5.4-1.3,8.4-0.4c2.9,0.8,9.6-0.4,10.9,0.4s6.3-1.7,6.7,1.3c0.4,2.9,2.1-0.4,0.8,6.3c-0.7,3.8-1.7,7.6-2.9,11.3
		c-4.6,8.8-6.3,10.9-8.4,11.3s-3.4,1.7-7.1,1.3c-3.8-0.4-8.4,0-13.8-1.3c-5.4-1.3-15.5,1.3-19.7-1.3c-4.2-2.5-10.1-0.4-12.6-3.4
		c-2.5-2.9-6.7-2.5-8.4-4.2s-2.5-6.3-2.5,0.4c0,6.7-3.8,7.1-4.6,10.5s1.3,1.7-3.4,1.3c-4.6-0.4-5.9,2.1-12.6-2.9
		c-6.7-5-10.1-5-13.4-7.1c-3.4-2.1-6.7,3.8-10.1-2.9c-3.4-6.7-8-1.3-8.4-6.7c-0.3-2.8-0.2-5.6,0.4-8.4c0.4-3.4,5-6.3,2.9-7.5
		c-2.1-1.3-0.4-3.4-3.4-2.1c-2.9,1.3-7.1,1.7-10.5,2.9c-3.4,1.3,7.5,0-8.8,1.3c-16.3,1.3-20.9,2.9-20.9,2.9s-1.3-0.8-3.4,0.8
		c-2.1,1.7-5,4.2-8,2.9c-2.3-1-4.8-1.1-7.1-0.4c-2.5,0.4-4.2-2.1-7.1,0c-2.9,2.1-6.3,2.9-7.5,2.1
		C647.3,247.5,646.2,246.1,645.3,244.5L645.3,244.5z"/>
	<path id="Path_62" class="st0" d="M925.5,520.2c-1.3,4.6-5.9,11.3-5.9,11.3l-8.4,4.2c-1.4,1.2-2.9,2.2-4.6,2.9
		c-2,0.7-4,1.5-5.9,2.5c0,0-3.8-0.8-2.5,2.9c1.3,3.8,1.7,8.4,1.3,9.6c-0.4,2.3-0.6,4.7-0.4,7.1c0,3.4-1.3,7.5-3.4,8.4
		s-4.2,1.7-3.8,4.6c0.4,2.9,0.4,11.7,0.4,11.7l5.4,8.4c1.5-0.9,3.3-1.4,5-1.3c2.5-0.3,4.8-1.3,6.7-2.9c0,0,3.8,0.8,3.4-3.8
		c-0.4-4.6,1.7-10.1,1.3-11.3c-0.4-1.3,3.8-6.7,3.8-8c0-1.3,4.2-7.1,4.2-9.2s2.9-5.4,3.4-8c0.4-2.5,0.8-8.4,1.7-10.1
		c0.8-1.6,1.2-3.3,1.3-5v-5L925.5,520.2L925.5,520.2z"/>
	<path id="Path_63" class="st0" d="M1253.6,576.7c-1.3,1.7-2.1,19.7-2.9,21.8s-2.5,13-1.7,15.5c0.8,2.5,2.1,11.7,1.3,14.7
		c-0.8,2.9,0.4,12.1-1.7,11.7c-2.1-0.4-2.9,0.4-2.9,1.7c0,1.3,2.9,3.8,2.9,3.8c2.4,0,4.8-0.1,7.1-0.4c2.1-0.4,6.3-2.5,9.6-2.5
		c3.4,0,5.4-2.5,8.4-2.5c2.9,0,9.2-2.1,10.9-1.3c1.7,0.8,4.2-5,7.1-3.8s9.2-2.9,12.1-2.9s4.2-4.6,7.5-3.8c3.4,0.8,9.6-1.7,12.6-0.4
		s7.5-4.2,9.6,0c2.1,4.2,8.4,5.9,8.4,8c0,2.1-0.4,6.7-0.4,6.7l5-0.4c0,0,8-5,9.2-5c1.3,0,4.2-4.2,4.2-2.1s-2.5,6.7-3.4,8.8
		c-0.4,1.6-0.1,3.3,0.8,4.6c0,0,4.2,2.1,2.5,5.9c-1.7,3.8,0.4,2.9,0,5.9c-0.4,2.9,0,1.7,1.7,3.4c1.7,1.7,4.6,4.6,7.1,4.2
		c2.5-0.4,3.4-2.9,5.4-1.7c2.1,1.3,6.3,0.4,7.5,2.1c1.3,1.7-8,5.9,8-1.3c15.9-7.1,17.6-8.8,19.7-11.3c2.1-2.5,4.6-5,6.3-6.7
		c1.5-2,3.4-3.7,5.4-5c5-3.8,5-2.1,9.6-9.2c2.6-3.9,5.5-7.5,8.8-10.9c0.8-1.3,2.5-1.7,2.9-6.7c0.4-5,3.8-9.6,3.8-11.3
		s1.3-4.2,0.8-7.1c-0.4-2.9,1.7-7.1-0.8-11.3c-2.5-4.2,1.3-5.9-2.5-7.5c-3.8-1.7-6.3-0.8-7.1-3.8c-0.8-2.9-4.2-2.5-5.4-10.5
		c-1.3-8-6.3-8.8-6.3-8.8s-5-2.1-3.8-2.9c1.3-0.8,1.7-6.7,1.3-8.4c-0.4-1.7-0.4-5.4-1.7-8s-2.1-5.9-3.4-8.8
		c-1.3-2.9-3.4-3.8-4.2-7.1c-0.5-2-1.3-3.8-2.5-5.4c-0.4-0.8-1.3-5-2.1-0.4c-0.8,4.6-2.5,13.4-2.5,13.4s-3.4,7.1-4.6,9.2
		c-1.3,2.1-2.5,7.5-4.6,7.1s-3.4,2.1-5,1.7s-4.2,0.4-5.4-0.8c-1.3-1.3-4.6-4.6-6.3-5s-2.9-3.8-4.2-3.8c-1.3,0-3.4-2.9-2.9-4.6
		c0.4-1.7,0.8-5.4,1.3-7.1c0.8-1.9,1.8-3.7,2.9-5.4c0,0,0-2.5-2.1-2.5c-2.4,0-4.8-0.1-7.1-0.4c-4.6-0.4-5.9-0.8-7.5-0.8
		s1.7-0.8-2.9,0.4c-4.6,1.3-6.7,4.6-9.6,7.5c-2.9,2.9-0.4,2.1-2.9,2.9c-2.5,0.8-2.1-2.1-3.8,2.5c-1.7,4.6,0.8,5.9-0.4,6.7
		c-1.3,0.8-10.1-2.9-10.1-2.9s2.1-0.4,0.4-2.5c-1.7-2.1-3.4-5-5.9-3.8c-2.5,1.3-4.6,2.1-6.3,4.2c-1.7,2.1-1.7,3.8-2.9,5.4
		s-4.6,1.7-5,3.4c-0.4,1.7-0.4,5.9-1.7,6.3c-1.3,0.4-1.7-1.7-2.9-2.1c-1.3-0.4-0.8-3.8-1.7-1.7c-0.8,2.1-1.7,1.7-2.9,5
		c-1.3,3.4-1.7,6.3-2.9,6.7c-1.3,0.4,0,0.8-3.8,2.9c-3.8,2.1-4.6,2.1-10.1,4.6c-5.4,2.5-4.2,2.5-8,2.9c-3.8,0.4-4.6,1.7-7.1,2.1
		c-2.6,0.2-5,1.4-6.7,3.4c-1.7,1.8-3.9,3.1-6.3,3.8C1255.7,575,1254.5,575.8,1253.6,576.7L1253.6,576.7z"/>
	<path id="Path_64" class="st0" d="M1278.3,411.2c-1.7,2.5-7.1,10.1-9.2,10.5c-2.1,0.4-4.2,2.5-5.9,2.1c-1.7-0.4-5.4,0-6.7,5.4
		c-1.3,5.4-3.4,8.4-4.6,8c-1.3-0.4,2.1,8-5,4.6c-7.1-3.3-4.6,2.9-5.4,4.6s1.3,6.3,1.7,8c0.8,2.5,1.9,4.9,3.4,7.1
		c1.7,2.5,2.9,5.4,5.9,4.6c2.9-0.8,12.1,0,12.1,0c1.8,0.7,3.6,1.1,5.4,1.3c2.1,0,2.5-0.8,3.8-0.8s3.8-4.2,3.4-4.6
		c-0.4-0.4-1.7-1.7,0.8-4.2c2.5-2.5,5.4-3.4,5.9-6.3c0.4-2.9-0.8-2.9,0.4-4.6c1.3-1.7,4.2-1.3,3.4-2.9c-0.8-1.7,0.8-1.3-0.8-4.6
		s-3.8-4.6-2.1-8.8c1.7-4.2,3.4-5,2.9-7.5s2.1-3.4-0.8-6.3c-1.7-2-3.9-3.6-6.3-4.6L1278.3,411.2L1278.3,411.2z"/>
	<path id="Path_65" class="st0" d="M1360.4,453.1c1.7-0.4,7.5-4.6,8,2.9s0.8,5.4,3.4,9.6s4.2,5.5,7.1,3.4c2.9-2.1,6.3-2.1,7.1-5.9
		s0.8-3.8,3.4-3.8c2.5,0,3.4-0.4,4.6,1.3c1.3,1.7,2.1,0,7.5,2.9c5.4,2.9,10.1,2.1,13.4,5c3.4,2.9,5,2.5,9.6,4.2s2.5-0.8,6.7,3.8
		c4.2,4.6,2.5,5.9,4.6,8c2.1,2.1,3.8-1.7,2.9,3.4c-0.8,5-6.7,0,2.1,7.1s10.1,8.4,13,10.5c2.9,2.1,5,4.6,2.5,4.6s-10.5,0-11.3-1.3
		c-0.8-1.3-4.6-2.1-7.1-5c-2.5-2.9-8-5-9.2-7.5c-0.8-2.1-2.8-3.4-5-3.4c-2.1,0-4.2,2.5-7.1,5.4c-2.9,2.9-1.7-1.7-5.4-0.4
		c-3.5,0.9-7.2,0.1-10.1-2.1c-2.1-1.7-1.7-4.2-5-2.9c-3.4,1.3-5.4,0.4-4.2-2.1c0.7-1.9,0.9-3.9,0.4-5.9c0,0,1.3-4.2-1.7-5
		s-2.9-3.8-5.9-4.6c-2.6-0.8-5.1-1.8-7.5-2.9c-0.6-0.1-1.1-0.2-1.7-0.4c-1.5-0.5-3.1-0.9-4.6-1.3c-3.4-0.8-5.9,0-7.5-2.1
		c-1-1.5-1.3-3.3-0.8-5c0,0,6.7,0.8,0-4.2l-6.7-5c0.5-0.2,0.7-0.8,0.4-1.2c0,0,0,0,0,0C1355.8,452.3,1360.4,453.1,1360.4,453.1
		L1360.4,453.1z"/>
	<path id="Path_66" class="st0" d="M1171.9,418.4c1.5,1.3,3.5,1.9,5.4,1.7c3.4-0.4,5.9,6.7,8,9.2c2.2,2.7,4.9,5,8,6.7
		c4.6,2.9,4.2-2.5,10.5,6.3c6.3,8.8,3.4,3.4,6.3,8.8c2.9,5.4,4.6,8.4,6.3,9.6c1.7,1.3,2.9,4.6,3.4,5.9c0.4,1.3,3.4,5,3.4,6.3
		s0.8,4.6-1.7,7.5c-1.2,1.6-2.8,2.7-4.6,3.4c0,0-5-2.5-6.7-5c-2.4-3.1-4.6-6.3-6.7-9.6c-2.9-5-6.3-10.5-8-13s-4.2-5-5.4-7.5
		s-4.6-10.1-6.3-10.9s-2.1-3.4-5-6.3c-2.9-2.9-2.5-5.4-3.8-7.1c-1.3-1.7-4.2-5.4-4.2-5.4L1171.9,418.4L1171.9,418.4z"/>
	<path id="Path_67" class="st0" d="M357.1,745.1c-2.9-1.7-9.2-4.6-11.3-6.3c-2.1-1.7-8.4-10.9-8.4-10.9l-4.6-8.8
		c0,0-5.4-6.7-4.2-9.2s3.8-4.2,3.8-5.4s2.5-4.6,0.4-5.9s-2.1-1.7-3.4-5.4c-1.3-3.8-1.3-7.1-2.9-8c-1.7-0.8-2.9-6.3-4.6-6.7
		c-1.7-0.4-3.4-3.4-3.4-3.4l-2.5-33.9c0,0-0.8-15.5-1.7-18.9c-0.8-3.4,1.3-10.5-0.8-16.8c-2.1-6.3,0.4-13.8-0.8-16.3
		c-1.3-2.5,0.8-9.6-0.4-16.3c-1.3-6.7,5-15.1,0-17.6c-5-2.5-1.3-6.3-5.4-6.3s-7.1-2.1-10.9-5c-3.8-2.9-10.9-8.4-13-10.5
		c-2.1-2.1-8.8-7.5-10.9-9.2c-2.1-1.7-4.2-8.8-5.9-10.9c-1.7-2.1-2.5-8.4-5-12.1c-2.5-3.8-5.9-10.1-6.7-11.3
		c-0.8-1.3-10.1-12.1-10.1-12.1l0.8-6.7c0,0,6.3-3.8,5.4-5c-0.8-1.3,0.4-2.5-2.5-5c-2.5-2.3-2.7-6.2-0.4-8.8
		c0.1-0.2,0.3-0.3,0.4-0.4c2.5-2.1,6.3-8.8,6.3-8.8l6.3-10.5c0,0,5-5.4,5-9.2s7.1-6.3,2.9-9.6c-4.2-3.4-2.1-6.3-3.4-8.8
		c-1.3-2.5-0.4-4.2,3.4-6.7c3.8-2.5,10.5-11.7,10.5-11.7c2.1-0.5,4.2-1,6.3-1.3c1.3,0,3.4-13.4,7.1-4.6c3.8,8.8,5,4.2,3.8,10.5
		c-1.3,6.3,1.7,5,3.4,3.4c1.7-1.7-0.8,1.3,2.5-6.3s2.1-10.1,4.2-8c2.1,2.1,2.9,2.5,6.7,3.8c3.8,1.3,5,0.8,6.3,3.4
		c1.3,2.5,0.8-0.8,8,0.4c7.1,1.3,17.2-2.5,15.9,1.7c-1.3,4.2-3.8-0.4,2.1,4.2c5.9,4.6,6.7,5.4,10.1,6.3s6.3,0.4,11.3,5.4
		c5,5,6.3,5.4,7.5,8c1.3,2.5,3.4,0.8,5.4,3.4c2.1,2.5,5,2.5,8,2.5c2.9,0,0-2.5,4.6,0.8s8,3.8,10.1,10.5c2.1,6.7,6.3,6.3,2.9,13
		s-10.1,9.6-7.1,9.2c2.9-0.4,8.4-2.9,10.1-2.5c1.7,0.4,2.5-1.3,5,0c2.5,1.3,2.9-1.7,2.5,1.3c-0.4,2.9-0.4,0-0.4,2.9
		c0,2.9-0.8-2.9,4.2-1.7c5,1.3,2.1-2.5,8,2.9c5.9,5.4,5.9,3.8,8,6.7c2.1,2.9,4.2-1.7,5.4-0.4c1.3,1.3,5,0.4,8.8,1.3
		c3.8,0.8,1.3-2.5,7.1,1.3c5.9,3.8,11.7,2.5,13,5.9s4.6,2.1,6.3,4.2c1.7,2.1,2.5-0.8,4.2,2.1c1.7,2.9,6.7,2.1,5.9,5
		c-0.8,2.9,1.3,1.3,0.4,5.4c-0.8,4.2-3.8,10.9-6.3,12.6c-2.5,1.7-2.5,3.8-4.2,5.9c-1.7,2.1-1.3-2.1-3.4,3.8
		c-2.1,5.9-1.7,6.7-3.4,12.1c-1.7,5.4-0.4,0-1.7,5.4c-1.3,5.4-0.4,8.8-1.7,15.1c-1.3,6.3-0.8,6.3-1.7,10.9s2.1-2.1-1.7,7.5
		c-3.8,9.6-4.2,9.2-5.4,13.4c-1.3,4.2,0.4,0.8-4.2,3.4c-4.6,2.5-2.1,1.7-7.5,3.4s-12.1,3.4-14.2,3.8c-2.1,0.4-10.5,2.9-8,8
		c2.5,5,2.5,5.9,0,12.2c-2.5,6.3-6.3,8.4-6.3,11.3c0,2.9-1.7,5.9-2.1,8s3.8-2.1-1.3,4.2c-5,6.3-5.4,4.6-7.1,8.4s0,0.8-1.7,3.8
		c-1.4,2-3.5,3.5-5.9,4.2c0,0,0.4,2.1-1.3,1.3s-1.3,0.4-7.5-1.3c-6.3-1.7-7.1-5.9-8-2.9s0.4,4.6,4.2,7.5c3.8,2.9,10.1,3.8,8.4,6.7
		c-0.8,1.6-1.8,3.2-2.9,4.6c-1.3,1.7,1.7,0.4-1.3,1.7c-2.9,1.3-4.6,6.7-5.9,6.7s-2.1,2.1-3.8,1.3c-1.7-0.8-5.9-3.8-6.7-2.1
		c-0.8,1.7-2.5-2.1-2.1,3.8c0.4,5.9,1.3,9.2-0.8,10.5s-7.1,0-7.1,0l-0.8-2.1l-2.9,0.8c0,0-1.3,5,0.8,5.9c2.1,0.8,1.7,1.7,3.8,4.2
		s0.8,7.1,0.8,7.1s0,1.3-2.1,3.4c-1.5,1.4-2.7,3.1-3.4,5c-0.4,1.3-2.9,6.7,0.8,6.3s6.7-2.5,6.7,4.2c0,6.7,1.7,5-0.4,9.6
		c-2.1,4.6-3.8,5-4.2,9.2s0.4,4.6,1.3,7.1c0.8,2.5,2.9,1.3,0.8,2.5C363.4,746.3,357.1,745,357.1,745.1L357.1,745.1z"/>
	<path id="Path_68" class="st0" d="M249,404.1l-2.9-4.2c-0.7-1.4-1.9-2.4-3.4-2.9c-2.1-0.4-6.7-5.9-6.7-5.9
		c-1.3-1.2-2.1-2.8-2.1-4.6c0-2.9-1.7-7.5-0.4-12.6c1.3-5,1.7-11.3,1.3-13s2.1-2.1-0.8-3.8c-2.9-1.7-8.8-2.1-12.6-2.1
		c-3.1,0.1-6.3,0.6-9.2,1.7c-0.8,0.4,4.6-12.6,5.4-14.7c0.8-2.1,4.6-11.3,4.6-12.6c0-1.3,1.3-1.7-1.3-3.4c-2.5-1.7-6.7-2.5-9.2-1.3
		c-2.5,1.3-2.1-1.7-4.2,3.4c-2.1,5-4.2,10.5-6.7,11.3c-2.5,0.8-7.5,3.4-7.5,3.4s-6.3-0.4-8.4-0.8c-2.1-0.4-10.9-5-12.6-8
		c-1.7-2.9-2.5-9.2-2.5-12.1c0-2.9,4.6-11.7,4.2-13.8c-0.4-2.1,4.6-10.5,4.2-11.7c-0.4-1.3,0.8-5.4,2.1-7.1c1.3-1.7,7.5-3.8,9.2-5.4
		c2.1-2.1,4.7-3.7,7.5-4.6c2.4-0.9,5-1.4,7.5-1.7c2.1,0,7.5-4.6,8.4,0c0.8,4.6,4.6,2.9,6.7,3.4c2.1,0.4,2.5,2.5,5.9-2.9
		c3.3-5.4,6.7-7.1,6.7-5.9s5.4-0.4,6.3,0.8c0.8,1.3,2.5-0.8,5.4,1.7c2.9,2.5,7.1,2.9,6.7,4.2c-0.4,1.3,1.7,1.3,1.7,2.5
		c0,1.3,1.7-2.9,1.7,4.6c-0.1,4.1,0.6,8.3,2.1,12.1c0,0,2.9,6.3,4.2,5c1.3-1.3,3.8-4.6,3.8-4.6s4.2-2.5,1.3-11.3
		c-2.9-8.8-0.8-11.3-1.7-14.2c-0.8-2.9-0.8-4.6,4.2-8.4c5-3.8,17.2-12.1,20.1-13.8s9.6-6.3,9.6-6.3c1.7-1,2.7-2.7,2.9-4.6
		c0.4-3.4,8.4-9.2,8.8-10.9c0.4-1.7,5.9-5.9,5.9-5.9s5.9-3.4,5.4-5.4c-0.4-2.1,7.5-5.9,8.8-5.9s8,2.1,8-1.7s0-4.6,4.2-8
		c4.2-3.3,9.6-8.4,11.7-8.4s9.2-3.8,12.1-4.6c2.9-0.8,12.1-5,3.8,0c-8.4,5-2.9,2.1-4.6,6.3c-1.7,4.2-2.9,9.6,5,3.4
		c8-6.3,7.5-7.5,10.5-8c2.9-0.4,0.8,1.3,7.1-0.8c6.3-2.1,6.7-2.9,6.7-2.9s2.9-2.5,1.3-3.8c-1.7-1.3,1.7-2.9-4.6-0.4
		c-6.3,2.5-5.9,2.9-10.1,1.7c-4.2-1.3-10.5-0.8-5.9-5c4.6-4.2,10.5-5.4,6.7-7.1s-13.4,0.4-14.7,0.8c-1.3,0.4-4.2-0.4-6.7,0
		c-2.5,0.4-1.7-3.4,0-4.2c4.4-2.1,9.1-3.8,13.8-5c6.7-1.7,23-2.1,26.8-2.1s8.8,0.8,11.7-1.3c2.9-2.1,8.8-5.4,9.6-7.1
		c1.2-1.6,2.6-3,4.2-4.2c0,0,3.8-3.8,1.7-5.4c-2.1-1.7-4.2-5.4-5.9-4.6c-1.7,0.8-0.4,5.9-3.8,0.4c-3.4-5.4-2.9-6.3-4.6-7.5
		c-1.7-1.3-3.4-0.4-2.1-6.3c0.7-2.7,1-5.6,0.8-8.4c0,0,1.3-5,0-5.4c-1.3-0.4-2.1-1.7-4.2-0.4c-2.1,1.3-13.8,7.1-16.3,8.4
		s-5.9-5-4.6-8c1.3-2.9,0.4-1.3-1.3-5.4c-1.7-4.2-8.4-5-10.9-5c-2.5,0-8.4-3.8-10.1-1.3c-3.6,4.2-7.7,8-12.1,11.3
		c-1.7,0.8-4.2-7.1-5.4,5.9c-1.3,13,4.6,16.8-2.1,17.6c-4.5,0.7-8.7,2.3-12.6,4.6c0,0-5.4,0.4-5.4,3.8c0,3.3-2.1,11.3-4.6,12.1
		c-2.5,0.8-8.8-0.4-10.9-2.9s0.4-11.7,0.4-11.7l3.8-3.8c0,0-26.8-4.2-26.4-5.9c0.4-1.7-8-4.6-8.8-7.1c-0.8-2.5-1.3-8-0.4-10.1
		s12.1-12.1,18-14.2c5.9-2.1,15.9-6.7,18.9-7.5c2.9-0.8,8-0.4,9.6-2.5c1.1-1.8,1.9-3.8,2.1-5.9c0,0-0.8-5.9,0.8-5
		c1.7,0.8,4.6,2.1,5,3.4s0.4,4.2,3.4,0.8s6.7-4.6,10.1-6.3s8.4-1.3,11.3-2.9s8-3.4,8.4-7.5s-1.3-2.9-3.4-3.4
		c-2.1-0.4,0.8,0.4-6.3,3.8c-7.1,3.3-5,0.8-10.1,3.4c-5,2.5-5.4,2.9-5.9,0.8c-0.1-1.9,0.2-3.7,0.8-5.4c0,0,0.4-0.4-2.5-1.3
		c-2.9-0.8-2.9,0.4-3.4-3.4c-0.4-3.8,2.1-9.2-2.1-7.5c-4.2,1.7-8-1.3-10.9,7.1c-2.9,8.4-13,17.2-15.5,15.1c-2.5-2.1-2.9-2.5-5-2.5
		s-5-2.5-8.8-2.9c-6-0.4-12-0.4-18,0c-2.9,0.4-6.3-1.7-8.8,0.8c-2.5,2.5-6.3,5.9-6.3,7.1s-3.8-4.6-5-4.2c-1.3,0.4-4.6-1.7-8.4-1.7
		s-6.3-2.1-7.5-2.1s1.3-3.4,0-3.8s-28.5-1.3-28.5-1.3s-8.8-3.4-12.1-2.9c-3.3,0.4-12.6,0.8-19.7,2.1c-7.1,1.3-17.6,5.4-20.9,5.9
		s-10.9,0.4-12.1-1.7c-1.3-2.1,0.4-1.7-1.3-2.1c-1.7-0.4-0.4-1.3-4.2-4.2c-3.8-2.9,1.7-5.4-5.9-5.4s-12.1-0.4-18.8,0
		c-6.7,0.4-20.5,3.8-22.2,3.4S80.2,62.3,78.1,61c-2.1-1.3-12.6,4.6-14.7,4.2c-2.1-0.4-10.1,0.4-12.1,1.7s-12.1,3.8-8.8,5.9
		c3.4,2.1,2.9,4.2,3.4,5.4s-3.4,4.2-3.4,4.2c-1.9-0.4-3.7-0.9-5.4-1.7c-4.6-1.7-9.6-2.5-11.7-1.3s-5.9,3.8-5,5.4s6.7,5.4,7.5,4.2
		s2.9-3.8,5.4-3.4s6.3-1.7,2.9,2.5s-6.3,6.3-8.4,6.7s-7.1,0.8-11.7,1.3s-4.2-1.7-8.4,2.5S1.9,100.4,1,105s-1.7,4.6,0,5.9
		s-3.4,1.7,0.4,2.9c3.8,1.3,8.4,2.5,8,3.8c-0.4,1.3,4.2-1.7,1.7,1.7c-2.5,3.3-4.2,6.3,0.8,2.9s8-0.8,12.1-2.9
		c4.2-2.1,8.4-2.5,10.9-4.2c2.5-1.7,3.8-4.2,7.5-5.4s1.3,0.4,1.7,2.5c0.4,2.1,0,2.5,2.5,0.8c2.5-1.7,2.5-0.4,5.9-2.5
		c3.4-2.1,7.1-4.2,9.6-2.9c1.5,0.9,3.3,1.4,5,1.3c1.7,0-2.1-0.4,1.7,0c3.8,0.4-1.7-1.3,10.9,1.7c12.6,2.9,15.9,0.8,16.8,5.4
		s2.5-0.4,4.6,2.5c2.1,2.9,3.4,0.4,4.6,5.4c1.3,5,0,18.9-0.8,20.5s-1.3,1.7-0.8,5.4c0.4,3.8,5.4,21.8,3.8,23
		c-1.7,0.9-3.5,1.5-5.4,1.7l-2.1,7.5c-1.8,3.4-3.9,6.6-6.3,9.6c-2.9,3.4-6.7,7.5-8.8,10.5s-3.8,8-6.7,10.9c-2.9,2.9-5.4,1.7-4.6,8
		s0,13,0.8,17.6c0.8,4.7,2.4,9.2,4.6,13.4c1.7,2.5,2.9,2.5,5.9,4.6c2.9,2.1,6.7,4.6,6.3,6.7c-0.4,2.1,0.4,15.1,0.4,15.1
		c1.5,2.7,2.5,5.7,2.9,8.8c0.5,3.3,1.6,6.4,3.4,9.2l2.5,5.4c0,0,1.3,0.4,2.9,3.8c1,1.6,1.7,3.3,2.1,5c0.4,1.7,0.4,1.3,0.4,1.7
		c0,0.4-0.4-7.1-1.3-9.2s-0.8-4.6-1.7-7.1c-0.8-2.5,0.4-5.4-2.1-9.2c-1.8-2.4-3-5.1-3.8-8c-1.3-3.8-2.9-8-1.3-8.8s2.9-6.3,6.3,0
		c3.4,6.3,3.8,4.6,4.2,9.6c0.1,3.2,1.1,6.2,2.9,8.8c1.3,2.1,4.2,9.2,5.9,12.1c1.7,2.9,0-1.7,3.8,4.2c2.5,3.7,4.6,7.6,6.3,11.7
		c2.1,4.6,3.4,4.6,4.6,8c1.3,3.3,0.4,2.5-0.4,6.3c-0.4,2.7-0.1,5.4,0.8,8c0,0,5.9,2.1,6.3,3.4c0.4,1.3,6.3,3.4,7.1,5
		s6.3,3.8,6.3,3.8s4.6,2.9,6.3,3.8c2.2,0.8,4.4,1.3,6.7,1.7c0,0,3.4,0.8,4.6,1.3c1.7,0.3,3.3,0.4,5,0.4c0,0,3.4-2.5,4.6-1.7
		c1.3,0.8,4.2-1.7,5.4,0.4c1.3,2.1,3.8,2.1,5,3.8c1.3,1.7,2.5,1.7,4.6,3.8s4.2,1.7,6.3,3.4c2.1,1.7,3.8,1.7,6.3,1.7
		c1.4-0.1,2.8,0,4.2,0.4c1.7,0.4,2.5-1.3,4.2,0.8c1.5,1.7,2.9,3.5,4.2,5.4c1.3,2.1,4.2,2.1,4.6,5.4s1.3,2.9,1.3,5.9
		c0,2.1,1.1,4,2.9,5c1.3,0.8,5.9,5,5.9,5l6.3,1.3l5,3.8l5.3,1.7L249,404.1z"/>
	<path id="Path_69" class="st0" d="M383.3,14.9l25.1-3.1c0,0,8.8,0,13.2-3.1c4.4-3.1,0-3.1,13.2-5.7c13.2-2.5,9.4-3.8,16.3-2.5
		c6.9,1.3,8.8,1.3,16.3,2.5c7.5,1.3,9.4-0.6,16.3,1.3c6.9,1.9,10.1,1.3,15.7,1.3h17.6c8.8,0,17-5,20.1-1.9c3.1,3.1,5,1.9,15.7,3.1
		s15.1-1.3,19.5,0c4.4,1.3,11.9-0.6,20.7,0c8.8,0.6,13.2-0.6,16.3-0.6s6.3-4.4,10.7-0.6s10.1-1.3,10.7,3.8s8.8,1.3,0.6,5
		c-8.2,3.8-6.9,3.1-12.6,8.2s3.8,9.4-8.2,13.8s-13.8-2.5-17,5s0,9.4-0.6,13.2c-0.6,3.8-1.9,4.4-5.7,7.5c-3.8,3.1-3.8,0-12.6,1.9
		c-8.8,1.9-15.1,3.8-18.8,3.8c-3.8,0-11.9,3.1-14.5,4.4c-2.5,1.3,4.4,3.1-8.8,6.9c-13.2,3.8-16.3,3.1-20.1,8.2c-3.8,5-2.5,5.7-5,8.8
		c-2.5,3.1-10.1,15.7-13.8,12.6c-3.8-3.1-5.7-2.5-8.8-5.7c-3.1-3.1-5-7.5-6.9-10.1s-2.5-8.8-3.1-12.6c-0.6-3.8-6.3-12.6,0-11.3
		c6.3,1.3,10.1,0.6,11.9-0.6s3.8-5.7,3.8-5.7c-0.3-3.7-1.2-7.3-2.5-10.7c-1.9-3.8-0.6-6.9-3.8-10.7c-3.1-3.8-3.1-3.1-7.5-6.9
		c-4.4-3.8-3.1-5.7-10.1-6.3c-6.9-0.6-8.8-2.5-11.3-1.9s-10.7-4.4-1.9-5c5.7-0.4,11.3-0.1,17,0.6c0,0,11.3-5,7.5-5.7
		c-3.8-0.6,5.7-6.3-3.1-4.4s-18.9,4.4-21.4,5s-8.8,1.3-15.1,3.1c-6.3,1.9-13.8,1.3-17.6,5.7s0,5-3.8,4.4c-3.8-0.6,3.1-4.4-5.7,0
		c-8.8,4.4-6.3,3.8-10.7,2.5c-2.6-0.7-5.2-1.8-7.5-3.1c0,0,5.7-0.6-2.5-1.3c-8.2-0.6-8.2-0.6-11.3-4.4s-1.3-3.8,0.6-5
		C381.4,17.7,382.5,16.4,383.3,14.9L383.3,14.9z"/>
	<path id="Path_70" class="st0" d="M369.4,43.2c-3.1,3.1-10.7,7.5-8.8,9.4c1.9,1.9,3.1,8.8,6.9,6.9s-0.6-8.2,13.8-3.1
		s13.2-0.6,16.3,6.9s5.7,13.2,3.8,15.1c-1.9,1.9-2.5,3.8-8.8,5.7c-6.3,1.9-8.8,4.4-4.4,7.5c4.4,3.1,12.6,6.3,16.3,8.2
		c3.8,1.9,15.1,2.5,9.4-3.8c-5.7-6.3,1.3-8.2,1.3-8.2s10.7,8.2,6.9-1.3c-3.8-9.4-6.3-9.4-3.8-9.4s7.5,3.1,7.5,3.1l2.5-5l-2.5-8.2
		l-8.2-8.2c0,0,6.9-6.3-2.5-7.5c-9.4-1.3-8.8-1.3-13.8-4.4c-5-3.1-5.7-4.4-15.1-2.5c-4.3,0.7-8.5,1.8-12.6,3.1L369.4,43.2
		L369.4,43.2z"/>
	<path id="Path_71" class="st0" d="M229.3,50.8c3.8-3.8,13.8-12.6,17.6-10.1c3.8,2.5,9.4-1.9,13.8,1.9c4.4,3.8,9.4,8.2,13.2,9.4
		c3.8,1.3,8.2-3.1,11.9-1.3s17-9.4,14.5-0.6s3.1,11.3-3.8,11.9c-6.9,0.6-14.5,5.7-17.6,3.8c-3.1-1.9-5.7-3.8-10.7-1.3
		c-5,2.5-2.5,2.5-8.2,1.3c-5.7-1.3-6.9,1.3-8.2-0.6c-1.3-1.9-5-1.3-4.4-6.9c0.6-5.7,2.5-5-1.3-5c-3.8,0-6.9,0.6-9.4-1.3
		S229.3,50.8,229.3,50.8L229.3,50.8z"/>
</g>
<path id="Path_72" class="st0" d="M612.4,200.2c0.3-0.5,0.7-1,1.2-1.5c0.5,0,1,0.1,1.4,0.3c0.4,0.2,0.9,0.3,1.3,0.3
	c0.2-0.2,0.3-0.5,0.4-0.8c0.2-0.5,0.6-0.8,1.4-1.1c0.6-0.2,1.4-0.5,1.8-0.7c0.5-0.2,0.8-0.1,2,0.6l1.4,0.9l0.9-0.9l0.9-0.9l4.3-0.4
	c3.9-0.4,4.4-0.5,4.9-0.9l0.6-0.5l-0.7-0.3l-1.2-0.5c-0.3-0.1-0.5-0.3-0.5-0.6c1.1-1.8,2.4-3.4,3.9-4.9c0.3-0.3,0.5-0.6,0.6-0.9
	c-0.3-0.6-0.6-1.1-1-1.6l-1-1.4l-0.6,0.4c-0.3,0.2-0.9,0.6-1.4,0.9c-0.9,0.7-1.2,0.5-1.9-1c-0.6-1.3-0.6-1.6,0.2-2.1l0.7-0.4
	l-0.7-0.7c-0.5-0.5-0.9-1.2-1-1.9c-1.4-5.1-1.7-5.7-2.8-6.9c-0.7-0.7-1.2-1.5-1.6-2.4c-0.3-0.7-1.1-2.3-1.7-3.6l-1.2-2.4l-2.6-0.4
	c-2.9-0.4-3.4-0.6-3.4-1.2c1-1.8,2.1-3.5,3.3-5.2c2.9-4.3,3.3-4.9,3.1-5.4l-0.2-0.6H619c-1.5,0-3,0-4.5-0.1
	c-0.6-0.2-0.4-0.8,0.7-2.5c0.6-1,1.4-1.8,2.4-2.4c1.2-0.8,1.3-0.9,1-1.4c-0.2-0.5-0.3-0.5-3.3-0.5l-3.1,0.1l-0.5,1.2
	c-0.3,0.7-0.9,2.4-1.5,3.9c-1.1,2.9-1.1,3-2.6,2.2c-1.1-0.5-1.7-0.3-1.1,0.6c0.3,0.5,0.6,0.5,1.9,0.5c2.3,0,2.3-0.1,0.9,4.4
	c-0.2,0.5-0.1,0.6,0.4,0.7c0.6,0.1,0.6,0.1,0.7,2c0.1,1.8,0,2-0.4,2.2l-0.5,0.3l0.5,0.3c0.3,0.2,0.4,0.4,0.5,0.7
	c0,0.3,0.1,0.2,0.5-0.3c0.7-0.9,1.1-0.7,1.9,0.9l0.6,1.2l-0.5,2.4c-0.4,1.8-0.5,2.5-0.3,2.7c0.2,0.2,0.9,0.1,2.6-0.3
	c0.9-0.2,1.8-0.4,2.7-0.4c0.3,0.1,0.4,0.5,0.4,1.3c0,1.7,0.5,2.5,1.6,2.5c1.3,0,1.4,0.3,1,2.6c-0.2,1.1-0.4,2.5-0.5,3.1
	c0,0.5-0.2,1-0.4,1.4c-0.2,0.2-1,0.3-2.7,0.3h-2.4l0.2,0.7c0.2,0.6,0.2,0.8-0.3,1.2l-0.5,0.6h0.8c1.2,0,1.3,0.4,1.3,2.4l-0.1,1.7
	l-2.2,1.3l-2.2,1.3l1.5,0.1c1,0,2.1,0.3,2.9,1l1.3,0.9l1.3-0.9c1.4-1,1.7-1.1,2.1-0.6c0.2,0.2,0.2,0.7-0.2,2
	c-0.2,0.7-0.4,1.3-0.7,1.9c-0.1,0.2-0.9,0.3-2.1,0.3h-1.9l-1.1,1.2c-3.6,3.9-4.6,5.1-3.7,5.1C611.8,201.2,612.2,200.7,612.4,200.2z"
	/>
<path id="Path_73" class="st0" d="M595.5,192.1c2.9-1,10.5-3.9,10.6-4c0,0,0.3-1.3,0.6-2.7l0.5-2.6l-0.5-2.9c-0.3-1.6-0.5-3-0.5-3.2
	c0-0.2,0.6-0.7,1.2-1.2c0.5-0.3,0.9-0.6,1.2-1c-0.3-0.9-0.7-1.8-1.2-2.6l-1.2-2.4l-1.2-0.2c-3-0.6-3.2-0.6-4.5-0.3
	c-0.8,0.1-1.4,0.6-1.8,1.3c-0.2,0.3-0.5,0.7-0.6,1.1c0.3,0.3,0.7,0.4,1.1,0.5c1.5,0.5,1.5,1-0.1,2.6l-1.2,1.2h-2.4
	c-2.2,0-2.4,0-2.5,0.5c-0.1,0.4,0,0.5,0.7,0.8c1,0.4,1,0.9,0.1,1.9c-0.8,0.9-0.8,1.1-0.2,1.8c0.4,0.4,1,0.6,1.6,0.5
	c0.7,0,1.1,0.1,1.2,0.3c-0.1,0.9-0.4,1.7-0.8,2.6c-0.5,1.2-1.2,2.9-1.5,3.8c-0.5,1.3-0.7,1.6-1.2,1.7c-0.2,0-0.4,0.1-0.6,0.2
	c0,0.1,1.8,3,1.9,3C594.3,192.5,594.9,192.3,595.5,192.1z"/>
<path id="Path_74" class="st0" d="M577.9,131.7c2.1-1.1,5.1-2.7,6.8-3.5l3-1.6l1.2-2l1.2-2l0-2.3l0-2.3l-1.5-0.8l-1.5-0.8l-0.1-2.2
	c0-0.7,0-1.5-0.1-2.2c-0.1,0-0.7,0.3-1.4,0.7c-1.5,0.8-1.5,0.8-2.5-0.7c-0.5-0.8-0.6-0.9-0.9-0.7c-0.2,0.1-1.2,1.1-2.4,2
	c-2.3,2-2.2,1.9-3.4,0.7c-0.4-0.4-0.7-0.6-0.9-0.6c-0.1,0-0.7,0.2-1.3,0.3c-0.8,0.1-1.6,0.6-2.1,1.2c-0.8,0.8-1.1,0.9-1.4,0.7
	c-0.2-0.1-0.4-0.3-0.5-0.4c-0.1-0.1-0.2,0.5-0.2,1.4l-0.1,1.6l-2.3,0.9c-0.8,0.4-1.7,0.7-2.6,0.8c-0.3-0.1-0.3-0.5-0.3-2.7v-2.6
	l-0.7-1c-0.4-0.5-0.9-1.2-1.1-1.5c-0.5-0.6-1.1-1-1.9-1.1c-0.1,0-0.2,0.5-0.2,1c0,1.2-0.1,1.3-1.5,1.3h-0.9v1.1
	c0.1,0.8-0.2,1.5-0.7,2.1l-0.7,1l0.6,0.5c0.3,0.3,0.7,0.5,0.8,0.6c0.5-0.1,0.9-0.3,1.3-0.6c0.4-0.3,0.9-0.6,1.3-0.8
	c0.5,0.3,1.1,0.6,1.5,0.9c1,0.7,1.3,1,1.3,1.3c0,0.3-0.6,0.9-2.6,2.3l-2.6,1.9h1.5c0.6,0,1.2,0,1.7,0.1c0.8,1.2,1.5,2.5,2,3.9
	c-0.2,0.5-0.5,1-0.9,1.4c-0.3,0.4-0.6,0.8-0.9,1.3c0.8,0.1,1.6,0.2,2.4,0.1h2.4l3.4,1.5c1.9,0.8,3.5,1.5,3.6,1.5
	S575.8,132.8,577.9,131.7z"/>
<path class="st1" d="M316,200.6c-7,0-12.6,5.7-12.6,12.6c0,7,5.7,12.6,12.6,12.6c7,0,12.6-5.7,12.6-12.6
	C328.7,206.3,323,200.6,316,200.6z"/>
<path class="st1" d="M606.3,177.8c-4.9,0-8.9,4-8.9,8.9c0,4.9,4,8.9,8.9,8.9c4.9,0,8.9-4,8.9-8.9
	C615.2,181.8,611.2,177.8,606.3,177.8z"/>
</svg>
