<svg width="32" height="32" xmlns="http://www.w3.org/2000/svg" xmlns:xlink="http://www.w3.org/1999/xlink"><defs><radialGradient cx="44.286%" cy="100%" fx="44.286%" fy="100%" r="120.709%" gradientTransform="matrix(0 -.82759 1 0 -.557 1.367)" id="b"><stop stop-color="#376DF9" offset="0%"/><stop stop-color="#D262B4" offset="46.208%"/><stop stop-color="#FF8D74" offset="77.058%"/><stop stop-color="#FFD4CA" offset="100%"/></radialGradient><radialGradient cx="44.286%" cy="0%" fx="44.286%" fy="0%" r="120.709%" gradientTransform="matrix(0 .82759 -1 0 .443 -.367)" id="d"><stop stop-color="#376DF9" offset="0%"/><stop stop-color="#D262B4" offset="46.208%"/><stop stop-color="#FF8D74" offset="77.058%"/><stop stop-color="#FFD4CA" offset="100%"/></radialGradient><path d="M20 29c8-6.915 12-12.582 12-17 0-6.627-5.373-12-12-12S8 5.373 8 12c0 4.418 4 10.085 12 17z" id="a"/><path d="M12 32c8-6.915 12-12.582 12-17 0-6.627-5.373-12-12-12S0 8.373 0 15c0 4.418 4 10.085 12 17z" id="c"/></defs><g fill="none" fill-rule="evenodd"><use fill="url(#b)" opacity=".88" xlink:href="#a"/><use fill="url(#d)" opacity=".48" transform="matrix(1 0 0 -1 0 35)" xlink:href="#c"/></g></svg>