<svg id="Layer_1" data-name="Layer 1" xmlns="http://www.w3.org/2000/svg" xmlns:xlink="http://www.w3.org/1999/xlink" viewBox="0 0 598.87 598.87"><defs><style>.cls-1{fill:none;}.cls-2{clip-path:url(#clip-path);}.cls-3{fill:url(#linear-gradient);}.cls-4{clip-path:url(#clip-path-2);}.cls-5{clip-path:url(#clip-path-3);}.cls-6{clip-path:url(#clip-path-4);}</style><clipPath id="clip-path" transform="translate(-220.53 -223.92)"><path class="cls-1" d="M490.94,491H397.23V456.05H456V364.94A112.11,112.11,0,0,1,568,253h7.08v35H568a77.13,77.13,0,0,0-77.1,77Z"/></clipPath><linearGradient id="linear-gradient" x1="295.33" y1="525.59" x2="721.81" y2="525.59" gradientTransform="translate(11.39 -2.24)" gradientUnits="userSpaceOnUse"><stop offset="0" stop-color="#a07aa7"/><stop offset="1" stop-color="#ff9425"/></linearGradient><clipPath id="clip-path-2" transform="translate(-220.53 -223.92)"><path class="cls-1" d="M455.14,770.17h-7.08V735.23h7.08a77.13,77.13,0,0,0,77.09-77v-126H626v34.95H567.18v91.12C567.18,720,516.92,770.17,455.14,770.17Z"/></clipPath><clipPath id="clip-path-3" transform="translate(-220.53 -223.92)"><polygon class="cls-1" points="625.95 491 532.23 491 532.23 397.29 567.18 397.29 567.18 456.05 625.95 456.05 625.95 491"/></clipPath><clipPath id="clip-path-4" transform="translate(-220.53 -223.92)"><polygon class="cls-1" points="490.94 624.71 456 624.71 456 565.95 397.23 565.95 397.23 531 490.94 531 490.94 624.71"/></clipPath></defs><g class="cls-2"><rect class="cls-3" x="306.73" y="310.11" width="426.47" height="426.47" transform="translate(-432.81 209.53) rotate(-38.19)"/></g><g class="cls-4"><rect class="cls-3" x="306.73" y="310.11" width="426.47" height="426.47" transform="translate(-432.81 209.53) rotate(-38.19)"/></g><g class="cls-5"><rect class="cls-3" x="306.73" y="310.11" width="426.47" height="426.47" transform="translate(-432.81 209.53) rotate(-38.19)"/></g><g class="cls-6"><rect class="cls-3" x="306.73" y="310.11" width="426.47" height="426.47" transform="translate(-432.81 209.53) rotate(-38.19)"/></g></svg>