<svg id="Layer_1" data-name="Layer 1" xmlns="http://www.w3.org/2000/svg" viewBox="0 0 72 72"><defs><style>.cls-1{fill:#fff;}</style></defs><path class="cls-1" d="M30.45,53.38h11.1a.75.75,0,0,0,.73-.73V41.55l-.73.73h11.1a.75.75,0,0,0,.73-.73V30.45a.75.75,0,0,0-.73-.73H41.55l.73.73V19.35a.75.75,0,0,0-.73-.73H30.45a.75.75,0,0,0-.73.73v11.1l.73-.73H19.35a.75.75,0,0,0-.73.73v11.1a.75.75,0,0,0,.73.73h11.1l-.73-.73v11.1a.73.73,0,0,0,1.46,0V41.55a.73.73,0,0,0-.73-.73H19.35l.73.73V30.45l-.73.73h11.1a.73.73,0,0,0,.73-.73V19.35l-.73.73h11.1l-.73-.73v11.1a.73.73,0,0,0,.73.73h11.1l-.73-.73v11.1l.73-.73H41.55a.73.73,0,0,0-.73.73v11.1l.73-.73H30.45A.73.73,0,0,0,30.45,53.38Z"/></svg>