<?xml version="1.0" encoding="utf-8"?>
<!-- Generator: Adobe Illustrator 24.3.0, SVG Export Plug-In . SVG Version: 6.00 Build 0)  -->
<svg version="1.1" id="Layer_1" xmlns="http://www.w3.org/2000/svg" xmlns:xlink="http://www.w3.org/1999/xlink" x="0px" y="0px"
	 viewBox="0 0 72 72" style="enable-background:new 0 0 72 72;" xml:space="preserve">
<style type="text/css">
	.st0{fill:#FFFFFF;}
</style>
<path class="st0" d="M46.4,14.7L46.4,14.7c-2.4,0-4.3,1.9-4.3,4.3v9.5c-0.7-0.5-1.6-0.8-2.6-0.8l0,0c-1.4,0-2.7,0.6-3.5,1.7
	c-0.8-1.1-2.1-1.7-3.4-1.7l0,0c-0.9,0-1.8,0.3-2.6,0.8V24c0-2.4-1.9-4.3-4.3-4.3l0,0c-2.4,0-4.3,1.9-4.3,4.3l0,0v15.2
	c0,0,0,0.1,0,0.1v3.2c0.2,8.1,6.9,14.5,15,14.3c7.8-0.2,14.2-6.5,14.3-14.3V19C50.8,16.6,48.8,14.7,46.4,14.7
	C46.4,14.7,46.4,14.7,46.4,14.7z M43.8,19c0-1.4,1.1-2.6,2.6-2.6l0,0c1.4,0,2.5,1.1,2.6,2.5c0,0,0,0,0,0v18.7
	c-1.3-1.5-3.2-2.4-5.1-2.5L43.8,19z M39.4,29.4L39.4,29.4c1.4,0,2.5,1.1,2.6,2.6v3.4h-4.1c-0.3,0-0.7,0-1,0.1v-3.5
	C36.9,30.5,38,29.4,39.4,29.4z M32.5,29.4L32.5,29.4c1.4,0,2.5,1.1,2.6,2.6v4.4c-0.8,0.7-1.3,1.7-1.5,2.7c-0.3,0.2-0.7,0.2-1.1,0.2
	l0,0c-1.4,0-2.5-1.1-2.6-2.5v-4.9C30,30.5,31.1,29.4,32.5,29.4z M48.9,42.5c-0.2,7.1-6.1,12.8-13.2,12.6
	c-6.9-0.2-12.4-5.7-12.6-12.6v-5.4c0,0,0-0.1,0-0.1V24c0-1.4,1.1-2.5,2.5-2.6l0,0c1.4,0,2.5,1.1,2.6,2.6v12.8c0,2.4,1.9,4.3,4.3,4.3
	c0,0,0,0,0,0l0,0c0.4,0,0.9,0,1.3-0.2C34.3,42.8,36,44,38,44h0.7c-1.5,1.2-2.5,3-2.8,4.9c-0.1,0.5,0.3,0.9,0.8,1h0.1
	c0.5,0,0.8-0.3,0.9-0.8c0.4-2.7,2.6-4.9,5.3-5.2h0.1c0.1,0,0.1,0,0.2,0c0.4,0,0.9,0,1.3,0c0.5,0,0.9-0.4,0.9-0.8
	c0-0.4-0.3-0.8-0.7-0.9l0,0c-0.6-0.1-1.3-0.1-1.9,0h-5c-1.4,0-2.5-1.1-2.6-2.6v-0.1c0-1.4,1.1-2.5,2.6-2.5h5.8
	C46.6,37.2,48.9,39.6,48.9,42.5L48.9,42.5z"/>
</svg>
