<svg id="Layer_1" data-name="Layer 1" xmlns="http://www.w3.org/2000/svg" viewBox="0 0 72 72"><defs><style>.cls-1{fill:#fff;}</style></defs><path class="cls-1" d="M36,14.27A21.73,21.73,0,1,0,57.73,36,21.73,21.73,0,0,0,36,14.27ZM46,45.61a1.35,1.35,0,0,1-1.86.45C39,42.94,32.58,42.24,25,44a1.35,1.35,0,1,1-.61-2.64c8.28-1.89,15.38-1.07,21.1,2.43A1.34,1.34,0,0,1,46,45.61Zm2.66-5.92a1.69,1.69,0,0,1-2.33.56c-5.84-3.59-14.74-4.63-21.65-2.53a1.69,1.69,0,1,1-1-3.24c7.89-2.4,17.7-1.24,24.4,2.88a1.69,1.69,0,0,1,.56,2.33Zm.23-6.16C41.85,29.37,30.3,29,23.61,31a2,2,0,0,1-1.18-3.89C30.11,24.8,42.86,25.25,50.92,30a2,2,0,1,1-2.07,3.49Z"/></svg>