<?xml version="1.0" encoding="utf-8"?>
<!-- Generator: Adobe Illustrator 24.3.0, SVG Export Plug-In . SVG Version: 6.00 Build 0)  -->
<svg version="1.1" id="Layer_1" xmlns="http://www.w3.org/2000/svg" xmlns:xlink="http://www.w3.org/1999/xlink" x="0px" y="0px"
	 viewBox="0 0 72 72" style="enable-background:new 0 0 72 72;" xml:space="preserve">
<style type="text/css">
	.st0{fill:#FFFFFF;}
</style>
<path class="st0" d="M54.3,44.1l-3.9-2.4v-3.3c0-0.8-0.1-1.5-0.4-2.3c-0.4-0.9-1-1.6-1.8-2.1c-1.9-1.2-3.7-2.4-5.6-3.5V20.4
	c0-0.7,0-1.4,0-2c-0.1-1.2-1.1-2.1-2.3-2.1H24.6c-1.2,0-2.3,1-2.3,2.2c-0.1,1.1,0,2.2,0,3.4v3c-1.3-0.2-2.5,0.4-3.2,1.4
	c-0.7,1.2-0.6,2.8,0.3,3.9c0.2,0.2,0.4,0.5,0.7,0.6c-0.4,0.3-0.7,0.6-1,1c-0.7,1.2-0.6,2.7,0.4,3.7c0.2,0.2,0.5,0.5,0.8,0.6
	c-1.3,1.1-1.6,3-0.5,4.4c0.1,0.2,0.3,0.3,0.5,0.5c0.2,0.2,0.5,0.3,0.7,0.4c-0.7,0.4-1.3,1-1.5,1.8c-0.4,1.2,0,2.6,1,3.4
	c0.6,0.5,1.2,0.7,2,0.8v0.7c0,1.1,0.7,2,1.7,2.3c0.7,0.1,1.3,0.1,2,0.1h2.2c0.1,0.1,0.1,0.1,0.2,0.2l0,0l6,3.8
	c0.8,0.6,1.6,1.1,2.5,1.5c1.2,0.3,2.4,0.5,3.6,0.4h0.3l0,0H41h0.1l0,0l0.4,0.3l3.5,2.1c0.8,0.5,1.5-0.8,0.7-1.2l-3-1.9
	c-0.4-0.3-0.8-0.5-1.2-0.7c-0.5-0.1-1-0.2-1.4-0.1c-0.6,0-1.1,0-1.7,0c-0.6-0.1-1.1-0.3-1.6-0.6l-1.2-0.8l-3.8-2.4l-0.9-0.6h9.4
	c0.9,0,1.7-0.5,2.1-1.3c0.2-0.4,0.3-0.9,0.3-1.4v-8.9c0-0.3-0.2-0.6-0.4-0.7l-2.7-2l-3.4-2.7l-1.1-0.9l-0.2-0.2l-0.1-0.1
	c-0.1-0.1-0.2-0.1-0.2-0.2L34.4,32c0.1,0.1,0,0,0,0l-0.1-0.2c0,0,0-0.1-0.1-0.2c0-0.1,0-0.2-0.1-0.2c0-0.1,0-0.1,0-0.2
	c0-0.1,0-0.2,0-0.2v-0.1c0,0,0,0,0-0.1c0-0.2,0.1-0.3,0.2-0.5c0-0.1,0-0.1,0.1-0.2l0.1-0.2l0.2-0.2v0l0.1-0.1
	c0.1-0.1,0.3-0.3,0.4-0.4l0.1-0.1l0,0l0.3-0.2c0.1-0.1,0.2-0.1,0.2-0.1l0,0h0.1l0.2-0.1h0.1h0.4l0.3,0.1l0,0l0.1,0.1
	c0.2,0.1,0.5,0.3,0.7,0.4l6.6,4.2l2.9,1.6c0.2,0.1,0.4,0.3,0.7,0.4c0.7,0.6,1.1,1.5,1.1,2.5v4.2c0,0.3,0.2,0.6,0.4,0.7l1.4,0.8
	l2.8,1.7c0.3,0.2,0.8,0.1,1-0.2S54.7,44.3,54.3,44.1z M23.7,18.6c0-0.2,0.1-0.4,0.2-0.5c0.2-0.3,0.5-0.4,0.8-0.4h15.6
	c0.3,0,0.6,0.1,0.7,0.4c0.1,0.2,0.2,0.4,0.2,0.6v1.7H23.7V18.6z M22.3,36.9L22.3,36.9z M20.2,27.3C20.2,27.4,20.2,27.3,20.2,27.3
	c0-0.1,0.1-0.3,0.2-0.4l0,0l0.1-0.2l0.1-0.1l0,0l0.3-0.2l0,0c0,0,0.1,0,0,0l0,0l0.2-0.1h0.2h0.1c0.2,0,0.3,0,0.5,0h0.2v3.9l0,0
	l-0.5-0.2h-0.1h0L21.2,30c-0.1-0.1-0.2-0.1-0.4-0.2l-0.1-0.1c-0.1-0.1-0.1-0.1-0.2-0.2l-0.1-0.1l0,0l0,0c-0.1-0.1-0.2-0.2-0.2-0.4
	c0,0-0.1-0.2,0-0.1l-0.1-0.2c0-0.1-0.1-0.2-0.1-0.4 M20,28.4v-0.4c0-0.1,0-0.2,0.1-0.3c0.1-0.1,0.1-0.2,0.1-0.3L20,28.4z M21.8,35.3
	l-0.3-0.1h-0.1l0,0l0,0c-0.2-0.1-0.3-0.2-0.5-0.3l-0.2-0.1l-0.1-0.1c-0.1-0.1-0.2-0.2-0.3-0.3l0,0l0,0l-0.1-0.2c0-0.1,0-0.1-0.1-0.2
	l0,0c0-0.1-0.1-0.2-0.1-0.3l0,0l0,0c0-0.1,0-0.1,0-0.2v-0.2c0,0,0-0.1,0-0.1v-0.1c0-0.1,0-0.1,0-0.2c0,0,0-0.1,0-0.2l0,0
	c0,0,0,0,0-0.1c0-0.1,0.1-0.2,0.2-0.3l0,0l0,0l0,0l0,0l0.1-0.1l0.1-0.1l0.1-0.1l0.1-0.1l0.2-0.1l0.1-0.1l0.1,0
	c0.1,0,0.3-0.1,0.4-0.1c0.1,0,0.1,0,0.2,0h0.3v3.8l0,0C22.1,35.6,21.9,35.5,21.8,35.3z M20.8,39.5l-0.1-0.1l0,0l0,0
	c0-0.1-0.1-0.2-0.1-0.3c0,0,0-0.1,0-0.1c0,0,0-0.1,0-0.1c0-0.1,0-0.2,0-0.3l0,0c0-0.1,0-0.1,0-0.2c0-0.1,0-0.1,0-0.2
	c0,0,0-0.1,0-0.1c0-0.1,0.1-0.2,0.1-0.2l0.1-0.1l0.1-0.1c0.1-0.1,0.2-0.2,0.3-0.2l0.1-0.1l0.2-0.1l0.1-0.1l0.2-0.2
	c0.2-0.1,0.3-0.1,0.5-0.1l0,0v3.5l0,0h-0.1c-0.1,0-0.2,0-0.2-0.1l-0.2-0.1h-0.1c-0.1-0.1-0.2-0.1-0.4-0.2L21.2,40l-0.1,0
	c-0.1-0.1-0.1-0.1-0.2-0.2v-0.1C20.8,39.6,20.8,39.6,20.8,39.5z M20.8,43.6L20.8,43.6z M22.2,46.1L22,46l-0.2-0.1h-0.1l-0.3-0.2
	l-0.1-0.1l-0.1-0.1L21,45.3c0,0,0,0,0-0.1l-0.1-0.2L20.8,45l0,0l0,0l-0.1-0.3c0,0,0-0.1,0-0.1c0,0,0-0.1,0-0.1s0-0.2,0-0.3l0,0
	c0-0.1,0-0.1,0-0.2c0-0.1,0-0.1,0-0.2v-0.1c0-0.1,0.1-0.2,0.1-0.2l0-0.1l0.1-0.1c0.1-0.1,0.2-0.2,0.2-0.2l0.1-0.1
	c0.1,0,0.1-0.1,0.2-0.1l0.1-0.1l0.1,0c0.1,0,0.3-0.1,0.4-0.1L22.2,46.1L22.2,46.1z M41.2,48.4c-0.1,0.4-0.5,0.7-0.9,0.7H24.6
	c-0.2,0-0.3,0-0.5-0.1c-0.3-0.2-0.4-0.5-0.4-0.8v-3.7h17.5v3.7C41.2,48.3,41.2,48.4,41.2,48.4z M38,27.5c-0.9-0.5-1.9-0.5-2.8-0.1
	c-1.7,0.8-2.7,2.6-2.4,4.5c0.3,1.1,1.2,1.7,2,2.3l6.4,5v4.1H23.7V21.6h17.5v7.9l-2.6-1.6L38,27.5z"/>
<path class="st0" d="M28.4,19.7h1.7c0.4,0,0.7-0.4,0.6-0.8c0-0.3-0.3-0.6-0.6-0.6h-1.7c-0.4,0-0.7,0.4-0.6,0.8
	C27.8,19.4,28,19.7,28.4,19.7z"/>
<path class="st0" d="M31.9,19.7H36c0.4,0,0.7-0.4,0.6-0.8c0-0.3-0.3-0.6-0.6-0.6h-4.1c-0.4,0-0.7,0.4-0.6,0.8
	C31.3,19.4,31.5,19.7,31.9,19.7z"/>
<path class="st0" d="M20.5,32.4L20.5,32.4L20.5,32.4z"/>
<path class="st0" d="M21.1,26.4"/>
<path class="st0" d="M34.4,46.7c-0.1-1.1-1-1.8-2.1-1.7c-1.1,0.1-1.8,1-1.7,2.1c0.1,1.1,1,1.8,2.1,1.7c0.9-0.1,1.6-0.8,1.7-1.7
	C34.4,46.9,34.4,46.8,34.4,46.7z M32,46.8c0-0.3,0.2-0.5,0.5-0.5c0.3,0,0.5,0.2,0.5,0.5c0,0.3-0.2,0.5-0.5,0.5
	C32.2,47.3,32,47.1,32,46.8z"/>
<path class="st0" d="M20.3,20.6L20.3,20.6l-1.1,1.5c-0.2,0.3-0.1,0.6,0.2,0.8c0,0,0,0,0,0c0.3,0.2,0.7,0.1,0.8-0.2l1.1-1.5
	c0.2-0.2,0.2-0.6,0-0.8s-0.6-0.2-0.8,0C20.4,20.4,20.4,20.5,20.3,20.6L20.3,20.6z"/>
<path class="st0" d="M20.3,17.8c-0.1-0.3-0.4-0.5-0.7-0.4l-1.9,0.4c-0.3,0.1-0.5,0.4-0.4,0.7c0.1,0.3,0.4,0.5,0.7,0.4l1.9-0.4
	C20.2,18.4,20.4,18.1,20.3,17.8z"/>
<path class="st0" d="M18.4,14.2l1.6,1c0.6,0.4,1.3-0.6,0.6-1l-1.6-1C18.3,12.7,17.7,13.8,18.4,14.2z"/>
</svg>
