<?xml version="1.0" encoding="utf-8"?>
<!-- Generator: Adobe Illustrator 25.3.1, SVG Export Plug-In . SVG Version: 6.00 Build 0)  -->
<svg version="1.1" id="Layer_1" xmlns="http://www.w3.org/2000/svg" xmlns:xlink="http://www.w3.org/1999/xlink" x="0px" y="0px"
	 viewBox="0 0 999 409.2" style="enable-background:new 0 0 999 409.2;" xml:space="preserve">
<style type="text/css">
	.st0{fill:url(#SVGID_1_);}
	.st1{fill:#EFEFEF;}
	.st2{fill:#F9F9F9;}
	.st3{fill:#FFFFFF;}
	.st4{fill:url(#SVGID_2_);}
	.st5{opacity:7.000000e-02;}
	.st6{fill:url(#SVGID_3_);}
	.st7{fill:url(#SVGID_4_);}
	.st8{fill:url(#SVGID_5_);}
	.st9{fill:#212121;}
	.st10{fill:#262626;}
	.st11{fill:#188C3C;}
	.st12{fill:#353535;}
	.st13{fill:#1CB853;}
	.st14{enable-background:new    ;}
	.st15{fill:#00D95F;}
	.st16{fill:url(#SVGID_6_);}
</style>
<linearGradient id="SVGID_1_" gradientUnits="userSpaceOnUse" x1="255.7445" y1="481.0383" x2="467.2989" y2="481.0383" gradientTransform="matrix(1 0 0 -1 0 729.2308)">
	<stop  offset="0.24" style="stop-color:#FF9425"/>
	<stop  offset="1" style="stop-color:#9F7AA6;stop-opacity:0"/>
</linearGradient>
<path class="st0" d="M349.9,275.8c-2.6,0-5.3-0.1-8.1-0.3c-34.7-2.8-56.2-12.1-68.1-19.4c-13-8-17.7-15.3-17.9-15.6l2.4-1.5
	c0.2,0.3,18.8,28.4,83.8,33.6c34,2.8,51.1-12.5,67.6-27.3c15.6-14,30.4-27.2,57.7-24.3l-0.3,2.9c-26-2.9-40.3,10-55.5,23.5
	C395.9,261.4,379.8,275.8,349.9,275.8z"/>
<image style="overflow:visible;enable-background:new    ;" width="991" height="1697" xlink:href="CE2C94CF.png"  transform="matrix(0.1732 0 0 0.1732 118.2872 99.946)">
</image>
<path class="st1" d="M151.5,126.7h103.6c4.4,0,8,3.6,8,8v225.8c0,4.4-3.6,8-8,8H151.5c-4.4,0-8-3.6-8-8V134.7
	C143.5,130.3,147.1,126.7,151.5,126.7z"/>
<path class="st2" d="M143.5,339.3h119.6l0,0v21.2c0,4.4-3.6,8-8,8c0,0,0,0,0,0H151.5c-4.4,0-8-3.6-8-8l0,0V339.3L143.5,339.3z"/>
<path class="st3" d="M168.7,199.3H238c4.4,0,8,3.6,8,8v69.2c0,4.4-3.6,8-8,8h-69.2c-4.4,0-8-3.6-8-8v-69.2
	C160.8,202.9,164.3,199.3,168.7,199.3z"/>
<linearGradient id="SVGID_2_" gradientUnits="userSpaceOnUse" x1="203.3687" y1="502.788" x2="203.3687" y2="474.0482" gradientTransform="matrix(1 0 0 -1 0 729.2308)">
	<stop  offset="0" style="stop-color:#9F7AA6"/>
	<stop  offset="1" style="stop-color:#F6922B"/>
</linearGradient>
<path class="st4" d="M214.6,247.2c1.3-2.2,2-4.6,2.2-7.1c0.1-1.7-0.3-3.4-1-4.9c-1.2-2.5-3.3-3.9-5.3-5.3c-1.5-0.9-2.8-2-3.9-3.3
	l-0.2-0.2c-0.6-0.7-1.1-1.6-1.4-2.5c-0.1-0.8-0.9-1.4-1.7-1.2c-0.7,0.1-1.2,0.7-1.2,1.4v26.5c-1.3-0.8-2.9-1.2-4.5-1.2
	c-4.1,0-7.4,2.7-7.4,5.9c0,3.3,3.3,5.9,7.4,5.9s7.4-2.7,7.4-5.9V238c3.6,1.3,6.2,4.4,6.9,8.1c-0.2,0.3-0.4,0.5-0.6,0.8
	c-0.5,0.6-0.5,1.6,0.1,2.1c0.6,0.5,1.6,0.5,2.1-0.1l0,0c0.4-0.5,0.8-1,1.1-1.5L214.6,247.2z"/>
<g class="st5">
	<path d="M151.5,126.7h103.6c4.4,0,8,3.6,8,8v225.8c0,4.4-3.6,8-8,8H151.5c-4.4,0-8-3.6-8-8V134.7
		C143.5,130.3,147.1,126.7,151.5,126.7z"/>
</g>
<linearGradient id="SVGID_3_" gradientUnits="userSpaceOnUse" x1="-4195.1978" y1="216.5648" x2="-4015.0457" y2="216.5648" gradientTransform="matrix(-1 0 0 -1 -3441.23 459.0608)">
	<stop  offset="0.24" style="stop-color:#FF9425"/>
	<stop  offset="1" style="stop-color:#9F7AA6;stop-opacity:0"/>
</linearGradient>
<path class="st6" d="M702.2,271.8c-6.9,0-13.7-0.9-20.3-2.7c-20.3-5.4-37.9-18.1-53.4-29.4c-19.4-14.1-36.1-26.2-54.2-23.3l-0.5-2.9
	c19.3-3.1,37.3,10,56.4,23.8c31.6,23,67.4,49,122.3,15.6l1.5,2.5C736.1,266.4,719,271.8,702.2,271.8z"/>
<linearGradient id="SVGID_4_" gradientUnits="userSpaceOnUse" x1="298.4609" y1="551.0244" x2="467.3277" y2="551.0244" gradientTransform="matrix(1 0 0 -1 0 729.2308)">
	<stop  offset="0.24" style="stop-color:#FF9425"/>
	<stop  offset="1" style="stop-color:#9F7AA6;stop-opacity:0"/>
</linearGradient>
<path class="st7" d="M402.6,213.2c-12.9,0-26.6-4.5-45.7-20.9c-33.5-28.8-58.2-46.5-58.4-46.6l1.7-2.4c0.2,0.2,25.1,17.9,58.7,46.8
	c28.7,24.7,44.6,21.5,64.8,17.4c11.9-2.4,25.4-5.1,43.7-2.9l-0.3,2.9c-17.9-2.2-31.1,0.5-42.8,2.8
	C416.7,211.8,409.8,213.2,402.6,213.2z"/>
<image style="overflow:visible;enable-background:new    ;" width="992" height="1697" xlink:href="CE2C94D3.png"  transform="matrix(0.1732 0 0 0.1732 181.6691 18.2076)">
</image>
<path class="st1" d="M215,45h103.6c4.4,0,8,3.6,8,8v225.8c0,4.4-3.6,8-8,8H215c-4.4,0-8-3.6-8-8V52.9C207,48.5,210.6,45,215,45z"/>
<path class="st3" d="M232.1,118.1h69.2c4.4,0,8,3.6,8,8v69.2c0,4.4-3.6,8-8,8h-69.2c-4.4,0-8-3.6-8-8v-69.2
	C224.1,121.7,227.7,118.1,232.1,118.1z"/>
<linearGradient id="SVGID_5_" gradientUnits="userSpaceOnUse" x1="266.7321" y1="584.014" x2="266.7321" y2="555.2743" gradientTransform="matrix(1 0 0 -1 0 729.2308)">
	<stop  offset="0" style="stop-color:#9F7AA6"/>
	<stop  offset="1" style="stop-color:#F6922B"/>
</linearGradient>
<path class="st8" d="M277.9,166c1.3-2.2,2-4.6,2.2-7.1c0.1-1.7-0.3-3.4-1-4.9c-1.2-2.5-3.3-3.9-5.3-5.3c-1.5-0.9-2.8-2-3.9-3.3
	l-0.2-0.2c-0.6-0.7-1.1-1.6-1.4-2.5c-0.1-0.8-0.8-1.3-1.6-1.3c-0.8,0-1.4,0.7-1.4,1.4v26.5c-1.3-0.8-2.9-1.2-4.5-1.2
	c-4.1,0-7.4,2.7-7.4,5.9c0,3.3,3.3,5.9,7.4,5.9c4.1,0,7.4-2.7,7.4-5.9v-17.3c3.6,1.3,6.2,4.4,6.9,8.1c-0.2,0.3-0.4,0.6-0.6,0.8
	c-0.5,0.6-0.5,1.5,0.1,2.1s1.5,0.5,2.1-0.1c0.4-0.5,0.8-1,1.1-1.5C277.9,166.1,277.9,166,277.9,166z"/>
<image style="overflow:visible;enable-background:new    ;" width="1024" height="1712" xlink:href="CE2C94D4.png"  transform="matrix(0.1732 0 0 0.1732 705.522 68.9477)">
</image>
<path class="st9" d="M731.7,328.6l5.5-225.8c0.1-4.4,3.8-7.9,8.2-7.8L849,97.6c4.4,0.1,7.9,3.8,7.8,8.2l-5.5,225.8
	c-0.1,4.4-3.8,7.9-8.2,7.8l-103.6-2.5C735,336.7,731.6,333,731.7,328.6z"/>
<path class="st10" d="M764.6,137.5l63,1.5c4.4,0.1,7.9,3.8,7.8,8.2l-1.5,63c-0.1,4.4-3.8,7.9-8.2,7.8l-63-1.5
	c-4.4-0.1-7.9-3.8-7.8-8.2l1.5-63C756.6,140.9,760.2,137.4,764.6,137.5z"/>
<path class="st11" d="M805.4,182.8c1.2-2,2-4.2,2.2-6.5c0.1-1.6-0.2-3.1-0.9-4.6c-1.1-2.3-3-3.7-4.8-5c-1.4-0.8-2.6-1.9-3.6-3.2
	l-0.2-0.2c-0.6-0.7-1-1.5-1.2-2.3c-0.1-0.8-0.8-1.3-1.6-1.2c-0.7,0.1-1.2,0.6-1.2,1.3l-0.6,24.5c-1.2-0.8-2.6-1.2-4.1-1.2
	c-3.8-0.1-6.9,2.3-7,5.3s3,5.6,6.7,5.7c3.8,0.1,6.9-2.3,7-5.3l0.4-16c3.3,1.3,5.6,4.2,6.2,7.7c-0.2,0.2-0.4,0.5-0.5,0.7
	c-0.5,0.6-0.5,1.4,0.1,1.9c0.6,0.5,1.4,0.5,1.9-0.1l0,0c0.4-0.4,0.7-0.9,1-1.4C805.3,182.9,805.4,182.9,805.4,182.8z"/>
<path class="st12" d="M760.8,165.3L830,167c4.4,0.1,7.9,3.8,7.8,8.2l-1.7,69.2c-0.1,4.4-3.8,7.9-8.2,7.8l-69.2-1.7
	c-4.4-0.1-7.9-3.8-7.8-8.2l1.7-69.2C752.8,168.6,756.4,165.2,760.8,165.3z"/>
<path class="st13" d="M805.5,214.2c1.3-2.1,2.1-4.5,2.3-7c0.1-1.7-0.2-3.4-0.9-4.9c-1.2-2.5-3.2-4-5.2-5.4c-1.5-0.9-2.8-2.1-3.9-3.4
	l-0.2-0.2c-0.6-0.7-1.1-1.6-1.3-2.5c-0.1-0.8-0.8-1.3-1.5-1.3c-0.8,0-1.4,0.6-1.4,1.4l-0.6,26.4c-1.3-0.8-2.9-1.3-4.4-1.3
	c-4.1-0.1-7.5,2.5-7.6,5.8s3.2,6,7.3,6.1s7.5-2.5,7.6-5.8l0.4-17.3c3.5,1.4,6.1,4.5,6.7,8.3c-0.2,0.3-0.4,0.5-0.6,0.8
	c-0.5,0.6-0.5,1.6,0.2,2.1c0.6,0.5,1.5,0.5,2-0.1c0.4-0.5,0.8-1,1.1-1.5C805.4,214.3,805.4,214.2,805.5,214.2z"/>
<path class="st12" d="M754.2,259.5l77.9,1.9c2,0,3.6,1.7,3.5,3.7l-0.3,13.7c0,2-1.7,3.6-3.7,3.5l-77.9-1.9c-2,0-3.6-1.7-3.5-3.7
	l0.3-13.7C750.5,261,752.2,259.4,754.2,259.5z"/>
<g class="st14">
	<path class="st13" d="M769.2,269.1l0.8,0l0,0.4c0,0.2,0,0.3,0,0.3l0,0c0,0,0.4-0.8,1.5-0.8c1.2,0,1.9,1,1.9,2.3
		c0,1.4-0.9,2.3-2,2.2c-1,0-1.3-0.8-1.3-0.8l0,0c0,0,0,0.2,0,0.4l0,2l-0.8,0L769.2,269.1z M771.2,272.9c0.7,0,1.3-0.5,1.3-1.5
		c0-1-0.5-1.6-1.2-1.6c-0.7,0-1.3,0.4-1.3,1.5C769.9,272.1,770.4,272.9,771.2,272.9z"/>
	<path class="st13" d="M774.4,267.5l0.8,0l-0.1,4.8c0,0.5,0.2,0.6,0.5,0.6c0.1,0,0.1,0,0.1,0l0,0.7c0,0-0.1,0-0.3,0
		c-0.5,0-1.2-0.2-1.1-1.3L774.4,267.5z"/>
	<path class="st13" d="M778.9,271l0.2,0l0-0.1c0-0.7-0.4-1-0.9-1c-0.7,0-1.2,0.4-1.2,0.4l-0.3-0.6c0,0,0.6-0.5,1.6-0.5
		c1.1,0,1.7,0.6,1.7,1.8l-0.1,2.8l-0.8,0l0-0.4c0-0.2,0-0.3,0-0.3l0,0c0,0-0.4,0.9-1.4,0.8c-0.8,0-1.5-0.5-1.5-1.4
		C776.3,271,778.2,270.9,778.9,271z M777.9,273.1c0.7,0,1.2-0.7,1.2-1.4l0-0.1l-0.2,0c-0.6,0-1.8,0-1.8,0.8
		C777.1,272.7,777.4,273.1,777.9,273.1z"/>
	<path class="st13" d="M780.8,274.6c0,0,0.2,0.2,0.5,0.2c0.3,0,0.6-0.2,0.8-0.6l0.2-0.5l-1.7-4.4l0.9,0l1,2.9
		c0.1,0.2,0.2,0.5,0.2,0.5l0,0c0,0,0.1-0.3,0.2-0.5l1.1-2.8l0.9,0l-2.2,5.1c-0.3,0.7-0.8,1-1.4,1c-0.5,0-0.8-0.3-0.8-0.3
		L780.8,274.6z"/>
	<path class="st13" d="M785.7,269.5l0.8,0l-0.1,4.4l-0.8,0L785.7,269.5z M785.7,267.7l0.8,0l0,0.9l-0.8,0L785.7,267.7z"/>
	<path class="st13" d="M787.8,269.5l0.8,0l0,0.6c0,0.2,0,0.3,0,0.3l0,0c0.2-0.4,0.7-1,1.7-1c1,0,1.5,0.6,1.5,1.7l-0.1,2.8l-0.8,0
		l0.1-2.6c0-0.6-0.1-1.1-0.8-1.1c-0.7,0-1.2,0.4-1.4,1c-0.1,0.2-0.1,0.4-0.1,0.6l0,2.1l-0.8,0L787.8,269.5z"/>
	<path class="st13" d="M794.5,275.2c0.8,0,1.4-0.3,1.4-1.2l0-0.3c0-0.1,0-0.3,0-0.3l0,0c-0.3,0.4-0.7,0.7-1.3,0.7
		c-1.2,0-1.9-1-1.9-2.3c0-1.3,0.8-2.2,2-2.1c1.1,0,1.4,0.7,1.4,0.7l0,0c0,0,0-0.1,0-0.1l0-0.4l0.8,0l-0.1,4.2c0,1.4-1.1,2-2.3,1.9
		c-0.5,0-1.1-0.2-1.5-0.4l0.3-0.7C793.3,274.8,793.9,275.2,794.5,275.2z M796,271.8c0-1.1-0.5-1.5-1.2-1.5c-0.8,0-1.2,0.5-1.2,1.4
		c0,0.9,0.4,1.5,1.2,1.6C795.4,273.3,796,273,796,271.8z"/>
	<path class="st13" d="M800.4,269.8l0.8,0l0,0.6c0,0.2,0,0.3,0,0.3l0,0c0.2-0.4,0.7-1,1.7-1c1,0,1.5,0.6,1.5,1.7l-0.1,2.8l-0.8,0
		l0.1-2.6c0-0.6-0.1-1.1-0.8-1.1c-0.7,0-1.2,0.4-1.4,1c-0.1,0.2-0.1,0.4-0.1,0.6l0,2.1l-0.8,0L800.4,269.8z"/>
	<path class="st13" d="M807.5,269.9c1.2,0,1.9,1,1.8,2.1c0,0.1,0,0.4,0,0.4l-3.2-0.1c0,1,0.7,1.5,1.5,1.5c0.8,0,1.3-0.5,1.3-0.5
		l0.3,0.6c0,0-0.7,0.6-1.7,0.6c-1.4,0-2.3-1.1-2.3-2.3C805.3,270.8,806.3,269.9,807.5,269.9z M808.5,271.7c0-0.8-0.5-1.1-1-1.1
		c-0.6,0-1.2,0.4-1.3,1.1L808.5,271.7z"/>
	<path class="st13" d="M811.9,272.8c0,0-0.1,0.1-0.1,0.2l-1,1.4l-1,0l1.5-2.2l-1.4-2.2l1,0l0.8,1.4c0.1,0.1,0.1,0.3,0.1,0.3l0,0
		c0,0,0.1-0.1,0.2-0.3l0.8-1.3l1,0l-1.5,2.1l1.4,2.3l-1,0L812,273C812,272.9,811.9,272.8,811.9,272.8L811.9,272.8z"/>
	<path class="st13" d="M815,270.9l-0.6,0l0-0.7l0.6,0l0-1.3l0.8,0l0,1.3l1.1,0l0,0.7l-1.1,0l0,1.9c0,0.9,0.6,1,0.9,1
		c0.1,0,0.2,0,0.2,0l0,0.7c0,0-0.1,0-0.3,0c-0.6,0-1.7-0.2-1.6-1.7L815,270.9z"/>
</g>
<path class="st12" d="M732.1,307.4l119.6,2.9l0,0l-0.5,21.2c-0.1,4.4-3.8,7.9-8.2,7.8l-103.6-2.5c-4.4-0.1-7.9-3.8-7.8-8.2
	c0,0,0,0,0,0L732.1,307.4L732.1,307.4z"/>
<path class="st15" d="M791.8,315.7c-4.1-0.1-7.4,3.1-7.5,7.2c-0.1,4.1,3.1,7.4,7.2,7.5c4.1,0.1,7.4-3.1,7.5-7.2c0,0,0,0,0,0
	C799.1,319.2,795.9,315.8,791.8,315.7C791.8,315.7,791.8,315.7,791.8,315.7z M794.7,326.4c-0.1,0.2-0.3,0.2-0.4,0.2
	c-0.1,0-0.2,0-0.3-0.1c-1.2-0.7-2.5-1-3.9-1c-0.7,0-1.4,0.1-2,0.2c-0.3,0.1-0.5-0.1-0.6-0.4c-0.1-0.3,0.1-0.5,0.4-0.6
	c0.7-0.2,1.5-0.3,2.2-0.3c0.7,0,1.5,0.1,2.2,0.2c0.8,0.2,1.6,0.5,2.3,0.9C794.8,325.9,794.9,326.2,794.7,326.4L794.7,326.4z
	 M795.7,324.5c-0.1,0.2-0.3,0.3-0.5,0.3c-0.1,0-0.2,0-0.3-0.1c-1.4-0.8-3-1.2-4.6-1.1c-0.8,0-1.6,0.1-2.4,0.3
	c-0.3,0.1-0.6-0.1-0.7-0.4c-0.1-0.3,0.1-0.6,0.4-0.7c0.9-0.2,1.8-0.3,2.6-0.3c0.9,0,1.7,0.1,2.5,0.2c1,0.2,1.9,0.6,2.7,1.1
	C795.8,323.9,795.9,324.2,795.7,324.5C795.7,324.5,795.7,324.5,795.7,324.5L795.7,324.5z M796.3,322.8c-0.1,0-0.3,0-0.4-0.1
	c-3.7-2.3-8.5-1.1-8.6-1.1c-0.4,0.1-0.8-0.1-0.9-0.5s0.1-0.8,0.5-0.9l0,0c1.1-0.2,2.2-0.4,3.2-0.4c1,0,2.1,0.1,3.1,0.3
	c1.2,0.2,2.3,0.7,3.3,1.3c0.3,0.2,0.5,0.6,0.3,1c0,0,0,0,0,0C796.8,322.6,796.6,322.8,796.3,322.8L796.3,322.8z"/>
<path class="st2" d="M206.9,258.2h119.6l0,0v21.2c0,4.4-3.6,8-8,8c0,0,0,0,0,0H214.9c-4.4,0-8-3.6-8-8c0,0,0,0,0,0L206.9,258.2
	L206.9,258.2z"/>
<linearGradient id="SVGID_6_" gradientUnits="userSpaceOnUse" x1="474.9906" y1="518.6544" x2="568.7142" y2="518.6544" gradientTransform="matrix(1 0 0 -1 0 729.2308)">
	<stop  offset="0" style="stop-color:#9F7AA6;stop-opacity:0.25"/>
	<stop  offset="0.49" style="stop-color:#F6922B"/>
</linearGradient>
<path class="st16" d="M568.7,205c0-0.1,0-0.1-0.1-0.2c0-0.1,0-0.2,0-0.3c-0.3-3.1-3.6-4.4-6-5.8l-9.6-5.5l-12.4-7.1l-10-5.7
	l-2.6-1.4c-1.5-0.7-3.2-1.1-4.9-1.2c-1.8-0.1-3.7,0-5.5,0.5c-0.5,0.1-1.1,0.3-1.6,0.6c-0.7,0.4-1.4,0.8-2.1,1.2l-9.5,5.3l-12.4,6.9
	l-10.4,5.8l-2.9,1.7c-0.9,0.4-1.7,1-2.4,1.7c-0.9,0.9-1.4,2.1-1.4,3.4c0,0,0,0.1,0,0.1v10.7c0,0.1,0,0.1,0.1,0.2c0,0.1,0,0.3,0,0.4
	c0.3,1.8,1.4,3.4,3,4.3l0,0l4.8,2.7l11,6.3l12.2,6.9l8.3,4.7c0.5,0.3,1.1,0.6,1.7,0.9c3.6,1.5,7.6,1.6,11.2,0.1
	c1.7-0.8,3.4-1.7,5-2.8l10.8-6.1l12.3-6.9l8.8-5c0.5-0.3,1.1-0.6,1.6-0.9c1.6-0.9,2.7-2.4,2.9-4.2c0-0.1,0.1-0.1,0.1-0.2L568.7,205z
	 M566.2,211.9c-0.8-0.5-1.5-1-2.4-1.4l0.2-0.1c0.5-0.3,1.1-0.6,1.6-0.9c0.2-0.1,0.4-0.2,0.5-0.4L566.2,211.9z M524.7,180.2
	c0.4,0.1,0.8,0.1,1.1,0.2l0.4,0.1c0.1,0,0.6,0.2,0.3,0.1l0.1,0.1c0.2,0.1,0.4,0.3,0.7,0.4l7.5,4.3l11.7,6.7l11.2,6.4
	c2,1.1,4,2.3,6,3.4c0.5,0.3,1,0.6,1.5,0.9c0.3,0.2,0.5,0.5,0.7,0.7c0.1,0.2,0.2,0.4,0.3,0.6c0.1,0.2,0.1,0.3,0.1,0.5
	c-0.1,0.1-0.1,0.3-0.2,0.4v0.6c-0.1,0.3-0.3,0.7-0.5,0.9c0.1-0.1-0.1,0.1-0.1,0.2l-0.3,0.3l-0.3,0.3l-0.1,0.1c-0.2,0.1,0.1,0-0.1,0
	c-0.2,0.1-0.4,0.2-0.6,0.4l-2.8,1.6l-8.5-4.9l-12.4-7.1l-10-5.7l-2.6-1.4c-1.5-0.8-3.2-1.1-4.9-1.2h-0.1v-8.9
	C523.6,180.1,524.1,180.1,524.7,180.2z M516.6,228.8c-1.8-1-3.5-2-5.2-3l-10.9-6.2l-11.9-6.8l-4.2-2.4l4.5-2.5l11.9-6.7l11-6.2
	c1.9-1.1,3.7-2.1,5.6-3.2l0,0c0,0,0.3-0.1,0.4-0.1c0.2-0.1,0.4-0.1,0.6-0.2c0.4-0.1,0.9-0.2,1.3-0.3c1.7-0.2,3.4-0.2,5.1,0.1
	c0.4,0.1,0.8,0.1,1.1,0.2l0.4,0.1c0.2,0.1,0.6,0.2,0.3,0.1l0.1,0.1c0.2,0.1,0.4,0.3,0.7,0.4l7.5,4.3l11.7,6.7l11.2,6.4
	c0.5,0.3,1.1,0.6,1.6,0.9l-1.1,0.6l-11.3,6.4l-11.7,6.6l-7.7,4.3c-0.8,0.5-1.6,0.8-2.4,1C522.2,230.3,519.2,230.1,516.6,228.8z
	 M479.2,202.1l1.3-0.7l8.2-4.6l11.9-6.7l11-6.2c1.9-1.1,3.7-2.1,5.6-3.2l0,0c0,0,0.3-0.1,0.4-0.1l0.6-0.2c0.4-0.1,0.9-0.2,1.3-0.3
	c0.3-0.1,0.7,0,1.1-0.1v8.9c-1,0.1-2,0.2-2.9,0.4c-0.5,0.1-1.1,0.3-1.6,0.6c-0.7,0.4-1.4,0.8-2.1,1.2l-9.5,5.3l-12.3,6.9l-10.1,5.7
	l-1.7-1l-1.1-0.6c0,0,0,0,0-0.1c-0.7-0.5-1.3-1.1-1.8-1.9l0,0V205c0-0.2-0.1-0.4-0.2-0.5c0-0.1,0-0.1,0-0.2
	C477.6,203.3,478.3,202.5,479.2,202.1z M477.5,209c0.2,0.2,0.4,0.3,0.6,0.4l0,0l1.7,1l-1,0.5c-0.5,0.2-0.9,0.5-1.3,0.8L477.5,209z
	 M511.3,237l-11-6.2l-11.9-6.8l-8.1-4.6l-1.1-0.6c0,0,0-0.1-0.1-0.1c-0.7-0.5-1.3-1.1-1.8-1.9c-0.1-0.2-0.2-0.5-0.2-0.7
	c0.1-0.1,0.2-0.3,0.2-0.4v-0.5c0.3-0.8,1-1.5,1.8-1.9l1.3-0.7l1.5-0.9l0.8,0.5l11,6.3l12.2,6.9l8.3,4.7c0.5,0.3,1.1,0.6,1.7,0.9
	c1.5,0.6,3.1,1,4.7,1.1v9c-1.4-0.1-2.8-0.5-4.1-1.1C514.8,239,513.1,238,511.3,237L511.3,237z M565.7,217.8
	c-0.1,0.1-0.2,0.2-0.3,0.3l-0.3,0.2l-0.1,0.1c-0.2,0.1,0.1,0-0.1,0c-0.2,0.1-0.4,0.2-0.6,0.3l-6.2,3.5l-11.3,6.4l-11.7,6.6l-7.7,4.3
	c-0.8,0.5-1.6,0.8-2.4,1c-0.6,0.2-1.3,0.3-2,0.4v-9c1.4-0.1,2.8-0.4,4.1-0.9c1.7-0.8,3.4-1.7,5-2.8l10.8-6.1l12.3-6.9l6.3-3.6
	l2.2,1.2c0.5,0.3,1,0.6,1.5,0.9c0.3,0.2,0.5,0.5,0.7,0.7c0.1,0.1,0.2,0.3,0.3,0.4v1c0,0.1,0,0.3,0.1,0.4c-0.1,0.4-0.3,0.8-0.6,1.1
	L565.7,217.8z"/>
<g>
	<path d="M141.5,65.8c1.2,0,2.1-0.6,2.1-1.9v-0.6c0-0.2,0-0.4,0-0.4h0c-0.4,0.7-1,1.1-1.9,1.1c-1.6,0-2.7-1.3-2.7-3.1
		c0-1.8,1-3,2.6-3c1.6,0,2,1,2,1h0c0,0,0-0.1,0-0.2V58h0.8v5.9c0,1.9-1.4,2.7-2.9,2.7c-0.7,0-1.4-0.2-2-0.5l0.3-0.7
		C139.8,65.4,140.6,65.8,141.5,65.8z M143.6,60.9c0-1.8-0.8-2.3-1.9-2.3c-1.2,0-1.9,0.9-1.9,2.3c0,1.4,0.8,2.4,2,2.4
		C142.8,63.2,143.6,62.6,143.6,60.9z"/>
	<path d="M146.3,58h0.8v3.6c0,0.9,0.1,1.8,1.3,1.8c1.4,0,2.2-1.2,2.2-2.5V58h0.8v6h-0.8v-0.9c0-0.3,0-0.5,0-0.5h0
		c-0.2,0.6-1,1.5-2.4,1.5c-1.4,0-2-0.8-2-2.3V58z"/>
	<path d="M156,57.8c1.7,0,2.5,1.3,2.5,2.8c0,0.1,0,0.4,0,0.4h-4.6c0,1.5,1.1,2.4,2.3,2.4c1.1,0,1.8-0.7,1.8-0.7l0.4,0.6
		c0,0-0.9,0.8-2.2,0.8c-1.8,0-3.2-1.3-3.2-3.2C153,59,154.3,57.8,156,57.8z M157.7,60.4c0-1.3-0.8-1.8-1.7-1.8c-1,0-1.9,0.6-2.1,1.8
		H157.7z"/>
	<path d="M160,62.7c0,0,0.7,0.7,1.8,0.7c0.6,0,1.2-0.3,1.2-1c0-1.3-3.3-1-3.3-3c0-1.1,1-1.7,2.1-1.7c1.3,0,1.9,0.7,1.9,0.7l-0.4,0.6
		c0,0-0.5-0.6-1.5-0.6c-0.6,0-1.2,0.3-1.2,0.9c0,1.3,3.3,1,3.3,3c0,1-0.9,1.7-2.1,1.7c-1.5,0-2.2-0.9-2.2-0.9L160,62.7z"/>
	<path d="M165.6,58.7h-0.8V58h0.8v-1.7h0.8V58h1.5v0.7h-1.5v3c0,1.4,0.9,1.6,1.4,1.6c0.2,0,0.3,0,0.3,0V64c0,0-0.1,0-0.3,0
		c-0.7,0-2.1-0.2-2.1-2.2V58.7z"/>
	<path d="M169.3,62.7c0,0,0.7,0.7,1.8,0.7c0.6,0,1.2-0.3,1.2-1c0-1.3-3.3-1-3.3-3c0-1.1,1-1.7,2.1-1.7c1.3,0,1.9,0.7,1.9,0.7
		l-0.4,0.6c0,0-0.5-0.6-1.5-0.6c-0.6,0-1.2,0.3-1.2,0.9c0,1.3,3.3,1,3.3,3c0,1-0.9,1.7-2.1,1.7c-1.5,0-2.2-0.9-2.2-0.9L169.3,62.7z"
		/>
	<path d="M125.5,72.2c1.5,0,2.2,0.9,2.2,0.9l-0.4,0.6c0,0-0.7-0.7-1.8-0.7c-1.3,0-2.4,1-2.4,2.4c0,1.4,1,2.4,2.4,2.4
		c1.2,0,1.9-0.9,1.9-0.9l0.4,0.6c0,0-0.8,0.9-2.4,0.9c-1.8,0-3.2-1.3-3.2-3.2C122.3,73.5,123.7,72.2,125.5,72.2z"/>
	<path d="M129.3,70h0.8v3.3c0,0.3,0,0.5,0,0.5h0c0.2-0.6,1-1.5,2.4-1.5c1.5,0,2,0.9,2,2.3v3.8h-0.8v-3.6c0-0.9-0.1-1.8-1.3-1.8
		c-1,0-1.9,0.7-2.2,1.7c-0.1,0.2-0.1,0.5-0.1,0.8v2.9h-0.8V70z"/>
	<path d="M139.2,72.2c1.8,0,3.2,1.3,3.2,3.1c0,1.8-1.4,3.2-3.2,3.2s-3.2-1.4-3.2-3.2C136,73.6,137.4,72.2,139.2,72.2z M139.2,77.8
		c1.3,0,2.4-1.1,2.4-2.5c0-1.4-1.1-2.4-2.4-2.4s-2.4,1-2.4,2.4C136.8,76.8,137.9,77.8,139.2,77.8z"/>
	<path d="M146.6,72.2c1.8,0,3.2,1.3,3.2,3.1c0,1.8-1.4,3.2-3.2,3.2s-3.2-1.4-3.2-3.2C143.4,73.6,144.9,72.2,146.6,72.2z M146.6,77.8
		c1.3,0,2.4-1.1,2.4-2.5c0-1.4-1.1-2.4-2.4-2.4s-2.4,1-2.4,2.4C144.3,76.8,145.3,77.8,146.6,77.8z"/>
	<path d="M151.3,77.1c0,0,0.7,0.7,1.8,0.7c0.6,0,1.2-0.3,1.2-1c0-1.3-3.3-1-3.3-3c0-1.1,1-1.7,2.1-1.7c1.3,0,1.9,0.7,1.9,0.7
		l-0.4,0.6c0,0-0.5-0.6-1.5-0.6c-0.6,0-1.2,0.3-1.2,0.9c0,1.3,3.3,1,3.3,3c0,1-0.9,1.7-2.1,1.7c-1.5,0-2.2-0.9-2.2-0.9L151.3,77.1z"
		/>
	<path d="M159.2,72.2c1.7,0,2.5,1.3,2.5,2.8c0,0.1,0,0.4,0,0.4h-4.6c0,1.5,1.1,2.4,2.3,2.4c1.1,0,1.8-0.7,1.8-0.7l0.4,0.6
		c0,0-0.9,0.8-2.2,0.8c-1.8,0-3.2-1.3-3.2-3.2C156.3,73.4,157.6,72.2,159.2,72.2z M160.9,74.8c0-1.3-0.8-1.8-1.7-1.8
		c-1,0-1.9,0.6-2.1,1.8H160.9z"/>
	<path d="M166.8,73.1H166v-0.7h0.8v-1.7h0.8v1.7h1.5v0.7h-1.5v3c0,1.4,0.9,1.6,1.4,1.6c0.2,0,0.3,0,0.3,0v0.7c0,0-0.1,0-0.3,0
		c-0.7,0-2.1-0.2-2.1-2.2V73.1z"/>
	<path d="M170.6,70h0.8v3.3c0,0.3,0,0.5,0,0.5h0c0.2-0.6,1-1.5,2.4-1.5c1.5,0,2,0.9,2,2.3v3.8H175v-3.6c0-0.9-0.1-1.8-1.3-1.8
		c-1,0-1.9,0.7-2.2,1.7c-0.1,0.2-0.1,0.5-0.1,0.8v2.9h-0.8V70z"/>
	<path d="M180.2,72.2c1.7,0,2.5,1.3,2.5,2.8c0,0.1,0,0.4,0,0.4h-4.6c0,1.5,1.1,2.4,2.3,2.4c1.1,0,1.8-0.7,1.8-0.7l0.4,0.6
		c0,0-0.9,0.8-2.2,0.8c-1.8,0-3.2-1.3-3.2-3.2C177.3,73.4,178.6,72.2,180.2,72.2z M181.9,74.8c0-1.3-0.8-1.8-1.7-1.8
		c-1,0-1.9,0.6-2.1,1.8H181.9z"/>
	<path d="M184.3,70h0.9v1h-0.9V70z M184.3,72.4h0.8v6h-0.8V72.4z"/>
	<path d="M187.1,72.4h0.8v1.1c0,0.3,0,0.5,0,0.5h0c0.3-0.9,1-1.6,1.9-1.6c0.2,0,0.3,0,0.3,0v0.8c0,0-0.1,0-0.3,0
		c-0.9,0-1.5,0.7-1.8,1.6c-0.1,0.4-0.2,0.8-0.2,1.2v2.5h-0.8V72.4z"/>
	<path d="M127.3,91.5c0,0,0.7,0.7,1.8,0.7c0.6,0,1.2-0.3,1.2-1c0-1.3-3.3-1-3.3-3c0-1.1,1-1.7,2.1-1.7c1.3,0,1.9,0.7,1.9,0.7
		l-0.4,0.6c0,0-0.5-0.6-1.5-0.6c-0.6,0-1.2,0.3-1.2,0.9c0,1.3,3.3,1,3.3,3c0,1-0.9,1.7-2.1,1.7c-1.5,0-2.2-0.9-2.2-0.9L127.3,91.5z"
		/>
	<path d="M135.4,86.6c1.8,0,3.2,1.3,3.2,3.1c0,1.8-1.4,3.2-3.2,3.2s-3.2-1.4-3.2-3.2C132.2,88,133.7,86.6,135.4,86.6z M135.4,92.2
		c1.3,0,2.4-1.1,2.4-2.5c0-1.4-1.1-2.4-2.4-2.4s-2.4,1-2.4,2.4C133.1,91.2,134.1,92.2,135.4,92.2z"/>
	<path d="M140.1,86.8h0.8v0.9c0,0.3,0,0.5,0,0.5h0c0.2-0.6,1-1.5,2.4-1.5c1.5,0,2,0.9,2,2.3v3.8h-0.8v-3.6c0-0.9-0.1-1.8-1.3-1.8
		c-1,0-1.9,0.7-2.2,1.7c-0.1,0.3-0.1,0.5-0.1,0.8v2.9h-0.8V86.8z"/>
	<path d="M149.3,94.6c1.2,0,2.1-0.6,2.1-1.9v-0.6c0-0.2,0-0.4,0-0.4h0c-0.4,0.7-1,1.1-1.9,1.1c-1.6,0-2.7-1.3-2.7-3.1
		c0-1.8,1-3,2.6-3c1.6,0,2,1,2,1h0c0,0,0-0.1,0-0.2v-0.7h0.8v5.9c0,1.9-1.4,2.7-2.9,2.7c-0.7,0-1.4-0.2-2-0.5l0.3-0.7
		C147.7,94.2,148.5,94.6,149.3,94.6z M151.5,89.7c0-1.8-0.8-2.3-1.9-2.3c-1.2,0-1.9,0.9-1.9,2.3c0,1.4,0.8,2.4,2,2.4
		C150.6,92,151.5,91.4,151.5,89.7z"/>
	<path d="M157.4,86.8h0.8v3.6c0,0.9,0.1,1.8,1.3,1.8c1.4,0,2.2-1.2,2.2-2.5v-2.9h0.8v6h-0.8v-0.9c0-0.3,0-0.5,0-0.5h0
		c-0.2,0.6-1,1.5-2.4,1.5c-1.4,0-2-0.8-2-2.3V86.8z"/>
	<path d="M164.5,91.5c0,0,0.7,0.7,1.8,0.7c0.6,0,1.2-0.3,1.2-1c0-1.3-3.3-1-3.3-3c0-1.1,1-1.7,2.1-1.7c1.3,0,1.9,0.7,1.9,0.7
		l-0.4,0.6c0,0-0.5-0.6-1.5-0.6c-0.6,0-1.2,0.3-1.2,0.9c0,1.3,3.3,1,3.3,3c0,1-0.9,1.7-2.1,1.7c-1.5,0-2.2-0.9-2.2-0.9L164.5,91.5z"
		/>
	<path d="M169.8,84.4h0.9v1h-0.9V84.4z M169.8,86.8h0.8v6h-0.8V86.8z"/>
	<path d="M172.6,86.8h0.8v0.9c0,0.3,0,0.5,0,0.5h0c0.2-0.6,1-1.5,2.4-1.5c1.5,0,2,0.9,2,2.3v3.8H177v-3.6c0-0.9-0.1-1.8-1.3-1.8
		c-1,0-1.9,0.7-2.2,1.7c-0.1,0.3-0.1,0.5-0.1,0.8v2.9h-0.8V86.8z"/>
	<path d="M181.8,94.6c1.2,0,2.1-0.6,2.1-1.9v-0.6c0-0.2,0-0.4,0-0.4h0c-0.4,0.7-1,1.1-1.9,1.1c-1.6,0-2.7-1.3-2.7-3.1
		c0-1.8,1-3,2.6-3c1.6,0,2,1,2,1h0c0,0,0-0.1,0-0.2v-0.7h0.8v5.9c0,1.9-1.4,2.7-2.9,2.7c-0.7,0-1.4-0.2-2-0.5l0.3-0.7
		C180.2,94.2,180.9,94.6,181.8,94.6z M184,89.7c0-1.8-0.8-2.3-1.9-2.3c-1.2,0-1.9,0.9-1.9,2.3c0,1.4,0.8,2.4,2,2.4
		C183.1,92,184,91.4,184,89.7z"/>
	<path d="M124.3,101.9h-0.8v-0.7h0.8v-1.7h0.8v1.7h1.5v0.7h-1.5v3c0,1.4,0.9,1.6,1.4,1.6c0.2,0,0.3,0,0.3,0v0.7c0,0-0.1,0-0.3,0
		c-0.7,0-2.1-0.2-2.1-2.2V101.9z"/>
	<path d="M128.1,98.8h0.8v3.3c0,0.3,0,0.5,0,0.5h0c0.2-0.6,1-1.5,2.4-1.5c1.5,0,2,0.9,2,2.3v3.8h-0.8v-3.6c0-0.9-0.1-1.8-1.3-1.8
		c-1,0-1.9,0.7-2.2,1.7c-0.1,0.2-0.1,0.5-0.1,0.8v2.9h-0.8V98.8z"/>
	<path d="M137.8,101c1.7,0,2.5,1.3,2.5,2.8c0,0.1,0,0.4,0,0.4h-4.6c0,1.5,1.1,2.4,2.3,2.4c1.1,0,1.8-0.7,1.8-0.7l0.4,0.6
		c0,0-0.9,0.8-2.2,0.8c-1.8,0-3.2-1.3-3.2-3.2C134.8,102.2,136.2,101,137.8,101z M139.5,103.6c0-1.3-0.8-1.8-1.7-1.8
		c-1,0-1.9,0.6-2.1,1.8H139.5z"/>
	<path d="M145.4,101.9h-0.8v-0.7h0.8V101c0-2,1.4-2.2,2.1-2.2c0.2,0,0.4,0,0.4,0v0.7c0,0-0.1,0-0.3,0c-0.5,0-1.4,0.2-1.4,1.5v0.3
		h1.5v0.7h-1.5v5.3h-0.8V101.9z"/>
	<path d="M151.7,101c1.8,0,3.2,1.3,3.2,3.1c0,1.8-1.4,3.2-3.2,3.2s-3.2-1.4-3.2-3.2C148.5,102.4,149.9,101,151.7,101z M151.7,106.6
		c1.3,0,2.4-1.1,2.4-2.5c0-1.4-1.1-2.4-2.4-2.4s-2.4,1-2.4,2.4C149.3,105.6,150.4,106.6,151.7,106.6z"/>
	<path d="M156.4,101.2h0.8v0.9c0,0.3,0,0.5,0,0.5h0c0.2-0.6,1-1.5,2.4-1.5c1.5,0,2,0.9,2,2.3v3.8h-0.8v-3.6c0-0.9-0.1-1.8-1.3-1.8
		c-1,0-1.9,0.7-2.2,1.7c-0.1,0.3-0.1,0.5-0.1,0.8v2.9h-0.8V101.2z"/>
	<path d="M163,106.7l3.4-4.2c0.2-0.3,0.5-0.6,0.5-0.6v0c0,0-0.2,0-0.6,0h-3.1v-0.7h4.8v0.5l-3.4,4.2c-0.2,0.3-0.5,0.6-0.5,0.6v0
		c0,0,0.2,0,0.6,0h3.4v0.7H163V106.7z"/>
	<path d="M176,103.5h0.3v-0.2c0-1.2-0.6-1.6-1.5-1.6c-1,0-1.7,0.6-1.7,0.6l-0.4-0.6c0,0,0.8-0.7,2.1-0.7c1.5,0,2.3,0.8,2.3,2.3v3.9
		h-0.8v-0.7c0-0.3,0-0.5,0-0.5h0c0,0-0.5,1.3-2,1.3c-1,0-2.1-0.6-2.1-1.8C172.3,103.5,175,103.5,176,103.5z M174.5,106.6
		c1.2,0,1.8-1.2,1.8-2.2v-0.3H176c-0.9,0-2.8,0-2.8,1.4C173.2,106.1,173.6,106.6,174.5,106.6z"/>
	<path d="M179.1,101.2h0.8v0.6c0,0.3,0,0.5,0,0.5h0c0,0,0.5-1.2,2.1-1.2c1.6,0,2.6,1.3,2.6,3.2c0,1.9-1.1,3.2-2.7,3.2
		c-1.5,0-2-1.2-2-1.2h0c0,0,0,0.2,0,0.5v2.9h-0.8V101.2z M181.8,106.6c1.1,0,1.9-0.9,1.9-2.4c0-1.5-0.8-2.4-1.9-2.4
		c-1,0-2,0.7-2,2.4C179.9,105.4,180.5,106.6,181.8,106.6z"/>
	<path d="M186.1,101.2h0.8v0.6c0,0.3,0,0.5,0,0.5h0c0,0,0.5-1.2,2.1-1.2c1.6,0,2.6,1.3,2.6,3.2c0,1.9-1.1,3.2-2.7,3.2
		c-1.5,0-2-1.2-2-1.2h0c0,0,0,0.2,0,0.5v2.9h-0.8V101.2z M188.8,106.6c1.1,0,1.9-0.9,1.9-2.4c0-1.5-0.8-2.4-1.9-2.4
		c-1,0-2,0.7-2,2.4C186.9,105.4,187.6,106.6,188.8,106.6z"/>
</g>
<g>
	<path d="M465.8,147H465v-0.7h0.8v-1.7h0.8v1.7h1.5v0.7h-1.5v3c0,1.4,0.9,1.6,1.4,1.6c0.2,0,0.3,0,0.3,0v0.7c0,0-0.1,0-0.3,0
		c-0.7,0-2.1-0.2-2.1-2.2V147z"/>
	<path d="M472.8,148.5h0.3v-0.2c0-1.2-0.6-1.6-1.5-1.6c-1,0-1.7,0.6-1.7,0.6l-0.4-0.6c0,0,0.8-0.7,2.1-0.7c1.5,0,2.3,0.8,2.3,2.3
		v3.9h-0.8v-0.7c0-0.3,0-0.5,0-0.5h0c0,0-0.5,1.3-2,1.3c-1,0-2.1-0.6-2.1-1.8C469.1,148.6,471.8,148.5,472.8,148.5z M471.3,151.7
		c1.2,0,1.8-1.2,1.8-2.2v-0.3h-0.3c-0.9,0-2.8,0-2.8,1.4C470,151.1,470.4,151.7,471.3,151.7z"/>
	<path d="M475.9,146.2h0.8v0.6c0,0.3,0,0.5,0,0.5h0c0,0,0.5-1.2,2.1-1.2c1.6,0,2.6,1.3,2.6,3.2c0,1.9-1.1,3.2-2.7,3.2
		c-1.5,0-2-1.2-2-1.2h0c0,0,0,0.2,0,0.5v2.9h-0.8V146.2z M478.6,151.7c1.1,0,1.9-0.9,1.9-2.4c0-1.5-0.8-2.4-1.9-2.4
		c-1,0-2,0.7-2,2.4C476.6,150.5,477.3,151.7,478.6,151.7z"/>
	<path d="M486.4,147h-0.8v-0.7h0.8v-1.7h0.8v1.7h1.5v0.7h-1.5v3c0,1.4,0.9,1.6,1.4,1.6c0.2,0,0.3,0,0.3,0v0.7c0,0-0.1,0-0.3,0
		c-0.7,0-2.1-0.2-2.1-2.2V147z"/>
	<path d="M490.2,143.8h0.8v3.3c0,0.3,0,0.5,0,0.5h0c0.2-0.6,1-1.5,2.4-1.5c1.5,0,2,0.9,2,2.3v3.8h-0.8v-3.6c0-0.9-0.1-1.8-1.3-1.8
		c-1,0-1.9,0.7-2.2,1.7c-0.1,0.2-0.1,0.5-0.1,0.8v2.9h-0.8V143.8z"/>
	<path d="M499.8,146.1c1.7,0,2.5,1.3,2.5,2.8c0,0.1,0,0.4,0,0.4h-4.6c0,1.5,1.1,2.4,2.3,2.4c1.1,0,1.8-0.7,1.8-0.7l0.4,0.6
		c0,0-0.9,0.8-2.2,0.8c-1.8,0-3.2-1.3-3.2-3.2C496.9,147.2,498.2,146.1,499.8,146.1z M501.5,148.6c0-1.3-0.8-1.8-1.7-1.8
		c-1,0-1.9,0.6-2.1,1.8H501.5z"/>
	<path d="M509.9,146.1c1.5,0,2.2,0.9,2.2,0.9l-0.4,0.6c0,0-0.7-0.7-1.8-0.7c-1.3,0-2.4,1-2.4,2.4c0,1.4,1,2.4,2.4,2.4
		c1.2,0,1.9-0.9,1.9-0.9l0.4,0.6c0,0-0.8,0.9-2.4,0.9c-1.8,0-3.2-1.3-3.2-3.2C506.7,147.4,508.1,146.1,509.9,146.1z"/>
	<path d="M516.5,146.1c1.8,0,3.2,1.3,3.2,3.1c0,1.8-1.4,3.2-3.2,3.2s-3.2-1.4-3.2-3.2C513.3,147.4,514.7,146.1,516.5,146.1z
		 M516.5,151.7c1.3,0,2.4-1.1,2.4-2.5c0-1.4-1.1-2.4-2.4-2.4s-2.4,1-2.4,2.4C514.1,150.6,515.2,151.7,516.5,151.7z"/>
	<path d="M524.4,148.5h0.3v-0.2c0-1.2-0.6-1.6-1.5-1.6c-1,0-1.7,0.6-1.7,0.6l-0.4-0.6c0,0,0.8-0.7,2.1-0.7c1.5,0,2.3,0.8,2.3,2.3
		v3.9h-0.8v-0.7c0-0.3,0-0.5,0-0.5h0c0,0-0.5,1.3-2,1.3c-1,0-2.1-0.6-2.1-1.8C520.7,148.6,523.4,148.5,524.4,148.5z M522.9,151.7
		c1.2,0,1.8-1.2,1.8-2.2v-0.3h-0.3c-0.9,0-2.8,0-2.8,1.4C521.6,151.1,522,151.7,522.9,151.7z"/>
	<path d="M527.4,150.9c0,0,0.7,0.7,1.8,0.7c0.6,0,1.2-0.3,1.2-1c0-1.3-3.3-1-3.3-3c0-1.1,1-1.7,2.1-1.7c1.3,0,1.9,0.7,1.9,0.7
		l-0.4,0.6c0,0-0.5-0.6-1.5-0.6c-0.6,0-1.2,0.3-1.2,0.9c0,1.3,3.3,1,3.3,3c0,1-0.9,1.7-2.1,1.7c-1.5,0-2.2-0.9-2.2-0.9L527.4,150.9z
		"/>
	<path d="M533,147h-0.8v-0.7h0.8v-1.7h0.8v1.7h1.5v0.7h-1.5v3c0,1.4,0.9,1.6,1.4,1.6c0.2,0,0.3,0,0.3,0v0.7c0,0-0.1,0-0.3,0
		c-0.7,0-2.1-0.2-2.1-2.2V147z"/>
	<path d="M539.3,146.1c1.7,0,2.5,1.3,2.5,2.8c0,0.1,0,0.4,0,0.4h-4.6c0,1.5,1.1,2.4,2.3,2.4c1.1,0,1.8-0.7,1.8-0.7l0.4,0.6
		c0,0-0.9,0.8-2.2,0.8c-1.8,0-3.2-1.3-3.2-3.2C536.4,147.2,537.7,146.1,539.3,146.1z M541,148.6c0-1.3-0.8-1.8-1.7-1.8
		c-1,0-1.9,0.6-2.1,1.8H541z"/>
	<path d="M543.4,146.2h0.8v1.1c0,0.3,0,0.5,0,0.5h0c0.3-0.9,1-1.6,1.9-1.6c0.2,0,0.3,0,0.3,0v0.8c0,0-0.1,0-0.3,0
		c-0.9,0-1.5,0.7-1.8,1.6c-0.1,0.4-0.2,0.8-0.2,1.2v2.5h-0.8V146.2z"/>
	<path d="M552.2,147.7L552.2,147.7c0,0-1.2-0.4-1.2-1.9c0-1.3,1-2.1,2.5-2.1c0.4,0,1,0.1,1,0.1l-0.2,0.7c0,0-0.4-0.1-0.7-0.1
		c-0.9,0-1.7,0.5-1.7,1.5c0,0.6,0.2,1.5,1.8,1.5h1.8v-1.2h0.8v1.2h1.1v0.7h-1.1v1.2c0,2-1.1,3-2.8,3c-1.7,0-2.8-1.1-2.8-2.5
		C550.7,148.9,551.2,148,552.2,147.7z M553.5,151.6c1.2,0,2-0.7,2-2.3v-1.2h-1.8c-1.5,0-2.2,0.7-2.2,1.8
		C551.5,150.8,552.2,151.6,553.5,151.6z"/>
	<path d="M562.5,147h-0.8v-0.7h0.8v-1.7h0.8v1.7h1.5v0.7h-1.5v3c0,1.4,0.9,1.6,1.4,1.6c0.2,0,0.3,0,0.3,0v0.7c0,0-0.1,0-0.3,0
		c-0.7,0-2.1-0.2-2.1-2.2V147z"/>
	<path d="M566.3,143.8h0.8v3.3c0,0.3,0,0.5,0,0.5h0c0.2-0.6,1-1.5,2.4-1.5c1.5,0,2,0.9,2,2.3v3.8h-0.8v-3.6c0-0.9-0.1-1.8-1.3-1.8
		c-1,0-1.9,0.7-2.2,1.7c-0.1,0.2-0.1,0.5-0.1,0.8v2.9h-0.8V143.8z"/>
	<path d="M575.9,146.1c1.7,0,2.5,1.3,2.5,2.8c0,0.1,0,0.4,0,0.4h-4.6c0,1.5,1.1,2.4,2.3,2.4c1.1,0,1.8-0.7,1.8-0.7l0.4,0.6
		c0,0-0.9,0.8-2.2,0.8c-1.8,0-3.2-1.3-3.2-3.2C572.9,147.2,574.3,146.1,575.9,146.1z M577.6,148.6c0-1.3-0.8-1.8-1.7-1.8
		c-1,0-1.9,0.6-2.1,1.8H577.6z"/>
	<path d="M490.5,165.3c0,0,0.7,0.7,1.8,0.7c0.6,0,1.2-0.3,1.2-1c0-1.3-3.3-1-3.3-3c0-1.1,1-1.7,2.1-1.7c1.3,0,1.9,0.7,1.9,0.7
		l-0.4,0.6c0,0-0.5-0.6-1.5-0.6c-0.6,0-1.2,0.3-1.2,0.9c0,1.3,3.3,1,3.3,3c0,1-0.9,1.7-2.1,1.7c-1.5,0-2.2-0.9-2.2-0.9L490.5,165.3z
		"/>
	<path d="M498.6,160.5c1.8,0,3.2,1.3,3.2,3.1c0,1.8-1.4,3.2-3.2,3.2s-3.2-1.4-3.2-3.2C495.4,161.8,496.8,160.5,498.6,160.5z
		 M498.6,166.1c1.3,0,2.4-1.1,2.4-2.5c0-1.4-1.1-2.4-2.4-2.4s-2.4,1-2.4,2.4C496.3,165,497.3,166.1,498.6,166.1z"/>
	<path d="M503.3,160.6h0.8v0.9c0,0.3,0,0.5,0,0.5h0c0.2-0.6,1-1.5,2.4-1.5c1.5,0,2,0.9,2,2.3v3.8h-0.8V163c0-0.9-0.1-1.8-1.3-1.8
		c-1,0-1.9,0.7-2.2,1.7c-0.1,0.3-0.1,0.5-0.1,0.8v2.9h-0.8V160.6z"/>
	<path d="M512.5,168.4c1.2,0,2.1-0.6,2.1-1.9V166c0-0.2,0-0.4,0-0.4h0c-0.4,0.7-1,1.1-1.9,1.1c-1.6,0-2.7-1.3-2.7-3.1
		c0-1.8,1-3,2.6-3c1.6,0,2,1,2,1h0c0,0,0-0.1,0-0.2v-0.7h0.8v5.9c0,1.9-1.4,2.7-2.9,2.7c-0.7,0-1.4-0.2-2-0.5l0.3-0.7
		C510.9,168,511.6,168.4,512.5,168.4z M514.6,163.5c0-1.8-0.8-2.3-1.9-2.3c-1.2,0-1.9,0.9-1.9,2.3c0,1.4,0.8,2.4,2,2.4
		C513.8,165.9,514.6,165.3,514.6,163.5z"/>
	<path d="M520.6,158.2h0.9v1h-0.9V158.2z M520.6,160.6h0.8v6h-0.8V160.6z"/>
	<path d="M523.4,165.3c0,0,0.7,0.7,1.8,0.7c0.6,0,1.2-0.3,1.2-1c0-1.3-3.3-1-3.3-3c0-1.1,1-1.7,2.1-1.7c1.3,0,1.9,0.7,1.9,0.7
		l-0.4,0.6c0,0-0.5-0.6-1.5-0.6c-0.6,0-1.2,0.3-1.2,0.9c0,1.3,3.3,1,3.3,3c0,1-0.9,1.7-2.1,1.7c-1.5,0-2.2-0.9-2.2-0.9L523.4,165.3z
		"/>
	<path d="M531.9,165.3c0,0,0.7,0.7,1.8,0.7c0.6,0,1.2-0.3,1.2-1c0-1.3-3.3-1-3.3-3c0-1.1,1-1.7,2.1-1.7c1.3,0,1.9,0.7,1.9,0.7
		l-0.4,0.6c0,0-0.5-0.6-1.5-0.6c-0.6,0-1.2,0.3-1.2,0.9c0,1.3,3.3,1,3.3,3c0,1-0.9,1.7-2.1,1.7c-1.5,0-2.2-0.9-2.2-0.9L531.9,165.3z
		"/>
	<path d="M539.8,160.5c1.7,0,2.5,1.3,2.5,2.8c0,0.1,0,0.4,0,0.4h-4.6c0,1.5,1.1,2.4,2.3,2.4c1.1,0,1.8-0.7,1.8-0.7l0.4,0.6
		c0,0-0.9,0.8-2.2,0.8c-1.8,0-3.2-1.3-3.2-3.2C536.9,161.6,538.2,160.5,539.8,160.5z M541.5,163c0-1.3-0.8-1.8-1.7-1.8
		c-1,0-1.9,0.6-2.1,1.8H541.5z"/>
	<path d="M543.9,160.6h0.8v0.9c0,0.3,0,0.5,0,0.5h0c0.2-0.6,1-1.5,2.4-1.5c1.5,0,2,0.9,2,2.3v3.8h-0.8V163c0-0.9-0.1-1.8-1.3-1.8
		c-1,0-1.9,0.7-2.2,1.7c-0.1,0.3-0.1,0.5-0.1,0.8v2.9h-0.8V160.6z"/>
	<path d="M551.3,161.4h-0.8v-0.7h0.8v-1.7h0.8v1.7h1.5v0.7h-1.5v3c0,1.4,0.9,1.6,1.4,1.6c0.2,0,0.3,0,0.3,0v0.7c0,0-0.1,0-0.3,0
		c-0.7,0-2.1-0.2-2.1-2.2V161.4z"/>
</g>
<g>
	<path d="M727.9,349.3l-0.8,0l0-0.7l0.8,0l0-1.7l0.8,0l0,1.7l1.5,0l0,0.7l-1.5,0l0,3c0,1.4,0.9,1.6,1.3,1.6c0.2,0,0.3,0,0.3,0l0,0.7
		c0,0-0.1,0-0.3,0c-0.7,0-2.1-0.2-2.1-2.3L727.9,349.3z"/>
	<path d="M731.7,346.2l0.8,0l0,3.3c0,0.3,0,0.5,0,0.5h0c0.2-0.6,1-1.5,2.4-1.5c1.5,0,2,0.9,2,2.4l0,3.8l-0.8,0l0-3.6
		c0-0.9-0.1-1.8-1.3-1.8c-1,0-1.9,0.7-2.2,1.7c-0.1,0.2-0.1,0.5-0.1,0.8l0,2.9l-0.8,0L731.7,346.2z"/>
	<path d="M741.4,348.5c1.7,0,2.5,1.3,2.5,2.8c0,0.1,0,0.4,0,0.4l-4.6,0c0,1.5,1.1,2.4,2.3,2.4c1.1,0,1.8-0.7,1.8-0.7l0.4,0.6
		c0,0-0.9,0.8-2.2,0.8c-1.8,0-3.1-1.3-3.1-3.2C738.4,349.7,739.7,348.5,741.4,348.5z M743,351.1c0-1.3-0.8-1.9-1.7-1.9
		c-1,0-1.9,0.6-2.1,1.8L743,351.1z"/>
	<path d="M748.6,353.5c0,0,0.7,0.7,1.8,0.8c0.6,0,1.2-0.3,1.2-0.9c0-1.3-3.2-1-3.2-3c0-1.1,1-1.7,2.1-1.6c1.3,0,1.9,0.7,1.9,0.7
		l-0.4,0.6c0,0-0.5-0.6-1.5-0.6c-0.6,0-1.2,0.3-1.2,0.9c0,1.3,3.2,1,3.2,3c0,1-0.9,1.7-2.1,1.7c-1.5,0-2.2-0.9-2.2-0.9L748.6,353.5z
		"/>
	<path d="M756.7,348.7c1.8,0,3.2,1.4,3.2,3.2c0,1.8-1.5,3.2-3.2,3.2c-1.8,0-3.2-1.4-3.2-3.2C753.5,350,755,348.7,756.7,348.7z
		 M756.7,354.3c1.3,0,2.4-1,2.4-2.4c0-1.4-1-2.4-2.3-2.4c-1.3,0-2.4,1-2.4,2.4C754.3,353.2,755.4,354.3,756.7,354.3z"/>
	<path d="M761.5,348.9l0.8,0l0,0.9c0,0.3,0,0.5,0,0.5h0c0.2-0.5,1-1.5,2.4-1.5c1.5,0,2,0.9,2,2.4l0,3.8l-0.8,0l0-3.6
		c0-0.9-0.1-1.8-1.3-1.8c-1,0-1.9,0.7-2.2,1.7c-0.1,0.3-0.1,0.5-0.1,0.8l0,2.9l-0.8,0L761.5,348.9z"/>
	<path d="M770.6,356.8c1.2,0,2.1-0.5,2.1-1.9l0-0.6c0-0.2,0-0.4,0-0.4h0c-0.4,0.7-1,1-1.9,1c-1.6,0-2.7-1.3-2.7-3.1c0-1.8,1-3,2.6-3
		c1.6,0,2,1,2,1h0c0,0,0-0.1,0-0.2l0-0.7l0.8,0l-0.1,5.9c0,1.9-1.4,2.6-2.9,2.6c-0.7,0-1.4-0.2-2-0.5l0.3-0.7
		C769,356.4,769.7,356.8,770.6,356.8z M772.8,351.9c0-1.8-0.8-2.3-1.9-2.3c-1.2,0-1.9,0.8-1.9,2.3c0,1.4,0.8,2.4,2,2.4
		C771.9,354.3,772.7,353.7,772.8,351.9z"/>
	<path d="M778.8,349.1l0.8,0l-0.1,6l-0.8,0L778.8,349.1z M778.8,346.7l0.9,0l0,1l-0.9,0L778.8,346.7z"/>
	<path d="M781.5,353.8c0,0,0.7,0.7,1.8,0.8c0.6,0,1.2-0.3,1.2-0.9c0-1.3-3.2-1-3.2-3c0-1.1,1-1.7,2.1-1.6c1.3,0,1.9,0.7,1.9,0.7
		l-0.4,0.6c0,0-0.5-0.6-1.5-0.6c-0.6,0-1.2,0.3-1.2,0.9c0,1.3,3.2,1,3.2,3c0,1-0.9,1.7-2.1,1.7c-1.5,0-2.2-0.9-2.2-0.9L781.5,353.8z
		"/>
	<path d="M793.3,351.5l0.3,0l0-0.2c0-1.2-0.6-1.6-1.5-1.6c-1,0-1.7,0.6-1.7,0.6l-0.4-0.6c0,0,0.8-0.7,2.2-0.7c1.5,0,2.2,0.8,2.2,2.3
		l0,3.9l-0.8,0l0-0.7c0-0.3,0-0.5,0-0.5h0c0,0-0.5,1.3-2,1.3c-1,0-2-0.6-2-1.8C789.6,351.5,792.2,351.5,793.3,351.5z M791.7,354.7
		c1.2,0,1.9-1.2,1.9-2.2l0-0.3l-0.3,0c-0.9,0-2.8,0-2.9,1.3C790.4,354.1,790.8,354.7,791.7,354.7z"/>
	<path d="M798.7,349.1c1.5,0,2,1.2,2,1.2h0c0,0,0-0.2,0-0.5l0-2.9l0.8,0l-0.1,8.4l-0.8,0l0-0.6c0-0.3,0-0.4,0-0.4h0
		c0,0-0.5,1.2-2.1,1.2c-1.6,0-2.6-1.3-2.6-3.2C795.9,350.3,797.1,349.1,798.7,349.1z M798.6,354.7c1,0,2-0.7,2-2.4
		c0-1.2-0.6-2.4-1.9-2.4c-1.1,0-2,0.9-2,2.4C796.7,353.7,797.5,354.7,798.6,354.7z"/>
	<path d="M805.7,349.2c1.5,0,2,1.2,2,1.2h0c0,0,0-0.2,0-0.5l0-2.9l0.8,0l-0.1,8.4l-0.8,0l0-0.6c0-0.3,0-0.4,0-0.4h0
		c0,0-0.5,1.2-2.1,1.2c-1.6,0-2.6-1.3-2.6-3.2C803,350.4,804.2,349.2,805.7,349.2z M805.7,354.8c1,0,2-0.7,2-2.4
		c0-1.2-0.6-2.4-1.9-2.4c-1.1,0-2,0.9-2,2.4C803.8,353.8,804.6,354.8,805.7,354.8z"/>
	<path d="M813,349.3c1.7,0,2.5,1.3,2.5,2.8c0,0.1,0,0.4,0,0.4l-4.6,0c0,1.5,1.1,2.4,2.3,2.4c1.1,0,1.8-0.7,1.8-0.7l0.4,0.6
		c0,0-0.9,0.8-2.2,0.8c-1.8,0-3.1-1.3-3.1-3.2C810.1,350.4,811.4,349.3,813,349.3z M814.7,351.8c0-1.3-0.8-1.9-1.7-1.9
		c-1,0-1.9,0.6-2.1,1.8L814.7,351.8z"/>
	<path d="M819.4,349.3c1.5,0,2,1.2,2,1.2l0,0c0,0,0-0.2,0-0.5l0-2.9l0.8,0l-0.1,8.4l-0.8,0l0-0.6c0-0.3,0-0.4,0-0.4h0
		c0,0-0.5,1.2-2.1,1.2c-1.6,0-2.6-1.3-2.6-3.2C816.7,350.6,817.9,349.3,819.4,349.3z M819.4,354.9c1,0,2-0.7,2-2.4
		c0-1.2-0.6-2.4-1.9-2.4c-1.1,0-2,0.9-2,2.4C817.5,354,818.3,354.9,819.4,354.9z"/>
	<path d="M827.6,350.3l-0.8,0l0-0.7l0.8,0l0-1.7l0.8,0l0,1.7l1.5,0l0,0.7l-1.5,0l0,3c0,1.4,0.9,1.6,1.3,1.6c0.2,0,0.3,0,0.3,0l0,0.7
		c0,0-0.1,0-0.3,0c-0.7,0-2.1-0.2-2.1-2.3L827.6,350.3z"/>
	<path d="M834.2,349.5c1.8,0,3.2,1.4,3.2,3.2c0,1.8-1.5,3.2-3.2,3.2c-1.8,0-3.2-1.4-3.2-3.2C831,350.8,832.4,349.5,834.2,349.5z
		 M834.1,355.1c1.3,0,2.4-1,2.4-2.4c0-1.4-1-2.4-2.3-2.4c-1.3,0-2.4,1-2.4,2.4C831.8,354,832.8,355.1,834.1,355.1z"/>
	<path d="M842.3,350.5l-0.8,0l0-0.7l0.8,0l0-1.7l0.8,0l0,1.7l1.5,0l0,0.7l-1.5,0l0,3c0,1.4,0.9,1.6,1.3,1.6c0.2,0,0.3,0,0.3,0l0,0.7
		c0,0-0.1,0-0.3,0c-0.7,0-2.1-0.2-2.1-2.3L842.3,350.5z"/>
	<path d="M846.2,347.4l0.8,0l0,3.3c0,0.3,0,0.5,0,0.5l0,0c0.2-0.6,1-1.5,2.4-1.5c1.5,0,2,0.9,2,2.4l0,3.8l-0.8,0l0-3.6
		c0-0.9-0.1-1.8-1.3-1.8c-1,0-1.9,0.7-2.2,1.7c-0.1,0.2-0.1,0.5-0.1,0.8l0,2.9l-0.8,0L846.2,347.4z"/>
	<path d="M855.8,349.7c1.7,0,2.5,1.3,2.5,2.8c0,0.1,0,0.4,0,0.4l-4.6,0c0,1.5,1.1,2.4,2.3,2.4c1.1,0,1.8-0.7,1.8-0.7l0.4,0.6
		c0,0-0.9,0.8-2.2,0.8c-1.8,0-3.1-1.3-3.1-3.2C852.8,350.9,854.2,349.7,855.8,349.7z M857.5,352.3c0-1.3-0.8-1.9-1.7-1.9
		c-1,0-1.9,0.6-2.1,1.8L857.5,352.3z"/>
	<path d="M759,360.9l0.8,0l0,3.3c0,0.3,0,0.5,0,0.5h0c0.2-0.6,1-1.5,2.4-1.5c1.5,0,2,0.9,2,2.4l0,3.8l-0.8,0l0-3.6
		c0-0.9-0.1-1.8-1.3-1.8c-1,0-1.9,0.7-2.2,1.7c-0.1,0.2-0.1,0.5-0.1,0.8l0,2.9l-0.8,0L759,360.9z"/>
	<path d="M768.8,363.2c1.8,0,3.2,1.4,3.2,3.2c0,1.8-1.5,3.2-3.2,3.2c-1.8,0-3.2-1.4-3.2-3.2C765.6,364.5,767,363.2,768.8,363.2z
		 M768.7,368.8c1.3,0,2.4-1,2.4-2.4c0-1.4-1-2.4-2.3-2.4c-1.3,0-2.4,1-2.4,2.4C766.4,367.7,767.4,368.8,768.7,368.8z"/>
	<path d="M773.4,368.1c0,0,0.7,0.7,1.8,0.8c0.6,0,1.2-0.3,1.2-0.9c0-1.3-3.2-1-3.2-3c0-1.1,1-1.7,2.1-1.6c1.3,0,1.9,0.7,1.9,0.7
		l-0.4,0.6c0,0-0.5-0.6-1.5-0.6c-0.6,0-1.2,0.3-1.2,0.9c0,1.3,3.2,1,3.2,3c0,1-0.9,1.7-2.1,1.7c-1.5,0-2.2-0.9-2.2-0.9L773.4,368.1z
		"/>
	<path d="M779,364.2l-0.8,0l0-0.7l0.8,0l0-1.7l0.8,0l0,1.7l1.5,0l0,0.7l-1.5,0l0,3c0,1.4,0.9,1.6,1.3,1.6c0.2,0,0.3,0,0.3,0l0,0.7
		c0,0-0.1,0-0.3,0c-0.7,0-2.1-0.2-2.1-2.3L779,364.2z"/>
	<path d="M783,361l0.9,0l-0.7,2.1l-0.7,0L783,361z"/>
	<path d="M785.3,368.2c0,0,0.7,0.7,1.8,0.8c0.6,0,1.2-0.3,1.2-0.9c0-1.3-3.2-1-3.2-3c0-1.1,1-1.7,2.1-1.6c1.3,0,1.9,0.7,1.9,0.7
		l-0.4,0.6c0,0-0.5-0.6-1.5-0.6c-0.6,0-1.2,0.3-1.2,0.9c0,1.3,3.2,1,3.2,3c0,1-0.9,1.7-2.1,1.7c-1.5,0-2.2-0.9-2.2-0.9L785.3,368.2z
		"/>
	<path d="M796.2,363.5c1.5,0,2,1.2,2,1.2h0c0,0,0-0.2,0-0.5l0-0.6l0.8,0l-0.1,8.4l-0.8,0l0-2.9c0-0.3,0-0.5,0-0.5h0
		c0,0-0.5,1.2-2.1,1.2c-1.6,0-2.6-1.3-2.6-3.2C793.5,364.7,794.6,363.5,796.2,363.5z M796.2,369.1c1,0,2-0.7,2-2.4
		c0-1.2-0.6-2.4-1.9-2.4c-1.1,0-2,0.9-2,2.4C794.3,368.1,795.1,369.1,796.2,369.1z"/>
	<path d="M800.9,363.7l0.8,0l0,3.6c0,0.9,0.1,1.8,1.3,1.8c1.4,0,2.2-1.2,2.3-2.5l0-2.9l0.8,0l-0.1,6l-0.8,0l0-0.9c0-0.3,0-0.5,0-0.5
		h0c-0.2,0.6-1,1.5-2.4,1.5c-1.4,0-2-0.8-2-2.4L800.9,363.7z"/>
	<path d="M810.6,363.6c1.7,0,2.5,1.3,2.5,2.8c0,0.1,0,0.4,0,0.4l-4.6,0c0,1.5,1.1,2.4,2.3,2.4c1.1,0,1.8-0.7,1.8-0.7l0.4,0.6
		c0,0-0.9,0.8-2.2,0.8c-1.8,0-3.1-1.3-3.1-3.2C807.6,364.8,808.9,363.6,810.6,363.6z M812.2,366.2c0-1.3-0.8-1.9-1.7-1.9
		c-1,0-1.9,0.6-2.1,1.8L812.2,366.2z"/>
	<path d="M814.6,363.8l0.8,0l0,3.6c0,0.9,0.1,1.8,1.3,1.8c1.4,0,2.2-1.2,2.3-2.5l0-2.9l0.8,0l-0.1,6l-0.8,0l0-0.9c0-0.3,0-0.5,0-0.5
		l0,0c-0.2,0.6-1,1.5-2.4,1.5c-1.4,0-2-0.8-2-2.4L814.6,363.8z"/>
	<path d="M824.3,363.8c1.7,0,2.5,1.3,2.5,2.8c0,0.1,0,0.4,0,0.4l-4.6,0c0,1.5,1.1,2.4,2.3,2.4c1.1,0,1.8-0.7,1.8-0.7l0.4,0.6
		c0,0-0.9,0.8-2.2,0.8c-1.8,0-3.1-1.3-3.1-3.2C821.3,364.9,822.6,363.8,824.3,363.8z M825.9,366.3c0-1.3-0.8-1.9-1.7-1.9
		c-1,0-1.9,0.6-2.1,1.8L825.9,366.3z"/>
</g>
</svg>
