<svg id="Layer_1" data-name="Layer 1" xmlns="http://www.w3.org/2000/svg" viewBox="0 0 81 81"><defs><style>.cls-1{fill:#ff855e;}</style></defs><path class="cls-1" d="M61.74,40.5a23.31,23.31,0,0,1-44.8,9A23.31,23.31,0,0,1,38.45,17.22c3.22,0,3.22-5,0-5a28.32,28.32,0,0,0-27.2,36.07A28.33,28.33,0,0,0,52.92,64.81,28.63,28.63,0,0,0,66.74,40.5c0-3.22-5-3.22-5,0Z"/><path class="cls-1" d="M47.06,33.9a5.72,5.72,0,0,0-5.61-5.61c-1.17,0-2.36,0-3.53,0a9.1,9.1,0,0,0-5.14,1.09,7.28,7.28,0,0,0,1.37,13,13.79,13.79,0,0,0,4.88.43,5.69,5.69,0,0,1,1.48.09c.38.08,0-.07.33.12.09.06.58.39.31.17A1.93,1.93,0,0,1,42,44.22c-.14-.33,0,.26.07.36.1.38,0,0,0,.36,0,.15,0,.29,0,.43,0-.34-.08.34-.12.47-.11.4.15-.26,0,.1-.06.12-.12.22-.18.33-.17.34.06,0-.21.28-.08.07-.52.45-.24.25L41,47s-.45.21-.26.14a2.62,2.62,0,0,1-.83.13c-.21,0-.42,0-.63,0H34.89c-.37,0,.25.11-.08,0-.08,0-.07,0-.14-.07a1.48,1.48,0,0,1-.25-.25c.19.24,0,0,0-.09s.12.33,0,0,0,.53,0-.2a2.5,2.5,0,0,0-5,0A5.72,5.72,0,0,0,35,52.27c1.18,0,2.36,0,3.53,0a9.13,9.13,0,0,0,5.15-1.09,7.29,7.29,0,0,0-1.37-13,13.85,13.85,0,0,0-4.89-.43A5.73,5.73,0,0,1,36,37.69c-.38-.08,0,.07-.33-.12-.09-.06-.58-.39-.31-.17a1.86,1.86,0,0,1-.8-1.06c.13.33-.06-.26-.08-.36-.1-.38,0,0,0-.36,0-.15,0-.29,0-.43,0,.34.08-.34.12-.47.11-.4-.15.26,0-.1.06-.12.12-.22.18-.33.17-.34-.06,0,.21-.28.08-.07.53-.45.25-.25a3.28,3.28,0,0,1,.31-.2s.45-.21.27-.14a2.62,2.62,0,0,1,.83-.13h5c.36,0-.26-.11.07,0,.08,0,.07,0,.14.07a1.48,1.48,0,0,1,.25.25c-.18-.24,0,0,0,.09s-.12-.33,0,0,0-.53,0,.2a2.5,2.5,0,1,0,5,0Z"/><path class="cls-1" d="M40.73,30.79V27.62A2.57,2.57,0,0,0,40,25.86a2.83,2.83,0,0,0-1.77-.74,2.54,2.54,0,0,0-1.77.74,2.59,2.59,0,0,0-.73,1.76v3.17a2.61,2.61,0,0,0,.73,1.77,1.93,1.93,0,0,0,.81.51,1.88,1.88,0,0,0,1,.22A2.53,2.53,0,0,0,40,32.56a2.59,2.59,0,0,0,.73-1.77Z"/><path class="cls-1" d="M40.73,52.94V49.77A2.61,2.61,0,0,0,40,48a1.93,1.93,0,0,0-.81-.51,1.84,1.84,0,0,0-1-.22,2.53,2.53,0,0,0-1.77.73,2.59,2.59,0,0,0-.73,1.77v3.17a2.57,2.57,0,0,0,.73,1.76,1.85,1.85,0,0,0,.81.52,1.88,1.88,0,0,0,1,.22A2.54,2.54,0,0,0,40,54.7a2.59,2.59,0,0,0,.73-1.76Z"/><circle class="cls-1" cx="49.87" cy="23.03" r="3.04"/><circle class="cls-1" cx="57.58" cy="23.03" r="3.04"/><circle class="cls-1" cx="65.29" cy="23.03" r="3.04"/></svg>