<svg id="Layer_1" data-name="Layer 1" xmlns="http://www.w3.org/2000/svg" viewBox="0 0 81 81"><defs><style>.cls-1{fill:#ff855e;}</style></defs><path class="cls-1" d="M61.49,44A24.24,24.24,0,0,1,30.61,67.36a24.27,24.27,0,0,1,6.62-47.62c3.21,0,3.22-5,0-5A29.3,29.3,0,0,0,9.09,52.11a29.31,29.31,0,0,0,43.19,17A29.61,29.61,0,0,0,66.49,44c0-3.22-5-3.22-5,0Z"/><path class="cls-1" d="M46.07,37.15a5.85,5.85,0,0,0-5.73-5.73c-1.22,0-2.45,0-3.67,0a9.37,9.37,0,0,0-5.29,1.12,7.47,7.47,0,0,0,1.4,13.29,14.28,14.28,0,0,0,5,.44h.78a1.61,1.61,0,0,1,.78.1c.38.1,0,0,.37.14.08,0,.58.38.34.19a3.45,3.45,0,0,1,.54.54c-.18-.23.25.45.31.58-.12-.29.06.3.09.39.09.37.05,0,0,.41,0,.14,0,.29,0,.44,0-.29-.09.38-.13.52a2.29,2.29,0,0,1-2.24,1.55c-.22,0-.44,0-.65,0H33.67a.72.72,0,0,1-.74-.73,2.55,2.55,0,0,0-2.5-2.5,2.52,2.52,0,0,0-2.5,2.5,5.84,5.84,0,0,0,5.73,5.73c1.22,0,2.44,0,3.66,0A9.35,9.35,0,0,0,42.61,55a7.46,7.46,0,0,0-1.4-13.29,14.23,14.23,0,0,0-5-.45h-.78a1.58,1.58,0,0,1-.78-.09c-.39-.1,0,0-.37-.14-.08,0-.59-.38-.34-.19a4,4,0,0,1-.55-.54c.18.22-.25-.45-.3-.58.12.29-.07-.3-.09-.39-.09-.37-.05,0,0-.41,0-.15,0-.29,0-.44,0,.29.08-.38.12-.52a2.29,2.29,0,0,1,2.25-1.55h5a.72.72,0,0,1,.74.73,2.5,2.5,0,0,0,5,0Z"/><path class="cls-1" d="M39.5,33.92V30.64a2.59,2.59,0,0,0-.73-1.77,1.85,1.85,0,0,0-.81-.52,1.78,1.78,0,0,0-1-.21,2.53,2.53,0,0,0-1.77.73,2.59,2.59,0,0,0-.73,1.77v3.28a2.59,2.59,0,0,0,.73,1.77,2.69,2.69,0,0,0,1.77.73,2.57,2.57,0,0,0,1.77-.73,2.64,2.64,0,0,0,.73-1.77Z"/><path class="cls-1" d="M39.5,56.91V53.63a2.59,2.59,0,0,0-.73-1.77,2,2,0,0,0-.81-.52,2,2,0,0,0-1-.21,2.53,2.53,0,0,0-1.77.73,2.59,2.59,0,0,0-.73,1.77v3.28a2.59,2.59,0,0,0,.73,1.77,1.92,1.92,0,0,0,.8.52,1.89,1.89,0,0,0,1,.21,2.57,2.57,0,0,0,1.77-.73,2.64,2.64,0,0,0,.73-1.77Z"/><path class="cls-1" d="M73,23.65V10.23a2.53,2.53,0,0,0-2.5-2.5H57.12a2.5,2.5,0,0,0,0,5H70.54L68,10.23V23.65a2.5,2.5,0,0,0,5,0Z"/><path class="cls-1" d="M52.18,32.12,69.8,14.51,72.31,12c2.28-2.28-1.26-5.82-3.54-3.54L51.15,26.08l-2.5,2.51c-2.28,2.28,1.25,5.81,3.53,3.53Z"/></svg>