<svg id="Layer_1" data-name="Layer 1" xmlns="http://www.w3.org/2000/svg" viewBox="0 0 81 81"><defs><style>.cls-1{fill:#ff855e;}</style></defs><path class="cls-1" d="M60.63,43.87a23.3,23.3,0,0,1-44.79,9A23.3,23.3,0,0,1,37.35,20.59c3.21,0,3.22-5,0-5A28.33,28.33,0,0,0,10.14,51.66,28.32,28.32,0,0,0,51.81,68.19,28.59,28.59,0,0,0,65.63,43.87c0-3.21-5-3.22-5,0Z"/><path class="cls-1" d="M46,37.27a5.71,5.71,0,0,0-5.61-5.61c-1.17,0-2.35,0-3.53,0a9.1,9.1,0,0,0-5.14,1.09,7.29,7.29,0,0,0,1.37,13,13.62,13.62,0,0,0,4.89.43,6.26,6.26,0,0,1,1.48.09c.37.08,0-.07.33.13.09.05.58.38.31.17a1.81,1.81,0,0,1,.8,1.05c-.14-.32,0,.26.08.36.1.39,0,0,0,.37v.43c0-.34-.08.33-.12.47-.11.39.15-.26,0,.1-.06.11-.13.22-.18.33-.18.33.06,0-.21.27-.08.08-.53.45-.25.25a2.7,2.7,0,0,1-.31.2c-.05,0-.45.22-.27.14a2.37,2.37,0,0,1-.83.14h-5c-.37,0,.26.11-.07,0-.08,0-.07,0-.15-.06a2.06,2.06,0,0,1-.25-.26c.19.25,0,0,0-.09s.12.33,0,0,0,.52,0-.2a2.55,2.55,0,0,0-2.5-2.5A2.52,2.52,0,0,0,28.3,50a5.72,5.72,0,0,0,5.61,5.61c1.17,0,2.35,0,3.53,0a9.1,9.1,0,0,0,5.14-1.09,7.28,7.28,0,0,0-1.37-13,13.62,13.62,0,0,0-4.89-.44,6.22,6.22,0,0,1-1.47-.08c-.38-.08,0,.07-.34-.13-.09,0-.58-.39-.31-.17a1.89,1.89,0,0,1-.8-1.06c.14.33,0-.25-.08-.35-.1-.39,0,0,0-.37,0-.14,0-.29,0-.43,0,.34.08-.33.12-.47.11-.39-.15.26,0-.1,0-.11.12-.22.18-.33.17-.33-.07,0,.21-.28.07-.07.52-.44.24-.25a3.37,3.37,0,0,1,.32-.19s.45-.22.26-.15a2.62,2.62,0,0,1,.83-.13c.21,0,.42,0,.62,0h4.35c.37,0-.25-.11.07,0,.09,0,.07,0,.15.06a1.24,1.24,0,0,1,.25.26c-.19-.25,0,0,0,.08s-.12-.32,0,0,0-.53,0,.2a2.55,2.55,0,0,0,2.5,2.5,2.51,2.51,0,0,0,2.5-2.5Z"/><path class="cls-1" d="M39.63,34.16V31a2.56,2.56,0,0,0-.74-1.77,1.85,1.85,0,0,0-.8-.52,1.88,1.88,0,0,0-1-.21,2.53,2.53,0,0,0-1.77.73A2.59,2.59,0,0,0,34.63,31v3.16a2.55,2.55,0,0,0,.73,1.77,1.85,1.85,0,0,0,.8.52,2,2,0,0,0,1,.21,2.52,2.52,0,0,0,1.76-.73,2.6,2.6,0,0,0,.74-1.77Z"/><path class="cls-1" d="M39.63,56.31V53.15a2.56,2.56,0,0,0-.74-1.77,1.85,1.85,0,0,0-.8-.52,1.88,1.88,0,0,0-1-.21,2.53,2.53,0,0,0-1.77.73,2.59,2.59,0,0,0-.73,1.77v3.16a2.55,2.55,0,0,0,.73,1.77,1.85,1.85,0,0,0,.8.52,2,2,0,0,0,1,.21,2.52,2.52,0,0,0,1.76-.73,2.6,2.6,0,0,0,.74-1.77Z"/><path class="cls-1" d="M67.67,9.57l-13.85,17-2,2.38h3.54L49,22.5c-2.28-2.28-5.82,1.25-3.54,3.53l6.46,6.47a2.53,2.53,0,0,0,3.54,0l13.86-17,1.94-2.38a2.58,2.58,0,0,0,0-3.54,2.53,2.53,0,0,0-3.54,0Z"/></svg>