<svg id="Layer_1" data-name="Layer 1" xmlns="http://www.w3.org/2000/svg" viewBox="0 0 81 81"><defs><style>.cls-1{fill:#ff855e;}</style></defs><path class="cls-1" d="M62.5,44.15A25.39,25.39,0,0,1,30.11,68.6a25.42,25.42,0,0,1,7-49.87c3.22,0,3.23-5,0-5A30.46,30.46,0,0,0,7.81,52.46a30.45,30.45,0,0,0,45,17.74A30.78,30.78,0,0,0,67.5,44.15c0-3.21-5-3.22-5,0Z"/><path class="cls-1" d="M46.2,37a6,6,0,0,0-5.87-5.86c-1.27-.05-2.55,0-3.82,0A9.64,9.64,0,0,0,31,32.29,7.68,7.68,0,0,0,32.48,46a14.83,14.83,0,0,0,5.23.46,6,6,0,0,1,1.66.1c.36.09.09,0,.41.16.08,0,.58.37.38.21a2.35,2.35,0,0,1,.9,1.19c-.1-.24.08.35.1.43.08.37,0,.07,0,.46a2.19,2.19,0,0,1-.15,1,2.48,2.48,0,0,1-2.44,1.69H35.2c-.61,0-1.22,0-1.83,0a.85.85,0,0,1-.88-.86,2.5,2.5,0,0,0-5,0,6,6,0,0,0,5.87,5.86c1.27.05,2.55,0,3.83,0a9.61,9.61,0,0,0,5.46-1.15,7.68,7.68,0,0,0-1.43-13.66A14.65,14.65,0,0,0,36,41.42a6,6,0,0,1-1.66-.11c-.35-.09-.08,0-.41-.16-.07,0-.58-.37-.37-.21a2.37,2.37,0,0,1-.91-1.19c.1.24-.08-.35-.1-.43-.08-.37,0-.07,0-.46a2.26,2.26,0,0,1,.15-1,2.47,2.47,0,0,1,2.45-1.7h5.23a.86.86,0,0,1,.88.86,2.5,2.5,0,0,0,5,0Z"/><path class="cls-1" d="M39.35,33.64V30.21a2.58,2.58,0,0,0-.74-1.77,1.83,1.83,0,0,0-.8-.51,1.88,1.88,0,0,0-1-.22,2.53,2.53,0,0,0-1.77.73,2.59,2.59,0,0,0-.73,1.77v3.43a2.61,2.61,0,0,0,.73,1.77,2.83,2.83,0,0,0,1.77.73,2.52,2.52,0,0,0,1.76-.73,2.62,2.62,0,0,0,.74-1.77Z"/><path class="cls-1" d="M39.35,57.62V54.19a2.53,2.53,0,0,0-.74-1.76,1.77,1.77,0,0,0-.8-.52,1.88,1.88,0,0,0-1-.22,2.5,2.5,0,0,0-1.77.74,2.57,2.57,0,0,0-.73,1.76v3.43a2.61,2.61,0,0,0,.73,1.77,2.83,2.83,0,0,0,1.77.73,2.52,2.52,0,0,0,1.76-.73,2.6,2.6,0,0,0,.74-1.77Z"/><path class="cls-1" d="M48.34,15.92v14a2.54,2.54,0,0,0,2.5,2.5h14a2.5,2.5,0,0,0,0-5h-14l2.5,2.5v-14a2.5,2.5,0,0,0-5,0Z"/><path class="cls-1" d="M70.07,7.16,51.69,25.54l-2.62,2.61c-2.27,2.28,1.26,5.82,3.54,3.54L71,13.31l2.61-2.62c2.28-2.27-1.25-5.81-3.53-3.53Z"/></svg>