<svg id="Layer_1" data-name="Layer 1" xmlns="http://www.w3.org/2000/svg" viewBox="0 0 76.68 105.07"><defs><style>.cls-1{fill:#fdcfa4;}.cls-2{fill:none;stroke:#414042;stroke-miterlimit:10;stroke-width:4px;}.cls-3{fill:#414042;}.cls-4{fill:#fff;}</style></defs><path class="cls-1" d="M72.39,24.46s9.66,11.18,0,28.38S26.32,88.41,16.28,81.3,8.19,48.71,1.57,32.3,10.15-.48,29.51,13.46,63.32,13.43,72.39,24.46Z"/><path class="cls-2" d="M60.11,80.69H11.79a2.07,2.07,0,0,1-2.07-2.07V9.08A2.07,2.07,0,0,1,11.79,7H47.73L61.91,21.2l.27,57.41A2.07,2.07,0,0,1,60.11,80.69Z"/><path class="cls-2" d="M47.73,7V19.29a1.9,1.9,0,0,0,1.91,1.91H61.91"/><line class="cls-2" x1="17.57" y1="32.22" x2="54.34" y2="32.22"/><line class="cls-2" x1="17.57" y1="40.83" x2="54.34" y2="40.83"/><line class="cls-2" x1="17.57" y1="49.43" x2="54.34" y2="49.43"/><line class="cls-2" x1="17.57" y1="58.04" x2="54.34" y2="58.04"/><line class="cls-2" x1="62.18" x2="62.18" y2="14.04"/><line class="cls-2" x1="55.16" y1="7.02" x2="69.21" y2="7.02"/><circle class="cls-3" cx="35.95" cy="96.99" r="8.07"/><path class="cls-4" d="M33.82,99.2h1.63V95c0-.25,0-.5,0-.5h0a1.84,1.84,0,0,1-.33.42l-.6.57-.81-.84,1.89-1.81h1.19V99.2h1.63v1.17H33.82Z"/></svg>