<svg id="Layer_1" data-name="Layer 1" xmlns="http://www.w3.org/2000/svg" viewBox="0 0 74.97 101.87"><defs><style>.cls-1{fill:#fdcfa4;}.cls-2{fill:none;stroke:#414042;stroke-miterlimit:10;stroke-width:4px;}.cls-3{fill:#414042;}.cls-4{fill:#fff;}</style></defs><path class="cls-1" d="M18.94,5.92S30.57-3.21,47.29,7.25s33.37,47.69,25.8,57.39S40.16,71.19,23.45,77-8.89,66.92,5.94,48.24,7.5,14.46,18.94,5.92Z"/><polygon class="cls-2" points="61.97 2.41 62.24 76.07 9.78 76.07 9.78 2.41 61.97 2.41"/><polygon class="cls-2" points="35.51 11.94 35.6 22.98 18.63 22.98 18.63 11.94 35.51 11.94"/><polygon class="cls-2" points="35.51 31.43 35.6 42.47 18.63 42.47 18.63 31.43 35.51 31.43"/><line class="cls-2" x1="42.91" y1="17.46" x2="56.75" y2="17.46"/><line class="cls-2" x1="42.91" y1="27.46" x2="56.75" y2="27.46"/><line class="cls-2" x1="42.91" y1="27.46" x2="56.75" y2="27.46"/><line class="cls-2" x1="42.91" y1="37.46" x2="56.75" y2="37.46"/><line class="cls-2" x1="17.14" y1="55.73" x2="56.75" y2="55.73"/><line class="cls-2" x1="17.14" y1="62.73" x2="56.75" y2="62.73"/><circle class="cls-3" cx="35.1" cy="93.8" r="8.07"/><path class="cls-4" d="M32.56,96.51c0-2.7,3.51-3.14,3.51-4.63a1,1,0,0,0-1.14-1,1.7,1.7,0,0,0-1.35.89l-1-.67a2.79,2.79,0,0,1,2.49-1.51,2.24,2.24,0,0,1,2.44,2.22c0,2.42-3.36,2.83-3.39,4.24h3.51v1.18h-5A5.66,5.66,0,0,1,32.56,96.51Z"/></svg>