<svg id="Layer_1" data-name="Layer 1" xmlns="http://www.w3.org/2000/svg" viewBox="0 0 74.97 101.87"><defs><style>.cls-1{fill:#fdcfa4;}.cls-2{fill:none;stroke:#414042;stroke-miterlimit:10;stroke-width:4px;}.cls-3{fill:#414042;}.cls-4{fill:#fff;}</style></defs><path class="cls-1" d="M18.94,6.88S30.57-2.25,47.29,8.21,80.66,55.9,73.09,65.6,40.16,72.14,23.45,78-8.89,67.87,5.94,49.19,7.5,15.41,18.94,6.88Z"/><path class="cls-2" d="M40,19.05S50.14,7.61,44.69,2.69C42.85,1,38.33,7.06,28.17,3.83c0,0-9.77-3.92-10.44.08S19.49,11.12,24,15.85,33.16,23.8,40,19.05Z"/><path class="cls-2" d="M25.87,17.67S-17.4,72.83,35.08,75.34,49,26.12,40,19.05"/><path class="cls-2" d="M42.45,37.88H34a4.22,4.22,0,0,0-4.23,4.22v.42A4.22,4.22,0,0,0,34,46.74h3.24A4.23,4.23,0,0,1,41.45,51h0a4.23,4.23,0,0,1-4.23,4.23H28.75"/><line class="cls-2" x1="35.6" y1="55.19" x2="35.6" y2="59.6"/><line class="cls-2" x1="35.51" y1="33.49" x2="35.51" y2="37.9"/><circle class="cls-3" cx="36.16" cy="93.8" r="8.07"/><path class="cls-4" d="M34.2,95.25a2.54,2.54,0,0,0,1.7.77,1.22,1.22,0,0,0,1.35-1.13c0-.79-.73-1.16-1.61-1.16h-.51l-.31-.7,1.37-1.63c.3-.34.54-.57.54-.57v0a5.48,5.48,0,0,1-.66,0H33.83V89.67h4.58v.86l-1.84,2.12a2.24,2.24,0,0,1,2.06,2.19A2.49,2.49,0,0,1,36,97.31a3.46,3.46,0,0,1-2.48-1Z"/></svg>