<?xml version="1.0" encoding="utf-8"?>
<!-- Generator: Adobe Illustrator 25.2.1, SVG Export Plug-In . SVG Version: 6.00 Build 0)  -->
<svg version="1.1" id="Layer_1" xmlns="http://www.w3.org/2000/svg" xmlns:xlink="http://www.w3.org/1999/xlink" x="0px" y="0px"
	 viewBox="0 0 50 50" style="enable-background:new 0 0 50 50;" xml:space="preserve">
<style type="text/css">
	.st0{fill:#F7932B;}
	.st1{fill:#FFFFFF;}
</style>
<path class="st0" d="M38,3.2H12c-4.9,0-8.8,3.9-8.8,8.8v26c0,4.9,3.9,8.8,8.8,8.8h26c4.9,0,8.8-3.9,8.8-8.8V12
	C46.8,7.1,42.9,3.2,38,3.2z"/>
<path class="st1" d="M24.8,13.2l0.9-1.5c0.5-1,1.8-1.3,2.7-0.7c1,0.5,1.3,1.8,0.7,2.7l-8.5,14.8h6.2c2,0,3.1,2.3,2.3,4H11
	c-1.1,0-2-0.9-2-2c0-1.1,0.9-2,2-2H16l6.5-11.2l-2-3.5c-0.5-1-0.2-2.2,0.7-2.7c1-0.5,2.2-0.2,2.7,0.7L24.8,13.2L24.8,13.2z
	 M17.1,34.4l-1.9,3.3c-0.5,1-1.8,1.3-2.7,0.7c-1-0.5-1.3-1.8-0.7-2.7l1.4-2.5C14.8,32.8,16.1,33.2,17.1,34.4L17.1,34.4z M33.6,28.4
	h5.2c1.1,0,2,0.9,2,2s-0.9,2-2,2h-2.9l1.9,3.4c0.5,1,0.2,2.2-0.7,2.7c-1,0.5-2.2,0.2-2.7-0.7c-3.3-5.7-5.7-9.9-7.3-12.7
	c-1.7-2.9-0.5-5.8,0.7-6.7C29.1,20.5,31,23.9,33.6,28.4L33.6,28.4z"/>
</svg>
