<svg id="Layer_1" data-name="Layer 1" xmlns="http://www.w3.org/2000/svg" viewBox="0 0 122.85 68.92"><defs><style>.cls-1{fill:#fff;}</style></defs><path class="cls-1" d="M92.75,61.34,72.91,46.6,41.54,23.3l-7.22-5.36a2.9,2.9,0,0,0-3,0L11.46,32.67-19.91,56l-7.22,5.37a3.09,3.09,0,0,0-1.08,4.1c.75,1.28,2.8,2,4.1,1.08L-4.27,51.78,27.1,28.48l7.22-5.36h-3L51.13,37.85,82.5,61.15l7.22,5.37a3,3,0,0,0,4.11-1.08,3.07,3.07,0,0,0-1.08-4.1Z" transform="translate(28.61 1.96)"/><path class="cls-1" d="M92.75,41.86,72.91,27.13,41.54,3.83,34.32-1.54a2.9,2.9,0,0,0-3,0L11.46,13.2-19.91,36.5l-7.22,5.36A3.1,3.1,0,0,0-28.21,46c.75,1.28,2.8,2,4.1,1.07L-4.27,32.31,27.1,9l7.22-5.36h-3L51.13,18.38,82.5,41.68,89.72,47A3,3,0,0,0,93.83,46a3.08,3.08,0,0,0-1.08-4.11Z" transform="translate(28.61 1.96)"/></svg>