<svg id="Layer_1" data-name="Layer 1" xmlns="http://www.w3.org/2000/svg" viewBox="0 0 122.85 68.92"><defs><style>.cls-1{fill:#fff;}</style></defs><path class="cls-1" d="M-24.94,6.15-5.1,20.89l31.37,23.3,7.22,5.36a2.88,2.88,0,0,0,3,0L56.35,34.82l31.37-23.3,7.22-5.37A3.09,3.09,0,0,0,96,2.05C95.27.77,93.22,0,91.91,1L72.08,15.71,40.71,39l-7.22,5.36h3L16.68,29.64-14.69,6.34-21.91,1A3,3,0,0,0-26,2.05a3.06,3.06,0,0,0,1.08,4.1Z" transform="translate(26.43 -0.53)"/><path class="cls-1" d="M-24.94,25.63-5.1,40.36l31.37,23.3L33.49,69a2.88,2.88,0,0,0,3,0L56.35,54.29,87.72,31l7.22-5.36A3.1,3.1,0,0,0,96,21.52c-.75-1.28-2.8-2-4.11-1.07L72.08,35.18,40.71,58.48l-7.22,5.37h3L16.68,49.11l-31.37-23.3-7.22-5.36c-1.31-1-3.35-.21-4.11,1.07a3.08,3.08,0,0,0,1.08,4.11Z" transform="translate(26.43 -0.53)"/></svg>