<svg id="Layer_1" data-name="Layer 1" xmlns="http://www.w3.org/2000/svg" viewBox="0 0 68.83 62.87"><defs><style>.cls-1{fill:#fff;}</style></defs><path class="cls-1" d="M5,66.25l14.72-9.64L43.06,41.33l5.36-3.51a3,3,0,0,0,0-5.18L33.7,23,10.38,7.72,5,4.21A3,3,0,0,0,.91,5.29,3.05,3.05,0,0,0,2,9.39L16.71,19,40,34.31l5.36,3.51V32.64L30.67,42.28,7.35,57.56,2,61.07A3.09,3.09,0,0,0,.91,65.18,3,3,0,0,0,5,66.25Z" transform="translate(-0.51 -3.8)"/><path class="cls-1" d="M24.49,66.25l14.72-9.64L62.53,41.33l5.36-3.51a3,3,0,0,0,0-5.18L53.17,23,29.85,7.72,24.49,4.21a3,3,0,0,0-4.1,1.08,3,3,0,0,0,1.08,4.1L36.18,19,59.51,34.31l5.35,3.51V32.64L50.15,42.28,26.82,57.56l-5.35,3.51a3.07,3.07,0,0,0-1.08,4.11,3,3,0,0,0,4.1,1.07Z" transform="translate(-0.51 -3.8)"/></svg>