<svg id="Layer_1" data-name="Layer 1" xmlns="http://www.w3.org/2000/svg" viewBox="0 0 68.83 62.87"><defs><style>.cls-1{fill:#fff;}</style></defs><path class="cls-1" d="M64.92,1.48,50.2,11.12,26.88,26.4l-5.36,3.51a3,3,0,0,0,0,5.18l14.72,9.64L59.56,60l5.36,3.51a3,3,0,1,0,3-5.18L53.23,48.69,29.91,33.42l-5.36-3.51v5.18l14.72-9.64L62.59,10.17,68,6.66A3.09,3.09,0,0,0,69,2.55a3,3,0,0,0-4.11-1.07Z" transform="translate(-0.6 -1.06)"/><path class="cls-1" d="M45.45,1.48,30.73,11.12,7.41,26.4,2.05,29.91a3,3,0,0,0,0,5.18l14.72,9.64L40.09,60l5.36,3.51a3,3,0,0,0,3-5.18L33.76,48.69,10.44,33.42,5.08,29.91v5.18L19.8,25.45,43.12,10.17l5.36-3.51a3.07,3.07,0,0,0,1.07-4.11,3,3,0,0,0-4.1-1.07Z" transform="translate(-0.6 -1.06)"/></svg>