<svg id="Layer_1" data-name="Layer 1" xmlns="http://www.w3.org/2000/svg" viewBox="0 0 212.06 148.38"><defs><style>.cls-1{fill:#fff;}</style></defs><path class="cls-1" d="M-64.09,33.73-53.3,40l24.94,14.47,27.49,16L17.92,81.33a38.12,38.12,0,0,0,3.76,2.07,32.59,32.59,0,0,0,25.4.34c4-1.7,7.64-4.24,11.35-6.37L82.89,63.31l27.72-16,20-11.49c1.22-.7,2.45-1.39,3.66-2.1,3.89-2.32,7.14-6.83,6.72-11.52-.64-7.06-8.21-10.12-13.66-13.28L105.61-3.63l-28-16.25L55-33l-5.83-3.4c-3.31-1.92-7.38-2.42-11.14-2.66A39.51,39.51,0,0,0,25.54-38,15.34,15.34,0,0,0,22-36.74c-1.62.89-3.21,1.84-4.81,2.76L-4.31-21.69l-27.95,16L-55.77,7.75l-6.67,3.82a21.56,21.56,0,0,0-5.45,3.88A10.78,10.78,0,0,0-71,23.74c.44,4.34,3.52,7.51,6.88,10a2.57,2.57,0,0,0,3.49-.91,2.61,2.61,0,0,0-.92-3.49,11.85,11.85,0,0,1-4-4.39,4.83,4.83,0,0,1-.33-3.13,8.41,8.41,0,0,1,4.29-4.89l3-1.7L-39.93,4.57l27-15.47L12-25.17c4.25-2.42,8.47-4.87,12.72-7.27l.2-.12c-.62.32.43-.12.62-.18.43-.14.87-.27,1.31-.38a25.14,25.14,0,0,1,3-.61,36.73,36.73,0,0,1,11.51.13c.86.15,1.73.33,2.58.56l1,.29c.22.07,1.31.56.63.19a1.67,1.67,0,0,1,.23.12c.47.32,1,.59,1.49.87l16.93,9.83L90.87-6.31,116.23,8.4c4.54,2.64,9.07,5.32,13.64,7.92a26.07,26.07,0,0,1,3.4,2.06A9,9,0,0,1,134.9,20a8.76,8.76,0,0,1,.74,1.34,4.23,4.23,0,0,1,.13,2.85A7.39,7.39,0,0,1,134.38,27c.24-.32-.22.29-.28.36s-.38.42-.58.62-.4.38-.6.56l-.26.23c-.37.3.12-.08-.11.07a14.45,14.45,0,0,1-1.31.82l-14,8L91.66,52.39,65.09,67.67l-17.39,10a22,22,0,0,1-5.45,2.4c-6,1.66-13.64,1.42-19.24-1.66-4-2.2-7.9-4.59-11.84-6.88L-13.61,57.15-40.45,41.57-58.87,30.88l-2.65-1.55C-64.36,27.69-66.92,32.09-64.09,33.73Z" transform="translate(71.03 39.19)"/><path class="cls-1" d="M-64.09,56.77-53.3,63l24.94,14.47L-.87,93.46l18.79,10.91a40.31,40.31,0,0,0,3.76,2.07,32.59,32.59,0,0,0,25.4.34c4-1.7,7.64-4.24,11.35-6.38L82.89,86.35,110.61,70.4l20-11.49c1.22-.7,2.45-1.39,3.66-2.1,3.89-2.3,7.15-6.83,6.72-11.52-.63-7-8.2-10.11-13.65-13.27L105.61,19.43l-28-16.25L55-10l-5.81-3.4C45.83-15.29,41.77-15.79,38-16a39.26,39.26,0,0,0-12.45,1A15.37,15.37,0,0,0,22-13.68c-1.62.89-3.21,1.84-4.81,2.76L-4.3,1.37l-27.95,16L-55.76,30.81l-6.67,3.82a21.38,21.38,0,0,0-5.45,3.88A10.79,10.79,0,0,0-71,46.8c.44,4.34,3.53,7.51,6.89,10a2.57,2.57,0,0,0,3.49-.91,2.61,2.61,0,0,0-.92-3.48,11.88,11.88,0,0,1-4-4.4,4.82,4.82,0,0,1-.33-3.13A8.36,8.36,0,0,1-61.52,40c1-.57,2-1.14,3-1.7l18.61-10.64,27-15.46,25-14.27C16.3-4.53,20.52-7,24.77-9.38L25-9.5c-.62.32.42-.12.61-.18.43-.14.87-.27,1.31-.38a27.3,27.3,0,0,1,3-.61,36.73,36.73,0,0,1,11.51.13c.87.15,1.73.33,2.59.56l1,.3c.23.07,1.31.55.64.19l.22.13c.47.31,1,.58,1.5.87L64.28,1.32l26.6,15.43,25.36,14.71c4.55,2.64,9.07,5.32,13.64,7.93a24,24,0,0,1,3.4,2.06,9.37,9.37,0,0,1,1.64,1.63,8.6,8.6,0,0,1,.73,1.33,4.2,4.2,0,0,1,.13,2.86A7.67,7.67,0,0,1,134.4,50c.23-.33-.23.28-.29.35s-.38.42-.58.62-.39.38-.6.57l-.26.22c-.37.3.12-.08-.11.08a14.37,14.37,0,0,1-1.31.81l-14,8.05L91.66,75.45,65.08,90.73l-17.38,10a22.78,22.78,0,0,1-5.45,2.41c-6.06,1.65-13.64,1.41-19.24-1.67-4-2.2-7.9-4.58-11.85-6.87L-13.61,80.21l-26.84-15.6L-58.87,53.92l-2.65-1.54C-64.36,50.73-66.92,55.13-64.09,56.77Z" transform="translate(71.03 39.19)"/><path class="cls-1" d="M37.57,106.6v-23c0-3.27-5.09-3.28-5.09,0v23C32.48,109.87,37.57,109.88,37.57,106.6Z" transform="translate(71.03 39.19)"/><path class="cls-1" d="M-65.94,45.51v-22c0-3.28-5.09-3.29-5.09,0v22C-71,48.79-65.94,48.8-65.94,45.51Z" transform="translate(71.03 39.19)"/><path class="cls-1" d="M32.48-36.62v23c0,3.27,5.09,3.28,5.09,0v-23C37.57-39.9,32.48-39.9,32.48-36.62Z" transform="translate(71.03 39.19)"/><path class="cls-1" d="M135.94,23.47v23c0,3.28,5.09,3.28,5.09,0v-23C141,20.19,135.94,20.18,135.94,23.47Z" transform="translate(71.03 39.19)"/></svg>