<?xml version="1.0" encoding="utf-8"?>
<!-- Generator: Adobe Illustrator 25.2.1, SVG Export Plug-In . SVG Version: 6.00 Build 0)  -->
<svg version="1.1" id="Layer_1" xmlns="http://www.w3.org/2000/svg" xmlns:xlink="http://www.w3.org/1999/xlink" x="0px" y="0px"
	 viewBox="0 0 50 50" style="enable-background:new 0 0 50 50;" xml:space="preserve">
<style type="text/css">
	.st0{fill:#F7932B;}
</style>
<g id="Google_Play">
	<path class="st0" d="M6.9,1.9C7.7,1.8,8.6,2,9.3,2.5l24.8,14.1l-6.3,6.3L6.9,1.9z M5,3.8C4.8,4.3,4.8,4.7,4.8,5.1v39.4
		c0,0.4,0.1,0.9,0.2,1.3l21-21L5,3.8z M27.8,26.7l-21,21c0.9,0.1,1.7-0.1,2.4-0.5L34.1,33L27.8,26.7z M44.1,22.2L36.5,18l-6.9,6.8
		l6.8,6.8l7.5-4.3C46.5,26,46.5,23.6,44.1,22.2L44.1,22.2z"/>
</g>
</svg>
