<?xml version="1.0" encoding="utf-8"?>
<!-- Generator: Adobe Illustrator 25.2.1, SVG Export Plug-In . SVG Version: 6.00 Build 0)  -->
<svg version="1.1" id="Layer_1" xmlns="http://www.w3.org/2000/svg" xmlns:xlink="http://www.w3.org/1999/xlink" x="0px" y="0px"
	 viewBox="0 0 72 46" style="enable-background:new 0 0 72 46;" xml:space="preserve">
<style type="text/css">
	.st0{fill:#FF9425;}
</style>
<g>
	<g>
		<path class="st0" d="M58.3,13.7c-6.9,4.2-13.8,8.3-20.7,12.5c-1,0.6-1.9,1.2-2.9,1.8c0.8,0,1.7,0,2.5,0
			c-6.9-4.2-13.8-8.3-20.7-12.5c-1-0.6-1.9-1.2-2.9-1.8c-2.8-1.7-5.3,2.7-2.5,4.3c6.9,4.2,13.8,8.3,20.7,12.5c1,0.6,1.9,1.2,2.9,1.8
			c0.8,0.5,1.8,0.5,2.5,0C44.2,28.1,51,24,57.9,19.8c1-0.6,1.9-1.2,2.9-1.8C63.6,16.4,61.1,12.1,58.3,13.7L58.3,13.7z"/>
	</g>
</g>
</svg>
