<svg id="Layer_1" data-name="Layer 1" xmlns="http://www.w3.org/2000/svg" viewBox="0 0 137.46 198.86"><defs><style>.cls-1{fill:#fff;}</style></defs><path class="cls-1" d="M83.53-64.43h-.16a20.23,20.23,0,0,0-20.2,20.19V-.16A20.1,20.1,0,0,0,51.24-4.08h-.17A20.2,20.2,0,0,0,35,3.88a20.19,20.19,0,0,0-16.06-8h-.17A20.09,20.09,0,0,0,6.84-.16V-21.09a20.23,20.23,0,0,0-20.2-20.2h-.18a20.23,20.23,0,0,0-20.19,20.2V50.12a3.27,3.27,0,0,0,0,.54V65.72A68.88,68.88,0,0,0,35,134.43a68.18,68.18,0,0,0,48.53-20.17,68.16,68.16,0,0,0,20.18-48.54v-110A20.21,20.21,0,0,0,83.53-64.43ZM71.44-44.24A11.94,11.94,0,0,1,83.35-56.17h.18A12,12,0,0,1,95.46-44.24V43.42a33.5,33.5,0,0,0-24-11.51ZM51.06,4.19h.17A12,12,0,0,1,63.16,16.12V32H44a19.62,19.62,0,0,0-4.82.58V16.11A12,12,0,0,1,51.06,4.19Zm-32.29,0h.17A12,12,0,0,1,30.87,16.12V36.8a20.13,20.13,0,0,0-6.94,12.79,11.9,11.9,0,0,1-5,1.11h-.17A12,12,0,0,1,6.85,38.77V16.11A12,12,0,0,1,18.77,4.19ZM95.45,65.72a60.43,60.43,0,0,1-120.86,0V40.37a4.9,4.9,0,0,0,0-.54V-21.09A11.93,11.93,0,0,1-13.54-33h.17A11.94,11.94,0,0,1-1.44-21.09V38.76A20.23,20.23,0,0,0,18.77,59h.17a19.8,19.8,0,0,0,5.67-.83A20.24,20.24,0,0,0,44,72.51h3.42A36.58,36.58,0,0,0,34.43,95.6a4.14,4.14,0,0,0,3.51,4.66,3.9,3.9,0,0,0,.59,0,4.13,4.13,0,0,0,4.09-3.55A28.5,28.5,0,0,1,67.51,72.49h.33a5.25,5.25,0,0,0,1-.12,28.68,28.68,0,0,1,6,.21A4.13,4.13,0,1,0,76,64.4h0a36.82,36.82,0,0,0-8.9-.18H44A12,12,0,0,1,32,52.29v-.17A12,12,0,0,1,44,40.19H70.74a4.36,4.36,0,0,0,.51,0,25.32,25.32,0,0,1,24.2,25.26Z" transform="translate(33.73 64.43)"/></svg>