<svg id="Layer_1" data-name="Layer 1" xmlns="http://www.w3.org/2000/svg" viewBox="0 0 162.44 162.44"><defs><style>.cls-1{fill:#fff;}</style></defs><path class="cls-1" d="M9.06-39.39H60.94L57.52-42.8V9.06a3.47,3.47,0,0,0,3.42,3.42H112.8l-3.41-3.42V60.94l3.41-3.42H60.94a3.47,3.47,0,0,0-3.42,3.42V112.8l3.42-3.41H9.06l3.42,3.41V60.94a3.47,3.47,0,0,0-3.42-3.42H-42.8l3.41,3.42V9.06l-3.41,3.42H9.06a3.47,3.47,0,0,0,3.42-3.42V-42.8c0-4.4-6.83-4.4-6.83,0V9.06L9.06,5.65H-42.8a3.47,3.47,0,0,0-3.42,3.41V60.94a3.47,3.47,0,0,0,3.42,3.41H9.06L5.65,60.94V112.8a3.47,3.47,0,0,0,3.41,3.42H60.94a3.47,3.47,0,0,0,3.41-3.42V60.94l-3.41,3.41H112.8a3.47,3.47,0,0,0,3.42-3.41V9.06a3.47,3.47,0,0,0-3.42-3.41H60.94l3.41,3.41V-42.8a3.47,3.47,0,0,0-3.41-3.42H9.06C4.67-46.22,4.66-39.39,9.06-39.39Z" transform="translate(46.22 46.22)"/></svg>