<svg id="Layer_1" data-name="Layer 1" xmlns="http://www.w3.org/2000/svg" viewBox="0 0 168.61 217.63"><defs><style>.cls-1{fill:#fff;}</style></defs><path class="cls-1" d="M117.76,76.67,100.29,65.93v-15a25.85,25.85,0,0,0-1.62-10.26,21,21,0,0,0-8.26-9.56C82,25.76,73.54,20.47,65.11,15.16v-45.4A81.54,81.54,0,0,0,65-39.49a10.65,10.65,0,0,0-10.47-9.42c-.77,0-1.54,0-2.3,0H-14.16c-.7,0-1.41,0-2.11,0A10.69,10.69,0,0,0-26.8-38.76c-.27,5,0,10.16,0,15.21V-9.89C-32.4-10.5-38-8.5-41.19-3.46c-3.53,5.55-2.55,12.66,1.48,17.62a16.38,16.38,0,0,0,3.05,2.89,14.26,14.26,0,0,0-4.43,4.57,14.27,14.27,0,0,0,1.73,16.92,16,16,0,0,0,3.48,2.87,14.16,14.16,0,0,0-4.57,6.4,14.13,14.13,0,0,0,4.32,15.38,15.54,15.54,0,0,0,3.24,2,14.37,14.37,0,0,0-7,8,14.14,14.14,0,0,0,4.31,15.38,17.25,17.25,0,0,0,8.83,3.61v3.1a10.69,10.69,0,0,0,7.85,10.21c2.78.72,6.06.35,8.9.35H0a3.47,3.47,0,0,0,.91.82h0l27.28,17.15c3.65,2.29,7.25,5,11.3,6.58,5.16,2,10.66,1.59,16.06,1.73.51,0,1,.06,1.53.08h.12c.21,0,.41.07.61.12a3.47,3.47,0,0,0,.46.13h0l.1.06c.66.45,1.35.84,2,1.25L76,143.32c3.59,2.19,6.87-3.45,3.29-5.63l-13.76-8.42A26.31,26.31,0,0,0,60,126.21a21.49,21.49,0,0,0-6.51-.57,59.23,59.23,0,0,1-7.46-.25,18.13,18.13,0,0,1-7.33-2.61l-5.43-3.41L16,108.5l-4.18-2.62H45.28c3,0,6.08,0,9.12,0A10.7,10.7,0,0,0,64,100.14a13.87,13.87,0,0,0,1.16-6.47V58.37c0-1.65,0-3.31,0-5a4,4,0,0,0-1.79-3.34L51.38,40.75,35.85,28.61l-5-3.91c-.34-.28-.68-.53-1-.8-.18-.15-.37-.29-.54-.44a10.73,10.73,0,0,1-1-1,3.62,3.62,0,0,1-.36-.42c.45.55,0-.06-.12-.2-.19-.31-.36-.62-.53-.94.12.2-.22-.53-.28-.72-.11-.37-.16-.74-.27-1.1s0-.59-.05-.89,0-.67,0-1c0,0,0-.18,0-.32a2.87,2.87,0,0,1,.06-.34,18.15,18.15,0,0,1,.66-2.29c0-.07.29-.66.35-.79.18-.36.38-.71.59-1.06s.48-.76.73-1.13c.06-.08.11-.16.17-.23l.32-.4A20.61,20.61,0,0,1,31.4,8.82c.13-.12.26-.22.4-.33l.09-.07c.41-.27.8-.54,1.22-.78s.69-.36,1-.55h0c.2-.07.4-.15.61-.21a9.89,9.89,0,0,1,1.1-.3c.16,0,.32-.06.49-.09l.26,0c.37,0,.75,0,1.13,0l.34,0,.19,0c.42.1.83.24,1.25.35a.3.3,0,0,1,.11,0c.21.09.41.19.61.3,1,.56,2,1.31,3,1.94L73.1,27.9l12.67,8a27.47,27.47,0,0,1,2.92,1.95,14.09,14.09,0,0,1,5.09,10.9c0,5.51,0,11,0,16.52,0,.8,0,1.61,0,2.4a3.82,3.82,0,0,0,2,3.18c2,1.29,4.11,2.52,6.16,3.78l12.49,7.69C118.06,84.5,121.34,78.86,117.76,76.67ZM-20.3-38.21a4.22,4.22,0,0,1,.7-2.49,3.85,3.85,0,0,1,3.49-1.7H54.44a4.12,4.12,0,0,1,3.36,1.6,4,4,0,0,1,.79,2.88v7.85H-20.3v-8.14Zm-6.57,82.6-.15,0ZM-36.18.94c-.25.73,0,0,.15-.27.25-.47.55-.9.82-1.36h0l.08-.07c.22-.23.42-.48.65-.7s.37-.33.54-.5l0,0,.06,0c.48-.27,1-.59,1.49-.87l-.14.06.15-.06h0c.13-.07.41-.15.14-.05l.24-.08c.29-.1.59-.18.89-.27l.75-.16c-.08,0,.43,0,.66,0a15,15,0,0,1,2.12.06c-.07,0,.5.09.72.14V14.42H-27c-.83-.22-1.64-.48-2.44-.78l-.36-.15-.2-.09c-.41-.19-.83-.4-1.23-.63a19.12,19.12,0,0,1-1.65-1l-.47-.39c-.3-.26-.59-.54-.86-.82s-.4-.44-.6-.66L-35,9.71l-.06-.1c-.35-.52-.68-1.07-1-1.63-.09-.19-.42-1.1-.14-.27-.08-.25-.18-.49-.27-.75-.17-.53-.26-1.08-.38-1.62a2,2,0,0,1,0-.23c0-.29,0-.58,0-.87s0-.5,0-.76c0-.11,0-.23,0-.35.12-.5.2-1,.36-1.49C-36.35,1.4-36.26,1.17-36.18.94ZM-29,37.36c-.42-.12-.82-.26-1.23-.4l-.43-.17-.05,0-.15-.07a19.82,19.82,0,0,1-1.75-1c-.26-.17-.51-.35-.76-.53l-.47-.4c-.42-.39-.81-.82-1.19-1.24l0,0-.08-.14c-.19-.3-.38-.58-.55-.88s-.22-.45-.34-.68l-.06-.17c-.17-.52-.3-1-.42-1.57a.24.24,0,0,1,0-.08h0c0-.27-.05-.57-.05-.85s0-.5,0-.74,0-.41.06-.58l.07-.34c.06-.24.12-.48.19-.72s.17-.47.23-.71h0c0-.1.09-.19.13-.28.24-.45.49-.88.76-1.31l.17-.23-.09.11.11-.13c.07-.1.12-.15.08-.1.13-.14.25-.29.39-.43s.42-.42.64-.62l.39-.33a3.68,3.68,0,0,1,.39-.26c.27-.18.52-.33.8-.48.09-.06.5-.25.68-.34l.64-.24a15.62,15.62,0,0,1,1.91-.46c-.22,0,.47,0,.7-.06a10.59,10.59,0,0,1,1.13,0h.43v17l-.1,0C-27.62,37.74-28.34,37.58-29,37.36ZM-33.78,56c-.13-.22-.19-.39-.3-.58l0-.06s0-.1-.06-.17a12,12,0,0,1-.4-1.45c0-.07,0-.26-.07-.41s0-.44,0-.53c0-.48.1-1,0-1.48,0,0,0-.07,0-.1.06-.27.12-.56.2-.84s.14-.48.22-.72a4.48,4.48,0,0,1,.19-.44,10.83,10.83,0,0,1,.57-1.05s.15-.23.25-.37.27-.34.32-.39a11,11,0,0,1,1.16-1.11l.4-.28c.27-.18.56-.34.85-.5l.64-.32.73-.27a16.42,16.42,0,0,1,2.2-.54l.09,0v16h0l-.66-.11c-.37-.08-.73-.16-1.08-.27l-.91-.29-.27-.1a14.88,14.88,0,0,1-1.57-.86l-.43-.3-.41-.37a12.29,12.29,0,0,1-1-1,4,4,0,0,1-.24-.35A7.23,7.23,0,0,1-33.78,56Zm4,3.56Zm-3.77,15.2a1.14,1.14,0,0,0-.09.19ZM-29.33,85Zm2.36.71c-.37-.08-.73-.17-1.09-.28s-.6-.18-.9-.28l-.29-.11c-.53-.26-1.05-.54-1.55-.85-.17-.11-.39-.28-.43-.31a4.59,4.59,0,0,1-.41-.36,14.38,14.38,0,0,1-1-1.06c0-.07-.15-.21-.23-.34s-.28-.44-.4-.66-.2-.4-.3-.59l0,0s0-.1,0-.17a14.9,14.9,0,0,1-.41-1.45c0-.07,0-.29-.07-.44s0-.41,0-.5c0-.48.09-1,.05-1.48,0,0,0-.07,0-.1.06-.27.12-.57.19-.84s.15-.48.23-.72a5,5,0,0,1,.2-.48c.17-.34.35-.68.55-1l.26-.38.32-.38a12.38,12.38,0,0,1,1.17-1.12l.39-.27a9,9,0,0,1,.85-.5l.69-.35c.23-.07.46-.15.68-.24a15.49,15.49,0,0,1,1.78-.46V85.72ZM58.48,96.3a4,4,0,0,1-3.93,3.06c-1.36,0-2.73,0-4.1,0H.28c-5.39,0-10.78,0-16.17,0h-.36a3.89,3.89,0,0,1-2.15-.61,4,4,0,0,1-1.9-3.47c0-.88,0-1.76,0-2.64V78.75H58.59V95.33A2.44,2.44,0,0,1,58.48,96.3ZM36.37,6.47c-.23,0-.17,0,0,0Zm3.39.46Zm4.07-5.22a13.64,13.64,0,0,0-12.49-.46C24,4.48,18.5,13.52,20.59,21.55c1.29,5,5.46,7.61,9.23,10.55L58.59,54.6V73.32H-20.3v-98H58.59v35.7L46.94,3.72C45.9,3.06,44.89,2.32,43.83,1.71Z" transform="translate(49.31 73.81)"/><path class="cls-1" d="M.55-33.1H8.21c4.19,0,4.2-6.51,0-6.51H.55C-3.65-39.61-3.65-33.1.55-33.1Z" transform="translate(49.31 73.81)"/><path class="cls-1" d="M16.34-33.1H35c4.19,0,4.2-6.51,0-6.51H16.34C12.14-39.61,12.13-33.1,16.34-33.1Z" transform="translate(49.31 73.81)"/><path class="cls-1" d="M-35,24.2l0,0,.1-.12Z" transform="translate(49.31 73.81)"/><path class="cls-1" d="M-32.33-2.91h0l.16-.06Z" transform="translate(49.31 73.81)"/><path class="cls-1" d="M27.69,88.37a8.6,8.6,0,1,0,0,1.6,5.36,5.36,0,0,0,0-1.6Zm-10.62.8c0-2.72,4.07-2.7,4.17,0C21.15,91.85,17.07,91.88,17.07,89.17Z" transform="translate(49.31 73.81)"/><path class="cls-1" d="M-35.76-29.22h0l-5,6.87a2.74,2.74,0,0,0,1,3.72,2.79,2.79,0,0,0,3.72-1l5-6.89a2.73,2.73,0,0,0-1-3.71A2.76,2.76,0,0,0-35.76-29.22Z" transform="translate(49.31 73.81)"/><path class="cls-1" d="M-35.66-42A2.76,2.76,0,0,0-39-43.9l-8.32,1.71a2.74,2.74,0,0,0-1.9,3.34,2.77,2.77,0,0,0,3.34,1.9l8.32-1.71A2.77,2.77,0,0,0-35.66-42Z" transform="translate(49.31 73.81)"/><path class="cls-1" d="M-44.54-58.13l7.1,4.67c2.93,1.93,5.65-2.77,2.74-4.69l-7.1-4.67C-44.73-64.74-47.45-60-44.54-58.13Z" transform="translate(49.31 73.81)"/><path class="cls-1" d="M-25.31-62.07A2.76,2.76,0,0,0-22-60.17a2.78,2.78,0,0,0,1.9-3.34h0l-1.72-8.32a2.76,2.76,0,0,0-3.34-1.9A2.78,2.78,0,0,0-27-70.39Z" transform="translate(49.31 73.81)"/><path class="cls-1" d="M-9.65-56.37a2.77,2.77,0,0,0,3.71-1l5-6.89a2.73,2.73,0,0,0-1-3.71,2.77,2.77,0,0,0-3.72,1l-5,6.89A2.73,2.73,0,0,0-9.65-56.37Z" transform="translate(49.31 73.81)"/></svg>