<?xml version="1.0" encoding="utf-8"?>
<!-- Generator: Adobe Illustrator 25.2.1, SVG Export Plug-In . SVG Version: 6.00 Build 0)  -->
<svg version="1.1" id="Layer_1" xmlns="http://www.w3.org/2000/svg" xmlns:xlink="http://www.w3.org/1999/xlink" x="0px" y="0px"
	 viewBox="0 0 50 50" style="enable-background:new 0 0 50 50;" xml:space="preserve">
<style type="text/css">
	.st0{fill:#F7932B;}
</style>
<path class="st0" d="M25.5,2.3C13.1,2.3,3,12.4,3,24.8s10.1,22.5,22.5,22.5S48,37.2,48,24.8S37.9,2.3,25.5,2.3L25.5,2.3z M35.8,34.7
	c-0.4,0.7-1.3,0.9-1.9,0.5c0,0,0,0,0,0C28.6,32,22,31.2,14.1,33.1c-0.8,0.2-1.5-0.3-1.7-1c-0.2-0.8,0.3-1.5,1-1.7
	c8.6-2,15.9-1.1,21.8,2.5C36,33.2,36.2,34.1,35.8,34.7z M38.6,28.6c-0.5,0.8-1.6,1.1-2.4,0.6c0,0,0,0,0,0c-6-3.7-15.2-4.8-22.4-2.6
	c-0.9,0.3-1.9-0.2-2.2-1.2c-0.3-0.9,0.2-1.9,1.2-2.2c8.2-2.5,18.3-1.3,25.2,3C38.8,26.7,39.1,27.8,38.6,28.6
	C38.6,28.6,38.6,28.6,38.6,28.6L38.6,28.6z M38.8,22.2c-7.3-4.3-19.2-4.7-26.1-2.6c-1.1,0.3-2.3-0.3-2.6-1.4s0.3-2.3,1.4-2.6
	c7.9-2.4,21.1-1.9,29.4,3c1,0.6,1.3,1.9,0.7,2.9C41.1,22.5,39.8,22.8,38.8,22.2L38.8,22.2z"/>
</svg>
