<?xml version="1.0" encoding="utf-8"?>
<!-- Generator: Adobe Illustrator 25.2.1, SVG Export Plug-In . SVG Version: 6.00 Build 0)  -->
<svg version="1.1" id="Layer_1" xmlns="http://www.w3.org/2000/svg" xmlns:xlink="http://www.w3.org/1999/xlink" x="0px" y="0px"
	 viewBox="0 0 50 50" style="enable-background:new 0 0 50 50;" xml:space="preserve">
<style type="text/css">
	.st0{fill:#F7942E;}
	.st1{fill:#FFFFFF;}
</style>
<circle class="st0" cx="25.5" cy="24.8" r="22.8"/>
<g id="Group_246" transform="translate(-170.335 -22.24)">
	<g id="Group_254" transform="translate(170.335 22.24)">
		<path id="Path_287" class="st1" d="M18.8,23.3l-2.1,5.6l0,0c0.5,2,1.6,3.9,3.2,5.2l2.6-1C19.8,30.6,18.4,27,18.8,23.3z"/>
		<path id="Path_288" class="st1" d="M15.9,30.8l-1.6,4.3c-0.1,0.3,0,0.7,0.4,0.8c0.1,0.1,0.3,0.1,0.5,0l3.4-1.3
			C17.4,33.5,16.5,32.2,15.9,30.8L15.9,30.8z"/>
		<path id="Path_289" class="st1" d="M23.2,22.8l-2.4-2.4c-1.9,4.3-0.7,9.3,3,12.2l2.6-1C24.2,29.3,23,26.1,23.2,22.8L23.2,22.8z"/>
		<path id="Path_290" class="st1" d="M24.5,24c0.1,2.7,1.3,5.3,3.3,7.1l0,0l1.9-0.7c0.3-0.1,0.5-0.5,0.4-0.8c0-0.1-0.1-0.2-0.1-0.2
			L24.5,24z"/>
		<g id="Group_253" transform="translate(13.79 8.363)">
			<path id="Path_291" class="st1" d="M15.4,17.7c0.2,0.3,0.7,0.3,0.9,0c0,0,0,0,0,0c2.4-2.4,4.8-1.7,4.8-1.7
				c0.3,0.1,0.7-0.1,0.8-0.4c0.1-0.3-0.1-0.7-0.4-0.8l0,0c-0.1,0-3.1-1-6.1,2C15.1,17,15.1,17.4,15.4,17.7
				C15.4,17.7,15.4,17.7,15.4,17.7z"/>
		</g>
		<path id="Path_292" class="st1" d="M25.1,21.1c3-3,2-6,2-6.1c-0.1-0.3-0.5-0.5-0.8-0.4c-0.3,0.1-0.5,0.5-0.4,0.8
			c0,0,0.8,2.4-1.7,4.8c-0.3,0.3-0.3,0.7,0,0.9C24.4,21.3,24.8,21.3,25.1,21.1L25.1,21.1z"/>
		<path id="Path_293" class="st1" d="M26.5,22.4c-0.3,0.2-0.3,0.7,0,0.9c0.2,0.3,0.7,0.3,0.9,0c0.3-0.2,1.4,0.5,1.9-0.1
			c0.6-0.6,0-1.6,0.1-1.9c0.4-0.2,1.4,0.4,1.9-0.1c0.6-0.6,0-1.6,0.1-1.9c0.4-0.2,1.4,0.4,1.9-0.1c0.6-0.6,0-1.6,0.1-1.9
			c0.4-0.1,1.4,0.4,1.9-0.1c0.6-0.6,0-1.6,0.1-1.9c0.2-0.3,0.2-0.7,0-0.9c-0.3-0.2-0.7-0.2-0.9,0c0,0,0,0,0,0
			c-0.4,0.5-0.5,1.1-0.3,1.7c-0.6-0.2-1.2-0.1-1.7,0.3c-0.4,0.5-0.5,1.1-0.3,1.7c-0.6-0.2-1.2-0.1-1.7,0.3c-0.4,0.5-0.5,1.1-0.3,1.7
			c-0.6-0.2-1.2-0.1-1.7,0.3c-0.4,0.5-0.5,1.1-0.3,1.7C27.6,21.9,26.9,22,26.5,22.4z"/>
		<path id="Path_294" class="st1" d="M30.1,17c0.2-0.3,0.2-0.7,0-0.9c-0.3-0.2-0.7-0.2-0.9,0c-0.2,0.2-0.2,0.7,0,0.9
			C29.4,17.2,29.8,17.2,30.1,17C30.1,17,30.1,17,30.1,17z"/>
		<circle id="Ellipse_36" class="st1" cx="34.2" cy="21.1" r="0.6"/>
		<path id="Path_295" class="st1" d="M32.8,26.9c-0.2,0.2-0.2,0.7,0,0.9c0.3,0.2,0.7,0.2,0.9,0c0.2-0.2,0.2-0.7,0-0.9
			C33.5,26.7,33,26.7,32.8,26.9C32.8,26.9,32.8,26.9,32.8,26.9z"/>
		<path id="Path_296" class="st1" d="M23.7,17.9c0.2-0.3,0.2-0.7,0-0.9c-0.3-0.2-0.7-0.2-0.9,0c-0.2,0.2-0.2,0.7,0,0.9
			C23.1,18.1,23.5,18.1,23.7,17.9C23.7,17.9,23.7,17.9,23.7,17.9z"/>
	</g>
</g>
</svg>
