<?xml version="1.0" encoding="utf-8"?>
<!-- Generator: Adobe Illustrator 25.2.1, SVG Export Plug-In . SVG Version: 6.00 Build 0)  -->
<svg version="1.1" id="Layer_1" xmlns="http://www.w3.org/2000/svg" xmlns:xlink="http://www.w3.org/1999/xlink" x="0px" y="0px"
	 viewBox="0 0 50 50" style="enable-background:new 0 0 50 50;" xml:space="preserve">
<style type="text/css">
	.st0{fill:#F7942E;}
	.st1{fill:#FFFFFF;}
</style>
<circle class="st0" cx="25.5" cy="24.8" r="22.8"/>
<g>
	<g>
		<path class="st1" d="M25.5,13.1c-3.2,0-5.8,2.6-5.8,5.8s2.6,5.8,5.8,5.8s5.8-2.6,5.8-5.8S28.7,13.1,25.5,13.1z"/>
	</g>
</g>
<g>
	<g>
		<path class="st1" d="M32.7,28.4c-1.6-1.6-3.7-2.5-5.9-2.5h-2.6c-2.2,0-4.3,0.9-5.9,2.5c-1.6,1.6-2.4,3.7-2.4,5.9
			c0,0.4,0.3,0.6,0.6,0.6h18c0.4,0,0.6-0.3,0.6-0.6C35.1,32.1,34.3,30,32.7,28.4z"/>
	</g>
</g>
</svg>
