<?xml version="1.0" encoding="utf-8"?>
<!-- Generator: Adobe Illustrator 25.2.1, SVG Export Plug-In . SVG Version: 6.00 Build 0)  -->
<svg version="1.1" id="Layer_1" xmlns="http://www.w3.org/2000/svg" xmlns:xlink="http://www.w3.org/1999/xlink" x="0px" y="0px"
	 viewBox="0 0 50 50" style="enable-background:new 0 0 50 50;" xml:space="preserve">
<style type="text/css">
	.st0{fill:#F7942E;}
	.st1{fill:#FFFFFF;}
</style>
<circle class="st0" cx="25.5" cy="24.8" r="22.8"/>
<path class="st1" d="M11.3,24.5l1.5,0.9l3.6,2.1l3.9,2.3l2.7,1.6c0.2,0.1,0.4,0.2,0.5,0.3c1.2,0.5,2.5,0.5,3.6,0.1
	c0.6-0.3,1.1-0.6,1.6-0.9l3.5-2l4-2.3l2.9-1.6c0.2-0.1,0.4-0.2,0.5-0.3c0.6-0.3,1-1,1-1.6c-0.1-1-1.2-1.4-2-1.9l-3.1-1.8l-4-2.3
	L28.4,15l-0.8-0.5c-0.5-0.2-1-0.4-1.6-0.4c-0.6,0-1.2,0-1.8,0.2c-0.2,0-0.3,0.1-0.5,0.2L23,14.8l-3.1,1.7l-4,2.3l-3.4,1.9l-1,0.5
	c-0.3,0.1-0.6,0.3-0.8,0.6c-0.3,0.3-0.5,0.7-0.4,1.2C10.5,23.7,10.8,24.2,11.3,24.5c0.2,0.1,0.4,0,0.5-0.1c0.1-0.2,0-0.4-0.1-0.5
	c0,0,0,0,0,0c-0.2-0.2-0.4-0.4-0.6-0.6c-0.1-0.1-0.1-0.3,0-0.4c0.1-0.3,0.3-0.6,0.6-0.7l0.4-0.2l2.7-1.5l3.9-2.2l3.6-2l1.8-1h0
	c-0.1,0,0.1,0,0.1,0l0.2-0.1c0.1,0,0.3-0.1,0.4-0.1c0.5-0.1,1.1-0.1,1.6,0c0.1,0,0.3,0,0.4,0.1l0.1,0c0,0,0.2,0.1,0.1,0l0,0
	c0.1,0,0.1,0.1,0.2,0.1l2.4,1.4l3.8,2.2l3.7,2.1c0.7,0.4,1.3,0.8,1.9,1.1c0.2,0.1,0.3,0.2,0.5,0.3c0.1,0.1,0.2,0.1,0.2,0.2
	c0,0.1,0.1,0.1,0.1,0.2c0,0.1,0,0.3,0,0.4c0,0.1-0.1,0.3-0.2,0.4l0,0.1l-0.1,0.1l-0.1,0.1l0,0c-0.1,0,0,0,0,0
	c-0.1,0-0.1,0.1-0.2,0.1l-2,1.2l-3.7,2.1l-3.8,2.2l-2.5,1.4c-0.2,0.1-0.5,0.3-0.8,0.3c-0.9,0.3-1.9,0.2-2.8-0.2
	c-0.6-0.3-1.1-0.7-1.7-1l-3.5-2.1l-3.8-2.2l-2.6-1.5l-0.4-0.2c-0.2-0.1-0.4,0-0.5,0.2C11.2,24.3,11.2,24.4,11.3,24.5z"/>
<path class="st1" d="M11.3,27.8l1.5,0.9l3.6,2.1l3.9,2.3l2.7,1.6c0.2,0.1,0.4,0.2,0.5,0.3c1.2,0.5,2.5,0.5,3.6,0
	c0.6-0.3,1.1-0.6,1.6-0.9l3.5-2l4-2.3l2.9-1.6l0.5-0.3c0.6-0.3,1-1,1-1.6c-0.1-1-1.2-1.4-2-1.9l-3.1-1.8l-4-2.3l-3.2-1.9l-0.8-0.5
	c-0.5-0.2-1-0.4-1.6-0.4c-0.6,0-1.2,0-1.8,0.1c-0.2,0-0.3,0.1-0.5,0.2L23,18.1l-3.1,1.7l-4,2.3l-3.4,2l-1,0.5
	c-0.3,0.1-0.6,0.3-0.8,0.6c-0.3,0.3-0.5,0.7-0.4,1.2C10.5,27,10.8,27.5,11.3,27.8c0.2,0.1,0.4,0,0.5-0.2c0.1-0.2,0-0.3-0.1-0.4
	c-0.2-0.2-0.4-0.4-0.6-0.6c-0.1-0.1-0.1-0.3,0-0.4c0.1-0.3,0.3-0.6,0.6-0.7l0.4-0.2l2.7-1.5l3.9-2.2l3.6-2c0.6-0.3,1.2-0.7,1.8-1
	l0,0c-0.1,0,0.1,0,0.1,0l0.2-0.1c0.1,0,0.3-0.1,0.4-0.1c0.5-0.1,1.1-0.1,1.6,0c0.1,0,0.3,0,0.4,0.1l0.1,0c0,0,0.2,0.1,0.1,0h0
	l0.2,0.1l2.4,1.4l3.8,2.2l3.7,2.1c0.7,0.4,1.3,0.8,1.9,1.1c0.2,0.1,0.3,0.2,0.5,0.3c0.1,0.1,0.2,0.1,0.2,0.2c0,0.1,0.1,0.1,0.1,0.2
	c0,0.1,0,0.3,0,0.4c0,0.1-0.1,0.3-0.2,0.4c0-0.1,0,0,0,0L39.6,27c0,0-0.1,0.1-0.1,0.1l0,0l0,0l-0.2,0.1l-2,1.2l-3.7,2.1l-3.8,2.2
	l-2.5,1.4c-0.2,0.1-0.5,0.3-0.8,0.3c-0.9,0.3-1.9,0.2-2.8-0.2c-0.6-0.3-1.1-0.7-1.7-1l-3.5-2.1L14.7,29l-2.6-1.5l-0.4-0.2
	c-0.2-0.1-0.4,0-0.5,0.2C11.2,27.5,11.2,27.7,11.3,27.8z"/>
<path class="st1" d="M25.9,35v-3.3c0-0.2-0.2-0.3-0.4-0.3c-0.2,0-0.3,0.2-0.3,0.3V35c0,0.2,0.2,0.3,0.4,0.3
	C25.7,35.3,25.9,35.1,25.9,35z"/>
<path class="st1" d="M11.1,26.2v-3.1c0-0.2-0.2-0.4-0.4-0.4c-0.2,0-0.4,0.2-0.4,0.4l0,0v3.1c0,0.2,0.2,0.4,0.4,0.4
	C10.9,26.6,11.1,26.4,11.1,26.2z"/>
<path class="st1" d="M25.2,14.5v3.3c0,0.2,0.2,0.3,0.4,0.3c0.2,0,0.3-0.2,0.3-0.3v-3.3c0-0.2-0.2-0.3-0.4-0.3
	C25.3,14.2,25.2,14.3,25.2,14.5z"/>
<path class="st1" d="M40,23.1v3.3c0,0.2,0.2,0.4,0.4,0.4c0.2,0,0.4-0.2,0.4-0.4v-3.3c0-0.2-0.2-0.4-0.4-0.4
	C40.1,22.7,40,22.9,40,23.1z"/>
</svg>
