<?xml version="1.0" encoding="utf-8"?>
<!-- Generator: Adobe Illustrator 25.2.1, SVG Export Plug-In . SVG Version: 6.00 Build 0)  -->
<svg version="1.1" id="Layer_1" xmlns="http://www.w3.org/2000/svg" xmlns:xlink="http://www.w3.org/1999/xlink" x="0px" y="0px"
	 viewBox="0 0 50 50" style="enable-background:new 0 0 50 50;" xml:space="preserve">
<style type="text/css">
	.st0{fill:#F7942E;}
	.st1{fill:#FFFFFF;}
</style>
<circle class="st0" cx="25.5" cy="24.8" r="22.8"/>
<g id="Group_261" transform="translate(-173.924 -762.517)">
	<path id="Path_298" class="st1" d="M190.1,786.9v-4.3c0-0.3-0.2-0.5-0.5-0.5c-0.3,0-0.5,0.2-0.5,0.5c0,0,0,0,0,0.1l0,4.3l-4.3,0
		c-0.3,0-0.5,0.3-0.5,0.5c0,0.3,0.2,0.5,0.5,0.5l4.3,0l0,4.3c0,0.3,0.2,0.5,0.5,0.5s0.5-0.2,0.5-0.5l0-4.3h4.3
		c0.3,0,0.5-0.2,0.5-0.5c0-0.3-0.2-0.5-0.5-0.5L190.1,786.9z"/>
	<g id="Group_251" transform="translate(188.613 762.517)">
		<g id="Group_234" transform="translate(0 0)">
			<path id="Path_285" class="st1" d="M24.7,15.8c-0.1-0.1-0.3-0.2-0.5-0.2l-11.8,1.3c-0.3,0-0.6,0.3-0.6,0.7v11.7
				c-0.6-0.4-1.3-0.5-2-0.5c-1.8,0-3.3,1.2-3.3,2.6S8,34,9.8,34s3.3-1.2,3.3-2.6v-9.9l10.5-1.2V28c-0.6-0.4-1.3-0.5-2-0.5
				c-1.8,0-3.3,1.2-3.3,2.6s1.5,2.6,3.3,2.6s3.3-1.2,3.3-2.6V16.3C24.9,16.1,24.9,15.9,24.7,15.8z"/>
		</g>
	</g>
</g>
</svg>
