<?xml version="1.0" encoding="utf-8"?>
<!-- Generator: Adobe Illustrator 25.2.1, SVG Export Plug-In . SVG Version: 6.00 Build 0)  -->
<svg version="1.1" id="Layer_1" xmlns="http://www.w3.org/2000/svg" xmlns:xlink="http://www.w3.org/1999/xlink" x="0px" y="0px"
	 viewBox="0 0 50 50" style="enable-background:new 0 0 50 50;" xml:space="preserve">
<style type="text/css">
	.st0{fill:#F7942E;}
	.st1{fill:#FFFFFF;}
</style>
<circle class="st0" cx="25" cy="25" r="22.8"/>
<path class="st1" d="M24.9,15.6l0.7-1.2c0.4-0.8,1.5-1.1,2.2-0.6c0.8,0.4,1.1,1.5,0.6,2.2l-6.9,12.1h5.1c1.6,0,2.5,1.9,1.9,3.3H13.7
	c-0.9,0-1.6-0.7-1.6-1.6c0-0.9,0.7-1.6,1.6-1.6h4.1l5.3-9.1l-1.6-2.9c-0.4-0.8-0.2-1.8,0.6-2.2c0.8-0.4,1.8-0.2,2.2,0.6L24.9,15.6
	L24.9,15.6z M18.6,32.9l-1.5,2.7c-0.4,0.8-1.5,1.1-2.2,0.6c-0.8-0.4-1.1-1.5-0.6-2.2l1.1-2C16.8,31.6,17.8,31.9,18.6,32.9L18.6,32.9
	z M32.1,28h4.2c0.9,0,1.6,0.7,1.6,1.6c0,0.9-0.7,1.6-1.6,1.6H34l1.6,2.8c0.4,0.8,0.2,1.8-0.6,2.2c-0.8,0.4-1.8,0.2-2.2-0.6
	c-2.7-4.6-4.6-8.1-6-10.4c-1.4-2.4-0.4-4.7,0.6-5.5C28.4,21.6,30,24.3,32.1,28L32.1,28z"/>
</svg>
