<?xml version="1.0" encoding="utf-8"?>
<!-- Generator: Adobe Illustrator 25.1.0, SVG Export Plug-In . SVG Version: 6.00 Build 0)  -->
<svg version="1.1" id="Layer_1" xmlns="http://www.w3.org/2000/svg" xmlns:xlink="http://www.w3.org/1999/xlink" x="0px" y="0px"
	 viewBox="0 0 150 150" style="enable-background:new 0 0 150 150;" xml:space="preserve">
<style type="text/css">
	.st0{fill:#6A6F82;}
</style>
<g id="g8252">
	<path id="path8175" class="st0" d="M42.1,78.9c0,5,3.1,7.9,7.6,7.9c2.2,0,4.2-0.6,5.2-2.3v2.3h4.2V63.2h-4.2v10
		c-1.1-1.7-3-2.6-5-2.4C45.3,70.8,42.1,73.8,42.1,78.9L42.1,78.9z M54.9,78.9c0,2.8-1.9,4.6-4.2,4.6s-4.2-1.8-4.2-4.6
		s1.9-4.7,4.2-4.7S54.9,76,54.9,78.9z"/>
	<path id="path8177" class="st0" d="M72.4,80.7c-0.3,1.7-1.9,2.9-3.7,2.7c-2.3,0-4.2-1.4-4.2-3.8h10.9c0.1-0.6,0.2-1.3,0.2-1.9
		c0-4.3-3-6.9-7.4-6.9c-4.2-0.2-7.8,3.1-8,7.3c0,0.2,0,0.4,0,0.6c0,5.1,3.5,8,8.6,8c3.7,0,6.3-1.6,7.4-4.6L72.4,80.7z M64.5,76.7
		c0.4-1.7,1.9-2.8,3.6-2.8c1.9,0,3.3,1.1,3.3,2.6v0.1H64.5z"/>
	<path id="path8179" class="st0" d="M88.3,80.7c-0.3,1.7-1.9,2.9-3.7,2.7c-2.3,0-4.2-1.4-4.2-3.8h10.9c0.1-0.6,0.2-1.3,0.2-1.9
		c0-4.3-3-6.9-7.4-6.9c-4.2-0.2-7.8,3.1-8,7.3c0,0.2,0,0.4,0,0.6c0,5.1,3.5,8,8.6,8c3.7,0,6.3-1.6,7.4-4.6L88.3,80.7z M80.4,76.7
		c0.4-1.7,1.9-2.8,3.6-2.8c1.9,0,3.3,1.1,3.3,2.6v0.1L80.4,76.7z"/>
	<path id="path8181" class="st0" d="M106.6,86.8v-3.9h-9l8.8-8.6v-3.5H92.6v3.7h8.6l-8.9,8.6v3.7H106.6z"/>
	<path id="path8183" class="st0" d="M119.2,80.7c-0.3,1.7-1.9,2.9-3.7,2.7c-2.3,0-4.2-1.4-4.2-3.8h10.9c0.1-0.6,0.2-1.3,0.2-1.9
		c0-4.3-3-6.9-7.4-6.9c-4.2-0.2-7.8,3.1-8,7.3c0,0.2,0,0.4,0,0.6c0,5.1,3.5,8,8.6,8c3.7,0,6.3-1.6,7.4-4.6L119.2,80.7z M111.3,76.7
		c0.4-1.7,1.9-2.8,3.6-2.8c1.9,0,3.3,1.1,3.3,2.6v0.1H111.3z"/>
	<rect id="rect8185" x="32.4" y="70.8" class="st0" width="5.3" height="3.1"/>
	<rect id="rect8192" x="32.4" y="75.1" class="st0" width="5.3" height="3.1"/>
	<rect id="rect8199" x="32.4" y="79.4" class="st0" width="5.3" height="3.1"/>
	<rect id="rect8206" x="13.2" y="83.7" class="st0" width="5.3" height="3.1"/>
	<rect id="rect8213" x="19.5" y="83.7" class="st0" width="5.3" height="3.1"/>
	<rect id="rect8220" x="26" y="83.7" class="st0" width="5.3" height="3.1"/>
	<rect id="rect8227" x="32.4" y="83.7" class="st0" width="5.3" height="3.1"/>
	<rect id="rect8234" x="26" y="79.4" class="st0" width="5.3" height="3.1"/>
	<rect id="rect8241" x="19.5" y="79.4" class="st0" width="5.3" height="3.1"/>
	<rect id="rect8248" x="19.5" y="75.1" class="st0" width="5.3" height="3.1"/>
	<path id="path8250" class="st0" d="M132.6,76.4v0.4h4.2v-1.2c0.2-2.5-1.7-4.6-4.2-4.7c-0.2,0-0.3,0-0.5,0c-1.7-0.1-3.2,0.9-3.8,2.4
		v-2.4h-4.4v15.9h4.3V76.5c0-1.7,0.8-2.5,2.2-2.5C131.7,74.1,132.6,75.1,132.6,76.4z"/>
</g>
<path class="st0" d="M44.5,31.5c-0.6,0.3-1.3,0.5-1.9,0.5c-1.7,0.1-3.1-1.1-3.2-2.8c0-0.2,0-0.3,0-0.5c-0.1-1.8,1.3-3.4,3.2-3.5
	c0.1,0,0.2,0,0.4,0c0.5,0,1.1,0.1,1.6,0.3l-0.3,0.9c-0.4-0.3-0.9-0.4-1.4-0.3c-1.3,0-2.3,1-2.3,2.3c0,0.1,0,0.2,0,0.2
	c-0.1,1.2,0.9,2.3,2.1,2.4c0.1,0,0.1,0,0.2,0c0.5,0,1-0.1,1.5-0.3L44.5,31.5z"/>
<path class="st0" d="M51.6,28.4c0.1,1.8-1.2,3.4-3,3.5c-0.1,0-0.1,0-0.2,0c-1.7,0-3-1.3-3.1-2.9c0-0.1,0-0.3,0-0.4
	c-0.2-1.8,1.1-3.3,2.9-3.5c0.1,0,0.2,0,0.3,0c1.7,0,3,1.3,3.1,2.9C51.6,28.1,51.6,28.2,51.6,28.4z M46.4,28.5
	c-0.1,1.2,0.7,2.3,2,2.5c0,0,0,0,0,0c1.2-0.2,2.1-1.3,2-2.5c0-1.1-0.6-2.5-1.9-2.5C47.2,26.1,46.3,27.2,46.4,28.5
	C46.4,28.4,46.4,28.5,46.4,28.5z"/>
<path class="st0" d="M53.1,27c0-0.6,0-1.2-0.1-1.8h1l0.1,1l0,0c0.4-0.7,1.2-1.1,2-1.2c0.8-0.1,1.6,0.4,1.8,1.2l0,0
	c0.2-0.3,0.4-0.6,0.7-0.8c0.4-0.3,0.8-0.4,1.3-0.4c0.9,0,2,0.6,2,2.8v3.8h-1.2v-3.7c0-1.3-0.5-2-1.4-2c-0.7,0-1.3,0.5-1.4,1.1
	C58,27.2,58,27.4,58,27.6v4h-1.2v-3.9c0-1-0.5-1.8-1.4-1.8c-0.7,0.1-1.3,0.6-1.5,1.3c-0.1,0.2-0.1,0.4-0.1,0.6v3.9h-0.7L53.1,27z"/>
<path class="st0" d="M65.6,23.4c0,0.5-0.3,0.7-0.8,0.7c-0.4,0-0.7-0.3-0.7-0.6c0,0,0,0,0-0.1c0-0.4,0.3-0.7,0.7-0.7
	C65.2,22.7,65.6,23,65.6,23.4z M64.4,31.7v-6.5h1.3v6.5L64.4,31.7z"/>
<path class="st0" d="M67.4,27c0-0.6,0-1.2-0.1-1.8h1l0.1,1.1l0,0c0.4-0.7,1.2-1.2,2.1-1.3c0.9,0,2.3,0.5,2.3,2.9v3.9h-1.2V28
	c0-1-0.5-1.9-1.5-1.9c-0.7,0-1.4,0.5-1.6,1.3v4.4h-1.3V27H67.4z"/>
<path class="st0" d="M80.5,25.2c0,0.5-0.1,1-0.1,1.8v3.8c0.1,1.1-0.2,2.2-0.9,3c-0.7,0.6-1.5,0.9-2.4,0.8c-0.7,0-1.5-0.2-2.2-0.5
	l0.3-0.9c0.6,0.4,1.3,0.5,1.9,0.5c1.3,0,2-0.6,2-2.3v-0.7l0,0c-0.5,0.7-1.2,1.1-2,1.1c-1.7-0.1-2.9-1.5-2.9-3.1c0,0,0,0,0,0
	c0-2.2,1.4-3.5,2.8-3.5c0.8,0,1.6,0.4,2,1.1l0,0l0.1-1L80.5,25.2z M79.3,27.8c0-0.2,0-0.5-0.1-0.5c-0.2-0.8-0.9-1.3-1.7-1.3
	c-1.1,0-1.9,1-1.9,2.5c0,1.3,0.6,2.3,1.9,2.3c0.7,0,1.4-0.5,1.6-1.3c0.1-0.2,0.1-0.4,0.1-0.6L79.3,27.8L79.3,27.8z"/>
<path class="st0" d="M85.1,30.4c0.5,0.3,1,0.4,1.6,0.5c0.9,0,1.3-0.5,1.3-1s-0.3-0.9-1.3-1.3c-1.3-0.5-1.7-1.1-1.7-1.8
	c0-1.1,1-2,2.1-1.9c0,0,0.1,0,0.1,0c0.6,0,1.1,0.2,1.6,0.5l-0.3,0.9c-0.4-0.3-0.8-0.4-1.3-0.5c-0.5-0.1-1.1,0.3-1.1,0.8
	c0,0,0,0,0,0.1c0,0.5,0.5,0.8,1.3,1.1c1.1,0.5,1.7,1,1.7,2s-0.9,1.9-2.4,1.9c-0.6,0-1.3-0.2-1.8-0.5L85.1,30.4z"/>
<path class="st0" d="M96.4,28.4c0.1,1.8-1.2,3.4-3,3.5c-0.1,0-0.1,0-0.2,0c-1.7,0-3-1.3-3.1-2.9c0-0.1,0-0.3,0-0.4
	c-0.2-1.8,1.1-3.3,2.9-3.5c0.1,0,0.2,0,0.3,0c1.7,0,3,1.3,3.1,2.9C96.5,28.1,96.5,28.2,96.4,28.4z M91.3,28.5
	c-0.1,1.2,0.7,2.3,2,2.5c0,0,0,0,0,0c1.2-0.1,2.2-1.2,2.1-2.5c0-1.1-0.6-2.5-1.9-2.5C91.9,26,91.3,27.2,91.3,28.5z"/>
<path class="st0" d="M103.8,28.4c0.1,1.8-1.2,3.4-3,3.5c-0.1,0-0.1,0-0.2,0c-1.7,0-3-1.3-3.1-2.9c0-0.1,0-0.3,0-0.4
	c-0.2-1.8,1.1-3.3,2.9-3.5c0.1,0,0.2,0,0.3,0c1.7,0,3,1.3,3.1,2.9C103.9,28.1,103.9,28.2,103.8,28.4z M98.7,28.5
	c-0.1,1.2,0.7,2.3,2,2.5c0,0,0,0,0,0c1.2-0.2,2.1-1.3,2-2.5c0-1.1-0.6-2.5-1.9-2.5C99.3,26,98.7,27.2,98.7,28.5z"/>
<path class="st0" d="M105.3,27c0-0.6,0-1.2-0.1-1.8h1l0.1,1.1l0,0c0.4-0.7,1.2-1.2,2.1-1.3c0.9,0,2.3,0.5,2.3,2.9v3.9h-1.3V28
	c0-1-0.4-1.9-1.5-1.9c-0.7,0-1.4,0.5-1.6,1.3c-0.1,0.2-0.1,0.4-0.1,0.6v3.9H105V27H105.3z"/>
</svg>
