<?xml version="1.0" encoding="utf-8"?>
<!-- Generator: Adobe Illustrator 25.1.0, SVG Export Plug-In . SVG Version: 6.00 Build 0)  -->
<svg version="1.1" id="Layer_1" xmlns="http://www.w3.org/2000/svg" xmlns:xlink="http://www.w3.org/1999/xlink" x="0px" y="0px"
	 viewBox="0 0 150 150" style="enable-background:new 0 0 150 150;" xml:space="preserve">
<style type="text/css">
	.st0{fill:#FF9425;}
</style>
<path class="st0" d="M29.9,54.6C18.6,54.7,9.5,63.8,9.6,75.1c0.1,11.3,9.2,20.4,20.5,20.3c11.2-0.1,20.3-9.2,20.3-20.4
	c0-11.2-9-20.4-20.3-20.4C30,54.6,30,54.6,29.9,54.6z M39.3,84c-0.3,0.6-1.1,0.8-1.6,0.4c0,0-0.1,0-0.1,0c-4.8-2.9-10.8-3.6-17.9-2
	c-0.7,0.1-1.4-0.3-1.5-1s0.3-1.4,1-1.5c7.8-1.8,14.4-1,19.8,2.3C39.5,82.7,39.6,83.4,39.3,84z M41.8,78.4c-0.5,0.7-1.5,1-2.2,0.5
	c-6.2-3.4-13.5-4.2-20.3-2.3c-0.9,0.2-1.8-0.2-2-1.1c-0.2-0.9,0.2-1.8,1.1-2c7.4-2.2,16.6-1.2,22.9,2.7C42,76.7,42.2,77.6,41.8,78.4
	z M42,72.6c-6.6-3.9-17.4-4.3-23.6-2.4c-1,0.3-2.1-0.3-2.4-1.3c-0.3-1,0.3-2.1,1.3-2.4c7.2-2.2,19.1-1.8,26.7,2.7
	c0.9,0.5,1.2,1.7,0.7,2.6c-0.4,0.9-1.5,1.4-2.5,0.9C42.2,72.7,42.1,72.6,42,72.6z M65,73.4c-3.5-0.8-4.1-1.4-4.1-2.7s1.1-2,2.7-2
	c1.8,0.1,3.4,0.7,4.8,1.8c0.1,0.1,0.1,0.1,0.2,0c0,0,0,0,0,0c0.1,0,0.1,0,0.2-0.1l1.7-2.4c0.1-0.1,0.1-0.2,0-0.3c0,0,0,0,0,0
	c-1.9-1.6-4.3-2.4-6.8-2.3c-3.8,0-6.4,2.3-6.4,5.5c0,3.5,2.3,4.7,6.2,5.7c3.4,0.8,3.9,1.4,3.9,2.6s-1.1,2.1-3,2.1
	c-2.1,0-4.1-0.8-5.6-2.3c-0.1-0.1-0.1-0.1-0.2-0.1c-0.1,0-0.1,0-0.2,0.1l-1.9,2.3c-0.1,0.1-0.1,0.2,0,0.3c0,0,0,0,0,0
	c2.1,1.9,4.9,3,7.7,3c4.1,0,6.7-2.2,6.7-5.7C71,76.1,69.3,74.4,65,73.4z M80.2,69.9c-1.7,0-3.3,0.8-4.4,2.1v-1.6
	c0-0.1-0.1-0.2-0.2-0.2h-3.1c-0.1,0-0.2,0.1-0.2,0.2v17.9c0,0.1,0.1,0.2,0.2,0.2h3.1c0.1,0,0.2-0.1,0.2-0.2v-5.6
	c1.1,1.3,2.7,2,4.4,2c3.3,0,6.6-2.5,6.6-7.4S83.5,69.9,80.2,69.9z M83.2,77.3c0,2.5-1.5,4.2-3.7,4.2c-2.3-0.2-4-2.3-3.8-4.6
	c0.2-2,1.8-3.6,3.8-3.8C81.7,73.1,83.2,74.9,83.2,77.3z M95.4,69.9c-4.1-0.1-7.5,3.2-7.6,7.4c0,0,0,0,0,0c-0.1,4.2,3.2,7.6,7.4,7.7
	c4.2,0.1,7.6-3.2,7.7-7.4C103,73.4,99.7,70,95.4,69.9C95.5,69.9,95.4,69.9,95.4,69.9z M95.4,81.5c-2.2,0-4-1.8-4-4
	c0-0.1,0-0.1,0-0.2c-0.2-2.2,1.5-4,3.6-4.2c0.1,0,0.2,0,0.3,0c2.2,0,4,1.8,4,4c0,0.1,0,0.1,0,0.2c0.2,2.1-1.3,4-3.4,4.2
	C95.7,81.5,95.6,81.5,95.4,81.5z M112,70.2h-3.4v-3.5c0-0.1-0.1-0.2-0.2-0.2h-3.1c-0.1,0-0.2,0.1-0.2,0.2v3.5h-1.5
	c-0.1,0-0.2,0.1-0.2,0.2v2.7c0,0.1,0.1,0.2,0.2,0.2h1.5v7c0,2.8,1.4,4.3,4.2,4.3c1,0,2-0.2,2.9-0.7c0.1,0,0.1-0.1,0.1-0.2v-2.6
	c0-0.1,0-0.2-0.1-0.2H112c-0.6,0.3-1.2,0.4-1.8,0.4c-0.7,0.1-1.4-0.4-1.5-1.1c0-0.1,0-0.2,0-0.4v-6.5h3.5c0.1,0,0.2-0.1,0.2-0.2
	v-2.7C112.2,70.3,112.1,70.2,112,70.2z M124.1,70.2v-0.4c0-1.3,0.5-1.8,1.6-1.8c0.6,0,1.2,0.1,1.8,0.3h0.2c0.1,0,0.1-0.1,0.1-0.2
	v-2.7c0-0.1-0.1-0.2-0.2-0.2c-0.8-0.3-1.7-0.4-2.6-0.4c-2.9,0-4.4,1.6-4.4,4.7v0.7h-1.5c-0.1,0-0.2,0.1-0.2,0.2v2.7
	c0,0.1,0.1,0.2,0.2,0.2h1.5v10.8c0,0.1,0.1,0.2,0.2,0.2h3.1c0.1,0,0.2-0.1,0.2-0.2V73.4h2.9l4.5,10.8c-0.5,1.1-1,1.4-1.7,1.4
	c-0.6,0-1.2-0.2-1.7-0.5h-0.2c-0.1,0-0.1,0-0.1,0.1l-1.1,2.3c-0.1,0.1,0,0.2,0.1,0.3c1,0.6,2.2,0.9,3.4,0.9c2.3,0,3.6-1.1,4.7-4
	l5.5-14.1v-0.2c0-0.1-0.1-0.1-0.2-0.1h-3.3c-0.1,0-0.2,0.1-0.2,0.2l-3.4,9.6l-3.7-9.6c0-0.1-0.1-0.1-0.2-0.1L124.1,70.2L124.1,70.2z
	 M117.1,70.2H114c-0.1,0-0.2,0.1-0.2,0.2v13.7c0,0.1,0.1,0.2,0.2,0.2h3.1c0.1,0,0.2-0.1,0.2-0.2V70.4
	C117.3,70.3,117.2,70.2,117.1,70.2z M115.5,64c-1.3,0-2.3,1-2.3,2.3s1,2.3,2.3,2.3c0,0,0,0,0,0c1.3,0,2.3-1,2.3-2.3
	S116.8,64,115.5,64C115.5,64,115.5,64,115.5,64z"/>
</svg>
