<?xml version="1.0" encoding="utf-8"?>
<!-- Generator: Adobe Illustrator 25.1.0, SVG Export Plug-In . SVG Version: 6.00 Build 0)  -->
<svg version="1.1" id="Layer_1" xmlns="http://www.w3.org/2000/svg" xmlns:xlink="http://www.w3.org/1999/xlink" x="0px" y="0px"
	 viewBox="0 0 150 150" style="enable-background:new 0 0 150 150;" xml:space="preserve">
<style type="text/css">
	.st0{fill:#6A6F82;}
</style>
<path class="st0" d="M25.7,72.3c-0.2,0-0.4,0.2-0.4,0.4l-0.7,5.6l0.7,5.5c0,0.2,0.2,0.4,0.4,0.4c0.2,0,0.4-0.2,0.4-0.4l0,0l0.9-5.5
	l-0.9-5.6C26,72.4,25.9,72.3,25.7,72.3z M29.8,69.3c0-0.2-0.2-0.4-0.4-0.4c-0.2,0-0.4,0.2-0.4,0.4l-1,9.1l1,8.9
	c0,0.2,0.2,0.4,0.4,0.4c0.2,0,0.4-0.2,0.4-0.4l1.1-8.9L29.8,69.3z M45.4,61c-0.4,0-0.7,0.3-0.8,0.8l-0.8,16.7l0.9,10.6
	c0,0.4,0.4,0.8,0.8,0.8c0.4,0,0.7-0.3,0.8-0.8l0,0l0.9-10.8l-0.9-16.7C46.1,61.2,45.8,61,45.4,61z M37.3,66.7
	c-0.3,0-0.6,0.2-0.6,0.6c0,0,0,0,0,0l-0.9,11L36.7,89c0,0.3,0.3,0.6,0.6,0.6c0.3,0,0.6-0.2,0.6-0.6c0,0,0,0,0,0l1-10.7l-1-11
	C37.9,67,37.7,66.7,37.3,66.7C37.4,66.6,37.3,66.6,37.3,66.7L37.3,66.7z M53.6,89.9c0.5,0,0.9-0.4,0.9-0.9l0,0l0.8-10.6l-0.8-22.2
	c0-0.5-0.4-0.9-0.9-0.9c-0.5,0-0.9,0.4-0.9,0.9L52,78.3L52.7,89C52.7,89.5,53.1,89.9,53.6,89.9L53.6,89.9z M70.5,89.9
	c0.7,0,1.3-0.6,1.3-1.3l0,0l0.5-10.3l-0.5-25.6c0-0.7-0.6-1.3-1.3-1.3c-0.7,0-1.3,0.6-1.3,1.3l-0.5,25.7l0.5,10.3
	C69.2,89.4,69.8,89.9,70.5,89.9L70.5,89.9z M62,89.9c0.6,0,1.1-0.5,1.1-1.1l0,0l0.7-10.4l-0.7-22.3c0-0.6-0.5-1.1-1.1-1.1
	c-0.6,0-1.1,0.5-1.1,1.1l-0.6,22.3l0.6,10.4C60.9,89.4,61.4,89.9,62,89.9z M41.4,89.8c0.4,0,0.6-0.3,0.7-0.7l1-10.8l-1-10.2
	c0-0.4-0.3-0.7-0.7-0.7s-0.7,0.3-0.7,0.7l0,0l-0.8,10.2l0.8,10.8C40.7,89.5,41,89.8,41.4,89.8L41.4,89.8z M33.4,89.2
	c0.3,0,0.5-0.2,0.5-0.4c0,0,0,0,0-0.1L35,78.3l-1.1-10.7c0-0.3-0.2-0.5-0.5-0.5s-0.5,0.2-0.5,0.5L32,78.3l0.9,10.4
	C32.9,88.9,33.1,89.1,33.4,89.2C33.4,89.2,33.4,89.2,33.4,89.2L33.4,89.2z M66.2,55.7c-0.6,0-1.2,0.5-1.2,1.1c0,0,0,0.1,0,0.1
	l-0.5,21.5L65,88.8c0,0.7,0.5,1.2,1.2,1.2c0.7,0,1.2-0.5,1.2-1.2l0,0L68,78.4l-0.6-21.5C67.4,56.3,66.9,55.7,66.2,55.7
	C66.3,55.7,66.2,55.7,66.2,55.7z M49.5,89.8c0.4,0,0.8-0.3,0.8-0.8c0,0,0,0,0,0l0.8-10.7l-0.8-20.5c0-0.4-0.3-0.8-0.8-0.8
	c0,0,0,0,0,0c-0.4,0-0.8,0.4-0.9,0.8l-0.7,20.5L48.7,89C48.7,89.5,49.1,89.8,49.5,89.8z M58.8,88.8L58.8,88.8l0.7-10.5l-0.7-22.9
	c0-0.6-0.4-1-1-1c-0.5,0-1,0.4-1,0.9c0,0,0,0.1,0,0.1l-0.6,22.9l0.6,10.5c0,0.6,0.4,1,1,1c0.5,0,1-0.4,1-0.9
	C58.8,88.9,58.8,88.9,58.8,88.8z M113,65.2c-1.7,0-3.3,0.3-4.8,1c-1-11.3-10.5-19.9-21.8-19.9c-2.7,0-5.4,0.5-7.9,1.5
	c-0.9,0.4-1.2,0.7-1.2,1.5v39.4c0,0.8,0.6,1.4,1.3,1.5H113c6.9,0,12.5-5.6,12.5-12.5S119.9,65.2,113,65.2z M74.7,49
	c-0.8,0-1.4,0.6-1.4,1.4l-0.6,27.9l0.6,10.1c0,0.8,0.6,1.4,1.4,1.4s1.4-0.6,1.4-1.4l0,0l0.6-10.1l-0.6-27.9
	C76.1,49.7,75.5,49.1,74.7,49z M34.5,97.8c-1.5-0.3-1.9-0.5-1.9-1.1c0-0.4,0.3-0.8,1.3-0.8c0.8,0,1.6,0.4,2.1,1.1l1.3-1.3
	c-0.9-1-2.1-1.5-3.4-1.5c-1.8,0-3.3,1-3.3,2.7s1.2,2.4,2.9,2.8s2.1,0.7,2.1,1.3s-0.5,1-1.6,1c-0.9,0-1.8-0.4-2.4-1.1l-1.3,1.2
	c0.9,1.1,2.2,1.7,3.6,1.7c2.5,0,3.6-1.2,3.6-2.9C37.6,98.7,36,98.2,34.5,97.8L34.5,97.8z M43.1,94c-2.5,0-4,2-4,4.8s1.5,4.8,4,4.8
	s4-2,4-4.8S45.6,94.1,43.1,94z M43.1,101.7c-1.5,0-2.1-1.3-2.1-2.9s0.6-2.9,2.1-2.9s2.1,1.3,2.1,2.9S44.6,101.8,43.1,101.7z
	 M54.5,99.4c0,1.5-0.7,2.4-1.9,2.4s-1.9-0.9-1.9-2.4v-5.2h-1.9v5.2c0,2.7,1.5,4.2,3.7,4.2c2.4,0,3.8-1.5,3.8-4.2v-5.2h-1.9
	L54.5,99.4L54.5,99.4z M64.4,98.1v2c-0.1-0.2-0.4-0.7-0.6-1l-3.3-4.9h-1.8v9.3h1.8v-6.1c0.1,0.2,0.4,0.7,0.6,1l3.4,5.1h1.7v-9.3
	h-1.8V98.1z M71.5,94.2h-2.9v9.3h2.8c2.4,0.2,4.5-1.6,4.7-4c0-0.2,0-0.4,0-0.5C76.1,95.4,74.1,94.3,71.5,94.2L71.5,94.2z
	 M71.4,101.6h-0.9V96h1c2,0,2.8,0.9,2.8,2.8S73.3,101.7,71.4,101.6L71.4,101.6z M81.8,96c0.7,0,1.4,0.4,1.7,1l1.7-0.8
	c-0.6-1.3-2-2.1-3.4-2c-2.4,0-4.1,2-4.1,4.8s1.6,4.8,4,4.8c1.5,0.1,2.8-0.8,3.4-2.1l-1.6-0.9c-0.3,0.7-1,1.2-1.8,1.2
	c-1.4,0-2.2-1.3-2.2-2.9C79.6,97.2,80.4,96,81.8,96z M88.7,94.3h-1.9v9.3h5.6v-1.8h-3.7C88.7,101.8,88.7,94.3,88.7,94.3z M97.3,94.1
	c-2.5,0-4,2-4,4.8s1.5,4.8,4,4.8s4-2,4-4.8S99.8,94.1,97.3,94.1z M97.3,101.8c-1.5,0-2.1-1.3-2.1-2.9s0.6-2.9,2.1-2.9
	s2.1,1.3,2.1,2.9S98.8,101.8,97.3,101.8L97.3,101.8z M108.8,99.5c0,1.5-0.7,2.4-1.9,2.4s-1.9-0.9-1.9-2.4v-5.2h-1.9v5.2
	c0,2.7,1.5,4.2,3.7,4.2c2.4,0,3.8-1.5,3.8-4.2v-5.2h-1.9v5.2H108.8z M115.8,94.3h-2.9v9.3h2.8c2.4,0.2,4.5-1.6,4.7-4
	c0-0.2,0-0.4,0-0.6C120.4,95.5,118.5,94.3,115.8,94.3z M115.7,101.7h-0.9V96h1c2,0,2.8,0.9,2.8,2.8S117.6,101.7,115.7,101.7
	L115.7,101.7z"/>
<path class="st0" d="M44.5,31.5c-0.6,0.3-1.3,0.5-1.9,0.5c-1.7,0.1-3.1-1.1-3.2-2.8c0-0.2,0-0.3,0-0.5c-0.1-1.8,1.3-3.4,3.2-3.5
	c0.1,0,0.2,0,0.4,0c0.5,0,1.1,0.1,1.6,0.3l-0.3,0.9c-0.4-0.3-0.9-0.4-1.4-0.3c-1.3,0-2.3,1-2.3,2.3c0,0.1,0,0.2,0,0.2
	c-0.1,1.2,0.9,2.3,2.1,2.4c0.1,0,0.1,0,0.2,0c0.5,0,1-0.1,1.5-0.3L44.5,31.5z"/>
<path class="st0" d="M51.6,28.4c0.1,1.8-1.2,3.4-3,3.5c-0.1,0-0.1,0-0.2,0c-1.7,0-3-1.3-3.1-2.9c0-0.1,0-0.3,0-0.4
	c-0.2-1.8,1.1-3.3,2.9-3.5c0.1,0,0.2,0,0.3,0c1.7,0,3,1.3,3.1,2.9C51.6,28.1,51.6,28.2,51.6,28.4z M46.4,28.5
	c-0.1,1.2,0.7,2.3,2,2.5c0,0,0,0,0,0c1.2-0.2,2.1-1.3,2-2.5c0-1.1-0.6-2.5-1.9-2.5C47.2,26.1,46.3,27.2,46.4,28.5
	C46.4,28.4,46.4,28.5,46.4,28.5z"/>
<path class="st0" d="M53.1,27c0-0.6,0-1.2-0.1-1.8h1l0.1,1l0,0c0.4-0.7,1.2-1.1,2-1.2c0.8-0.1,1.6,0.4,1.8,1.2l0,0
	c0.2-0.3,0.4-0.6,0.7-0.8c0.4-0.3,0.8-0.4,1.3-0.4c0.9,0,2,0.6,2,2.8v3.8h-1.2v-3.7c0-1.3-0.5-2-1.4-2c-0.7,0-1.3,0.5-1.4,1.1
	C58,27.2,58,27.4,58,27.6v4h-1.2v-3.9c0-1-0.5-1.8-1.4-1.8c-0.7,0.1-1.3,0.6-1.5,1.3c-0.1,0.2-0.1,0.4-0.1,0.6v3.9h-0.7L53.1,27z"/>
<path class="st0" d="M65.6,23.4c0,0.5-0.3,0.7-0.8,0.7c-0.4,0-0.7-0.3-0.7-0.6c0,0,0,0,0-0.1c0-0.4,0.3-0.7,0.7-0.7
	C65.2,22.7,65.6,23,65.6,23.4z M64.4,31.7v-6.5h1.3v6.5L64.4,31.7z"/>
<path class="st0" d="M67.4,27c0-0.6,0-1.2-0.1-1.8h1l0.1,1.1l0,0c0.4-0.7,1.2-1.2,2.1-1.3c0.9,0,2.3,0.5,2.3,2.9v3.9h-1.2V28
	c0-1-0.5-1.9-1.5-1.9c-0.7,0-1.4,0.5-1.6,1.3v4.4h-1.3V27H67.4z"/>
<path class="st0" d="M80.5,25.2c0,0.5-0.1,1-0.1,1.8v3.8c0.1,1.1-0.2,2.2-0.9,3c-0.7,0.6-1.5,0.9-2.4,0.8c-0.7,0-1.5-0.2-2.2-0.5
	l0.3-0.9c0.6,0.4,1.3,0.5,1.9,0.5c1.3,0,2-0.6,2-2.3v-0.7l0,0c-0.5,0.7-1.2,1.1-2,1.1c-1.7-0.1-2.9-1.5-2.9-3.1c0,0,0,0,0,0
	c0-2.2,1.4-3.5,2.8-3.5c0.8,0,1.6,0.4,2,1.1l0,0l0.1-1L80.5,25.2z M79.3,27.8c0-0.2,0-0.5-0.1-0.5c-0.2-0.8-0.9-1.3-1.7-1.3
	c-1.1,0-1.9,1-1.9,2.5c0,1.3,0.6,2.3,1.9,2.3c0.7,0,1.4-0.5,1.6-1.3c0.1-0.2,0.1-0.4,0.1-0.6L79.3,27.8L79.3,27.8z"/>
<path class="st0" d="M85.1,30.4c0.5,0.3,1,0.4,1.6,0.5c0.9,0,1.3-0.5,1.3-1s-0.3-0.9-1.3-1.3c-1.3-0.5-1.7-1.1-1.7-1.8
	c0-1.1,1-2,2.1-1.9c0,0,0.1,0,0.1,0c0.6,0,1.1,0.2,1.6,0.5l-0.3,0.9c-0.4-0.3-0.8-0.4-1.3-0.5c-0.5-0.1-1.1,0.3-1.1,0.8
	c0,0,0,0,0,0.1c0,0.5,0.5,0.8,1.3,1.1c1.1,0.5,1.7,1,1.7,2s-0.9,1.9-2.4,1.9c-0.6,0-1.3-0.2-1.8-0.5L85.1,30.4z"/>
<path class="st0" d="M96.4,28.4c0.1,1.8-1.2,3.4-3,3.5c-0.1,0-0.1,0-0.2,0c-1.7,0-3-1.3-3.1-2.9c0-0.1,0-0.3,0-0.4
	c-0.2-1.8,1.1-3.3,2.9-3.5c0.1,0,0.2,0,0.3,0c1.7,0,3,1.3,3.1,2.9C96.5,28.1,96.5,28.2,96.4,28.4z M91.3,28.5
	c-0.1,1.2,0.7,2.3,2,2.5c0,0,0,0,0,0c1.2-0.1,2.2-1.2,2.1-2.5c0-1.1-0.6-2.5-1.9-2.5C91.9,26,91.3,27.2,91.3,28.5z"/>
<path class="st0" d="M103.8,28.4c0.1,1.8-1.2,3.4-3,3.5c-0.1,0-0.1,0-0.2,0c-1.7,0-3-1.3-3.1-2.9c0-0.1,0-0.3,0-0.4
	c-0.2-1.8,1.1-3.3,2.9-3.5c0.1,0,0.2,0,0.3,0c1.7,0,3,1.3,3.1,2.9C103.9,28.1,103.9,28.2,103.8,28.4z M98.7,28.5
	c-0.1,1.2,0.7,2.3,2,2.5c0,0,0,0,0,0c1.2-0.2,2.1-1.3,2-2.5c0-1.1-0.6-2.5-1.9-2.5C99.3,26,98.7,27.2,98.7,28.5z"/>
<path class="st0" d="M105.3,27c0-0.6,0-1.2-0.1-1.8h1l0.1,1.1l0,0c0.4-0.7,1.2-1.2,2.1-1.3c0.9,0,2.3,0.5,2.3,2.9v3.9h-1.3V28
	c0-1-0.4-1.9-1.5-1.9c-0.7,0-1.4,0.5-1.6,1.3c-0.1,0.2-0.1,0.4-0.1,0.6v3.9H105V27H105.3z"/>
</svg>
