<svg id="Layer_1" data-name="Layer 1" xmlns="http://www.w3.org/2000/svg" viewBox="0 0 150 150"><defs><style>.cls-1{fill:#6a6f82;}</style></defs><path class="cls-1" d="M65.65,88.35V69.87H65.5L58.15,88.35H55.24L47.82,69.87h-.14V88.35H44.26v-25h4.36l7.93,20h.15l7.93-20h4.51v25Zm22.84,0H84.92V85.22h-.14a5.76,5.76,0,0,1-5.6,3.42c-3.93,0-6.33-2.62-6.33-6.84V69.94h3.78V81c0,2.69,1.38,4.29,3.86,4.29,2.69,0,4.29-1.89,4.29-4.72V69.94h3.71V88.35ZM98.67,69.73c4.29,0,6.84,2.32,7,5.74h-3.42c-.22-1.82-1.46-2.91-3.57-2.91s-3.42,1-3.42,2.48c0,1.09.8,1.89,2.7,2.32l2.91.66c3.71.8,5.09,2.33,5.09,5,0,3.27-3.06,5.6-7.2,5.6-4.51,0-7.21-2.18-7.57-5.75h3.71c.22,1.89,1.67,2.91,3.86,2.91s3.56-1,3.56-2.47c0-1.24-.65-1.89-2.62-2.33l-2.91-.66c-3.42-.8-5.09-2.47-5.09-5.16C91.69,71.91,94.38,69.73,98.67,69.73Zm10-4.51A2.19,2.19,0,0,1,110.89,63a2.19,2.19,0,1,1,0,4.37,2.19,2.19,0,0,1-2.18-2.18Zm.22,4.72h3.71V88.35h-3.71Zm19.42,6.33a4.26,4.26,0,0,0-4.29-3.56c-2.91,0-4.73,2.47-4.73,6.33s1.89,6.33,4.73,6.33A4.11,4.11,0,0,0,128.35,82h3.57c-.44,3.85-3.42,6.54-7.79,6.54-5.16,0-8.43-3.56-8.43-9.45s3.27-9.46,8.43-9.46c4.66,0,7.42,3.06,7.79,6.55l-3.57.14ZM32.91,65.8A5.12,5.12,0,0,1,29,67.69a6,6,0,0,1,1.38-4.29,5.51,5.51,0,0,1,3.93-2,7.69,7.69,0,0,1-1.38,4.44Zm1.31,2.11a6,6,0,0,1,5,2.69,6.46,6.46,0,0,0-2.91,5.16,6.08,6.08,0,0,0,3.56,5.53A15.09,15.09,0,0,1,38,85.15c-1.09,1.67-2.33,3.27-4.07,3.27s-2.33-1.09-4.37-1.09-2.69,1.09-4.36,1.09S22.07,86.6,20.91,85c-2.33-3.42-4.08-9.6-1.68-13.75a6.47,6.47,0,0,1,5.53-3.42c1.82,0,3.42,1.24,4.37,1.24s3-1.24,5.09-1.16Z"/><path class="cls-1" d="M44.45,31.45a3.81,3.81,0,0,1-1.94.45,3,3,0,0,1-3.19-3.3,3.35,3.35,0,0,1,3.53-3.53,4.94,4.94,0,0,1,1.6.34l-.35.91A2.22,2.22,0,0,0,42.74,26a2.28,2.28,0,0,0-2.28,2.51,2.25,2.25,0,0,0,2.28,2.39,4.13,4.13,0,0,0,1.48-.34Z"/><path class="cls-1" d="M51.61,28.37a3.26,3.26,0,0,1-3.18,3.53,3,3,0,0,1-3.07-3.3,3.21,3.21,0,0,1,3.18-3.53A3,3,0,0,1,51.61,28.37Zm-5.23.12a2.24,2.24,0,0,0,2,2.5,2.32,2.32,0,0,0,2-2.5c0-1.14-.57-2.51-1.94-2.51A2.25,2.25,0,0,0,46.38,28.49Z"/><path class="cls-1" d="M53.09,27A9.47,9.47,0,0,0,53,25.19h1l.12,1h0A2.58,2.58,0,0,1,56.17,25,1.75,1.75,0,0,1,58,26.21h0a2.44,2.44,0,0,1,.68-.8A2,2,0,0,1,60,25c.91,0,2,.57,2,2.84v3.76H60.83V27.92c0-1.25-.45-2.05-1.36-2.05A1.34,1.34,0,0,0,58.1,27a1.27,1.27,0,0,0-.11.57v4H56.74V27.69c0-1-.46-1.82-1.37-1.82a1.69,1.69,0,0,0-1.48,1.25,1.29,1.29,0,0,0-.11.57v3.87h-.69Z"/><path class="cls-1" d="M65.61,23.37c0,.45-.34.68-.79.68a.66.66,0,0,1-.69-.68.73.73,0,0,1,.69-.69A.76.76,0,0,1,65.61,23.37Zm-1.25,8.3V25.19h1.25v6.48Z"/><path class="cls-1" d="M67.43,27a9.47,9.47,0,0,0-.11-1.82h1l.12,1.13h0a2.6,2.6,0,0,1,2.05-1.25c.91,0,2.27.46,2.27,2.85v3.87H71.53V28c0-1-.46-1.93-1.48-1.93a1.69,1.69,0,0,0-1.59,1.25v4.44H67.2V27Z"/><path class="cls-1" d="M80.52,25.19c0,.45-.11,1-.11,1.82v3.75a4,4,0,0,1-.92,3,3.34,3.34,0,0,1-2.38.8,6,6,0,0,1-2.17-.46l.34-.91a3.29,3.29,0,0,0,1.94.46c1.25,0,2-.57,2-2.28v-.68h0a2.69,2.69,0,0,1-2,1.14,3,3,0,0,1-2.85-3.19c0-2.16,1.37-3.53,2.85-3.53a2.2,2.2,0,0,1,2,1.14h0l.11-1ZM79.27,27.8c0-.22,0-.45-.12-.45a1.73,1.73,0,0,0-1.7-1.25c-1.14,0-1.94,1-1.94,2.5,0,1.25.57,2.28,1.94,2.28A1.68,1.68,0,0,0,79,29.63a1.29,1.29,0,0,0,.11-.57l.12-1.26Z"/><path class="cls-1" d="M85.07,30.42a3.28,3.28,0,0,0,1.59.46c.91,0,1.26-.46,1.26-1s-.35-.91-1.26-1.25c-1.25-.45-1.7-1.14-1.7-1.82a2,2,0,0,1,2.16-1.93,2.92,2.92,0,0,1,1.59.45l-.34.91a2,2,0,0,0-1.25-.45,1,1,0,0,0-1.14.91c0,.45.46.79,1.25,1.13,1.14.46,1.71,1,1.71,2.05s-.91,1.94-2.39,1.94a4.24,4.24,0,0,1-1.82-.46Z"/><path class="cls-1" d="M96.45,28.37a3.27,3.27,0,0,1-3.19,3.53,3,3,0,0,1-3.07-3.3,3.21,3.21,0,0,1,3.19-3.53A3,3,0,0,1,96.45,28.37Zm-5.12.12a2.24,2.24,0,0,0,2,2.5,2.32,2.32,0,0,0,2.05-2.5c0-1.14-.57-2.51-1.94-2.51C91.9,26,91.33,27.24,91.33,28.49Z"/><path class="cls-1" d="M103.85,28.37a3.27,3.27,0,0,1-3.19,3.53,3,3,0,0,1-3.07-3.3,3.21,3.21,0,0,1,3.19-3.53A3,3,0,0,1,103.85,28.37Zm-5.12.12a2.24,2.24,0,0,0,2,2.5,2.32,2.32,0,0,0,2-2.5c0-1.14-.57-2.51-1.93-2.51C99.3,26,98.73,27.24,98.73,28.49Z"/><path class="cls-1" d="M105.33,27a8.69,8.69,0,0,0-.12-1.82h1l.11,1.13h0a2.62,2.62,0,0,1,2.05-1.25c.91,0,2.28.46,2.28,2.85v3.87h-1.26V28c0-1-.45-1.93-1.48-1.93a1.71,1.71,0,0,0-1.59,1.25.87.87,0,0,0-.11.57v3.87H105V27Z"/></svg>