<?xml version="1.0" encoding="utf-8"?>
<!-- Generator: Adobe Illustrator 25.1.0, SVG Export Plug-In . SVG Version: 6.00 Build 0)  -->
<svg version="1.1" id="Layer_1" xmlns="http://www.w3.org/2000/svg" xmlns:xlink="http://www.w3.org/1999/xlink" x="0px" y="0px"
	 viewBox="0 0 150 150" style="enable-background:new 0 0 150 150;" xml:space="preserve">
<style type="text/css">
	.st0{fill:#6A6F82;}
</style>
<path class="st0" d="M65.7,88.3V69.9h-0.2l-7.3,18.5h-2.9l-7.4-18.5h-0.1v18.5h-3.4v-25h4.4l7.9,20h0.2l7.9-20h4.5v25H65.7z
	 M88.5,88.3h-3.6v-3.1h-0.1c-1,2.2-3.2,3.6-5.6,3.4c-3.9,0-6.3-2.6-6.3-6.8V69.9h3.8V81c0,2.7,1.4,4.3,3.9,4.3
	c2.7,0,4.3-1.9,4.3-4.7V69.9h3.7C88.5,69.9,88.5,88.3,88.5,88.3z M98.7,69.7c4.3,0,6.8,2.3,7,5.7h-3.4c-0.2-1.8-1.5-2.9-3.6-2.9
	s-3.4,1-3.4,2.5c0,1.1,0.8,1.9,2.7,2.3l2.9,0.7c3.7,0.8,5.1,2.3,5.1,5c0,3.3-3.1,5.6-7.2,5.6c-4.5,0-7.2-2.2-7.6-5.8h3.7
	c0.2,1.9,1.7,2.9,3.9,2.9s3.6-1,3.6-2.5c0-1.2-0.7-1.9-2.6-2.3l-2.9-0.7c-3.4-0.8-5.1-2.5-5.1-5.2C91.7,71.9,94.4,69.7,98.7,69.7z
	 M108.7,65.2c0-1.2,1-2.2,2.2-2.2c0,0,0,0,0.1,0c1.2-0.1,2.3,0.8,2.3,2s-0.8,2.3-2,2.3c-0.1,0-0.2,0-0.3,0
	C109.7,67.4,108.7,66.4,108.7,65.2L108.7,65.2z M108.9,69.9h3.7v18.4h-3.7V69.9z M128.3,76.3c-0.3-2.1-2.2-3.6-4.3-3.6
	c-2.9,0-4.7,2.5-4.7,6.3s1.9,6.3,4.7,6.3c2.1,0.1,4-1.3,4.3-3.4h3.6c-0.4,3.8-3.4,6.5-7.8,6.5c-5.2,0-8.4-3.6-8.4-9.4
	s3.3-9.5,8.4-9.5c4.7,0,7.4,3.1,7.8,6.6L128.3,76.3L128.3,76.3z M32.9,65.8c-1,1.2-2.4,1.9-3.9,1.9c-0.1-1.6,0.4-3.1,1.4-4.3
	c1-1.2,2.4-1.9,3.9-2C34.3,63,33.8,64.5,32.9,65.8L32.9,65.8z M34.2,67.9c2,0,3.9,1,5,2.7c-1.7,1.1-2.8,3.1-2.9,5.2
	c0,2.4,1.4,4.5,3.6,5.5c-0.4,1.4-1.1,2.7-1.9,3.9c-1.1,1.7-2.3,3.3-4.1,3.3s-2.3-1.1-4.4-1.1s-2.7,1.1-4.4,1.1s-3.1-1.8-4.3-3.4
	c-2.3-3.4-4.1-9.6-1.7-13.8c1.1-2.1,3.2-3.4,5.5-3.4c1.8,0,3.4,1.2,4.4,1.2S32.1,67.8,34.2,67.9z"/>
<path class="st0" d="M44.5,31.5c-0.6,0.3-1.3,0.5-1.9,0.5c-1.7,0.1-3.1-1.1-3.2-2.8c0-0.2,0-0.3,0-0.5c-0.1-1.8,1.3-3.4,3.2-3.5
	c0.1,0,0.2,0,0.4,0c0.5,0,1.1,0.1,1.6,0.3l-0.3,0.9c-0.4-0.3-0.9-0.4-1.4-0.3c-1.3,0-2.3,1-2.3,2.3c0,0.1,0,0.2,0,0.2
	c-0.1,1.2,0.9,2.3,2.1,2.4c0.1,0,0.1,0,0.2,0c0.5,0,1-0.1,1.5-0.3L44.5,31.5z"/>
<path class="st0" d="M51.6,28.4c0.1,1.8-1.2,3.4-3,3.5c-0.1,0-0.1,0-0.2,0c-1.7,0-3-1.3-3.1-2.9c0-0.1,0-0.3,0-0.4
	c-0.2-1.8,1.1-3.3,2.9-3.5c0.1,0,0.2,0,0.3,0c1.7,0,3,1.3,3.1,2.9C51.6,28.1,51.6,28.2,51.6,28.4z M46.4,28.5
	c-0.1,1.2,0.7,2.3,2,2.5c0,0,0,0,0,0c1.2-0.2,2.1-1.3,2-2.5c0-1.1-0.6-2.5-1.9-2.5C47.2,26.1,46.3,27.2,46.4,28.5
	C46.4,28.4,46.4,28.5,46.4,28.5z"/>
<path class="st0" d="M53.1,27c0-0.6,0-1.2-0.1-1.8h1l0.1,1l0,0c0.4-0.7,1.2-1.1,2-1.2c0.8-0.1,1.6,0.4,1.8,1.2l0,0
	c0.2-0.3,0.4-0.6,0.7-0.8c0.4-0.3,0.8-0.4,1.3-0.4c0.9,0,2,0.6,2,2.8v3.8h-1.2v-3.7c0-1.3-0.5-2-1.4-2c-0.7,0-1.3,0.5-1.4,1.1
	C58,27.2,58,27.4,58,27.6v4h-1.2v-3.9c0-1-0.5-1.8-1.4-1.8c-0.7,0.1-1.3,0.6-1.5,1.3c-0.1,0.2-0.1,0.4-0.1,0.6v3.9h-0.7L53.1,27z"/>
<path class="st0" d="M65.6,23.4c0,0.5-0.3,0.7-0.8,0.7c-0.4,0-0.7-0.3-0.7-0.6c0,0,0,0,0-0.1c0-0.4,0.3-0.7,0.7-0.7
	C65.2,22.7,65.6,23,65.6,23.4z M64.4,31.7v-6.5h1.3v6.5L64.4,31.7z"/>
<path class="st0" d="M67.4,27c0-0.6,0-1.2-0.1-1.8h1l0.1,1.1l0,0c0.4-0.7,1.2-1.2,2.1-1.3c0.9,0,2.3,0.5,2.3,2.9v3.9h-1.2V28
	c0-1-0.5-1.9-1.5-1.9c-0.7,0-1.4,0.5-1.6,1.3v4.4h-1.3V27H67.4z"/>
<path class="st0" d="M80.5,25.2c0,0.5-0.1,1-0.1,1.8v3.8c0.1,1.1-0.2,2.2-0.9,3c-0.7,0.6-1.5,0.9-2.4,0.8c-0.7,0-1.5-0.2-2.2-0.5
	l0.3-0.9c0.6,0.4,1.3,0.5,1.9,0.5c1.3,0,2-0.6,2-2.3v-0.7l0,0c-0.5,0.7-1.2,1.1-2,1.1c-1.7-0.1-2.9-1.5-2.9-3.1c0,0,0,0,0,0
	c0-2.2,1.4-3.5,2.8-3.5c0.8,0,1.6,0.4,2,1.1l0,0l0.1-1L80.5,25.2z M79.3,27.8c0-0.2,0-0.5-0.1-0.5c-0.2-0.8-0.9-1.3-1.7-1.3
	c-1.1,0-1.9,1-1.9,2.5c0,1.3,0.6,2.3,1.9,2.3c0.7,0,1.4-0.5,1.6-1.3c0.1-0.2,0.1-0.4,0.1-0.6L79.3,27.8L79.3,27.8z"/>
<path class="st0" d="M85.1,30.4c0.5,0.3,1,0.4,1.6,0.5c0.9,0,1.3-0.5,1.3-1s-0.3-0.9-1.3-1.3c-1.3-0.5-1.7-1.1-1.7-1.8
	c0-1.1,1-2,2.1-1.9c0,0,0.1,0,0.1,0c0.6,0,1.1,0.2,1.6,0.5l-0.3,0.9c-0.4-0.3-0.8-0.4-1.3-0.5c-0.5-0.1-1.1,0.3-1.1,0.8
	c0,0,0,0,0,0.1c0,0.5,0.5,0.8,1.3,1.1c1.1,0.5,1.7,1,1.7,2s-0.9,1.9-2.4,1.9c-0.6,0-1.3-0.2-1.8-0.5L85.1,30.4z"/>
<path class="st0" d="M96.4,28.4c0.1,1.8-1.2,3.4-3,3.5c-0.1,0-0.1,0-0.2,0c-1.7,0-3-1.3-3.1-2.9c0-0.1,0-0.3,0-0.4
	c-0.2-1.8,1.1-3.3,2.9-3.5c0.1,0,0.2,0,0.3,0c1.7,0,3,1.3,3.1,2.9C96.5,28.1,96.5,28.2,96.4,28.4z M91.3,28.5
	c-0.1,1.2,0.7,2.3,2,2.5c0,0,0,0,0,0c1.2-0.1,2.2-1.2,2.1-2.5c0-1.1-0.6-2.5-1.9-2.5C91.9,26,91.3,27.2,91.3,28.5z"/>
<path class="st0" d="M103.8,28.4c0.1,1.8-1.2,3.4-3,3.5c-0.1,0-0.1,0-0.2,0c-1.7,0-3-1.3-3.1-2.9c0-0.1,0-0.3,0-0.4
	c-0.2-1.8,1.1-3.3,2.9-3.5c0.1,0,0.2,0,0.3,0c1.7,0,3,1.3,3.1,2.9C103.9,28.1,103.9,28.2,103.8,28.4z M98.7,28.5
	c-0.1,1.2,0.7,2.3,2,2.5c0,0,0,0,0,0c1.2-0.2,2.1-1.3,2-2.5c0-1.1-0.6-2.5-1.9-2.5C99.3,26,98.7,27.2,98.7,28.5z"/>
<path class="st0" d="M105.3,27c0-0.6,0-1.2-0.1-1.8h1l0.1,1.1l0,0c0.4-0.7,1.2-1.2,2.1-1.3c0.9,0,2.3,0.5,2.3,2.9v3.9h-1.3V28
	c0-1-0.4-1.9-1.5-1.9c-0.7,0-1.4,0.5-1.6,1.3c-0.1,0.2-0.1,0.4-0.1,0.6v3.9H105V27H105.3z"/>
</svg>
