<svg id="Layer_1" data-name="Layer 1" xmlns="http://www.w3.org/2000/svg" viewBox="0 0 150 150"><defs><style>.cls-1{fill:#6a6f82;}</style></defs><path class="cls-1" d="M110.81,77.8a7.36,7.36,0,0,1-8.07-8.56,9.43,9.43,0,0,1,2.2-6.6,8.14,8.14,0,0,1,6.12-2.45,6.27,6.27,0,0,1,4.64,1.47,5.77,5.77,0,0,1,1.71,3.91,4.12,4.12,0,0,1-1.71,3.67,10.22,10.22,0,0,1-5.38,1.22,14.12,14.12,0,0,1-3.17-.24,5.12,5.12,0,0,0,1.22,3.18,5.64,5.64,0,0,0,3.42,1h1.71a11,11,0,0,0,2.45-.49h.24c.25,0,.49.24.49.73v2.2a.84.84,0,0,1-.49.24A21.76,21.76,0,0,1,110.81,77.8Zm-1-10.27a4.4,4.4,0,0,0,2.45-.49,1.74,1.74,0,0,0,.73-1.47c0-1.22-.73-1.95-2.44-1.95-2,0-3.18,1.22-3.67,3.91Z"/><path class="cls-1" d="M33.8,83.91c-.25,0-.49,0-.49-.24s-.25-.25-.25-.49V61.66c0-.24,0-.49.25-.49a.34.34,0,0,1,.49,0H36c.49,0,.73.25,1,.74l.24.73a11.72,11.72,0,0,1,2.2-1.47,8.9,8.9,0,0,1,2.69-.49A6.17,6.17,0,0,1,47,62.88,9,9,0,0,1,48.71,69a10.51,10.51,0,0,1-1,4.64,7.5,7.5,0,0,1-2.44,3.18,5.64,5.64,0,0,1-3.42,1,8.14,8.14,0,0,1-2.45-.25,3.37,3.37,0,0,1-2-1.22v7.58a.33.33,0,0,1-.48,0Zm7.09-9.78a3.11,3.11,0,0,0,2.69-1.22A7,7,0,0,0,44.31,69a11.09,11.09,0,0,0-.73-3.92,3.51,3.51,0,0,0-2.69-1.22,7.53,7.53,0,0,0-3.18.74v8.55a4.89,4.89,0,0,0,3.18,1Z"/><path class="cls-1" d="M53.36,77.31c-.25,0-.74,0-.74-.49V61.66c0-.24,0-.49.25-.49a.34.34,0,0,1,.49,0h2.2c.49,0,.73.25,1,.74l.24,1.71a9.52,9.52,0,0,1,2.44-2,7.4,7.4,0,0,1,2.45-.49h1a.88.88,0,0,1,.24.49v3.18a.84.84,0,0,1-.49.24H60.94a4.12,4.12,0,0,0-1.72.25,4.48,4.48,0,0,0-1.71.49V77.31a.84.84,0,0,1-.49.24l-3.66-.24Z"/><path class="cls-1" d="M67.78,58a2.75,2.75,0,0,1-2-.73,2.64,2.64,0,0,1-.74-1.71,2.23,2.23,0,0,1,.74-1.71,3,3,0,0,1,3.91,0,2.63,2.63,0,0,1,.73,1.71,2.22,2.22,0,0,1-.73,1.71A1.64,1.64,0,0,1,67.78,58ZM66.31,77.31c-.24,0-.73,0-.73-.49V61.66c0-.24,0-.49.25-.49H70a.34.34,0,0,1,0,.49V77.31a.84.84,0,0,1-.49.24Z"/><path class="cls-1" d="M75.12,77.31c-.25,0-.74,0-.74-.49V61.66c0-.24,0-.49.25-.49a.34.34,0,0,1,.49,0h2.2c.49,0,.73.25,1,.74l.25.73a12.89,12.89,0,0,1,3.18-1.47,8.9,8.9,0,0,1,2.69-.49,5.21,5.21,0,0,1,4.15,2,12.89,12.89,0,0,1,3.18-1.47,12.55,12.55,0,0,1,2.94-.49,4.57,4.57,0,0,1,3.42,1.23,5.84,5.84,0,0,1,1.22,3.42v12a.84.84,0,0,1-.49.24H95.9c-.25,0-.74,0-.74-.49V66.31c0-1.47-.48-2.2-2-2.2a7.76,7.76,0,0,0-3.42.73V77.06a.87.87,0,0,1-.49.25H86.12c-.25,0-.73,0-.73-.49V66.06c0-1.46-.49-2.2-2-2.2A7.77,7.77,0,0,0,80,64.6V76.82a.88.88,0,0,1-.49.24Z"/><path class="cls-1" d="M109.1,95.4c-9.29,6.85-22.74,10.51-34.47,10.51A62.72,62.72,0,0,1,32.82,90c-.73-.73,0-1.71,1-1.22a81,81,0,0,0,41.81,11,80.74,80.74,0,0,0,32-6.6C109.35,92.71,110.57,94.42,109.1,95.4Z"/><path class="cls-1" d="M113,91.25c-1.22-1.47-7.82-.74-10.75-.25-1,0-1-.73-.25-1.22,5.38-3.67,13.94-2.69,15.16-1.47,1,1.22-.25,10-5.38,14.18-.73.49-1.47.25-1.22-.49C111.79,98.82,114.24,92.71,113,91.25Z"/><path class="cls-1" d="M44.45,31.45a3.81,3.81,0,0,1-1.94.45,3,3,0,0,1-3.19-3.3,3.35,3.35,0,0,1,3.53-3.53,4.94,4.94,0,0,1,1.6.34l-.35.91A2.22,2.22,0,0,0,42.74,26a2.28,2.28,0,0,0-2.28,2.51,2.25,2.25,0,0,0,2.28,2.39,4.13,4.13,0,0,0,1.48-.34Z"/><path class="cls-1" d="M51.61,28.37a3.26,3.26,0,0,1-3.18,3.53,3,3,0,0,1-3.07-3.3,3.21,3.21,0,0,1,3.18-3.53A3,3,0,0,1,51.61,28.37Zm-5.23.12a2.24,2.24,0,0,0,2,2.5,2.32,2.32,0,0,0,2-2.5c0-1.14-.57-2.51-1.94-2.51A2.25,2.25,0,0,0,46.38,28.49Z"/><path class="cls-1" d="M53.09,27A9.47,9.47,0,0,0,53,25.19h1l.12,1h0A2.58,2.58,0,0,1,56.17,25,1.75,1.75,0,0,1,58,26.21h0a2.44,2.44,0,0,1,.68-.8A2,2,0,0,1,60,25c.91,0,2,.57,2,2.84v3.76H60.83V27.92c0-1.25-.45-2.05-1.36-2.05A1.34,1.34,0,0,0,58.1,27a1.27,1.27,0,0,0-.11.57v4H56.74V27.69c0-1-.46-1.82-1.37-1.82a1.69,1.69,0,0,0-1.48,1.25,1.29,1.29,0,0,0-.11.57v3.87h-.69Z"/><path class="cls-1" d="M65.61,23.37c0,.45-.34.68-.79.68a.66.66,0,0,1-.69-.68.73.73,0,0,1,.69-.69A.76.76,0,0,1,65.61,23.37Zm-1.25,8.3V25.19h1.25v6.48Z"/><path class="cls-1" d="M67.43,27a9.47,9.47,0,0,0-.11-1.82h1l.12,1.13h0a2.6,2.6,0,0,1,2.05-1.25c.91,0,2.27.46,2.27,2.85v3.87H71.53V28c0-1-.46-1.93-1.48-1.93a1.69,1.69,0,0,0-1.59,1.25v4.44H67.2V27Z"/><path class="cls-1" d="M80.52,25.19c0,.45-.11,1-.11,1.82v3.75a4,4,0,0,1-.92,3,3.34,3.34,0,0,1-2.38.8,6,6,0,0,1-2.17-.46l.34-.91a3.29,3.29,0,0,0,1.94.46c1.25,0,2-.57,2-2.28v-.68h0a2.69,2.69,0,0,1-2,1.14,3,3,0,0,1-2.85-3.19c0-2.16,1.37-3.53,2.85-3.53a2.2,2.2,0,0,1,2,1.14h0l.11-1ZM79.27,27.8c0-.22,0-.45-.12-.45a1.73,1.73,0,0,0-1.7-1.25c-1.14,0-1.94,1-1.94,2.5,0,1.25.57,2.28,1.94,2.28A1.68,1.68,0,0,0,79,29.63a1.29,1.29,0,0,0,.11-.57l.12-1.26Z"/><path class="cls-1" d="M85.07,30.42a3.28,3.28,0,0,0,1.59.46c.91,0,1.26-.46,1.26-1s-.35-.91-1.26-1.25c-1.25-.45-1.7-1.14-1.7-1.82a2,2,0,0,1,2.16-1.93,2.92,2.92,0,0,1,1.59.45l-.34.91a2,2,0,0,0-1.25-.45,1,1,0,0,0-1.14.91c0,.45.46.79,1.25,1.13,1.14.46,1.71,1,1.71,2.05s-.91,1.94-2.39,1.94a4.24,4.24,0,0,1-1.82-.46Z"/><path class="cls-1" d="M96.45,28.37a3.27,3.27,0,0,1-3.19,3.53,3,3,0,0,1-3.07-3.3,3.21,3.21,0,0,1,3.19-3.53A3,3,0,0,1,96.45,28.37Zm-5.12.12a2.24,2.24,0,0,0,2,2.5,2.32,2.32,0,0,0,2.05-2.5c0-1.14-.57-2.51-1.94-2.51C91.9,26,91.33,27.24,91.33,28.49Z"/><path class="cls-1" d="M103.85,28.37a3.27,3.27,0,0,1-3.19,3.53,3,3,0,0,1-3.07-3.3,3.21,3.21,0,0,1,3.19-3.53A3,3,0,0,1,103.85,28.37Zm-5.12.12a2.24,2.24,0,0,0,2,2.5,2.32,2.32,0,0,0,2-2.5c0-1.14-.57-2.51-1.93-2.51C99.3,26,98.73,27.24,98.73,28.49Z"/><path class="cls-1" d="M105.33,27a8.69,8.69,0,0,0-.12-1.82h1l.11,1.13h0a2.62,2.62,0,0,1,2.05-1.25c.91,0,2.28.46,2.28,2.85v3.87h-1.26V28c0-1-.45-1.93-1.48-1.93a1.71,1.71,0,0,0-1.59,1.25.87.87,0,0,0-.11.57v3.87H105V27Z"/></svg>