<?xml version="1.0" encoding="utf-8"?>
<!-- Generator: Adobe Illustrator 24.3.0, SVG Export Plug-In . SVG Version: 6.00 Build 0)  -->
<svg version="1.1" id="Layer_1" xmlns="http://www.w3.org/2000/svg" xmlns:xlink="http://www.w3.org/1999/xlink" x="0px" y="0px"
	 viewBox="0 0 133.2 47.9" style="enable-background:new 0 0 133.2 47.9;" xml:space="preserve">
<style type="text/css">
	.st0{fill:#6A6F82;}
	.st1{fill-rule:evenodd;clip-rule:evenodd;fill:#6A6F82;}
</style>
<g id="g8252" transform="translate(0,86.843818)">
	<path id="path8175" class="st0" d="M32.5-49.1c0,4.7,2.9,7.5,7.2,7.5c2.1,0,4-0.6,4.9-2.2v2.2h4V-64h-4v9.5c-1-1.6-2.6-2.3-4.7-2.3
		C35.5-56.8,32.5-53.9,32.5-49.1L32.5-49.1z M44.6-49.1c0,2.7-1.8,4.4-4,4.4c-2.3,0-4-1.7-4-4.4s1.8-4.4,4-4.4
		C42.8-53.5,44.6-51.9,44.6-49.1z"/>
	<path id="path8177" class="st0" d="M61.2-47.4c-0.4,1.8-1.7,2.6-3.5,2.6c-2.2,0-4-1.3-4-3.6H64c0.1-0.6,0.2-1.1,0.2-1.8
		c0-4.1-2.8-6.5-7-6.5c-4.5,0-7.6,3.2-7.6,7.5c0,4.8,3.3,7.6,8.1,7.6c3.5,0,6-1.5,7-4.4L61.2-47.4z M53.7-51.2
		c0.4-1.7,1.8-2.6,3.4-2.6c1.8,0,3.1,1,3.1,2.5v0.1H53.7z"/>
	<path id="path8179" class="st0" d="M76.3-47.4c-0.4,1.8-1.7,2.6-3.5,2.6c-2.2,0-4-1.3-4-3.6h10.3c0.1-0.6,0.2-1.1,0.2-1.8
		c0-4.1-2.8-6.5-7-6.5c-4.5,0-7.6,3.2-7.6,7.5c0,4.8,3.3,7.6,8.1,7.6c3.5,0,6-1.5,7-4.4L76.3-47.4z M68.8-51.2
		c0.4-1.7,1.8-2.6,3.4-2.6c1.8,0,3.1,1,3.1,2.5v0.1H68.8z"/>
	<path id="path8181" class="st0" d="M93.6-41.6v-3.7h-8.5l8.3-8.1v-3.3H80.3v3.5h8.1l-8.4,8.1v3.5H93.6z"/>
	<path id="path8183" class="st0" d="M105.5-47.4c-0.4,1.8-1.7,2.6-3.5,2.6c-2.2,0-4-1.3-4-3.6h10.3c0.1-0.6,0.2-1.1,0.2-1.8
		c0-4.1-2.8-6.5-7-6.5c-4.5,0-7.6,3.2-7.6,7.5c0,4.8,3.3,7.6,8.1,7.6c3.5,0,6-1.5,7-4.4L105.5-47.4z M98-51.2
		c0.4-1.7,1.8-2.6,3.4-2.6c1.8,0,3.1,1,3.1,2.5v0.1H98z"/>
	<rect id="rect8185" x="23.3" y="-56.8" class="st1" width="5" height="2.9"/>
	<rect id="rect8192" x="23.3" y="-52.7" class="st1" width="5" height="2.9"/>
	<rect id="rect8199" x="23.3" y="-48.6" class="st1" width="5" height="2.9"/>
	<rect id="rect8206" x="5.1" y="-44.6" class="st1" width="5" height="2.9"/>
	<rect id="rect8213" x="11.1" y="-44.6" class="st1" width="5" height="2.9"/>
	<rect id="rect8220" x="17.2" y="-44.6" class="st1" width="5" height="2.9"/>
	<rect id="rect8227" x="23.3" y="-44.6" class="st1" width="5" height="2.9"/>
	<rect id="rect8234" x="17.2" y="-48.6" class="st1" width="5" height="2.9"/>
	<rect id="rect8241" x="11.1" y="-48.6" class="st1" width="5" height="2.9"/>
	<rect id="rect8248" x="11.1" y="-52.7" class="st1" width="5" height="2.9"/>
	<path id="path8250" class="st0" d="M118.2-51.5c0,0.2,0,0.4,0,0.4h4c0,0,0-0.8,0-1.1c0-2.6-1.7-4.5-4.4-4.5c-1.8,0-3,0.9-3.6,2.3
		v-2.3H110v15.1h4.1v-9.8c0-1.6,0.8-2.4,2.1-2.4C117.4-53.7,118.2-52.7,118.2-51.5z"/>
</g>
<g>
	<path class="st0" d="M34.9,11.2c-0.3,0.2-0.9,0.4-1.7,0.4c-1.8,0-2.8-1.1-2.8-2.9s1.2-3.1,3.1-3.1c0.6,0,1.1,0.2,1.4,0.3l-0.3,0.8
		c-0.3-0.2-0.6-0.3-1.2-0.3c-1.3,0-2,1-2,2.2c0,1.3,0.9,2.1,2,2.1c0.6,0,1-0.2,1.3-0.3L34.9,11.2z"/>
	<path class="st0" d="M41.2,8.5c0,2.1-1.5,3.1-2.8,3.1c-1.6,0-2.7-1.1-2.7-2.9c0-1.9,1.2-3.1,2.8-3.1S41.2,6.7,41.2,8.5z M36.6,8.6
		c0,1.2,0.7,2.2,1.8,2.2c1,0,1.8-1,1.8-2.2c0-1-0.5-2.2-1.7-2.2C37.2,6.4,36.6,7.5,36.6,8.6z"/>
	<path class="st0" d="M42.5,7.3c0-0.6,0-1.1-0.1-1.6h0.9l0.1,0.9l0,0c0.4-0.5,0.9-1.1,1.8-1.1c0.8,0,1.4,0.4,1.6,1.1l0,0
		c0.2-0.4,0.4-0.5,0.6-0.7c0.4-0.3,0.7-0.4,1.2-0.4c0.8,0,1.8,0.5,1.8,2.5v3.3h-1.1V8.1c0-1.1-0.4-1.8-1.2-1.8c-0.6,0-1.1,0.4-1.2,1
		c-0.1,0.2-0.1,0.4-0.1,0.5v3.5h-1.1V7.9c0-0.9-0.4-1.6-1.2-1.6c-0.6,0-1.1,0.5-1.3,1.1c-0.1,0.2-0.1,0.4-0.1,0.5v3.4h-0.6V7.3z"/>
	<path class="st0" d="M53.5,4.1c0,0.4-0.3,0.6-0.7,0.6c-0.4,0-0.6-0.3-0.6-0.6s0.3-0.6,0.6-0.6C53.2,3.5,53.5,3.8,53.5,4.1z
		 M52.4,11.4V5.7h1.1v5.7H52.4z"/>
	<path class="st0" d="M55.1,7.3c0-0.6,0-1.1-0.1-1.6h0.9l0.1,1l0,0c0.3-0.5,1-1.1,1.8-1.1c0.8,0,2,0.4,2,2.5v3.4h-1.1V8.2
		c0-0.9-0.4-1.7-1.3-1.7c-0.7,0-1.2,0.5-1.4,1.1C56,7.7,56,7.9,56,8.1v3.4h-1.1V7.3H55.1z"/>
	<path class="st0" d="M66.6,5.7c0,0.4-0.1,0.9-0.1,1.6v3.3c0,1.3-0.3,2.1-0.8,2.6c-0.5,0.5-1.3,0.7-2.1,0.7c-0.7,0-1.4-0.2-1.9-0.4
		l0.3-0.8c0.4,0.3,1,0.4,1.7,0.4c1.1,0,1.8-0.5,1.8-2v-0.6l0,0c-0.4,0.5-1,1-1.8,1c-1.4,0-2.5-1.2-2.5-2.8c0-1.9,1.2-3.1,2.5-3.1
		c1,0,1.5,0.5,1.8,1l0,0l0.1-0.9H66.6z M65.5,8c0-0.2,0-0.4-0.1-0.4c-0.2-0.6-0.7-1.1-1.5-1.1c-1,0-1.7,0.9-1.7,2.2
		c0,1.1,0.5,2,1.7,2c0.6,0,1.2-0.4,1.4-1.1c0.1-0.2,0.1-0.4,0.1-0.5L65.5,8L65.5,8z"/>
	<path class="st0" d="M70.6,10.3c0.3,0.2,0.9,0.4,1.4,0.4c0.8,0,1.1-0.4,1.1-0.9s-0.3-0.8-1.1-1.1c-1.1-0.4-1.5-1-1.5-1.6
		c0-0.9,0.7-1.7,1.9-1.7c0.6,0,1.1,0.2,1.4,0.4l-0.3,0.8c-0.3-0.2-0.6-0.4-1.1-0.4c-0.6,0-1,0.4-1,0.8s0.4,0.7,1.1,1
		c1,0.4,1.5,0.9,1.5,1.8c0,1-0.8,1.7-2.1,1.7c-0.6,0-1.2-0.2-1.6-0.4L70.6,10.3z"/>
	<path class="st0" d="M80.6,8.5c0,2.1-1.5,3.1-2.8,3.1c-1.6,0-2.7-1.1-2.7-2.9c0-1.9,1.2-3.1,2.8-3.1C79.5,5.6,80.6,6.7,80.6,8.5z
		 M76.1,8.6c0,1.2,0.7,2.2,1.8,2.2c1,0,1.8-1,1.8-2.2c0-1-0.5-2.2-1.7-2.2C76.6,6.4,76.1,7.5,76.1,8.6z"/>
	<path class="st0" d="M87.1,8.5c0,2.1-1.5,3.1-2.8,3.1c-1.6,0-2.7-1.1-2.7-2.9c0-1.9,1.2-3.1,2.8-3.1C86,5.6,87.1,6.7,87.1,8.5z
		 M82.6,8.6c0,1.2,0.7,2.2,1.8,2.2c1,0,1.8-1,1.8-2.2c0-1-0.5-2.2-1.7-2.2C83.1,6.4,82.6,7.5,82.6,8.6z"/>
	<path class="st0" d="M88.4,7.3c0-0.6,0-1.1-0.1-1.6h0.9l0.1,1l0,0c0.3-0.5,1-1.1,1.8-1.1c0.8,0,2,0.4,2,2.5v3.4h-1.1V8.2
		c0-0.9-0.4-1.7-1.3-1.7c-0.7,0-1.2,0.5-1.4,1.1c-0.1,0.1-0.1,0.3-0.1,0.5v3.4h-1.1V7.3H88.4z"/>
</g>
</svg>
