<svg id="Layer_1" data-name="Layer 1" xmlns="http://www.w3.org/2000/svg" viewBox="0 0 150 150"><defs><style>.cls-1{fill:#ff9425;}</style></defs><path class="cls-1" d="M29.9,54.6A20.4,20.4,0,1,0,50.4,75,20.34,20.34,0,0,0,29.9,54.6ZM39.3,84a1.19,1.19,0,0,1-1.7.4c-4.8-2.9-10.8-3.6-17.9-2a1.27,1.27,0,1,1-.5-2.5c7.8-1.8,14.4-1,19.8,2.3A1.5,1.5,0,0,1,39.3,84Zm2.5-5.6a1.6,1.6,0,0,1-2.2.5,26.87,26.87,0,0,0-20.3-2.3,1.61,1.61,0,0,1-.9-3.1c7.4-2.2,16.6-1.2,22.9,2.7a1.73,1.73,0,0,1,.5,2.2Zm.2-5.8c-6.6-3.9-17.4-4.3-23.6-2.4a1.93,1.93,0,1,1-1.1-3.7c7.2-2.2,19.1-1.8,26.7,2.7a1.93,1.93,0,0,1,.7,2.6,1.86,1.86,0,0,1-2.7.8Zm23,.8c-3.5-.8-4.1-1.4-4.1-2.7s1.1-2,2.7-2a8,8,0,0,1,4.8,1.8.14.14,0,0,0,.2,0c.1,0,.1,0,.2-.1L70.5,68a.19.19,0,0,0,0-.3,10.38,10.38,0,0,0-6.8-2.3c-3.8,0-6.4,2.3-6.4,5.5,0,3.5,2.3,4.7,6.2,5.7,3.4.8,3.9,1.4,3.9,2.6s-1.1,2.1-3,2.1A8.12,8.12,0,0,1,58.8,79a.35.35,0,0,0-.2-.1c-.1,0-.1,0-.2.1l-1.9,2.3a.19.19,0,0,0,0,.3,11.82,11.82,0,0,0,7.7,3c4.1,0,6.7-2.2,6.7-5.7.1-2.8-1.6-4.5-5.9-5.5Zm15.2-3.5A5.49,5.49,0,0,0,75.8,72V70.4a.22.22,0,0,0-.2-.2H72.5a.22.22,0,0,0-.2.2V88.3a.22.22,0,0,0,.2.2h3.1a.22.22,0,0,0,.2-.2V82.7a5.86,5.86,0,0,0,4.4,2c3.3,0,6.6-2.5,6.6-7.4s-3.3-7.4-6.6-7.4Zm3,7.4c0,2.5-1.5,4.2-3.7,4.2a4.22,4.22,0,0,1,0-8.4c2.2,0,3.7,1.8,3.7,4.2Zm12.2-7.4a7.49,7.49,0,0,0-7.6,7.4,7.55,7.55,0,1,0,7.6-7.4Zm0,11.6a4,4,0,0,1-4-4.2,3.92,3.92,0,0,1,3.9-4.2,4,4,0,0,1,4,4.2A3.81,3.81,0,0,1,95.4,81.5ZM112,70.2h-3.4V66.7a.22.22,0,0,0-.2-.2h-3.1a.22.22,0,0,0-.2.2v3.5h-1.5a.22.22,0,0,0-.2.2v2.7a.22.22,0,0,0,.2.2h1.5v7c0,2.8,1.4,4.3,4.2,4.3a5.43,5.43,0,0,0,2.9-.7c.1,0,.1-.1.1-.2V81.1c0-.1,0-.2-.1-.2H112a3.92,3.92,0,0,1-1.8.4,1.33,1.33,0,0,1-1.5-1.5V73.3h3.5a.22.22,0,0,0,.2-.2V70.4c-.2-.1-.3-.2-.4-.2Zm12.1,0v-.4c0-1.3.5-1.8,1.6-1.8a5.23,5.23,0,0,1,1.8.3h.2c.1,0,.1-.1.1-.2V65.4a.22.22,0,0,0-.2-.2,7.84,7.84,0,0,0-2.6-.4c-2.9,0-4.4,1.6-4.4,4.7v.7h-1.5a.22.22,0,0,0-.2.2v2.7a.22.22,0,0,0,.2.2h1.5V84.1a.22.22,0,0,0,.2.2h3.1a.22.22,0,0,0,.2-.2V73.4H127l4.5,10.8c-.5,1.1-1,1.4-1.7,1.4a3.69,3.69,0,0,1-1.7-.5h-.2a.1.1,0,0,0-.1.1l-1.1,2.3c-.1.1,0,.2.1.3a6.65,6.65,0,0,0,3.4.9c2.3,0,3.6-1.1,4.7-4l5.5-14.1v-.2c0-.1-.1-.1-.2-.1h-3.3a.22.22,0,0,0-.2.2l-3.4,9.6-3.7-9.6c0-.1-.1-.1-.2-.1l-5.3-.2Zm-7,0H114a.22.22,0,0,0-.2.2V84.1a.22.22,0,0,0,.2.2h3.1a.22.22,0,0,0,.2-.2V70.4a.22.22,0,0,0-.2-.2ZM115.5,64a2.3,2.3,0,1,0,0,4.6,2.3,2.3,0,1,0,0-4.6Z"/></svg>