<svg id="Layer_1" data-name="Layer 1" xmlns="http://www.w3.org/2000/svg" viewBox="0 0 150 150"><defs><style>.cls-1{fill:#6a6f82;}</style></defs><path class="cls-1" d="M25.7,72.35a.43.43,0,0,0-.4.4l-.7,5.6.7,5.5a.4.4,0,0,0,.8,0h0l.9-5.5-.9-5.6c-.1-.3-.2-.4-.4-.4Zm4.1-3.1a.4.4,0,0,0-.8,0l-1,9.1,1,8.9a.4.4,0,0,0,.8,0l1.1-8.9-1.1-9.1ZM45.4,61c-.4,0-.7.3-.8.8l-.8,16.7.9,10.6a.86.86,0,0,0,.8.8c.4,0,.7-.3.8-.8h0l.9-10.8-.9-16.7A1,1,0,0,0,45.4,61Zm-8.1,5.7a.58.58,0,0,0-.6.6l-.9,11L36.7,89a.65.65,0,0,0,.6.6.58.58,0,0,0,.6-.6l1-10.7-1-11A.58.58,0,0,0,37.3,66.65Zm16.3,23.2a.9.9,0,0,0,.9-.9l.8-10.6-.8-22.2a.9.9,0,0,0-1.8,0L52,78.35,52.7,89A.9.9,0,0,0,53.6,89.85Zm16.9,0a1.32,1.32,0,0,0,1.3-1.3h0l.5-10.3-.5-25.6a1.3,1.3,0,0,0-2.6,0l-.5,25.7.5,10.3A1.24,1.24,0,0,0,70.5,89.85Zm-8.5,0a1.11,1.11,0,0,0,1.1-1.1h0l.7-10.4-.7-22.3a1.1,1.1,0,0,0-2.2,0l-.6,22.3.6,10.4a1.11,1.11,0,0,0,1.1,1.1Zm-20.6-.1c.4,0,.6-.3.7-.7l1-10.8-1-10.2a.7.7,0,1,0-1.4,0l-.8,10.2.8,10.8A.68.68,0,0,0,41.4,89.75Zm-8-.6a.47.47,0,0,0,.5-.5L35,78.25l-1.1-10.7a.5.5,0,0,0-1,0L32,78.25l.9,10.4a.47.47,0,0,0,.5.5Zm32.8-33.5a1.16,1.16,0,0,0-1.2,1.2l-.5,21.5.5,10.4a1.2,1.2,0,0,0,2.4,0h0l.6-10.4-.6-21.5a1.16,1.16,0,0,0-1.2-1.2ZM49.5,89.85a.79.79,0,0,0,.8-.8l.8-10.7-.8-20.5a.79.79,0,0,0-.8-.8,1,1,0,0,0-.9.8l-.7,20.5.8,10.7A.86.86,0,0,0,49.5,89.85Zm9.3-1h0l.7-10.5-.7-22.9a1,1,0,0,0-1-1,.94.94,0,0,0-1,1l-.6,22.9.6,10.5a1,1,0,0,0,1,1,.94.94,0,0,0,1-1ZM113,65.15a11.17,11.17,0,0,0-4.8,1,21.87,21.87,0,0,0-21.8-19.9,22.65,22.65,0,0,0-7.9,1.5c-.9.4-1.2.7-1.2,1.5v39.4a1.51,1.51,0,0,0,1.3,1.5H113a12.5,12.5,0,0,0,0-25ZM74.7,49.05a1.43,1.43,0,0,0-1.4,1.4l-.6,27.9.6,10.1a1.4,1.4,0,1,0,2.8,0h0l.6-10.1-.6-27.9a1.43,1.43,0,0,0-1.4-1.4ZM34.5,97.85c-1.5-.3-1.9-.5-1.9-1.1,0-.4.3-.8,1.3-.8A2.64,2.64,0,0,1,36,97l1.3-1.3a4.51,4.51,0,0,0-3.4-1.5c-1.8,0-3.3,1-3.3,2.7s1.2,2.4,2.9,2.8,2.1.7,2.1,1.3-.5,1-1.6,1a3,3,0,0,1-2.4-1.1l-1.3,1.2a4.46,4.46,0,0,0,3.6,1.7c2.5,0,3.6-1.2,3.6-2.9.1-2.2-1.5-2.7-3-3Zm8.6-3.8c-2.5,0-4,2-4,4.8s1.5,4.8,4,4.8,4-2,4-4.8S45.6,94.05,43.1,94.05Zm0,7.7c-1.5,0-2.1-1.3-2.1-2.9s.6-2.9,2.1-2.9,2.1,1.3,2.1,2.9S44.6,101.75,43.1,101.75Zm11.4-2.3c0,1.5-.7,2.4-1.9,2.4s-1.9-.9-1.9-2.4v-5.2H48.8v5.2c0,2.7,1.5,4.2,3.7,4.2,2.4,0,3.8-1.5,3.8-4.2v-5.2H54.4v5.2Zm9.9-1.3v2c-.1-.2-.4-.7-.6-1l-3.3-4.9H58.7v9.3h1.8v-6.1c.1.2.4.7.6,1l3.4,5.1h1.7v-9.3H64.4v3.9Zm7.1-3.9H68.6v9.3h2.8A4.37,4.37,0,0,0,76.1,99C76.1,95.45,74.1,94.25,71.5,94.25Zm-.1,7.4h-.9V96h1c2,0,2.8.9,2.8,2.8S73.3,101.65,71.4,101.65ZM81.8,96a1.82,1.82,0,0,1,1.7,1l1.7-.8a3.45,3.45,0,0,0-3.4-2c-2.4,0-4.1,2-4.1,4.8s1.6,4.8,4,4.8a3.47,3.47,0,0,0,3.4-2.1l-1.6-.9a2,2,0,0,1-1.8,1.2c-1.4,0-2.2-1.3-2.2-2.9.1-1.9.9-3.1,2.3-3.1Zm6.9-1.7H86.8v9.3h5.6v-1.8H88.7v-7.5Zm8.6-.2c-2.5,0-4,2-4,4.8s1.5,4.8,4,4.8,4-2,4-4.8-1.5-4.8-4-4.8Zm0,7.7c-1.5,0-2.1-1.3-2.1-2.9s.6-2.9,2.1-2.9,2.1,1.3,2.1,2.9S98.8,101.75,97.3,101.75Zm11.5-2.3c0,1.5-.7,2.4-1.9,2.4s-1.9-.9-1.9-2.4v-5.2h-1.9v5.2c0,2.7,1.5,4.2,3.7,4.2,2.4,0,3.8-1.5,3.8-4.2v-5.2h-1.9v5.2Zm7-5.2h-2.9v9.3h2.8a4.37,4.37,0,0,0,4.7-4.6c0-3.5-1.9-4.7-4.6-4.7Zm-.1,7.4h-.9V96h1c2,0,2.8.9,2.8,2.8S117.6,101.65,115.7,101.65Z"/><path class="cls-1" d="M44.45,31.45a3.81,3.81,0,0,1-1.94.45,3,3,0,0,1-3.19-3.3,3.35,3.35,0,0,1,3.53-3.53,4.94,4.94,0,0,1,1.6.34l-.35.91A2.22,2.22,0,0,0,42.74,26a2.28,2.28,0,0,0-2.28,2.51,2.25,2.25,0,0,0,2.28,2.39,4.13,4.13,0,0,0,1.48-.34Z"/><path class="cls-1" d="M51.61,28.37a3.26,3.26,0,0,1-3.18,3.53,3,3,0,0,1-3.07-3.3,3.21,3.21,0,0,1,3.18-3.53A3,3,0,0,1,51.61,28.37Zm-5.23.12a2.24,2.24,0,0,0,2,2.5,2.32,2.32,0,0,0,2-2.5c0-1.14-.57-2.51-1.94-2.51A2.25,2.25,0,0,0,46.38,28.49Z"/><path class="cls-1" d="M53.09,27A9.47,9.47,0,0,0,53,25.19h1l.12,1h0A2.58,2.58,0,0,1,56.17,25,1.75,1.75,0,0,1,58,26.21h0a2.44,2.44,0,0,1,.68-.8A2,2,0,0,1,60,25c.91,0,2,.57,2,2.84v3.76H60.83V27.92c0-1.25-.45-2.05-1.36-2.05A1.34,1.34,0,0,0,58.1,27a1.27,1.27,0,0,0-.11.57v4H56.74V27.69c0-1-.46-1.82-1.37-1.82a1.69,1.69,0,0,0-1.48,1.25,1.29,1.29,0,0,0-.11.57v3.87h-.69Z"/><path class="cls-1" d="M65.61,23.37c0,.45-.34.68-.79.68a.66.66,0,0,1-.69-.68.73.73,0,0,1,.69-.69A.76.76,0,0,1,65.61,23.37Zm-1.25,8.3V25.19h1.25v6.48Z"/><path class="cls-1" d="M67.43,27a9.47,9.47,0,0,0-.11-1.82h1l.12,1.13h0a2.6,2.6,0,0,1,2.05-1.25c.91,0,2.27.46,2.27,2.85v3.87H71.53V28c0-1-.46-1.93-1.48-1.93a1.69,1.69,0,0,0-1.59,1.25v4.44H67.2V27Z"/><path class="cls-1" d="M80.52,25.19c0,.45-.11,1-.11,1.82v3.75a4,4,0,0,1-.92,3,3.34,3.34,0,0,1-2.38.8,6,6,0,0,1-2.17-.46l.34-.91a3.29,3.29,0,0,0,1.94.46c1.25,0,2-.57,2-2.28v-.68h0a2.69,2.69,0,0,1-2,1.14,3,3,0,0,1-2.85-3.19c0-2.16,1.37-3.53,2.85-3.53a2.2,2.2,0,0,1,2,1.14h0l.11-1ZM79.27,27.8c0-.22,0-.45-.12-.45a1.73,1.73,0,0,0-1.7-1.25c-1.14,0-1.94,1-1.94,2.5,0,1.25.57,2.28,1.94,2.28A1.68,1.68,0,0,0,79,29.63a1.29,1.29,0,0,0,.11-.57l.12-1.26Z"/><path class="cls-1" d="M85.07,30.42a3.28,3.28,0,0,0,1.59.46c.91,0,1.26-.46,1.26-1s-.35-.91-1.26-1.25c-1.25-.45-1.7-1.14-1.7-1.82a2,2,0,0,1,2.16-1.93,2.92,2.92,0,0,1,1.59.45l-.34.91a2,2,0,0,0-1.25-.45,1,1,0,0,0-1.14.91c0,.45.46.79,1.25,1.13,1.14.46,1.71,1,1.71,2.05s-.91,1.94-2.39,1.94a4.24,4.24,0,0,1-1.82-.46Z"/><path class="cls-1" d="M96.45,28.37a3.27,3.27,0,0,1-3.19,3.53,3,3,0,0,1-3.07-3.3,3.21,3.21,0,0,1,3.19-3.53A3,3,0,0,1,96.45,28.37Zm-5.12.12a2.24,2.24,0,0,0,2,2.5,2.32,2.32,0,0,0,2.05-2.5c0-1.14-.57-2.51-1.94-2.51C91.9,26,91.33,27.24,91.33,28.49Z"/><path class="cls-1" d="M103.85,28.37a3.27,3.27,0,0,1-3.19,3.53,3,3,0,0,1-3.07-3.3,3.21,3.21,0,0,1,3.19-3.53A3,3,0,0,1,103.85,28.37Zm-5.12.12a2.24,2.24,0,0,0,2,2.5,2.32,2.32,0,0,0,2-2.5c0-1.14-.57-2.51-1.93-2.51C99.3,26,98.73,27.24,98.73,28.49Z"/><path class="cls-1" d="M105.33,27a8.69,8.69,0,0,0-.12-1.82h1l.11,1.13h0a2.62,2.62,0,0,1,2.05-1.25c.91,0,2.28.46,2.28,2.85v3.87h-1.26V28c0-1-.45-1.93-1.48-1.93a1.71,1.71,0,0,0-1.59,1.25.87.87,0,0,0-.11.57v3.87H105V27Z"/></svg>