<svg id="Layer_1" data-name="Layer 1" xmlns="http://www.w3.org/2000/svg" viewBox="0 0 150 150"><defs><style>.cls-1{fill:#6a6f82;}</style></defs><g id="g8252"><path id="path8175" class="cls-1" d="M42.12,78.91c0,5,3.06,7.91,7.6,7.91,2.22,0,4.22-.63,5.17-2.32v2.32h4.22V63.18H54.89v10a5.38,5.38,0,0,0-5-2.43c-4.64,0-7.81,3.06-7.81,8.13Zm12.77,0c0,2.85-1.9,4.64-4.22,4.64s-4.22-1.79-4.22-4.64,1.9-4.65,4.22-4.65S54.89,76,54.89,78.91Z"/><path id="path8177" class="cls-1" d="M72.41,80.7a3.38,3.38,0,0,1-3.69,2.74c-2.32,0-4.22-1.37-4.22-3.8H75.37a10.93,10.93,0,0,0,.21-1.9c0-4.32-3-6.86-7.39-6.86a7.68,7.68,0,0,0-8,7.92c0,5.07,3.48,8,8.55,8,3.69,0,6.33-1.58,7.39-4.64Zm-7.91-4a3.51,3.51,0,0,1,3.59-2.75c1.9,0,3.27,1.06,3.27,2.64v.11Z"/><path id="path8179" class="cls-1" d="M88.35,80.7a3.38,3.38,0,0,1-3.69,2.74c-2.32,0-4.22-1.37-4.22-3.8H91.31a10.93,10.93,0,0,0,.21-1.9c0-4.32-3-6.86-7.39-6.86a7.68,7.68,0,0,0-8,7.92c0,5.07,3.48,8,8.55,8,3.69,0,6.33-1.58,7.39-4.64Zm-7.91-4A3.51,3.51,0,0,1,84,73.94c1.9,0,3.28,1.06,3.28,2.64v.11Z"/><path id="path8181" class="cls-1" d="M106.61,86.82v-3.9h-9l8.76-8.55V70.88H92.57v3.7h8.55l-8.86,8.55v3.69Z"/><path id="path8183" class="cls-1" d="M119.17,80.7a3.38,3.38,0,0,1-3.69,2.74c-2.32,0-4.22-1.37-4.22-3.8h10.87a10.93,10.93,0,0,0,.21-1.9c0-4.32-3-6.86-7.39-6.86a7.68,7.68,0,0,0-8,7.92c0,5.07,3.48,8,8.55,8,3.69,0,6.33-1.58,7.39-4.64Zm-7.91-4a3.51,3.51,0,0,1,3.58-2.75c1.9,0,3.28,1.06,3.28,2.64v.11Z"/><rect id="rect8185" class="cls-1" x="32.41" y="70.78" width="5.28" height="3.06"/><rect id="rect8192" class="cls-1" x="32.41" y="75.11" width="5.28" height="3.06"/><rect id="rect8199" class="cls-1" x="32.41" y="79.43" width="5.28" height="3.06"/><rect id="rect8206" class="cls-1" x="13.2" y="83.66" width="5.28" height="3.06"/><rect id="rect8213" class="cls-1" x="19.53" y="83.66" width="5.28" height="3.06"/><rect id="rect8220" class="cls-1" x="25.97" y="83.66" width="5.28" height="3.06"/><rect id="rect8227" class="cls-1" x="32.41" y="83.66" width="5.28" height="3.06"/><rect id="rect8234" class="cls-1" x="25.97" y="79.43" width="5.28" height="3.06"/><rect id="rect8241" class="cls-1" x="19.53" y="79.43" width="5.28" height="3.06"/><rect id="rect8248" class="cls-1" x="19.53" y="75.11" width="5.28" height="3.06"/><path id="path8250" class="cls-1" d="M132.58,76.37v.42h4.22V75.63a4.46,4.46,0,0,0-4.64-4.75,3.87,3.87,0,0,0-3.8,2.43V70.88h-4.44V86.82h4.33V76.48c0-1.69.84-2.54,2.22-2.54A2.34,2.34,0,0,1,132.58,76.37Z"/></g><path class="cls-1" d="M44.45,31.45a3.81,3.81,0,0,1-1.94.45,3,3,0,0,1-3.19-3.3,3.35,3.35,0,0,1,3.53-3.53,4.94,4.94,0,0,1,1.6.34l-.35.91A2.22,2.22,0,0,0,42.74,26a2.28,2.28,0,0,0-2.28,2.51,2.25,2.25,0,0,0,2.28,2.39,4.13,4.13,0,0,0,1.48-.34Z"/><path class="cls-1" d="M51.61,28.37a3.26,3.26,0,0,1-3.18,3.53,3,3,0,0,1-3.07-3.3,3.21,3.21,0,0,1,3.18-3.53A3,3,0,0,1,51.61,28.37Zm-5.23.12a2.24,2.24,0,0,0,2,2.5,2.32,2.32,0,0,0,2-2.5c0-1.14-.57-2.51-1.94-2.51A2.25,2.25,0,0,0,46.38,28.49Z"/><path class="cls-1" d="M53.09,27A9.47,9.47,0,0,0,53,25.19h1l.12,1h0A2.58,2.58,0,0,1,56.17,25,1.75,1.75,0,0,1,58,26.21h0a2.44,2.44,0,0,1,.68-.8A2,2,0,0,1,60,25c.91,0,2,.57,2,2.84v3.76H60.83V27.92c0-1.25-.45-2.05-1.36-2.05A1.34,1.34,0,0,0,58.1,27a1.27,1.27,0,0,0-.11.57v4H56.74V27.69c0-1-.46-1.82-1.37-1.82a1.69,1.69,0,0,0-1.48,1.25,1.29,1.29,0,0,0-.11.57v3.87h-.69Z"/><path class="cls-1" d="M65.61,23.37c0,.45-.34.68-.79.68a.66.66,0,0,1-.69-.68.73.73,0,0,1,.69-.69A.76.76,0,0,1,65.61,23.37Zm-1.25,8.3V25.19h1.25v6.48Z"/><path class="cls-1" d="M67.43,27a9.47,9.47,0,0,0-.11-1.82h1l.12,1.13h0a2.6,2.6,0,0,1,2.05-1.25c.91,0,2.27.46,2.27,2.85v3.87H71.53V28c0-1-.46-1.93-1.48-1.93a1.69,1.69,0,0,0-1.59,1.25v4.44H67.2V27Z"/><path class="cls-1" d="M80.52,25.19c0,.45-.11,1-.11,1.82v3.75a4,4,0,0,1-.92,3,3.34,3.34,0,0,1-2.38.8,6,6,0,0,1-2.17-.46l.34-.91a3.29,3.29,0,0,0,1.94.46c1.25,0,2-.57,2-2.28v-.68h0a2.69,2.69,0,0,1-2,1.14,3,3,0,0,1-2.85-3.19c0-2.16,1.37-3.53,2.85-3.53a2.2,2.2,0,0,1,2,1.14h0l.11-1ZM79.27,27.8c0-.22,0-.45-.12-.45a1.73,1.73,0,0,0-1.7-1.25c-1.14,0-1.94,1-1.94,2.5,0,1.25.57,2.28,1.94,2.28A1.68,1.68,0,0,0,79,29.63a1.29,1.29,0,0,0,.11-.57l.12-1.26Z"/><path class="cls-1" d="M85.07,30.42a3.28,3.28,0,0,0,1.59.46c.91,0,1.26-.46,1.26-1s-.35-.91-1.26-1.25c-1.25-.45-1.7-1.14-1.7-1.82a2,2,0,0,1,2.16-1.93,2.92,2.92,0,0,1,1.59.45l-.34.91a2,2,0,0,0-1.25-.45,1,1,0,0,0-1.14.91c0,.45.46.79,1.25,1.13,1.14.46,1.71,1,1.71,2.05s-.91,1.94-2.39,1.94a4.24,4.24,0,0,1-1.82-.46Z"/><path class="cls-1" d="M96.45,28.37a3.27,3.27,0,0,1-3.19,3.53,3,3,0,0,1-3.07-3.3,3.21,3.21,0,0,1,3.19-3.53A3,3,0,0,1,96.45,28.37Zm-5.12.12a2.24,2.24,0,0,0,2,2.5,2.32,2.32,0,0,0,2.05-2.5c0-1.14-.57-2.51-1.94-2.51C91.9,26,91.33,27.24,91.33,28.49Z"/><path class="cls-1" d="M103.85,28.37a3.27,3.27,0,0,1-3.19,3.53,3,3,0,0,1-3.07-3.3,3.21,3.21,0,0,1,3.19-3.53A3,3,0,0,1,103.85,28.37Zm-5.12.12a2.24,2.24,0,0,0,2,2.5,2.32,2.32,0,0,0,2-2.5c0-1.14-.57-2.51-1.93-2.51C99.3,26,98.73,27.24,98.73,28.49Z"/><path class="cls-1" d="M105.33,27a8.69,8.69,0,0,0-.12-1.82h1l.11,1.13h0a2.62,2.62,0,0,1,2.05-1.25c.91,0,2.28.46,2.28,2.85v3.87h-1.26V28c0-1-.45-1.93-1.48-1.93a1.71,1.71,0,0,0-1.59,1.25.87.87,0,0,0-.11.57v3.87H105V27Z"/></svg>