<?xml version="1.0" encoding="utf-8"?>
<!-- Generator: Adobe Illustrator 25.1.0, SVG Export Plug-In . SVG Version: 6.00 Build 0)  -->
<svg version="1.1" id="Layer_2_1_" xmlns="http://www.w3.org/2000/svg" xmlns:xlink="http://www.w3.org/1999/xlink" x="0px" y="0px"
	 viewBox="0 0 160 120" style="enable-background:new 0 0 160 120;" xml:space="preserve">
<style type="text/css">
	.st0{fill-rule:evenodd;clip-rule:evenodd;fill:#EFEFEF;}
	.st1{fill-rule:evenodd;clip-rule:evenodd;fill:#D3D3D3;}
	.st2{fill-rule:evenodd;clip-rule:evenodd;fill:#CCCCCC;}
	.st3{fill-rule:evenodd;clip-rule:evenodd;fill:#DDDDDD;}
	.st4{fill:#EFEFEF;}
</style>
<path class="st4" d="M133.7-0.1H66.3C51.8-0.1,40,11.7,40,26.2v67.4c0,14.5,11.8,26.3,26.3,26.3h67.4c14.5,0,26.3-11.8,26.3-26.3
	V26.2C160,11.7,148.2-0.1,133.7-0.1z M78.5,87l-4.1,7.1c-1.5,2.6-4.8,3.5-7.4,2c-2.6-1.5-3.5-4.8-2-7.4l3-5.2l0.3-0.5
	c0.5-0.7,1.8-2,4.4-1.8c0,0,6,0.7,6.5,3.8C79.1,85,79.1,86,78.5,87L78.5,87z M109.8,79.7h-2.6v0H62.5c-3,0-5.4-2.4-5.4-5.4
	c0-3,2.4-5.4,5.4-5.4h12.2c2-0.1,2.4-1.2,2.4-1.2l0,0L93,40.2l0,0c0.3-0.5,0-1,0-1.1L87.8,30c-1.5-2.6-0.6-5.9,2-7.4
	c2.6-1.5,5.9-0.6,7.4,2l2.4,4.2l2.4-4.2c1.5-2.6,4.8-3.5,7.4-2s3.5,4.8,2,7.4L89.3,68.2c-0.1,0.2-0.1,0.6,0.6,0.7h13.2l0,0.1
	c0,0,7.6,0.1,8.7,7.2C111.8,76.3,112.5,79.7,109.8,79.7z M136.6,79.7h-6.5c-1,0-0.8,0.5-0.7,0.7l4.8,8.2c1.5,2.6,0.6,5.9-2,7.4
	c-2.6,1.5-5.9,0.6-7.4-2l-19-32.9c-1-2-3.9-8.7-1.4-14.6c0,0,2.1-5.3,3.5-3.2l0.8,1.2l0,0l13.7,23.7l0,0c0.1,0.2,0.5,0.5,1.4,0.6
	h12.8c3,0,5.4,2.4,5.4,5.4C142.1,77.3,139.6,79.7,136.6,79.7z"/>
</svg>
