<?xml version="1.0" encoding="utf-8"?>
<!-- Generator: Adobe Illustrator 25.1.0, SVG Export Plug-In . SVG Version: 6.00 Build 0)  -->
<svg version="1.1" id="Layer_2_1_" xmlns="http://www.w3.org/2000/svg" xmlns:xlink="http://www.w3.org/1999/xlink" x="0px" y="0px"
	 viewBox="0 0 156.3 120" style="enable-background:new 0 0 156.3 120;" xml:space="preserve">
<style type="text/css">
	.st0{fill-rule:evenodd;clip-rule:evenodd;fill:#EFEFEF;}
	.st1{fill-rule:evenodd;clip-rule:evenodd;fill:#D3D3D3;}
	.st2{fill-rule:evenodd;clip-rule:evenodd;fill:#CCCCCC;}
	.st3{fill-rule:evenodd;clip-rule:evenodd;fill:#DDDDDD;}
	.st4{fill:#EFEFEF;}
</style>
<path id="path1192" class="st0" d="M50.8,1.8c-1.3,1.4-2.1,3.7-2.1,6.6v103.1c0,2.9,0.8,5.1,2.2,6.5l0.4,0.3L109,60.6v-1.3L51.1,1.5
	C51.1,1.5,50.8,1.8,50.8,1.8z"/>
<path id="path1203" class="st1" d="M128.2,79.9l-19.3-19.3v-1.3L128.2,40l0.4,0.3l22.8,13c6.5,3.7,6.5,9.7,0,13.5l-22.8,13
	C128.6,79.7,128.2,79.9,128.2,79.9L128.2,79.9z"/>
<path id="path1210" class="st2" d="M128.6,79.7L108.9,60l-58.2,58.2c2.1,2.3,5.7,2.5,9.7,0.3L128.6,79.7"/>
<path id="path1223" class="st3" d="M128.6,40.3L60.4,1.6c-4-2.3-7.6-2-9.7,0.3L108.9,60L128.6,40.3z"/>
</svg>
